<svg width="120" height="40" fill="none" xmlns="http://www.w3.org/2000/svg"><rect width="120" height="40" rx="12" fill="#090D14"/><rect x=".5" y=".5" width="119" height="39" rx="11.5" stroke="#E0E0FF" stroke-opacity=".24"/><path fill-rule="evenodd" clip-rule="evenodd" d="M74.68 29.076c-1.636 0-2.832-.808-2.97-2.04h-1.902c.12 2.246 1.98 3.667 4.733 3.667 2.944 0 4.794-1.455 4.794-3.778 0-1.817-1.058-2.84-3.606-3.443l-1.368-.335c-1.6-.396-2.255-.913-2.255-1.79 0-1.102 1.024-1.859 2.521-1.859 1.498 0 2.522.748 2.634 1.987h1.876c-.06-2.142-1.86-3.614-4.483-3.614-2.652 0-4.519 1.472-4.519 3.614 0 1.73 1.059 2.797 3.34 3.348l1.609.388c1.609.395 2.289.972 2.289 1.936 0 1.11-1.127 1.92-2.694 1.92ZM42.301 27.14H37.57l-1.137 3.356h-2.005l4.484-12.418h2.083l4.483 12.418h-2.039l-1.136-3.356Zm-4.243-1.55h3.752l-1.85-5.446h-.051l-1.85 5.447Zm17.1.38c0 2.813-1.505 4.62-3.778 4.62a3.07 3.07 0 0 1-2.848-1.583h-.043v4.484H46.63V21.442h1.8v1.506h.033a3.212 3.212 0 0 1 2.883-1.6c2.298 0 3.813 1.816 3.813 4.622Zm-1.91 0c0-1.833-.947-3.038-2.392-3.038-1.42 0-2.375 1.23-2.375 3.038 0 1.824.955 3.046 2.375 3.046 1.445 0 2.392-1.197 2.392-3.046Zm8.097 4.62c2.273 0 3.779-1.807 3.779-4.62 0-2.806-1.515-4.622-3.813-4.622a3.212 3.212 0 0 0-2.883 1.6h-.034v-1.506h-1.799v12.05h1.859v-4.485h.043a3.07 3.07 0 0 0 2.848 1.584Zm-.524-7.658c1.445 0 2.392 1.205 2.392 3.038 0 1.85-.947 3.046-2.392 3.046-1.42 0-2.375-1.222-2.375-3.046 0-1.808.955-3.038 2.375-3.038ZM83.346 19.3v2.142h1.722v1.472h-1.722v4.991c0 .776.345 1.137 1.102 1.137.204-.004.408-.018.611-.043v1.463c-.34.064-.686.092-1.032.086-1.833 0-2.548-.689-2.548-2.444v-5.19h-1.316v-1.472h1.316V19.3h1.867Zm2.719 6.67c0-2.849 1.678-4.639 4.294-4.639 2.625 0 4.295 1.79 4.295 4.639 0 2.856-1.661 4.639-4.295 4.639-2.633 0-4.294-1.783-4.294-4.64Zm6.695 0c0-1.954-.895-3.108-2.401-3.108-1.506 0-2.4 1.163-2.4 3.108 0 1.962.894 3.106 2.4 3.106 1.506 0 2.401-1.144 2.401-3.106Zm3.426-4.528h1.772v1.541h.043a2.16 2.16 0 0 1 2.178-1.635c.214-.001.428.022.637.069v1.738a2.597 2.597 0 0 0-.835-.112 1.873 1.873 0 0 0-1.937 2.083v5.37h-1.858v-9.054Zm13.198 6.395c-.25 1.643-1.85 2.771-3.898 2.771-2.634 0-4.269-1.764-4.269-4.595 0-2.84 1.644-4.682 4.191-4.682 2.505 0 4.08 1.72 4.08 4.466v.637h-6.395v.112a2.36 2.36 0 0 0 2.436 2.564 2.049 2.049 0 0 0 2.091-1.273h1.764Zm-6.282-2.702h4.526a2.174 2.174 0 0 0-2.22-2.298 2.291 2.291 0 0 0-2.306 2.298ZM95.705 8.437h.88v2.482h.07a1.386 1.386 0 0 1 1.374-.807 1.484 1.484 0 0 1 1.55 1.678v2.908h-.889V12.01c0-.72-.335-1.084-.963-1.084a1.052 1.052 0 0 0-1.134 1.142v2.63h-.888V8.437Zm-2.19.637v1.141h.976v.749h-.976v2.315c0 .472.195.678.637.678.113 0 .226-.007.339-.02v.74c-.16.029-.322.044-.484.046-.988 0-1.382-.348-1.382-1.216v-2.543h-.714v-.749h.715V9.074h.89Zm11.246 4.408a1.828 1.828 0 0 1-1.951 1.303 2.047 2.047 0 0 1-2.08-2.325 2.078 2.078 0 0 1 2.076-2.352c1.253 0 2.009.856 2.009 2.27v.31h-3.18v.05a1.189 1.189 0 0 0 1.199 1.29 1.08 1.08 0 0 0 1.072-.546h.855Zm-3.126-1.451h2.275a1.09 1.09 0 0 0-1.109-1.167 1.153 1.153 0 0 0-1.166 1.167Zm-63.809-3.3a2.64 2.64 0 0 1 2.808 2.965c0 1.906-1.03 3.002-2.808 3.002h-2.155V8.73h2.155Zm-1.228 5.123h1.125a1.876 1.876 0 0 0 1.967-2.146 1.88 1.88 0 0 0-1.967-2.134h-1.125v4.28Zm48.071-3.66h.856v.716h.066c.231-.527.77-.849 1.344-.802a1.464 1.464 0 0 1 1.559 1.675v2.915h-.889v-2.692c0-.724-.315-1.084-.972-1.084a1.033 1.033 0 0 0-1.075 1.141v2.635h-.889v-4.503Zm-4.44.235a2.133 2.133 0 0 0-.999 2.015 2.134 2.134 0 1 0 4.247 0 2.133 2.133 0 0 0-3.248-2.015Zm1.126.469c.77 0 1.208.57 1.208 1.546 0 .98-.439 1.55-1.208 1.55-.772 0-1.207-.566-1.207-1.55 0-.976.434-1.546 1.207-1.546Zm-39.674 1.546a2.133 2.133 0 1 1 4.247 0 2.134 2.134 0 1 1-4.247 0Zm3.333 0c0-.976-.439-1.546-1.208-1.546-.773 0-1.207.57-1.207 1.546 0 .984.434 1.55 1.207 1.55.77 0 1.208-.57 1.208-1.55Zm6.56 2.254h-.923l-.93-3.317h-.07l-.927 3.317h-.913l-1.242-4.503h.902l.806 3.436h.067l.925-3.436h.853l.926 3.436h.07l.803-3.436h.889l-1.237 4.503Zm3.135-4.503h-.856v4.503h.89v-2.635a1.033 1.033 0 0 1 1.074-1.14c.658 0 .972.36.972 1.083v2.692h.889v-2.915a1.464 1.464 0 0 0-1.559-1.675 1.348 1.348 0 0 0-1.344.802h-.066v-.715Zm4.385-1.758h.888v6.26h-.888v-6.26Zm2.124 4.007a2.134 2.134 0 1 1 4.247 0 2.134 2.134 0 1 1-4.247 0Zm3.333 0c0-.976-.439-1.546-1.208-1.546-.773 0-1.207.57-1.207 1.546 0 .984.434 1.55 1.207 1.55.77 0 1.208-.57 1.208-1.55Zm3.525-.364c-1.072.066-1.675.534-1.675 1.344a1.36 1.36 0 0 0 1.5 1.348 1.515 1.515 0 0 0 1.353-.707h.07v.633h.856V11.62c0-.951-.637-1.513-1.765-1.513-1.022 0-1.75.496-1.84 1.27h.86c.099-.319.442-.501.939-.501.607 0 .921.268.921.744v.389l-1.22.07Zm1.22.583v.377a1.061 1.061 0 0 1-1.167.984c-.483 0-.835-.236-.835-.641 0-.397.282-.608.902-.65l1.1-.07Zm2.052-.219c0-1.423.732-2.324 1.87-2.324a1.484 1.484 0 0 1 1.38.79h.067V8.437h.888v6.26h-.851v-.71h-.07a1.563 1.563 0 0 1-1.415.785c-1.145 0-1.869-.901-1.869-2.328Zm.918 0c0 .955.45 1.53 1.203 1.53.75 0 1.212-.583 1.212-1.526 0-.938-.468-1.53-1.212-1.53-.748 0-1.203.58-1.203 1.526ZM23.152 8.72a4.872 4.872 0 0 1-1.115 3.49 4.099 4.099 0 0 1-3.236 1.531 4.636 4.636 0 0 1 1.143-3.361 4.957 4.957 0 0 1 3.208-1.66Zm3.973 7.429A4.949 4.949 0 0 0 24.77 20.3a4.782 4.782 0 0 0 2.92 4.399 10.963 10.963 0 0 1-1.52 3.092c-.894 1.338-1.831 2.645-3.32 2.67-.708.016-1.186-.188-1.683-.4-.52-.221-1.06-.452-1.908-.452-.898 0-1.463.238-2.009.468-.471.198-.927.39-1.57.417-1.418.052-2.5-1.428-3.428-2.754-1.852-2.706-3.295-7.627-1.361-10.976a5.315 5.315 0 0 1 4.473-2.727c.804-.017 1.575.293 2.252.564.517.208.978.394 1.356.394.333 0 .781-.178 1.304-.386.824-.327 1.832-.727 2.86-.62 1.595.05 3.074.85 3.99 2.159Z" fill="#fff"/></svg>