<svg width="180" height="132" fill="none" xmlns="http://www.w3.org/2000/svg"><path d="M126 124c20.435 0 37-16.565 37-37 0-20.434-16.565-37-37-37S89 66.566 89 87c0 20.435 16.565 37 37 37Z" fill="url(#a)"/><rect x="19" y="33" width="107" height="73" rx="8" fill="url(#b)"/><rect x="19" y="33" width="107" height="73" rx="8" fill="#8B65C9" fill-opacity=".24"/><rect x="25" y="27" width="107" height="73" rx="8" fill="url(#c)"/><rect x="37" y="39" width="83" height="2" rx="1" fill="#DEDAF5"/><rect x="37" y="47" width="64" height="2" rx="1" fill="#DEDAF5"/><rect x="37" y="61" width="17" height="2" rx="1" fill="#DEDAF5"/><rect x="37" y="69" width="24" height="2" rx="1" fill="#DEDAF5"/><rect x="37" y="86" width="83" height="2" rx="1" fill="#DEDAF5"/><defs><linearGradient id="a" x1="52" y1="87" x2="126" y2="161" gradientUnits="userSpaceOnUse"><stop stop-color="#0BF"/><stop offset=".53" stop-color="#9C42F5"/><stop offset="1" stop-color="#5D2DE1"/></linearGradient><linearGradient id="b" x1="96.704" y1="44.188" x2="71.347" y2="129.041" gradientUnits="userSpaceOnUse"><stop stop-color="#fff"/><stop offset=".996" stop-color="#EBEFF2"/></linearGradient><linearGradient id="c" x1="102.704" y1="38.188" x2="77.347" y2="123.041" gradientUnits="userSpaceOnUse"><stop stop-color="#fff"/><stop offset=".996" stop-color="#EBEFF2"/></linearGradient></defs></svg>