<svg width="180" height="132" viewBox="0 0 180 132" fill="none" xmlns="http://www.w3.org/2000/svg">
<path d="M126 124C146.435 124 163 107.435 163 87C163 66.5655 146.435 50 126 50C105.565 50 89 66.5655 89 87C89 107.435 105.565 124 126 124Z" fill="url(#paint0_linear_1702_4271)"/>
<rect x="19" y="33" width="107" height="73" rx="8" fill="url(#paint1_linear_1702_4271)"/>
<rect x="19" y="33" width="107" height="73" rx="8" fill="#8B65C9" fill-opacity="0.24"/>
<rect x="25" y="27" width="107" height="73" rx="8" fill="url(#paint2_linear_1702_4271)"/>
<rect x="37" y="39" width="83" height="2" rx="1" fill="#DEDAF5"/>
<rect x="37" y="47" width="64" height="2" rx="1" fill="#DEDAF5"/>
<rect x="37" y="61" width="17" height="2" rx="1" fill="#DEDAF5"/>
<rect x="37" y="69" width="24" height="2" rx="1" fill="#DEDAF5"/>
<rect x="37" y="86" width="83" height="2" rx="1" fill="#DEDAF5"/>
<defs>
<linearGradient id="paint0_linear_1702_4271" x1="52" y1="87" x2="126" y2="161" gradientUnits="userSpaceOnUse">
<stop stop-color="#00BBFF"/>
<stop offset="0.529825" stop-color="#9C42F5"/>
<stop offset="1" stop-color="#5D2DE1"/>
</linearGradient>
<linearGradient id="paint1_linear_1702_4271" x1="96.7037" y1="44.188" x2="71.3472" y2="129.041" gradientUnits="userSpaceOnUse">
<stop stop-color="white"/>
<stop offset="0.9964" stop-color="#EBEFF2"/>
</linearGradient>
<linearGradient id="paint2_linear_1702_4271" x1="102.704" y1="38.188" x2="77.3472" y2="123.041" gradientUnits="userSpaceOnUse">
<stop stop-color="white"/>
<stop offset="0.9964" stop-color="#EBEFF2"/>
</linearGradient>
</defs>
</svg>
