<svg width="24" height="24" fill="none" xmlns="http://www.w3.org/2000/svg"><rect x="2" y="2" width="20" height="20" rx="10" fill="#F3BA2F"/><path fill-rule="evenodd" clip-rule="evenodd" d="M9.087 10.803 12 7.89l2.915 2.915L16.61 9.11 12 4.5 7.392 9.108l1.695 1.695Zm-2.892-.498L7.89 12l-1.695 1.695L4.5 12l1.695-1.695ZM12 16.11l-2.913-2.913L7.39 14.89l.002.002L12 19.5l4.61-4.61-1.695-1.695L12 16.11ZM19.5 12l-1.695 1.696L16.11 12l1.695-1.695L19.5 12Zm-5.78 0L12 13.72l-1.718-1.718-.003-.002.003-.002.3-.302.147-.146L12 10.28 13.72 12Z" fill="#fff"/></svg>