<svg width="24" height="24" fill="none" xmlns="http://www.w3.org/2000/svg"><rect x="2" y="2.001" width="20" height="20" rx="10" fill="#F7931A"/><path fill-rule="evenodd" clip-rule="evenodd" d="M16.408 10.575c.199-1.33-.814-2.046-2.2-2.523l.45-1.802-1.097-.274-.438 1.755c-.288-.072-.584-.14-.879-.207l.44-1.766-1.096-.274-.45 1.802a36.696 36.696 0 0 1-.7-.164l.001-.006-1.513-.378-.292 1.172s.814.187.797.198c.444.111.525.405.511.638L9.43 10.8c.031.007.07.019.114.036l-.037-.009-.078-.02-.718 2.877c-.054.135-.192.338-.503.26.011.017-.797-.198-.797-.198l-.545 1.256 1.428.355c.16.04.317.082.473.122l.309.08-.454 1.824 1.096.273.45-1.804c.299.081.59.156.874.227l-.448 1.795 1.097.274.454-1.82c1.871.354 3.278.211 3.87-1.48.477-1.363-.024-2.15-1.008-2.662.717-.165 1.257-.637 1.4-1.61ZM13.9 14.091c-.31 1.25-2.267.734-3.163.497l-.214-.055.603-2.416c.075.019.166.04.27.063.925.207 2.823.633 2.504 1.911Zm-2.319-3.032c.747.2 2.375.634 2.658-.502.29-1.162-1.293-1.513-2.065-1.684a9.352 9.352 0 0 1-.227-.052l-.546 2.19.18.048Z" fill="#fff"/></svg>