<svg width="24" height="24" fill="none" xmlns="http://www.w3.org/2000/svg"><path d="M12.164 2C17.713 2 22.21 6.477 22.21 12s-4.497 10-10.046 10C6.616 22 2.12 17.523 2.12 12S6.616 2 12.164 2Z" fill="#97C554"/><path d="M7.135 16.206c.502.529 3.258 3.064 7.584.122 3.129-2.425 3.05-7.683 2.75-9.271-.105.23-3.738 8.152-10.334 9.149Zm10.334-9.15c-.039-.016-4.064-.562-8.042 1.989-2.471 1.584-2.798 3.902-2.685 5.447 5.784-.644 10.595-7.255 10.726-7.436Z" fill="#fff"/><path d="M17.468 7.056c-.038-.016-4.063-.562-8.041 1.989-2.471 1.584-2.798 3.902-2.685 5.447 5.784-.644 10.595-7.255 10.726-7.436Z" fill="#fff"/></svg>