<svg width="24" height="24" fill="none" xmlns="http://www.w3.org/2000/svg"><path d="M12.164 2C17.713 2 22.21 6.477 22.21 12s-4.497 10-10.046 10C6.616 22 2.12 17.523 2.12 12S6.616 2 12.164 2Z" fill="#159E49"/><path d="M14.765 15.851c-.192.18-.416.32-.66.408a1.878 1.878 0 0 1-.763.11H10.53v-3.758h2.837a2.097 2.097 0 0 1 1.398.518c.173.175.31.386.4.619.09.233.133.482.125.733a1.68 1.68 0 0 1-.104.75c-.091.239-.235.451-.42.62Zm-4.234-8.316h2.541c.478-.02.943.158 1.295.493.182.153.328.347.426.567.099.22.147.462.142.705.009.231-.031.462-.118.676a1.58 1.58 0 0 1-.382.56 1.839 1.839 0 0 1-1.296.475h-2.61l.002-3.476Zm6.521 5.313a3.105 3.105 0 0 0-1.44-1.168c.481-.22.89-.58 1.176-1.037.304-.485.46-1.054.45-1.633a3.115 3.115 0 0 0-.305-1.3 2.812 2.812 0 0 0-.771-1.036 3.503 3.503 0 0 0-1.176-.72 4.732 4.732 0 0 0-1.5-.202H7.142v1.65c.23.003.46.053.673.147.212.094.405.23.567.401.162.172.29.374.377.597.086.222.13.46.127.7.003.24-.04.476-.127.697a1.826 1.826 0 0 1-.374.594c-.161.17-.353.306-.565.4a1.7 1.7 0 0 1-.67.145h-.008v1.502c.467.004.913.201 1.24.547.328.346.509.812.504 1.297v.307a1.86 1.86 0 0 1-.512 1.28 1.73 1.73 0 0 1-1.232.538v1.695h6.624a4.18 4.18 0 0 0 1.55-.263c.449-.144.864-.384 1.22-.703.334-.307.597-.688.77-1.115.2-.44.302-.92.297-1.405a3.278 3.278 0 0 0-.517-1.915h-.034Z" fill="#fff"/></svg>