<svg width="747" height="477" viewBox="0 0 747 477" fill="none" xmlns="http://www.w3.org/2000/svg">
<rect x="527" y="477" width="219" height="220" rx="109.5" transform="rotate(-90 527 477)" fill="url(#paint0_linear_1644_138)"/>
<g filter="url(#filter0_dddd_1644_138)">
<path d="M31.7797 175.098C25.9063 153.178 22.9696 142.218 24.9922 132.703C26.7712 124.333 31.1544 116.741 37.5134 111.015C44.7426 104.506 55.7025 101.569 77.6222 95.696L372.142 16.7797C394.061 10.9063 405.021 7.96958 414.536 9.99211C422.906 11.7712 430.498 16.1543 436.224 22.5133C442.733 29.7425 445.67 40.7024 451.543 62.6222L485.889 190.802C491.762 212.721 494.699 223.681 492.676 233.197C490.897 241.567 486.514 249.158 480.155 254.884C472.926 261.393 461.966 264.33 440.046 270.203L145.527 349.12C123.607 354.993 112.647 357.93 103.132 355.907C94.762 354.128 87.1702 349.745 81.4445 343.386C74.9353 336.157 71.9986 325.197 66.1252 303.277L31.7797 175.098Z" fill="url(#paint1_linear_1644_138)"/>
</g>
<path d="M29.9444 168.249L449.708 55.7732L462.555 103.718L42.7912 216.194L29.9444 168.249Z" fill="white"/>
<path opacity="0.24" d="M98.4475 267.35C95.1171 254.92 102.493 242.145 114.922 238.815L139.384 232.26C151.813 228.93 164.589 236.306 167.919 248.735C171.249 261.164 163.873 273.939 151.444 277.27L126.983 283.824C114.553 287.155 101.778 279.779 98.4475 267.35Z" fill="white"/>
<g filter="url(#filter1_dddd_1644_138)">
<path d="M66.5719 192.493C60.6985 170.573 57.7619 159.613 59.7844 150.098C61.5635 141.728 65.9466 134.137 72.3056 128.411C79.5348 121.902 90.4947 118.965 112.414 113.092L406.934 34.1752C428.854 28.3018 439.813 25.3651 449.329 27.3876C457.699 29.1667 465.29 33.5498 471.016 39.9088C477.525 47.138 480.462 58.0979 486.335 80.0177L520.681 208.197C526.554 230.117 529.491 241.077 527.468 250.592C525.689 258.962 521.306 266.554 514.947 272.28C507.718 278.789 496.758 281.725 474.838 287.599L180.319 366.515C158.399 372.389 147.439 375.325 137.924 373.303C129.554 371.524 121.962 367.141 116.237 360.782C109.728 353.552 106.791 342.592 100.917 320.673L66.5719 192.493Z" fill="url(#paint2_linear_1644_138)"/>
</g>
<path d="M64.7366 185.645L484.5 73.1687L497.347 121.114L77.5834 233.59L64.7366 185.645Z" fill="white"/>
<path opacity="0.24" d="M133.24 284.745C129.909 272.316 137.285 259.54 149.714 256.21L174.176 249.656C186.605 246.325 199.381 253.701 202.711 266.13C206.041 278.559 198.666 291.335 186.236 294.665L161.775 301.22C149.346 304.55 136.57 297.174 133.24 284.745Z" fill="white"/>
<g filter="url(#filter2_dddd_1644_138)">
<path d="M101.364 209.89C95.4908 187.97 92.5541 177.01 94.5766 167.495C96.3557 159.125 100.739 151.533 107.098 145.807C114.327 139.298 125.287 136.361 147.207 130.488L441.726 51.5717C463.646 45.6983 474.606 42.7616 484.121 44.7841C492.491 46.5632 500.083 50.9463 505.808 57.3053C512.318 64.5345 515.254 75.4944 521.128 97.4142L555.473 225.594C561.346 247.513 564.283 258.473 562.261 267.989C560.482 276.359 556.098 283.95 549.739 289.676C542.51 296.185 531.55 299.122 509.631 304.995L215.111 383.912C193.191 389.785 182.232 392.722 172.716 390.699C164.346 388.92 156.755 384.537 151.029 378.178C144.52 370.949 141.583 359.989 135.71 338.069L101.364 209.89Z" fill="url(#paint3_linear_1644_138)"/>
</g>
<path d="M99.5289 203.041L519.292 90.5652L532.139 138.51L112.376 250.986L99.5289 203.041Z" fill="white"/>
<path opacity="0.24" d="M168.032 302.142C164.702 289.712 172.077 276.937 184.507 273.607L208.968 267.052C221.397 263.722 234.173 271.098 237.503 283.527C240.834 295.956 233.458 308.731 221.029 312.062L196.567 318.616C184.138 321.947 171.362 314.571 168.032 302.142Z" fill="white"/>
<g filter="url(#filter3_dddd_1644_138)">
<path d="M136.156 227.285C130.283 205.365 127.346 194.405 129.369 184.89C131.148 176.52 135.531 168.929 141.89 163.203C149.119 156.694 160.079 153.757 181.999 147.884L476.518 68.9673C498.438 63.0939 509.398 60.1573 518.913 62.1798C527.283 63.9589 534.875 68.342 540.601 74.701C547.11 81.9302 550.046 92.8901 555.92 114.81L590.265 242.989C596.139 264.909 599.076 275.869 597.053 285.384C595.274 293.754 590.891 301.346 584.532 307.072C577.303 313.581 566.343 316.518 544.423 322.391L249.904 401.307C227.984 407.181 217.024 410.117 207.509 408.095C199.139 406.316 191.547 401.933 185.821 395.574C179.312 388.344 176.375 377.384 170.502 355.465L136.156 227.285Z" fill="url(#paint4_linear_1644_138)"/>
</g>
<path d="M134.321 220.437L554.084 107.961L566.931 155.906L147.168 268.382L134.321 220.437Z" fill="white"/>
<path opacity="0.24" d="M202.824 319.537C199.494 307.108 206.87 294.332 219.299 291.002L243.76 284.448C256.19 281.117 268.965 288.493 272.295 300.922C275.626 313.351 268.25 326.127 255.821 329.457L231.359 336.012C218.93 339.342 206.154 331.966 202.824 319.537Z" fill="white"/>
<g filter="url(#filter4_dddd_1644_138)">
<path d="M170.949 244.682C165.075 222.762 162.139 211.802 164.161 202.287C165.94 193.917 170.323 186.325 176.682 180.599C183.912 174.09 194.871 171.153 216.791 165.28L511.31 86.3636C533.23 80.4902 544.19 77.5536 553.705 79.5761C562.075 81.3552 569.667 85.7383 575.393 92.0973C581.902 99.3265 584.839 110.286 590.712 132.206L625.058 260.386C630.931 282.305 633.868 293.265 631.845 302.781C630.066 311.151 625.683 318.742 619.324 324.468C612.095 330.977 601.135 333.914 579.215 339.787L284.696 418.704C262.776 424.577 251.816 427.514 242.301 425.491C233.931 423.712 226.339 419.329 220.613 412.97C214.104 405.741 211.168 394.781 205.294 372.861L170.949 244.682Z" fill="url(#paint5_linear_1644_138)"/>
</g>
<path d="M169.113 237.833L588.877 125.357L601.723 173.302L181.96 285.778L169.113 237.833Z" fill="white"/>
<path opacity="0.24" d="M237.616 336.933C234.286 324.504 241.662 311.729 254.091 308.399L278.553 301.844C290.982 298.514 303.757 305.89 307.088 318.319C310.418 330.748 303.042 343.523 290.613 346.854L266.151 353.408C253.722 356.739 240.947 349.363 237.616 336.933Z" fill="white"/>
<g filter="url(#filter5_bddd_1644_138)">
<path d="M268.901 95.6338C274.775 73.714 277.711 62.7541 284.221 55.5249C289.946 49.1659 297.538 44.7828 305.908 43.0037C315.423 40.9812 326.383 43.9179 348.303 49.7912L642.822 128.707C664.742 134.581 675.702 137.518 682.931 144.027C689.29 149.752 693.673 157.344 695.452 165.714C697.475 175.229 694.538 186.189 688.665 208.109L654.319 336.289C648.446 358.208 645.509 369.168 639 376.397C633.274 382.756 625.682 387.14 617.313 388.919C607.797 390.941 596.837 388.004 574.918 382.131L280.398 303.215C258.479 297.342 247.519 294.405 240.289 287.896C233.93 282.17 229.547 274.578 227.768 266.208C225.746 256.693 228.682 245.733 234.556 223.813L268.901 95.6338Z" fill="url(#paint6_linear_1644_138)"/>
</g>
<g filter="url(#filter6_bddd_1644_138)">
<path fill-rule="evenodd" clip-rule="evenodd" d="M642.56 129.686L348.041 50.7697C337.065 47.8287 328.891 45.6395 322.272 44.4331C315.665 43.2288 310.693 43.0222 306.119 43.9946C297.958 45.7292 290.556 50.0027 284.973 56.2027C281.844 59.6784 279.537 64.087 277.276 70.4114C275.012 76.7469 272.821 84.9199 269.88 95.8959L235.534 224.075C232.593 235.052 230.404 243.225 229.198 249.844C227.993 256.452 227.787 261.423 228.759 265.998C230.494 274.158 234.767 281.56 240.967 287.143C244.443 290.272 248.851 292.579 255.176 294.84C261.511 297.105 269.684 299.295 280.66 302.236L575.18 381.153C586.156 384.094 594.329 386.283 600.948 387.489C607.556 388.694 612.527 388.9 617.102 387.928C625.263 386.193 632.665 381.92 638.247 375.72C641.377 372.244 643.683 367.835 645.944 361.511C648.209 355.175 650.4 347.002 653.341 336.026L687.686 207.847C690.627 196.871 692.817 188.697 694.023 182.078C695.227 175.471 695.434 170.499 694.462 165.925C692.727 157.764 688.453 150.362 682.253 144.78C678.778 141.65 674.369 139.343 668.045 137.083C661.709 134.818 653.536 132.627 642.56 129.686ZM284.221 55.5249C277.711 62.7541 274.775 73.714 268.901 95.6338L234.556 223.813C228.682 245.733 225.746 256.693 227.768 266.208C229.547 274.578 233.93 282.17 240.289 287.896C247.519 294.405 258.479 297.342 280.398 303.215L574.918 382.131C596.837 388.004 607.797 390.941 617.313 388.919C625.682 387.14 633.274 382.756 639 376.397C645.509 369.168 648.446 358.208 654.319 336.289L688.665 208.109C694.538 186.189 697.475 175.229 695.452 165.714C693.673 157.344 689.29 149.752 682.931 144.027C675.702 137.518 664.742 134.581 642.822 128.707L348.303 49.7912C326.383 43.9179 315.423 40.9812 305.908 43.0037C297.538 44.7828 289.946 49.1659 284.221 55.5249Z" fill="#212429" fill-opacity="0.06"/>
</g>
<path d="M315.228 99.7742C316.856 100.21 318.344 99.8541 319.321 98.7736L318.053 97.4942C317.339 98.1584 316.491 98.3172 315.661 98.0948C314.221 97.7089 313.389 96.429 313.825 94.8008C314.257 93.1883 315.622 92.48 317.062 92.8659C317.892 93.0882 318.547 93.6496 318.834 94.5823L320.572 94.1083C320.269 92.6682 319.15 91.6469 317.522 91.2106C314.877 90.5017 312.524 91.7674 311.853 94.2722C311.181 96.7771 312.582 99.0652 315.228 99.7742Z" fill="#141029" fill-opacity="0.6"/>
<path d="M324.294 94.4345L324.621 93.2134L322.758 92.7142L320.518 101.074L322.475 101.599L323.562 97.5439C324.019 95.8374 325.193 95.2124 326.68 95.6109C326.821 95.6486 326.958 95.7021 327.122 95.7795L327.621 93.9165C326.228 93.5432 325.093 93.7089 324.294 94.4345Z" fill="#141029" fill-opacity="0.6"/>
<path d="M335.906 100.768C336.606 98.1531 335.279 95.9684 332.837 95.314C330.347 94.6471 328.038 95.941 327.371 98.4302C326.704 100.919 328.037 103.206 330.84 103.957C332.28 104.343 333.58 104.188 334.57 103.497L333.845 102.011C333.086 102.462 332.27 102.562 331.331 102.31C329.875 101.92 329.067 100.865 329.16 99.5808L335.719 101.338C335.785 101.155 335.864 100.924 335.906 100.768ZM332.417 96.8796C333.701 97.2236 334.402 98.3008 334.236 99.5482L329.492 98.2772C330.007 97.1064 331.149 96.5398 332.417 96.8796Z" fill="#141029" fill-opacity="0.6"/>
<path d="M346.022 95.4575L344.872 99.7471C344.42 98.8038 343.562 98.1878 342.482 97.8984C340.055 97.2482 337.806 98.4409 337.109 101.04C336.413 103.639 337.76 105.812 340.187 106.462C341.33 106.768 342.405 106.637 343.277 106.015L342.987 107.095L344.866 107.598L347.979 95.9818L346.022 95.4575ZM340.871 104.85C339.462 104.472 338.654 103.165 339.082 101.568C339.51 99.9714 340.863 99.2432 342.272 99.6208C343.681 99.9983 344.488 101.305 344.06 102.902C343.633 104.499 342.28 105.227 340.871 104.85Z" fill="#141029" fill-opacity="0.6"/>
<path d="M351.022 98.8107C351.757 99.0079 352.417 98.614 352.601 97.9252C352.773 97.2833 352.371 96.6554 351.651 96.4624C350.931 96.2694 350.26 96.6434 350.084 97.301C349.908 97.9585 350.301 98.6178 351.022 98.8107ZM347.426 108.284L349.383 108.809L351.623 100.448L349.666 99.9241L347.426 108.284Z" fill="#141029" fill-opacity="0.6"/>
<path d="M356.924 108.849C356.564 109.004 356.143 109.009 355.736 108.9C354.984 108.699 354.695 108.151 354.913 107.337L355.978 103.361L358.217 103.96L358.637 102.395L356.398 101.795L356.91 99.885L354.953 99.3607L354.441 101.271L353.063 100.901L352.644 102.467L354.021 102.836L352.943 106.86C352.448 108.707 353.237 109.959 355.069 110.449C355.773 110.638 356.528 110.639 357.099 110.389L356.924 108.849Z" fill="#141029" fill-opacity="0.6"/>
<path d="M366.72 113.571C368.348 114.008 369.836 113.651 370.813 112.571L369.545 111.291C368.831 111.956 367.983 112.114 367.153 111.892C365.713 111.506 364.881 110.226 365.317 108.598C365.749 106.985 367.114 106.277 368.554 106.663C369.384 106.885 370.039 107.447 370.326 108.379L372.064 107.905C371.761 106.465 370.642 105.444 369.014 105.008C366.369 104.299 364.016 105.564 363.345 108.069C362.673 110.574 364.074 112.862 366.72 113.571Z" fill="#141029" fill-opacity="0.6"/>
<path d="M377.469 107.273C376.123 106.912 374.731 106.909 373.654 107.358L374.039 108.989C374.804 108.64 375.859 108.587 376.798 108.838C378.191 109.212 378.7 110.07 378.394 111.212L378.36 111.338L376.2 110.759C373.663 110.079 372.43 110.923 372.057 112.317C371.667 113.773 372.591 115.145 374.501 115.656C375.754 115.992 376.771 115.828 377.433 115.234L377.161 116.251L379.008 116.746L380.321 111.846C380.967 109.435 379.88 107.919 377.469 107.273ZM375.29 114.341C374.288 114.072 373.815 113.459 374.004 112.754C374.167 112.144 374.662 111.739 375.992 112.096L378.012 112.637L377.752 113.608C377.192 114.381 376.245 114.597 375.29 114.341Z" fill="#141029" fill-opacity="0.6"/>
<path d="M385.296 110.78L385.623 109.559L383.76 109.059L381.52 117.419L383.477 117.944L384.563 113.889C385.02 112.183 386.195 111.558 387.682 111.956C387.823 111.994 387.959 112.047 388.123 112.125L388.622 110.262C387.229 109.888 386.094 110.054 385.296 110.78Z" fill="#141029" fill-opacity="0.6"/>
<path d="M397.284 109.193L396.135 113.483C395.683 112.539 394.824 111.923 393.744 111.634C391.318 110.984 389.068 112.177 388.372 114.775C387.676 117.374 389.023 119.547 391.45 120.198C392.592 120.504 393.668 120.373 394.539 119.75L394.25 120.83L396.129 121.334L399.241 109.717L397.284 109.193ZM392.133 118.585C390.724 118.208 389.917 116.901 390.345 115.304C390.773 113.707 392.125 112.979 393.534 113.356C394.943 113.734 395.751 115.041 395.323 116.638C394.895 118.235 393.542 118.963 392.133 118.585Z" fill="#141029" fill-opacity="0.6"/>
<path d="M276.814 228.844L277.438 226.515L280.784 227.412L282.708 220.23L279.949 219.491L280.426 217.71C280.861 217.756 281.25 217.791 281.594 217.813C281.954 217.826 282.284 217.823 282.582 217.805C282.88 217.787 283.161 217.757 283.424 217.716C283.703 217.665 283.98 217.599 284.253 217.519L286.366 218.085L283.661 228.183L286.479 228.938L285.855 231.267L276.814 228.844Z" fill="#141029" fill-opacity="0.8"/>
<path d="M288.137 231.878L288.577 230.234C289.663 229.728 290.658 229.254 291.56 228.81C292.465 228.353 293.254 227.915 293.926 227.493C294.598 227.072 295.144 226.652 295.564 226.233C295.984 225.815 296.253 225.383 296.372 224.94C296.536 224.327 296.484 223.816 296.216 223.409C295.951 222.988 295.492 222.691 294.84 222.516C294.344 222.383 293.853 222.391 293.365 222.54C292.895 222.68 292.438 222.872 291.994 223.117L290.863 221.156C291.276 220.918 291.673 220.716 292.052 220.552C292.445 220.392 292.838 220.28 293.232 220.218C293.643 220.147 294.055 220.124 294.467 220.151C294.896 220.168 295.352 220.241 295.835 220.37C296.487 220.545 297.054 220.802 297.537 221.141C298.023 221.467 298.408 221.857 298.692 222.31C298.992 222.754 299.182 223.246 299.261 223.784C299.354 224.326 299.32 224.898 299.159 225.498C299.019 226.02 298.752 226.521 298.357 227.003C297.966 227.471 297.482 227.922 296.904 228.354C296.343 228.777 295.716 229.19 295.021 229.591C294.33 229.979 293.614 230.353 292.874 230.714C293.237 230.77 293.624 230.838 294.035 230.921C294.463 230.993 294.84 231.073 295.166 231.161L298.121 231.953L297.471 234.379L288.137 231.878Z" fill="#141029" fill-opacity="0.8"/>
<path d="M304.133 236.416C303.063 236.129 302.185 235.726 301.499 235.207C300.817 234.674 300.306 234.076 299.967 233.412L301.785 231.948C302.104 232.426 302.487 232.85 302.933 233.221C303.392 233.596 303.909 233.86 304.483 234.014C305.161 234.195 305.749 234.22 306.246 234.087C306.759 233.945 307.079 233.64 307.205 233.17C307.278 232.896 307.286 232.632 307.228 232.379C307.17 232.126 307.016 231.889 306.768 231.669C306.523 231.435 306.169 231.215 305.708 231.007C305.249 230.786 304.655 230.578 303.924 230.382L304.47 228.347C305.696 228.676 306.597 228.756 307.174 228.589C307.766 228.412 308.129 228.076 308.262 227.58C308.377 227.15 308.303 226.773 308.04 226.451C307.78 226.116 307.363 225.871 306.789 225.718C306.294 225.585 305.811 225.56 305.341 225.644C304.871 225.728 304.375 225.882 303.854 226.106L302.878 223.956C303.624 223.625 304.379 223.415 305.144 223.326C305.925 223.228 306.721 223.287 307.529 223.504C308.208 223.686 308.807 223.93 309.326 224.237C309.848 224.531 310.271 224.882 310.595 225.29C310.923 225.686 311.142 226.122 311.252 226.599C311.361 227.075 311.343 227.588 311.196 228.136C311.021 228.788 310.664 229.287 310.124 229.631C309.588 229.963 308.91 230.173 308.089 230.261L308.068 230.339C308.795 230.757 309.358 231.293 309.756 231.945C310.158 232.584 310.251 233.308 310.034 234.117C309.88 234.691 309.605 235.169 309.209 235.553C308.829 235.926 308.369 236.209 307.828 236.399C307.304 236.58 306.72 236.675 306.074 236.684C305.432 236.68 304.785 236.591 304.133 236.416Z" fill="#141029" fill-opacity="0.8"/>
<path d="M317.143 239.65L317.94 236.676L311.952 235.071L312.481 233.095L319.67 227.009L323.153 227.942L321.208 235.202L322.774 235.622L322.186 237.813L320.621 237.394L319.824 240.368L317.143 239.65ZM315.318 233.624L318.527 234.484L319.088 232.39C319.193 231.998 319.32 231.55 319.47 231.045C319.635 230.53 319.784 230.08 319.915 229.696L319.837 229.675C319.533 229.971 319.217 230.264 318.888 230.553C318.559 230.843 318.236 231.134 317.92 231.427L315.318 233.624Z" fill="#141029" fill-opacity="0.8"/>
<path d="M339.413 245.869C338.33 245.579 337.454 245.169 336.785 244.64C336.132 244.102 335.617 243.517 335.242 242.885L337.021 241.411C337.347 241.862 337.712 242.274 338.116 242.648C338.535 243.012 339.039 243.273 339.626 243.43C340.33 243.619 340.948 243.61 341.479 243.402C342.023 243.199 342.381 242.777 342.552 242.138C342.72 241.511 342.632 240.978 342.289 240.536C341.959 240.098 341.461 239.79 340.796 239.612C340.587 239.556 340.394 239.518 340.218 239.499C340.058 239.47 339.892 239.461 339.722 239.471C339.551 239.481 339.371 239.503 339.18 239.535C338.99 239.568 338.774 239.615 338.534 239.677L337.482 238.514L339.498 232.321L347.111 234.361L346.46 236.788L341.333 235.414L340.494 237.685C340.809 237.658 341.096 237.657 341.354 237.685C341.616 237.699 341.903 237.748 342.217 237.832C342.791 237.986 343.311 238.209 343.778 238.502C344.258 238.798 344.651 239.156 344.959 239.574C345.266 239.992 345.466 240.472 345.559 241.014C345.664 241.559 345.628 242.165 345.45 242.83C345.264 243.522 344.963 244.098 344.546 244.56C344.142 245.025 343.66 245.385 343.102 245.641C342.561 245.888 341.97 246.03 341.331 246.068C340.691 246.107 340.052 246.04 339.413 245.869Z" fill="#141029" fill-opacity="0.8"/>
<path d="M351.812 249.191C351.173 249.02 350.585 248.737 350.047 248.341C349.51 247.945 349.073 247.437 348.736 246.815C348.4 246.194 348.191 245.459 348.11 244.613C348.033 243.753 348.141 242.775 348.435 241.679C348.746 240.518 349.165 239.554 349.692 238.786C350.219 238.019 350.804 237.427 351.447 237.012C352.103 236.601 352.785 236.35 353.494 236.26C354.207 236.158 354.909 236.199 355.6 236.384C356.488 236.622 357.224 236.98 357.809 237.458C358.397 237.924 358.846 238.414 359.155 238.931L357.187 240.249C356.989 239.944 356.717 239.655 356.371 239.38C356.028 239.093 355.648 238.893 355.231 238.781C354.852 238.68 354.468 238.654 354.077 238.703C353.703 238.742 353.337 238.882 352.979 239.122C352.638 239.352 352.316 239.692 352.014 240.142C351.711 240.593 351.449 241.18 351.227 241.903C351.786 241.592 352.364 241.39 352.962 241.299C353.573 241.211 354.113 241.229 354.583 241.355C355.131 241.502 355.612 241.715 356.027 241.994C356.455 242.276 356.796 242.619 357.051 243.023C357.32 243.431 357.487 243.902 357.554 244.437C357.62 244.973 357.566 245.566 357.391 246.219C357.216 246.871 356.937 247.418 356.552 247.861C356.181 248.307 355.738 248.656 355.223 248.91C354.72 249.167 354.175 249.321 353.588 249.374C353.004 249.413 352.412 249.352 351.812 249.191ZM352.33 247.023C352.578 247.089 352.823 247.113 353.066 247.094C353.322 247.079 353.556 247.016 353.767 246.905C353.995 246.784 354.195 246.614 354.366 246.394C354.54 246.161 354.674 245.868 354.769 245.516C354.94 244.877 354.893 244.375 354.627 244.01C354.365 243.632 353.959 243.37 353.411 243.223C353.046 243.125 352.643 243.115 352.203 243.193C351.763 243.27 351.294 243.48 350.797 243.823C350.742 244.339 350.741 244.786 350.794 245.164C350.863 245.532 350.967 245.847 351.107 246.108C351.25 246.356 351.427 246.557 351.638 246.712C351.851 246.853 352.082 246.957 352.33 247.023Z" fill="#141029" fill-opacity="0.8"/>
<path d="M361.182 251.45C361.511 250.434 361.862 249.514 362.236 248.692C362.627 247.859 363.064 247.089 363.548 246.379C364.048 245.66 364.62 244.988 365.263 244.364C365.909 243.726 366.668 243.083 367.541 242.436L361.298 240.764L361.949 238.337L371.283 240.838L370.811 242.599C369.794 243.264 368.941 243.916 368.252 244.557C367.567 245.184 366.977 245.872 366.483 246.62C365.992 247.356 365.562 248.177 365.193 249.085C364.827 249.98 364.456 251.027 364.079 252.226L361.182 251.45Z" fill="#141029" fill-opacity="0.8"/>
<path d="M374.928 255.385C374.21 255.193 373.586 254.942 373.053 254.631C372.525 254.308 372.099 253.942 371.775 253.533C371.45 253.125 371.233 252.682 371.124 252.205C371.027 251.732 371.046 251.241 371.183 250.732C371.284 250.354 371.434 250.03 371.632 249.762C371.846 249.484 372.091 249.249 372.366 249.057C372.654 248.868 372.961 248.713 373.288 248.59C373.627 248.472 373.981 248.378 374.349 248.309L374.37 248.23C373.946 247.725 373.619 247.197 373.389 246.646C373.176 246.086 373.158 245.473 373.337 244.807C373.476 244.285 373.707 243.844 374.027 243.482C374.351 243.108 374.736 242.819 375.182 242.617C375.641 242.418 376.152 242.311 376.716 242.294C377.28 242.277 377.868 242.351 378.481 242.515C379.108 242.683 379.646 242.918 380.096 243.221C380.563 243.513 380.932 243.857 381.204 244.252C381.479 244.633 381.651 245.063 381.718 245.543C381.802 246.013 381.776 246.502 381.639 247.011C381.482 247.598 381.166 248.073 380.691 248.435C380.23 248.801 379.709 249.074 379.13 249.254L379.109 249.332C379.393 249.576 379.651 249.841 379.882 250.127C380.116 250.399 380.303 250.694 380.442 251.011C380.581 251.328 380.663 251.671 380.69 252.042C380.72 252.4 380.679 252.787 380.567 253.205C380.434 253.7 380.207 254.129 379.887 254.491C379.566 254.852 379.162 255.135 378.673 255.34C378.202 255.535 377.648 255.646 377.012 255.671C376.379 255.683 375.685 255.588 374.928 255.385ZM377.792 248.14C378.569 247.747 379.044 247.224 379.219 246.572C379.348 246.089 379.301 245.664 379.078 245.297C378.859 244.916 378.462 244.649 377.888 244.496C377.431 244.373 377.008 244.386 376.619 244.533C376.243 244.684 375.99 245.001 375.861 245.484C375.725 245.992 375.846 246.452 376.226 246.861C376.606 247.27 377.128 247.697 377.792 248.14ZM375.541 253.41C376.128 253.567 376.631 253.569 377.05 253.416C377.485 253.253 377.772 252.91 377.912 252.388C377.989 252.101 377.982 251.841 377.891 251.607C377.8 251.373 377.638 251.14 377.406 250.911C377.191 250.671 376.918 250.437 376.588 250.209C376.261 249.967 375.898 249.702 375.5 249.414C375.078 249.581 374.706 249.795 374.384 250.059C374.074 250.325 373.866 250.661 373.757 251.065C373.61 251.613 373.71 252.102 374.057 252.53C374.407 252.945 374.902 253.239 375.541 253.41Z" fill="#141029" fill-opacity="0.8"/>
<path d="M399.919 254.657C400.298 254.758 400.707 254.77 401.147 254.692C401.604 254.605 402.068 254.386 402.539 254.037C402.59 253.534 402.581 253.098 402.512 252.73C402.46 252.352 402.355 252.037 402.199 251.786C402.059 251.525 401.882 251.323 401.668 251.182C401.458 251.028 401.229 250.918 400.981 250.851C400.733 250.785 400.481 250.759 400.226 250.775C399.983 250.793 399.747 250.863 399.519 250.984C399.308 251.095 399.115 251.267 398.941 251.5C398.77 251.72 398.637 252.006 398.543 252.358C398.371 252.997 398.417 253.506 398.679 253.884C398.945 254.249 399.358 254.506 399.919 254.657ZM397.731 261.495C396.843 261.257 396.107 260.899 395.522 260.421C394.937 259.943 394.482 259.45 394.156 258.943L396.144 257.63C396.342 257.935 396.613 258.231 396.955 258.519C397.301 258.793 397.683 258.986 398.1 259.098C398.478 259.2 398.855 259.23 399.229 259.191C399.62 259.142 399.986 259.002 400.327 258.772C400.685 258.532 401.015 258.187 401.317 257.737C401.623 257.274 401.887 256.68 402.109 255.956C401.537 256.265 400.944 256.469 400.33 256.57C399.732 256.662 399.205 256.646 398.748 256.524C398.2 256.377 397.712 256.163 397.284 255.88C396.857 255.598 396.509 255.253 396.24 254.845C395.985 254.441 395.824 253.972 395.758 253.437C395.691 252.902 395.746 252.308 395.92 251.655C396.092 251.016 396.363 250.474 396.734 250.028C397.122 249.572 397.567 249.216 398.069 248.959C398.585 248.706 399.134 248.559 399.718 248.52C400.305 248.468 400.899 248.522 401.499 248.683C402.138 248.854 402.727 249.138 403.264 249.533C403.814 249.932 404.258 250.443 404.595 251.064C404.931 251.686 405.132 252.425 405.196 253.281C405.277 254.128 405.17 255.099 404.877 256.195C404.566 257.356 404.146 258.32 403.619 259.088C403.092 259.855 402.507 260.447 401.864 260.862C401.222 261.277 400.538 261.534 399.812 261.633C399.103 261.723 398.409 261.677 397.731 261.495Z" fill="#141029" fill-opacity="0.8"/>
<path d="M410.13 264.817C409.412 264.625 408.788 264.374 408.255 264.064C407.727 263.74 407.301 263.374 406.976 262.966C406.652 262.557 406.435 262.115 406.326 261.638C406.229 261.164 406.248 260.673 406.385 260.164C406.486 259.786 406.636 259.463 406.834 259.194C407.048 258.916 407.293 258.681 407.568 258.489C407.856 258.3 408.163 258.145 408.49 258.023C408.829 257.904 409.183 257.81 409.551 257.741L409.572 257.663C409.148 257.157 408.821 256.629 408.591 256.078C408.378 255.518 408.36 254.905 408.539 254.239C408.678 253.718 408.909 253.276 409.229 252.914C409.553 252.54 409.938 252.251 410.384 252.049C410.843 251.851 411.354 251.743 411.918 251.726C412.482 251.709 413.07 251.783 413.683 251.947C414.31 252.115 414.848 252.35 415.298 252.653C415.765 252.946 416.134 253.289 416.406 253.684C416.681 254.065 416.853 254.496 416.92 254.975C417.004 255.445 416.978 255.934 416.841 256.443C416.684 257.03 416.368 257.505 415.893 257.867C415.432 258.233 414.911 258.506 414.332 258.686L414.311 258.764C414.595 259.008 414.853 259.273 415.084 259.559C415.318 259.831 415.505 260.126 415.644 260.443C415.783 260.76 415.865 261.104 415.892 261.474C415.922 261.832 415.881 262.219 415.769 262.637C415.636 263.133 415.409 263.561 415.089 263.923C414.768 264.284 414.364 264.568 413.875 264.772C413.404 264.968 412.85 265.078 412.214 265.103C411.581 265.115 410.887 265.02 410.13 264.817ZM412.994 257.573C413.771 257.179 414.246 256.657 414.421 256.004C414.55 255.522 414.503 255.097 414.28 254.729C414.061 254.349 413.664 254.082 413.09 253.928C412.633 253.805 412.21 253.818 411.821 253.965C411.445 254.116 411.192 254.433 411.063 254.916C410.927 255.425 411.048 255.884 411.428 256.293C411.808 256.703 412.33 257.129 412.994 257.573ZM410.743 262.842C411.33 263 411.833 263.002 412.252 262.848C412.687 262.685 412.974 262.343 413.114 261.821C413.191 261.534 413.184 261.273 413.093 261.039C413.002 260.805 412.84 260.573 412.608 260.343C412.393 260.103 412.12 259.869 411.79 259.641C411.463 259.4 411.1 259.135 410.702 258.846C410.28 259.013 409.908 259.228 409.586 259.491C409.276 259.758 409.068 260.093 408.959 260.498C408.812 261.046 408.912 261.534 409.259 261.962C409.609 262.378 410.104 262.671 410.743 262.842Z" fill="#141029" fill-opacity="0.8"/>
<path d="M419.852 267.171C420.181 266.154 420.532 265.235 420.906 264.412C421.297 263.58 421.734 262.809 422.218 262.1C422.718 261.381 423.29 260.709 423.933 260.084C424.579 259.446 425.338 258.804 426.211 258.157L419.968 256.484L420.619 254.057L429.953 256.559L429.481 258.32C428.464 258.984 427.611 259.637 426.922 260.277C426.237 260.904 425.647 261.592 425.153 262.341C424.662 263.076 424.232 263.898 423.863 264.806C423.497 265.701 423.126 266.748 422.749 267.947L419.852 267.171Z" fill="#141029" fill-opacity="0.8"/>
<path d="M433.95 271.2C433.311 271.029 432.723 270.745 432.185 270.35C431.648 269.954 431.211 269.445 430.874 268.824C430.538 268.202 430.329 267.468 430.248 266.621C430.171 265.762 430.279 264.784 430.573 263.688C430.884 262.527 431.303 261.563 431.83 260.795C432.357 260.027 432.942 259.436 433.585 259.021C434.241 258.609 434.923 258.359 435.632 258.269C436.345 258.166 437.047 258.208 437.738 258.393C438.626 258.631 439.362 258.989 439.947 259.467C440.535 259.932 440.984 260.423 441.293 260.939L439.325 262.258C439.127 261.953 438.855 261.663 438.509 261.389C438.166 261.101 437.786 260.902 437.369 260.79C436.99 260.688 436.606 260.662 436.215 260.711C435.841 260.751 435.475 260.891 435.117 261.13C434.776 261.361 434.454 261.701 434.151 262.151C433.849 262.601 433.587 263.188 433.365 263.912C433.924 263.6 434.502 263.399 435.1 263.307C435.711 263.219 436.251 263.238 436.721 263.364C437.269 263.511 437.75 263.724 438.165 264.003C438.593 264.285 438.934 264.628 439.189 265.032C439.458 265.44 439.625 265.911 439.691 266.446C439.758 266.981 439.704 267.575 439.529 268.227C439.354 268.88 439.075 269.427 438.69 269.869C438.319 270.315 437.876 270.665 437.361 270.918C436.858 271.175 436.313 271.33 435.726 271.382C435.142 271.422 434.55 271.361 433.95 271.2ZM434.468 269.032C434.716 269.098 434.961 269.122 435.204 269.103C435.46 269.088 435.694 269.024 435.905 268.913C436.133 268.793 436.333 268.622 436.504 268.402C436.678 268.169 436.812 267.877 436.907 267.525C437.078 266.885 437.031 266.383 436.765 266.018C436.502 265.641 436.097 265.378 435.549 265.231C435.184 265.133 434.781 265.123 434.341 265.201C433.901 265.279 433.432 265.489 432.935 265.831C432.88 266.348 432.879 266.795 432.932 267.173C433.001 267.541 433.105 267.855 433.245 268.117C433.388 268.365 433.565 268.566 433.776 268.72C433.989 268.861 434.22 268.965 434.468 269.032Z" fill="#141029" fill-opacity="0.8"/>
<path d="M456.753 277.31C455.67 277.02 454.794 276.61 454.125 276.081C453.472 275.543 452.957 274.958 452.581 274.326L454.361 272.852C454.687 273.303 455.052 273.715 455.455 274.089C455.875 274.453 456.379 274.714 456.966 274.871C457.67 275.06 458.288 275.051 458.819 274.843C459.363 274.639 459.721 274.218 459.892 273.579C460.06 272.952 459.972 272.419 459.629 271.977C459.299 271.539 458.801 271.231 458.136 271.053C457.927 270.997 457.734 270.959 457.558 270.94C457.398 270.911 457.232 270.901 457.062 270.912C456.891 270.922 456.711 270.943 456.52 270.976C456.33 271.009 456.114 271.056 455.874 271.118L454.822 269.955L456.838 263.762L464.451 265.802L463.8 268.229L458.673 266.855L457.834 269.126C458.149 269.099 458.436 269.098 458.694 269.126C458.956 269.14 459.243 269.189 459.556 269.273C460.131 269.427 460.651 269.65 461.118 269.943C461.598 270.239 461.991 270.597 462.299 271.015C462.606 271.432 462.806 271.913 462.899 272.455C463.004 273 462.968 273.606 462.79 274.271C462.604 274.963 462.303 275.539 461.886 276.001C461.482 276.466 461 276.826 460.442 277.082C459.901 277.328 459.31 277.471 458.671 277.509C458.031 277.548 457.392 277.481 456.753 277.31Z" fill="#141029" fill-opacity="0.8"/>
<path d="M469.685 280.523L470.482 277.549L464.493 275.944L465.023 273.968L472.212 267.882L475.695 268.815L473.75 276.075L475.316 276.495L474.728 278.687L473.163 278.267L472.366 281.242L469.685 280.523ZM467.86 274.497L471.069 275.357L471.63 273.263C471.735 272.872 471.862 272.423 472.011 271.918C472.177 271.403 472.326 270.954 472.457 270.569L472.379 270.548C472.075 270.844 471.759 271.137 471.43 271.427C471.101 271.716 470.778 272.007 470.462 272.3L467.86 274.497Z" fill="#141029" fill-opacity="0.8"/>
<path d="M480.142 283.577C479.073 283.29 478.195 282.887 477.509 282.368C476.827 281.836 476.316 281.237 475.976 280.573L477.795 279.11C478.114 279.587 478.497 280.011 478.943 280.382C479.402 280.757 479.918 281.021 480.492 281.175C481.171 281.357 481.759 281.381 482.256 281.249C482.769 281.107 483.089 280.801 483.215 280.331C483.288 280.057 483.296 279.794 483.238 279.54C483.18 279.287 483.026 279.05 482.778 278.83C482.533 278.596 482.179 278.376 481.718 278.168C481.259 277.948 480.665 277.739 479.934 277.544L480.48 275.508C481.706 275.837 482.607 275.918 483.183 275.751C483.776 275.574 484.139 275.237 484.272 274.742C484.387 274.311 484.313 273.935 484.05 273.613C483.79 273.277 483.373 273.033 482.799 272.879C482.304 272.746 481.821 272.722 481.351 272.805C480.881 272.889 480.385 273.043 479.864 273.267L478.888 271.118C479.634 270.786 480.389 270.576 481.154 270.487C481.935 270.389 482.73 270.448 483.539 270.665C484.218 270.847 484.816 271.091 485.335 271.398C485.858 271.692 486.281 272.043 486.605 272.452C486.933 272.847 487.152 273.283 487.262 273.76C487.371 274.237 487.353 274.749 487.206 275.297C487.031 275.95 486.674 276.448 486.134 276.793C485.598 277.125 484.919 277.334 484.099 277.422L484.078 277.5C484.805 277.919 485.367 278.454 485.766 279.106C486.168 279.745 486.261 280.469 486.044 281.278C485.89 281.852 485.615 282.331 485.219 282.714C484.839 283.088 484.379 283.37 483.838 283.561C483.314 283.742 482.73 283.837 482.084 283.846C481.442 283.841 480.795 283.752 480.142 283.577Z" fill="#141029" fill-opacity="0.8"/>
<path d="M487.615 285.328L488.055 283.684C489.141 283.178 490.136 282.703 491.037 282.26C491.943 281.803 492.732 281.364 493.404 280.943C494.076 280.522 494.622 280.102 495.042 279.683C495.462 279.264 495.731 278.833 495.85 278.389C496.014 277.776 495.962 277.266 495.694 276.858C495.429 276.438 494.97 276.14 494.318 275.965C493.822 275.833 493.331 275.841 492.843 275.99C492.372 276.129 491.915 276.321 491.472 276.566L490.341 274.606C490.754 274.367 491.151 274.166 491.53 274.002C491.923 273.841 492.316 273.73 492.71 273.668C493.121 273.596 493.533 273.574 493.945 273.6C494.374 273.617 494.83 273.69 495.312 273.82C495.965 273.995 496.532 274.251 497.015 274.59C497.501 274.916 497.886 275.306 498.169 275.76C498.47 276.204 498.66 276.695 498.739 277.234C498.832 277.776 498.798 278.347 498.637 278.947C498.497 279.469 498.23 279.971 497.835 280.452C497.444 280.921 496.959 281.371 496.382 281.804C495.821 282.227 495.194 282.639 494.499 283.04C493.808 283.428 493.092 283.803 492.352 284.164C492.715 284.219 493.102 284.288 493.513 284.37C493.941 284.443 494.318 284.523 494.644 284.61L497.599 285.402L496.949 287.829L487.615 285.328Z" fill="#141029" fill-opacity="0.8"/>
<path d="M281.653 258.457L284.573 247.494L282.898 247.045L276.678 253.164L274.272 244.733L272.597 244.284L269.66 255.243L271.602 255.763L273.523 248.593L275.538 255.476L276.446 255.719L281.658 250.672L279.727 257.941L281.653 258.457Z" fill="#141029" fill-opacity="0.6"/>
<path d="M288.201 252.56L288.528 251.339L286.665 250.839L284.425 259.199L286.382 259.724L287.468 255.669C287.925 253.963 289.1 253.338 290.587 253.736C290.728 253.774 290.865 253.827 291.028 253.905L291.528 252.042C290.134 251.668 288.999 251.834 288.201 252.56Z" fill="#141029" fill-opacity="0.6"/>
<path d="M297.178 262.784C299.589 263.43 301.212 262.506 301.905 259.923L303.851 252.659L297.918 251.069L297.46 252.776L301.359 253.82L299.84 259.487C299.479 260.834 298.72 261.352 297.592 261.05C296.731 260.819 296.129 260.188 295.752 259.214L294.22 260.297C294.699 261.516 295.8 262.415 297.178 262.784Z" fill="#141029" fill-opacity="0.6"/>
<path d="M307.309 265.449C309.908 266.145 312.249 264.86 312.921 262.355C313.592 259.85 312.203 257.582 309.604 256.885C307.036 256.197 304.684 257.463 304.013 259.968C303.341 262.473 304.742 264.761 307.309 265.449ZM307.758 263.774C306.349 263.396 305.557 262.093 305.985 260.496C306.413 258.899 307.75 258.167 309.159 258.545C310.584 258.926 311.376 260.229 310.948 261.826C310.52 263.423 309.183 264.155 307.758 263.774Z" fill="#141029" fill-opacity="0.6"/>
<path d="M320.681 259.853C319.522 259.543 318.435 259.654 317.609 260.171L318.741 255.944L316.784 255.42L313.672 267.036L315.629 267.56L316.761 263.333C317.21 261.658 318.376 261.065 319.769 261.438C321.022 261.774 321.565 262.691 321.166 264.178L319.95 268.718L321.907 269.243L323.19 264.452C323.866 261.931 322.685 260.39 320.681 259.853Z" fill="#141029" fill-opacity="0.6"/>
<path d="M331.398 262.725C330.177 262.398 329.05 262.532 328.203 263.127L328.492 262.047L326.629 261.548L324.389 269.908L326.346 270.432L327.479 266.205C327.928 264.53 329.093 263.936 330.487 264.31C331.739 264.645 332.282 265.563 331.884 267.05L330.667 271.59L332.624 272.114L333.908 267.324C334.583 264.803 333.402 263.262 331.398 262.725Z" fill="#141029" fill-opacity="0.6"/>
<path d="M342.976 275.056C345.982 275.861 347.81 274.74 348.279 272.987C349.357 268.963 342.453 268.741 343.079 266.408C343.301 265.579 344.166 265.106 345.857 265.559C346.812 265.815 347.816 266.386 348.647 267.229L349.713 265.82C348.926 264.938 347.64 264.225 346.325 263.872C343.32 263.067 341.508 264.192 341.034 265.961C339.943 270.032 346.871 270.227 346.238 272.591C346.02 273.405 345.136 273.822 343.429 273.365C342.083 273.004 340.824 272.13 340.136 271.191L339.008 272.583C339.706 273.609 341.27 274.599 342.976 275.056Z" fill="#141029" fill-opacity="0.6"/>
<path d="M362.096 270.95C360.765 270.594 359.496 270.824 358.592 271.505C358.264 270.41 357.368 269.684 356.147 269.356C355.004 269.05 353.924 269.197 353.097 269.781L353.382 268.716L351.519 268.217L349.279 276.577L351.236 277.101L352.373 272.859C352.817 271.199 353.921 270.589 355.22 270.937C356.41 271.256 356.906 272.16 356.507 273.648L355.291 278.188L357.248 278.712L358.384 274.47C358.829 272.81 359.948 272.204 361.232 272.548C362.422 272.867 362.917 273.771 362.519 275.259L361.302 279.799L363.259 280.323L364.543 275.532C365.218 273.012 364.116 271.492 362.096 270.95Z" fill="#141029" fill-opacity="0.6"/>
<path d="M369.356 271.52C370.091 271.717 370.751 271.323 370.935 270.634C371.107 269.992 370.705 269.364 369.985 269.171C369.265 268.978 368.594 269.352 368.418 270.01C368.242 270.667 368.635 271.327 369.356 271.52ZM365.76 280.993L367.717 281.517L369.957 273.157L368 272.633L365.76 280.993Z" fill="#141029" fill-opacity="0.6"/>
<path d="M375.258 281.558C374.898 281.713 374.477 281.718 374.07 281.609C373.318 281.408 373.029 280.86 373.247 280.046L374.312 276.069L376.551 276.669L376.971 275.104L374.732 274.504L375.244 272.594L373.287 272.07L372.775 273.98L371.397 273.61L370.978 275.176L372.355 275.545L371.277 279.569C370.782 281.416 371.571 282.668 373.403 283.158C374.107 283.347 374.862 283.348 375.433 283.098L375.258 281.558Z" fill="#141029" fill-opacity="0.6"/>
<path d="M383.93 276.801C382.771 276.49 381.684 276.602 380.858 277.119L381.99 272.892L380.033 272.367L376.921 283.984L378.878 284.508L380.01 280.281C380.459 278.606 381.625 278.012 383.018 278.385C384.271 278.721 384.814 279.638 384.415 281.126L383.199 285.666L385.156 286.19L386.439 281.4C387.115 278.879 385.934 277.338 383.93 276.801Z" fill="#141029" fill-opacity="0.6"/>
<path d="M321.604 140.002L309.188 136.675L305.279 141.764L298.944 140.066L318.018 116.548L324.131 118.186L328.93 148.101L322.437 146.361L321.604 140.002ZM320.914 134.783L319.41 123.422L312.426 132.509L320.914 134.783ZM356.134 133.389L341.915 151.614L335.771 149.968L332.641 127.094L338.793 128.742L340.744 144.232L350.369 131.844L356.134 133.389ZM374.82 151.193L359.269 147.026C359.16 149.743 360.914 151.908 364.049 152.748C364.99 153.036 365.98 153.129 366.957 153.021C367.935 152.913 368.88 152.606 369.734 152.119L371.982 156.399C369.491 158.062 366.341 158.447 362.612 157.448C355.486 155.539 352.08 149.846 353.716 143.742C355.352 137.637 361.244 134.428 367.515 136.108C373.549 137.725 377.128 143.023 375.361 149.618C375.246 150.078 374.993 150.706 374.82 151.193ZM360.151 143.542L370.27 146.254C370.389 145.005 370.061 143.755 369.344 142.724C368.628 141.694 367.569 140.95 366.356 140.625C365.143 140.3 363.854 140.415 362.718 140.949C361.582 141.483 360.673 142.402 360.151 143.542ZM400.793 154.754L397.643 166.512L391.688 164.917L394.593 154.076C395.483 150.755 394.364 148.819 391.727 148.113C388.861 147.345 386.324 148.546 385.311 152.326L382.59 162.479L376.628 160.882L382.137 140.322L387.83 141.848L387.194 144.22C388.317 143.554 389.567 143.13 390.863 142.977C392.16 142.823 393.475 142.944 394.723 143.33C399.536 144.688 402.445 148.493 400.769 154.748L400.793 154.754ZM404.478 157.343C406.135 151.16 412.062 148.044 418.776 149.843C423.092 151 425.994 153.786 426.585 157.538L421.276 158.759C421.073 157.793 420.603 156.902 419.921 156.187C419.238 155.473 418.369 154.963 417.412 154.715C414.395 153.907 411.466 155.368 410.504 158.958C409.542 162.548 411.356 165.28 414.365 166.086C415.321 166.358 416.335 166.353 417.288 166.072C418.241 165.79 419.094 165.243 419.748 164.494L423.696 168.256C421.32 171.136 417.405 172.13 413.058 170.965C406.406 169.183 402.8 163.513 404.455 157.337L404.478 157.343ZM432.267 147.161C432.767 145.295 434.646 144.239 436.863 144.833C439.08 145.427 440.2 147.202 439.708 149.036C439.179 151.013 437.3 152.069 435.083 151.475C432.866 150.881 431.744 149.021 432.244 147.155L432.267 147.161ZM431.339 153.54L437.301 155.138L431.792 175.697L425.798 174.091L431.339 153.54ZM458.64 170.296L455.5 182.015L449.917 180.519L450.604 177.957C449.001 179.536 446.59 179.95 443.574 179.142C438.759 177.852 436.609 174.411 437.559 170.868C438.508 167.326 441.77 165.412 448.033 167.09L452.784 168.363C453.469 165.809 452.341 163.905 449.118 163.042C446.994 162.454 444.736 162.568 442.683 163.368L441.659 158.636C444.752 157.654 448.069 157.616 451.185 158.527C457.448 160.205 460.305 164.081 458.64 170.296ZM451.301 173.932L451.862 171.836L447.776 170.742C444.989 169.995 443.835 170.787 443.475 172.132C443.114 173.476 444.07 174.944 446.169 175.506C447.081 175.823 448.07 175.841 448.993 175.558C449.916 175.275 450.724 174.705 451.301 173.932Z" fill="#141029" fill-opacity="0.8"/>
<g filter="url(#filter7_dddd_1644_138)">
<path d="M568.163 192.077C573.883 170.732 595.823 158.064 617.169 163.784C638.514 169.503 651.182 191.444 645.462 212.79C639.743 234.135 617.802 246.802 596.457 241.083C575.111 235.363 562.444 213.423 568.163 192.077Z" fill="url(#paint7_linear_1644_138)"/>
</g>
<path d="M606.723 174.52L606.713 174.521C603.608 174.902 601.401 177.728 601.782 180.832L607.063 223.842C607.444 226.946 610.269 229.154 613.374 228.773L613.384 228.771C616.488 228.39 618.696 225.565 618.315 222.46L613.034 179.45C612.653 176.346 609.827 174.138 606.723 174.52Z" fill="white" fill-opacity="0.5"/>
<path d="M610.93 175.578L610.922 175.572C608.413 173.704 604.865 174.223 602.997 176.731L577.266 211.277C575.398 213.786 575.917 217.334 578.425 219.202L578.433 219.208C580.942 221.076 584.49 220.557 586.358 218.049L612.089 183.503C613.957 180.995 613.438 177.447 610.93 175.578Z" fill="white" fill-opacity="0.8"/>
<path d="M633.577 194.942L633.569 194.936C631.06 193.067 627.512 193.586 625.644 196.095L608.035 219.735C606.167 222.243 606.686 225.791 609.194 227.659L609.202 227.665C611.71 229.533 615.259 229.015 617.127 226.506L634.735 202.866C636.604 200.358 636.085 196.81 633.577 194.942Z" fill="white" fill-opacity="0.8"/>
<path d="M568.163 192.077C573.883 170.732 595.823 158.064 617.169 163.784C638.514 169.503 651.182 191.444 645.462 212.79C639.743 234.135 617.802 246.802 596.457 241.083C575.111 235.363 562.444 213.423 568.163 192.077Z" fill="url(#paint8_linear_1644_138)"/>
<path fill-rule="evenodd" clip-rule="evenodd" d="M569.142 192.339C563.567 213.145 575.914 234.53 596.719 240.104C617.524 245.679 638.909 233.333 644.484 212.527C650.058 191.722 637.712 170.337 616.907 164.762C596.101 159.188 574.716 171.534 569.142 192.339ZM617.169 163.784C595.823 158.064 573.883 170.732 568.163 192.077C562.444 213.423 575.111 235.363 596.457 241.083C617.802 246.802 639.743 234.135 645.462 212.79C651.182 191.444 638.514 169.503 617.169 163.784Z" fill="#F5F7FA" fill-opacity="0.06"/>
<path fill-rule="evenodd" clip-rule="evenodd" d="M566.233 337.734C565.387 337.342 564.686 336.887 563.993 336.28C561.636 334.216 560.535 331.065 561.126 328.074L561.237 327.512L571.701 330.318L585.101 333.911L584.054 337.876C583.479 340.056 582.977 341.924 582.938 342.026L582.869 342.212L582.499 341.608L582.13 341.004L582.504 341.66L582.878 342.316L576.309 340.551C570.163 338.9 566.768 337.982 566.233 337.734ZM585.071 342.864C585.056 342.837 585.545 340.944 586.158 338.656L587.273 334.496L597.738 337.298L611.138 340.887L610.946 341.448C610.29 343.361 608.998 344.931 607.194 346.01C606.585 346.374 605.574 346.836 605.456 346.804C605.432 346.798 605.362 346.718 605.3 346.627L605.187 346.462L605.285 346.654C605.38 346.841 605.379 346.847 605.251 346.896C604.916 347.024 603.68 347.24 603.157 347.263C601.535 347.331 598.929 346.614 591.561 344.641C588.007 343.69 585.087 342.89 585.071 342.864ZM582.113 340.952C582.116 340.942 582.045 340.822 581.955 340.684L581.793 340.434L581.933 340.697C582.064 340.941 582.102 340.995 582.113 340.952ZM586.783 341.921C586.857 341.875 586.904 341.833 586.888 341.829C586.873 341.825 586.8 341.859 586.726 341.906C586.653 341.952 586.606 341.994 586.621 341.998C586.637 342.002 586.71 341.968 586.783 341.921ZM581.776 340.381C581.779 340.372 581.708 340.251 581.618 340.114L581.456 339.863L581.596 340.126C581.727 340.371 581.765 340.424 581.776 340.381ZM564.208 335.137L564.424 334.999L564.195 335.114C563.98 335.221 563.929 335.257 563.973 335.269C563.983 335.271 564.089 335.212 564.208 335.137ZM581.147 339.3C580.975 339.006 580.821 338.762 580.805 338.758C580.79 338.754 580.918 338.991 581.09 339.285C581.262 339.579 581.416 339.822 581.432 339.827C581.447 339.831 581.319 339.594 581.147 339.3ZM587.938 341.27C588.011 341.223 588.059 341.182 588.043 341.178C588.027 341.174 587.954 341.208 587.881 341.254C587.807 341.301 587.76 341.342 587.776 341.346C587.792 341.351 587.865 341.316 587.938 341.27ZM604.751 345.692C604.754 345.68 604.721 345.624 604.677 345.567C604.605 345.473 604.602 345.475 604.65 345.583C604.699 345.696 604.738 345.738 604.751 345.692ZM604.413 345.124C604.415 345.114 604.363 345.026 604.297 344.928L604.176 344.75L604.273 344.941C604.364 345.12 604.401 345.168 604.413 345.124ZM580.764 338.672C580.767 338.663 580.421 338.078 579.996 337.37L579.223 336.082L579.977 337.38C580.677 338.586 580.754 338.711 580.764 338.672ZM589.092 340.618C589.166 340.572 589.213 340.531 589.197 340.526C589.182 340.522 589.109 340.557 589.035 340.603C588.962 340.649 588.915 340.691 588.93 340.695C588.946 340.699 589.019 340.665 589.092 340.618ZM565.939 334.159L566.156 334.022L565.926 334.137C565.712 334.244 565.661 334.28 565.705 334.292C565.715 334.294 565.82 334.235 565.939 334.159ZM566.517 333.834L566.733 333.697L566.504 333.811C566.289 333.918 566.238 333.954 566.282 333.966C566.292 333.969 566.398 333.909 566.517 333.834ZM603.739 343.983C603.741 343.973 603.689 343.885 603.623 343.787L603.502 343.609L603.599 343.8C603.69 343.979 603.727 344.027 603.739 343.983ZM590.247 339.967C590.32 339.921 590.367 339.879 590.352 339.875C590.336 339.871 590.263 339.905 590.19 339.952C590.116 339.998 590.069 340.039 590.085 340.044C590.1 340.048 590.173 340.013 590.247 339.967ZM567.05 333.541C567.145 333.484 567.209 333.434 567.194 333.43C567.178 333.425 567.088 333.469 566.993 333.526C566.899 333.583 566.834 333.634 566.85 333.638C566.866 333.642 566.956 333.599 567.05 333.541ZM603.402 343.409C603.406 343.398 603.372 343.341 603.329 343.284C603.257 343.19 603.254 343.192 603.301 343.3C603.351 343.413 603.39 343.455 603.402 343.409ZM566.221 326.638L561.81 325.441L562.857 321.536L563.903 317.631L564.178 317.462L564.453 317.293L564.187 317.429L563.921 317.564L564.149 316.713L564.377 315.862L564.675 315.941C564.94 316.012 564.992 316.051 565.147 316.293L565.322 316.565L565.181 316.302L565.041 316.039L565.579 316.184L566.118 316.328L565.286 316.811L564.453 317.293L565.316 316.819L566.179 316.344L571.392 317.741L579.541 319.925L578.257 324.715L576.974 329.505L576.331 329.333C575.977 329.239 572.275 328.254 571.692 328.105C571.108 327.957 568.646 327.297 566.221 326.638ZM597.072 334.903L596.521 334.739L596.628 334.274C596.687 334.018 597.264 331.863 597.91 329.485L599.084 325.161L607.257 327.351C612.162 328.666 612.5 328.763 612.586 328.884C612.673 329.008 612.675 329.008 612.626 328.895C612.578 328.784 612.615 328.787 613.22 328.949L613.864 329.122L613.722 329.219L613.58 329.316L613.76 329.229C613.858 329.181 614.008 329.16 614.093 329.183L614.246 329.224L614.028 330.04C613.857 330.676 613.796 330.842 613.748 330.797C613.7 330.75 613.698 330.757 613.739 330.833C613.779 330.906 613.558 331.792 612.735 334.865L611.68 338.803L606.119 337.329C603.06 336.518 597.375 334.994 597.072 334.903ZM581.664 320.509L584.243 310.948L584.419 310.964C584.515 310.973 587.956 311.888 592.065 312.998L599.535 315.015L596.969 324.595L594.402 334.175L586.744 332.123L579.086 330.071L581.664 320.509ZM581.645 327.844C581.78 327.765 581.878 327.697 581.862 327.692C581.847 327.688 581.723 327.75 581.587 327.829C581.452 327.908 581.354 327.977 581.37 327.981C581.385 327.985 581.509 327.924 581.645 327.844ZM593.443 330.896C593.446 330.886 593.393 330.798 593.327 330.7L593.206 330.522L593.304 330.713C593.394 330.892 593.431 330.94 593.443 330.896ZM605.418 333.944C605.491 333.898 605.539 333.856 605.523 333.852C605.507 333.848 605.434 333.882 605.361 333.929C605.288 333.975 605.24 334.017 605.256 334.021C605.272 334.025 605.345 333.99 605.418 333.944ZM582.222 327.519C582.357 327.439 582.455 327.371 582.44 327.367C582.424 327.363 582.3 327.424 582.165 327.503C582.029 327.582 581.931 327.651 581.947 327.655C581.963 327.659 582.086 327.598 582.222 327.519ZM593.191 330.465C593.194 330.453 593.161 330.397 593.117 330.34C593.045 330.246 593.043 330.248 593.09 330.356C593.14 330.469 593.179 330.511 593.191 330.465ZM605.754 333.749C605.849 333.679 605.847 333.677 605.738 333.722C605.623 333.77 605.581 333.807 605.628 333.82C605.639 333.823 605.696 333.791 605.754 333.749ZM593.021 330.184C593.024 330.174 592.953 330.054 592.863 329.916L592.701 329.666L592.841 329.929C592.972 330.173 593.01 330.227 593.021 330.184ZM582.799 327.193C582.935 327.114 583.032 327.045 583.017 327.041C583.001 327.037 582.877 327.098 582.742 327.178C582.606 327.257 582.508 327.325 582.524 327.329C582.54 327.334 582.663 327.272 582.799 327.193ZM606.284 333.456C606.357 333.409 606.405 333.368 606.389 333.364C606.373 333.359 606.3 333.394 606.227 333.44C606.153 333.487 606.106 333.528 606.122 333.532C606.138 333.536 606.211 333.502 606.284 333.456ZM569.477 323.571C569.48 323.559 569.447 323.503 569.403 323.446C569.332 323.352 569.329 323.353 569.376 323.461C569.426 323.574 569.465 323.617 569.477 323.571ZM592.684 329.613C592.687 329.604 592.616 329.483 592.526 329.346L592.364 329.095L592.504 329.358C592.635 329.603 592.673 329.656 592.684 329.613ZM583.376 326.867C583.512 326.788 583.61 326.72 583.594 326.715C583.578 326.711 583.455 326.773 583.319 326.852C583.184 326.931 583.086 326.999 583.101 327.004C583.117 327.008 583.241 326.946 583.376 326.867ZM569.265 323.218C569.268 323.209 569.197 323.088 569.107 322.951L568.945 322.7L569.086 322.963C569.216 323.208 569.254 323.261 569.265 323.218ZM606.861 333.13C606.934 333.083 606.982 333.042 606.966 333.038C606.95 333.034 606.877 333.068 606.804 333.115C606.731 333.161 606.683 333.202 606.699 333.207C606.715 333.211 606.788 333.176 606.861 333.13ZM592.347 329.042C592.35 329.033 592.279 328.913 592.189 328.775L592.027 328.524L592.167 328.787C592.298 329.032 592.336 329.085 592.347 329.042ZM583.953 326.541C584.089 326.462 584.187 326.394 584.171 326.39C584.156 326.385 584.032 326.447 583.896 326.526C583.761 326.605 583.663 326.674 583.678 326.678C583.694 326.682 583.818 326.621 583.953 326.541ZM568.928 322.647C568.931 322.638 568.86 322.518 568.77 322.38L568.608 322.129L568.748 322.392C568.879 322.637 568.917 322.69 568.928 322.647ZM607.438 332.804C607.512 332.758 607.559 332.716 607.543 332.712C607.528 332.708 607.455 332.742 607.381 332.789C607.308 332.835 607.261 332.877 607.276 332.881C607.292 332.885 607.365 332.851 607.438 332.804ZM592.01 328.472C592.013 328.462 591.942 328.342 591.852 328.204L591.69 327.954L591.83 328.217C591.961 328.461 591.999 328.515 592.01 328.472ZM584.531 326.216C584.666 326.136 584.764 326.068 584.748 326.064C584.733 326.06 584.609 326.121 584.474 326.2C584.338 326.28 584.24 326.348 584.256 326.352C584.271 326.356 584.395 326.295 584.531 326.216ZM568.591 322.077C568.594 322.067 568.523 321.947 568.433 321.809L568.271 321.559L568.411 321.822C568.542 322.066 568.58 322.119 568.591 322.077ZM591.673 327.901C591.676 327.892 591.605 327.771 591.515 327.634L591.353 327.383L591.493 327.646C591.624 327.891 591.662 327.944 591.673 327.901ZM608.485 332.214C608.62 332.134 608.718 332.066 608.702 332.062C608.687 332.058 608.563 332.119 608.427 332.198C608.292 332.278 608.194 332.346 608.21 332.35C608.225 332.354 608.349 332.293 608.485 332.214ZM585.108 325.89C585.243 325.811 585.341 325.742 585.326 325.738C585.31 325.734 585.186 325.795 585.051 325.875C584.915 325.954 584.817 326.022 584.833 326.026C584.849 326.031 584.972 325.969 585.108 325.89ZM568.254 321.506C568.257 321.497 568.186 321.376 568.096 321.238L567.934 320.988L568.074 321.251C568.205 321.495 568.243 321.549 568.254 321.506ZM591.336 327.33C591.339 327.321 591.268 327.201 591.178 327.063L591.016 326.812L591.156 327.075C591.287 327.32 591.325 327.373 591.336 327.33ZM585.685 325.564C585.821 325.485 585.919 325.417 585.903 325.412C585.887 325.408 585.763 325.47 585.628 325.549C585.492 325.628 585.394 325.697 585.41 325.701C585.426 325.705 585.55 325.644 585.685 325.564ZM567.917 320.935C567.92 320.926 567.849 320.806 567.759 320.668L567.597 320.417L567.737 320.68C567.868 320.925 567.906 320.978 567.917 320.935ZM590.999 326.76C591.002 326.75 590.931 326.63 590.841 326.492L590.679 326.242L590.819 326.505C590.95 326.749 590.988 326.803 590.999 326.76ZM586.262 325.239C586.398 325.159 586.496 325.091 586.48 325.087C586.464 325.083 586.341 325.144 586.205 325.223C586.07 325.303 585.972 325.371 585.987 325.375C586.003 325.379 586.127 325.318 586.262 325.239ZM567.58 320.365C567.583 320.355 567.512 320.235 567.422 320.097L567.26 319.847L567.4 320.109C567.531 320.354 567.569 320.407 567.58 320.365ZM590.662 326.189C590.665 326.18 590.594 326.059 590.504 325.922L590.342 325.671L590.482 325.934C590.613 326.179 590.651 326.232 590.662 326.189ZM587.133 324.736L587.677 324.417L587.122 324.717C586.606 324.996 586.532 325.041 586.574 325.052C586.583 325.054 586.834 324.912 587.133 324.736ZM590.325 325.618C590.328 325.609 590.256 325.489 590.167 325.351L590.005 325.1L590.145 325.363C590.276 325.608 590.314 325.661 590.325 325.618ZM566.864 319.151C566.867 319.141 566.815 319.052 566.749 318.954L566.628 318.777L566.725 318.968C566.816 319.146 566.853 319.195 566.864 319.151ZM610.902 330.85C610.975 330.803 611.022 330.762 611.007 330.758C610.991 330.754 610.918 330.788 610.845 330.835C610.771 330.881 610.724 330.922 610.74 330.927C610.755 330.931 610.828 330.896 610.902 330.85ZM589.988 325.048C589.991 325.038 589.919 324.918 589.83 324.78L589.668 324.53L589.808 324.793C589.939 325.037 589.977 325.09 589.988 325.048ZM587.994 324.261C588.129 324.182 588.227 324.114 588.212 324.11C588.196 324.105 588.072 324.167 587.937 324.246C587.801 324.325 587.703 324.394 587.719 324.398C587.735 324.402 587.858 324.341 587.994 324.261ZM566.569 318.652C566.572 318.642 566.51 318.538 566.432 318.42L566.291 318.206L566.41 318.433C566.521 318.645 566.558 318.695 566.569 318.652ZM589.651 324.477C589.654 324.468 589.582 324.347 589.493 324.209L589.33 323.959L589.471 324.222C589.602 324.466 589.64 324.52 589.651 324.477ZM589.222 323.795C589.29 323.899 589.286 323.877 589.21 323.732C589.145 323.607 589.08 323.502 589.065 323.498C589.05 323.494 589.051 323.512 589.067 323.54C589.083 323.567 588.907 323.702 588.675 323.84L588.254 324.091L588.685 323.861L589.116 323.631L589.222 323.795ZM566.232 318.082C566.235 318.072 566.164 317.952 566.074 317.814L565.912 317.564L566.052 317.827C566.183 318.071 566.221 318.125 566.232 318.082ZM612.056 330.198C612.129 330.152 612.177 330.111 612.161 330.106C612.145 330.102 612.072 330.137 611.999 330.183C611.926 330.229 611.878 330.271 611.894 330.275C611.91 330.279 611.983 330.245 612.056 330.198ZM565.895 317.511C565.898 317.502 565.827 317.381 565.737 317.244L565.575 316.993L565.715 317.256C565.846 317.501 565.884 317.554 565.895 317.511ZM589.02 323.405C589.023 323.394 588.98 323.322 588.925 323.244L588.825 323.103L588.9 323.258C588.971 323.404 589.008 323.449 589.02 323.405ZM589.945 323.15C589.956 323.108 589.893 323.139 589.59 323.323L589.264 323.521L589.602 323.344C589.789 323.246 589.943 323.159 589.945 323.15ZM613.107 329.697C613.096 329.659 613.132 329.597 613.187 329.558C613.278 329.495 613.274 329.492 613.141 329.531C613.032 329.563 613.006 329.597 613.037 329.663C613.087 329.769 613.137 329.794 613.107 329.697ZM588.81 323.046C588.813 323.035 588.779 322.978 588.736 322.921C588.664 322.827 588.661 322.829 588.709 322.937C588.758 323.05 588.797 323.092 588.81 323.046ZM588.641 322.761C588.644 322.749 588.611 322.693 588.567 322.636C588.495 322.542 588.493 322.543 588.54 322.651C588.59 322.765 588.629 322.807 588.641 322.761ZM590.88 322.633C591.335 322.375 591.695 322.161 591.679 322.156C591.664 322.152 591.278 322.36 590.823 322.618C590.368 322.875 590.008 323.09 590.024 323.094C590.039 323.098 590.425 322.891 590.88 322.633ZM588.473 322.475C588.476 322.464 588.442 322.408 588.399 322.351C588.327 322.257 588.324 322.258 588.372 322.366C588.421 322.479 588.46 322.522 588.473 322.475ZM588.303 322.194C588.305 322.185 588.234 322.065 588.145 321.927L587.982 321.676L588.123 321.939C588.254 322.184 588.291 322.237 588.303 322.194ZM587.966 321.624C587.968 321.614 587.897 321.494 587.808 321.356L587.645 321.106L587.786 321.368C587.917 321.613 587.954 321.666 587.966 321.624ZM587.629 321.053C587.631 321.044 587.56 320.923 587.471 320.785L587.308 320.535L587.449 320.798C587.58 321.042 587.617 321.096 587.629 321.053ZM592.034 321.981C592.17 321.902 592.268 321.834 592.252 321.83C592.237 321.825 592.113 321.887 591.977 321.966C591.842 322.045 591.744 322.114 591.76 322.118C591.775 322.122 591.899 322.061 592.034 321.981ZM587.292 320.482C587.294 320.473 587.223 320.352 587.134 320.215L586.971 319.964L587.112 320.227C587.243 320.472 587.28 320.525 587.292 320.482ZM592.906 321.479L593.449 321.159L592.894 321.46C592.589 321.625 592.337 321.767 592.335 321.775C592.324 321.816 592.401 321.776 592.906 321.479ZM586.955 319.912C586.957 319.902 586.886 319.782 586.797 319.644L586.634 319.394L586.775 319.656C586.906 319.901 586.943 319.954 586.955 319.912ZM565.939 310.035L566.944 306.281L571.673 307.546C577.67 309.149 582.069 310.332 582.084 310.359C582.093 310.374 580.354 316.931 580.116 317.782C580.1 317.837 576.292 316.833 573.011 315.953C569.068 314.897 568.867 314.838 568.965 314.764C569.064 314.691 569.062 314.69 568.925 314.753C568.794 314.814 568.606 314.773 566.857 314.304L564.933 313.789L565.939 310.035ZM600.653 319.3L601.668 315.512L601.788 315.58C601.854 315.617 607.536 317.157 610.828 318.039L616.813 319.644L615.808 323.397L614.802 327.151L608.688 325.513L599.638 323.088L600.653 319.3ZM570.547 313.867L571.957 313.059L570.536 313.848C569.754 314.283 569.113 314.645 569.111 314.653C569.1 314.692 569.237 314.618 570.547 313.867ZM586.618 319.341C586.62 319.331 586.549 319.211 586.46 319.073L586.297 318.823L586.438 319.086C586.569 319.33 586.606 319.384 586.618 319.341ZM594.06 320.828L594.603 320.508L594.048 320.808C593.533 321.087 593.459 321.132 593.501 321.143C593.509 321.146 593.761 321.004 594.06 320.828ZM610.768 325.747C610.771 325.736 610.738 325.68 610.695 325.623C610.623 325.529 610.62 325.53 610.667 325.638C610.717 325.751 610.756 325.794 610.768 325.747ZM610.515 325.321C610.518 325.311 610.475 325.238 610.42 325.161L610.32 325.02L610.395 325.175C610.466 325.321 610.503 325.366 610.515 325.321ZM586.281 318.77C586.283 318.761 586.212 318.64 586.123 318.503L585.96 318.252L586.101 318.515C586.232 318.76 586.269 318.813 586.281 318.77ZM610.178 324.751C610.181 324.74 610.138 324.668 610.083 324.59L609.983 324.449L610.058 324.604C610.129 324.75 610.166 324.795 610.178 324.751ZM585.944 318.199C585.946 318.19 585.875 318.07 585.786 317.932L585.623 317.681L585.764 317.944C585.895 318.189 585.932 318.242 585.944 318.199ZM595.214 320.176L595.758 319.857L595.203 320.157C594.687 320.436 594.613 320.481 594.655 320.492C594.664 320.494 594.915 320.352 595.214 320.176ZM609.841 324.18C609.844 324.169 609.801 324.097 609.746 324.019L609.646 323.878L609.721 324.033C609.792 324.179 609.829 324.225 609.841 324.18ZM585.607 317.629C585.609 317.619 585.538 317.499 585.449 317.361L585.286 317.111L585.427 317.374C585.558 317.618 585.595 317.672 585.607 317.629ZM609.504 323.609C609.507 323.599 609.464 323.526 609.409 323.449L609.309 323.308L609.384 323.463C609.455 323.609 609.492 323.654 609.504 323.609ZM585.27 317.058C585.272 317.049 585.201 316.928 585.112 316.791L584.949 316.54L585.09 316.803C585.221 317.048 585.258 317.101 585.27 317.058ZM596.075 319.701C596.211 319.622 596.309 319.554 596.293 319.55C596.277 319.545 596.153 319.607 596.018 319.686C595.882 319.765 595.784 319.834 595.8 319.838C595.816 319.842 595.94 319.781 596.075 319.701ZM609.167 323.039C609.17 323.028 609.127 322.956 609.072 322.878L608.972 322.737L609.047 322.892C609.118 323.038 609.155 323.083 609.167 323.039ZM572.274 312.904C572.41 312.824 572.508 312.756 572.492 312.752C572.476 312.748 572.353 312.809 572.217 312.888C572.081 312.968 571.983 313.036 571.999 313.04C572.015 313.044 572.139 312.983 572.274 312.904ZM584.933 316.487C584.935 316.478 584.864 316.358 584.775 316.22L584.612 315.969L584.753 316.232C584.884 316.477 584.921 316.53 584.933 316.487ZM596.58 319.416C596.675 319.359 596.739 319.309 596.723 319.305C596.708 319.3 596.617 319.344 596.523 319.401C596.428 319.458 596.364 319.509 596.38 319.513C596.395 319.517 596.486 319.474 596.58 319.416ZM608.914 322.612C608.917 322.602 608.865 322.513 608.798 322.415L608.677 322.238L608.775 322.429C608.865 322.607 608.902 322.656 608.914 322.612ZM584.596 315.915C584.599 315.905 584.546 315.817 584.48 315.719L584.359 315.541L584.457 315.733C584.547 315.911 584.584 315.959 584.596 315.915ZM567.587 303.887C567.877 302.823 568.657 301.503 569.57 300.53C570.113 299.951 571.117 299.193 571.762 298.873C571.995 298.758 572.037 298.755 572.106 298.846C572.179 298.94 572.181 298.938 572.131 298.825C572.082 298.714 572.101 298.691 572.317 298.589C572.81 298.359 573.872 298.04 574.518 297.929C575.251 297.802 575.735 297.775 576.616 297.812C577.197 297.836 580.163 298.63 586.882 300.411L593.63 302.199L592.511 306.375L591.392 310.55L577.986 306.958L567.515 304.153L567.587 303.887ZM594.497 307.536C595.262 304.681 595.471 303.959 595.519 304.006C595.568 304.052 595.57 304.045 595.529 303.97C595.495 303.907 595.528 303.688 595.625 303.326L595.772 302.777L602.225 304.506C606.547 305.664 611.755 307.081 612.043 307.202C613.417 307.778 614.566 308.588 615.434 309.593C615.947 310.187 616.242 310.604 616.186 310.656C616.16 310.68 616.163 310.698 616.193 310.697C616.335 310.692 616.89 311.737 617.173 312.543C617.699 314.042 617.808 315.927 617.447 317.277L617.384 317.515L603.992 313.926L593.535 311.125L594.497 307.536ZM587.626 306.779C587.902 306.622 588.115 306.49 588.099 306.486C588.083 306.481 587.845 306.607 587.569 306.764C587.293 306.921 587.08 307.053 587.095 307.057C587.111 307.061 587.35 306.936 587.626 306.779ZM575.034 303.747C575.036 303.738 574.965 303.617 574.876 303.48L574.713 303.229L574.854 303.492C574.985 303.737 575.022 303.79 575.034 303.747ZM598.931 309.73C598.933 309.721 598.862 309.6 598.773 309.462L598.61 309.212L598.751 309.475C598.882 309.719 598.919 309.773 598.931 309.73ZM574.445 302.744C574.448 302.733 574.415 302.676 574.371 302.619C574.299 302.526 574.297 302.527 574.344 302.635C574.394 302.748 574.433 302.79 574.445 302.744ZM588.456 306.311C588.591 306.232 588.689 306.163 588.673 306.159C588.658 306.155 588.534 306.216 588.398 306.296C588.263 306.375 588.165 306.443 588.181 306.447C588.196 306.452 588.32 306.39 588.456 306.311ZM598.594 309.159C598.596 309.15 598.525 309.03 598.436 308.892L598.273 308.641L598.414 308.904C598.545 309.149 598.582 309.202 598.594 309.159ZM612.793 312.607L613.009 312.47L612.78 312.584C612.653 312.648 612.548 312.707 612.545 312.717C612.534 312.76 612.591 312.735 612.793 312.607ZM574.234 302.389C574.237 302.379 574.194 302.307 574.139 302.229L574.039 302.088L574.114 302.243C574.185 302.389 574.222 302.434 574.234 302.389ZM589.327 305.809L589.87 305.489L589.315 305.789C588.799 306.068 588.726 306.113 588.767 306.124C588.776 306.127 589.028 305.985 589.327 305.809ZM598.257 308.589C598.259 308.579 598.188 308.459 598.099 308.321L597.936 308.071L598.077 308.333C598.208 308.578 598.245 308.631 598.257 308.589ZM613.37 312.281L613.587 312.144L613.357 312.259C613.23 312.322 613.125 312.381 613.122 312.391C613.111 312.434 613.168 312.409 613.37 312.281ZM597.92 308.018C597.922 308.008 597.851 307.888 597.762 307.75L597.599 307.5L597.74 307.763C597.871 308.007 597.908 308.061 597.92 308.018ZM613.947 311.955L614.164 311.818L613.934 311.933C613.808 311.996 613.702 312.056 613.7 312.065C613.688 312.109 613.745 312.083 613.947 311.955ZM573.56 301.248C573.563 301.237 573.52 301.165 573.465 301.088L573.365 300.946L573.44 301.102C573.511 301.247 573.548 301.293 573.56 301.248ZM590.764 305.008C591.22 304.75 591.579 304.536 591.564 304.532C591.548 304.527 591.163 304.735 590.707 304.993C590.252 305.251 589.892 305.465 589.908 305.469C589.924 305.473 590.309 305.266 590.764 305.008ZM597.583 307.447C597.585 307.438 597.514 307.317 597.425 307.18L597.262 306.929L597.403 307.192C597.534 307.437 597.571 307.49 597.583 307.447ZM614.524 311.63L614.741 311.493L614.511 311.607C614.385 311.67 614.279 311.73 614.277 311.74C614.265 311.783 614.323 311.757 614.524 311.63ZM597.245 306.876C597.248 306.867 597.177 306.747 597.087 306.609L596.925 306.358L597.066 306.621C597.196 306.866 597.234 306.919 597.245 306.876ZM615.102 311.304L615.318 311.167L615.089 311.282C614.874 311.389 614.823 311.424 614.867 311.436C614.877 311.439 614.983 311.379 615.102 311.304ZM572.886 300.107C572.889 300.096 572.846 300.024 572.791 299.946L572.691 299.805L572.766 299.96C572.837 300.106 572.874 300.152 572.886 300.107ZM596.908 306.306C596.911 306.296 596.84 306.176 596.75 306.038L596.588 305.788L596.729 306.051C596.859 306.295 596.897 306.349 596.908 306.306ZM591.919 304.357C592.054 304.277 592.152 304.209 592.137 304.205C592.121 304.201 591.997 304.262 591.862 304.341C591.726 304.421 591.628 304.489 591.644 304.493C591.66 304.497 591.783 304.436 591.919 304.357ZM596.571 305.735C596.574 305.726 596.503 305.605 596.413 305.468L596.251 305.217L596.392 305.48C596.522 305.725 596.56 305.778 596.571 305.735ZM615.96 310.828C616.034 310.782 616.081 310.741 616.065 310.736C616.049 310.732 615.976 310.767 615.903 310.813C615.83 310.86 615.782 310.901 615.798 310.905C615.814 310.909 615.887 310.875 615.96 310.828ZM592.496 304.031C592.632 303.952 592.73 303.883 592.714 303.879C592.698 303.875 592.574 303.936 592.439 304.016C592.303 304.095 592.205 304.163 592.221 304.167C592.237 304.172 592.361 304.11 592.496 304.031ZM596.234 305.164C596.237 305.155 596.166 305.035 596.076 304.897L595.914 304.646L596.054 304.909C596.185 305.154 596.223 305.207 596.234 305.164ZM592.965 303.766C593.038 303.72 593.086 303.678 593.07 303.674C593.054 303.67 592.981 303.705 592.908 303.751C592.835 303.797 592.787 303.839 592.803 303.843C592.819 303.847 592.892 303.813 592.965 303.766ZM595.897 304.594C595.9 304.584 595.829 304.464 595.739 304.326L595.577 304.076L595.717 304.339C595.848 304.583 595.886 304.637 595.897 304.594Z" fill="white"/>
<defs>
<filter id="filter0_dddd_1644_138" x="0.355225" y="1.35547" width="516.958" height="395.188" filterUnits="userSpaceOnUse" color-interpolation-filters="sRGB">
<feFlood flood-opacity="0" result="BackgroundImageFix"/>
<feColorMatrix in="SourceAlpha" type="matrix" values="0 0 0 0 0 0 0 0 0 0 0 0 0 0 0 0 0 0 127 0" result="hardAlpha"/>
<feMorphology radius="4" operator="erode" in="SourceAlpha" result="effect1_dropShadow_1644_138"/>
<feOffset dy="8"/>
<feGaussianBlur stdDeviation="4"/>
<feColorMatrix type="matrix" values="0 0 0 0 0.960784 0 0 0 0 0.270588 0 0 0 0 0.384314 0 0 0 0.12 0"/>
<feBlend mode="normal" in2="BackgroundImageFix" result="effect1_dropShadow_1644_138"/>
<feColorMatrix in="SourceAlpha" type="matrix" values="0 0 0 0 0 0 0 0 0 0 0 0 0 0 0 0 0 0 127 0" result="hardAlpha"/>
<feOffset dy="16"/>
<feGaussianBlur stdDeviation="12"/>
<feColorMatrix type="matrix" values="0 0 0 0 0.960784 0 0 0 0 0.270588 0 0 0 0 0.384314 0 0 0 0.24 0"/>
<feBlend mode="normal" in2="effect1_dropShadow_1644_138" result="effect2_dropShadow_1644_138"/>
<feColorMatrix in="SourceAlpha" type="matrix" values="0 0 0 0 0 0 0 0 0 0 0 0 0 0 0 0 0 0 127 0" result="hardAlpha"/>
<feMorphology radius="1" operator="erode" in="SourceAlpha" result="effect3_dropShadow_1644_138"/>
<feOffset dy="2"/>
<feGaussianBlur stdDeviation="2"/>
<feColorMatrix type="matrix" values="0 0 0 0 0.105882 0 0 0 0 0.0392157 0 0 0 0 0.321569 0 0 0 0.12 0"/>
<feBlend mode="normal" in2="effect2_dropShadow_1644_138" result="effect3_dropShadow_1644_138"/>
<feColorMatrix in="SourceAlpha" type="matrix" values="0 0 0 0 0 0 0 0 0 0 0 0 0 0 0 0 0 0 127 0" result="hardAlpha"/>
<feOffset/>
<feGaussianBlur stdDeviation="0.5"/>
<feColorMatrix type="matrix" values="0 0 0 0 0.960784 0 0 0 0 0.270588 0 0 0 0 0.384314 0 0 0 0.24 0"/>
<feBlend mode="normal" in2="effect3_dropShadow_1644_138" result="effect4_dropShadow_1644_138"/>
<feBlend mode="normal" in="SourceGraphic" in2="effect4_dropShadow_1644_138" result="shape"/>
</filter>
<filter id="filter1_dddd_1644_138" x="35.1475" y="18.751" width="516.958" height="395.188" filterUnits="userSpaceOnUse" color-interpolation-filters="sRGB">
<feFlood flood-opacity="0" result="BackgroundImageFix"/>
<feColorMatrix in="SourceAlpha" type="matrix" values="0 0 0 0 0 0 0 0 0 0 0 0 0 0 0 0 0 0 127 0" result="hardAlpha"/>
<feMorphology radius="4" operator="erode" in="SourceAlpha" result="effect1_dropShadow_1644_138"/>
<feOffset dy="8"/>
<feGaussianBlur stdDeviation="4"/>
<feColorMatrix type="matrix" values="0 0 0 0 0 0 0 0 0 0.733333 0 0 0 0 1 0 0 0 0.12 0"/>
<feBlend mode="normal" in2="BackgroundImageFix" result="effect1_dropShadow_1644_138"/>
<feColorMatrix in="SourceAlpha" type="matrix" values="0 0 0 0 0 0 0 0 0 0 0 0 0 0 0 0 0 0 127 0" result="hardAlpha"/>
<feOffset dy="16"/>
<feGaussianBlur stdDeviation="12"/>
<feColorMatrix type="matrix" values="0 0 0 0 0 0 0 0 0 0.733333 0 0 0 0 1 0 0 0 0.24 0"/>
<feBlend mode="normal" in2="effect1_dropShadow_1644_138" result="effect2_dropShadow_1644_138"/>
<feColorMatrix in="SourceAlpha" type="matrix" values="0 0 0 0 0 0 0 0 0 0 0 0 0 0 0 0 0 0 127 0" result="hardAlpha"/>
<feMorphology radius="1" operator="erode" in="SourceAlpha" result="effect3_dropShadow_1644_138"/>
<feOffset dy="2"/>
<feGaussianBlur stdDeviation="2"/>
<feColorMatrix type="matrix" values="0 0 0 0 0.0392157 0 0 0 0 0.27451 0 0 0 0 0.321569 0 0 0 0.12 0"/>
<feBlend mode="normal" in2="effect2_dropShadow_1644_138" result="effect3_dropShadow_1644_138"/>
<feColorMatrix in="SourceAlpha" type="matrix" values="0 0 0 0 0 0 0 0 0 0 0 0 0 0 0 0 0 0 127 0" result="hardAlpha"/>
<feOffset/>
<feGaussianBlur stdDeviation="0.5"/>
<feColorMatrix type="matrix" values="0 0 0 0 0 0 0 0 0 0.733333 0 0 0 0 1 0 0 0 0.24 0"/>
<feBlend mode="normal" in2="effect3_dropShadow_1644_138" result="effect4_dropShadow_1644_138"/>
<feBlend mode="normal" in="SourceGraphic" in2="effect4_dropShadow_1644_138" result="shape"/>
</filter>
<filter id="filter2_dddd_1644_138" x="69.9397" y="36.1475" width="516.958" height="395.188" filterUnits="userSpaceOnUse" color-interpolation-filters="sRGB">
<feFlood flood-opacity="0" result="BackgroundImageFix"/>
<feColorMatrix in="SourceAlpha" type="matrix" values="0 0 0 0 0 0 0 0 0 0 0 0 0 0 0 0 0 0 127 0" result="hardAlpha"/>
<feMorphology radius="4" operator="erode" in="SourceAlpha" result="effect1_dropShadow_1644_138"/>
<feOffset dy="8"/>
<feGaussianBlur stdDeviation="4"/>
<feColorMatrix type="matrix" values="0 0 0 0 1 0 0 0 0 0.670588 0 0 0 0 0 0 0 0 0.12 0"/>
<feBlend mode="normal" in2="BackgroundImageFix" result="effect1_dropShadow_1644_138"/>
<feColorMatrix in="SourceAlpha" type="matrix" values="0 0 0 0 0 0 0 0 0 0 0 0 0 0 0 0 0 0 127 0" result="hardAlpha"/>
<feOffset dy="16"/>
<feGaussianBlur stdDeviation="12"/>
<feColorMatrix type="matrix" values="0 0 0 0 1 0 0 0 0 0.670588 0 0 0 0 0 0 0 0 0.24 0"/>
<feBlend mode="normal" in2="effect1_dropShadow_1644_138" result="effect2_dropShadow_1644_138"/>
<feColorMatrix in="SourceAlpha" type="matrix" values="0 0 0 0 0 0 0 0 0 0 0 0 0 0 0 0 0 0 127 0" result="hardAlpha"/>
<feMorphology radius="1" operator="erode" in="SourceAlpha" result="effect3_dropShadow_1644_138"/>
<feOffset dy="2"/>
<feGaussianBlur stdDeviation="2"/>
<feColorMatrix type="matrix" values="0 0 0 0 0.0392157 0 0 0 0 0.27451 0 0 0 0 0.321569 0 0 0 0.12 0"/>
<feBlend mode="normal" in2="effect2_dropShadow_1644_138" result="effect3_dropShadow_1644_138"/>
<feColorMatrix in="SourceAlpha" type="matrix" values="0 0 0 0 0 0 0 0 0 0 0 0 0 0 0 0 0 0 127 0" result="hardAlpha"/>
<feOffset/>
<feGaussianBlur stdDeviation="0.5"/>
<feColorMatrix type="matrix" values="0 0 0 0 1 0 0 0 0 0.670588 0 0 0 0 0 0 0 0 0.24 0"/>
<feBlend mode="normal" in2="effect3_dropShadow_1644_138" result="effect4_dropShadow_1644_138"/>
<feBlend mode="normal" in="SourceGraphic" in2="effect4_dropShadow_1644_138" result="shape"/>
</filter>
<filter id="filter3_dddd_1644_138" x="104.732" y="53.543" width="516.958" height="395.188" filterUnits="userSpaceOnUse" color-interpolation-filters="sRGB">
<feFlood flood-opacity="0" result="BackgroundImageFix"/>
<feColorMatrix in="SourceAlpha" type="matrix" values="0 0 0 0 0 0 0 0 0 0 0 0 0 0 0 0 0 0 127 0" result="hardAlpha"/>
<feMorphology radius="4" operator="erode" in="SourceAlpha" result="effect1_dropShadow_1644_138"/>
<feOffset dy="8"/>
<feGaussianBlur stdDeviation="4"/>
<feColorMatrix type="matrix" values="0 0 0 0 0.611765 0 0 0 0 0.258824 0 0 0 0 0.960784 0 0 0 0.12 0"/>
<feBlend mode="normal" in2="BackgroundImageFix" result="effect1_dropShadow_1644_138"/>
<feColorMatrix in="SourceAlpha" type="matrix" values="0 0 0 0 0 0 0 0 0 0 0 0 0 0 0 0 0 0 127 0" result="hardAlpha"/>
<feOffset dy="16"/>
<feGaussianBlur stdDeviation="12"/>
<feColorMatrix type="matrix" values="0 0 0 0 0.611765 0 0 0 0 0.258824 0 0 0 0 0.960784 0 0 0 0.24 0"/>
<feBlend mode="normal" in2="effect1_dropShadow_1644_138" result="effect2_dropShadow_1644_138"/>
<feColorMatrix in="SourceAlpha" type="matrix" values="0 0 0 0 0 0 0 0 0 0 0 0 0 0 0 0 0 0 127 0" result="hardAlpha"/>
<feMorphology radius="1" operator="erode" in="SourceAlpha" result="effect3_dropShadow_1644_138"/>
<feOffset dy="2"/>
<feGaussianBlur stdDeviation="2"/>
<feColorMatrix type="matrix" values="0 0 0 0 0.105882 0 0 0 0 0.0392157 0 0 0 0 0.321569 0 0 0 0.12 0"/>
<feBlend mode="normal" in2="effect2_dropShadow_1644_138" result="effect3_dropShadow_1644_138"/>
<feColorMatrix in="SourceAlpha" type="matrix" values="0 0 0 0 0 0 0 0 0 0 0 0 0 0 0 0 0 0 127 0" result="hardAlpha"/>
<feOffset/>
<feGaussianBlur stdDeviation="0.5"/>
<feColorMatrix type="matrix" values="0 0 0 0 0.611765 0 0 0 0 0.258824 0 0 0 0 0.960784 0 0 0 0.24 0"/>
<feBlend mode="normal" in2="effect3_dropShadow_1644_138" result="effect4_dropShadow_1644_138"/>
<feBlend mode="normal" in="SourceGraphic" in2="effect4_dropShadow_1644_138" result="shape"/>
</filter>
<filter id="filter4_dddd_1644_138" x="139.524" y="70.9395" width="516.958" height="395.188" filterUnits="userSpaceOnUse" color-interpolation-filters="sRGB">
<feFlood flood-opacity="0" result="BackgroundImageFix"/>
<feColorMatrix in="SourceAlpha" type="matrix" values="0 0 0 0 0 0 0 0 0 0 0 0 0 0 0 0 0 0 127 0" result="hardAlpha"/>
<feOffset dy="8"/>
<feGaussianBlur stdDeviation="4"/>
<feColorMatrix type="matrix" values="0 0 0 0 0.611765 0 0 0 0 0.258824 0 0 0 0 0.960784 0 0 0 0.12 0"/>
<feBlend mode="normal" in2="BackgroundImageFix" result="effect1_dropShadow_1644_138"/>
<feColorMatrix in="SourceAlpha" type="matrix" values="0 0 0 0 0 0 0 0 0 0 0 0 0 0 0 0 0 0 127 0" result="hardAlpha"/>
<feOffset dy="16"/>
<feGaussianBlur stdDeviation="12"/>
<feColorMatrix type="matrix" values="0 0 0 0 0.611765 0 0 0 0 0.258824 0 0 0 0 0.960784 0 0 0 0.24 0"/>
<feBlend mode="normal" in2="effect1_dropShadow_1644_138" result="effect2_dropShadow_1644_138"/>
<feColorMatrix in="SourceAlpha" type="matrix" values="0 0 0 0 0 0 0 0 0 0 0 0 0 0 0 0 0 0 127 0" result="hardAlpha"/>
<feOffset dy="2"/>
<feGaussianBlur stdDeviation="2"/>
<feColorMatrix type="matrix" values="0 0 0 0 0.105882 0 0 0 0 0.0392157 0 0 0 0 0.321569 0 0 0 0.12 0"/>
<feBlend mode="normal" in2="effect2_dropShadow_1644_138" result="effect3_dropShadow_1644_138"/>
<feColorMatrix in="SourceAlpha" type="matrix" values="0 0 0 0 0 0 0 0 0 0 0 0 0 0 0 0 0 0 127 0" result="hardAlpha"/>
<feOffset/>
<feGaussianBlur stdDeviation="0.5"/>
<feColorMatrix type="matrix" values="0 0 0 0 0.611765 0 0 0 0 0.258824 0 0 0 0 0.960784 0 0 0 0.24 0"/>
<feBlend mode="normal" in2="effect3_dropShadow_1644_138" result="effect4_dropShadow_1644_138"/>
<feBlend mode="normal" in="SourceGraphic" in2="effect4_dropShadow_1644_138" result="shape"/>
</filter>
<filter id="filter5_bddd_1644_138" x="118.4" y="-66.3641" width="686.421" height="564.651" filterUnits="userSpaceOnUse" color-interpolation-filters="sRGB">
<feFlood flood-opacity="0" result="BackgroundImageFix"/>
<feGaussianBlur in="BackgroundImage" stdDeviation="54.3656"/>
<feComposite in2="SourceAlpha" operator="in" result="effect1_backgroundBlur_1644_138"/>
<feColorMatrix in="SourceAlpha" type="matrix" values="0 0 0 0 0 0 0 0 0 0 0 0 0 0 0 0 0 0 127 0" result="hardAlpha"/>
<feOffset dx="8" dy="8"/>
<feGaussianBlur stdDeviation="12"/>
<feColorMatrix type="matrix" values="0 0 0 0 0.0352941 0 0 0 0 0.0509804 0 0 0 0 0.0784314 0 0 0 0.06 0"/>
<feBlend mode="normal" in2="effect1_backgroundBlur_1644_138" result="effect2_dropShadow_1644_138"/>
<feColorMatrix in="SourceAlpha" type="matrix" values="0 0 0 0 0 0 0 0 0 0 0 0 0 0 0 0 0 0 127 0" result="hardAlpha"/>
<feOffset dx="-4" dy="-4"/>
<feGaussianBlur stdDeviation="4"/>
<feColorMatrix type="matrix" values="0 0 0 0 1 0 0 0 0 1 0 0 0 0 1 0 0 0 0.4 0"/>
<feBlend mode="normal" in2="effect2_dropShadow_1644_138" result="effect3_dropShadow_1644_138"/>
<feColorMatrix in="SourceAlpha" type="matrix" values="0 0 0 0 0 0 0 0 0 0 0 0 0 0 0 0 0 0 127 0" result="hardAlpha"/>
<feOffset dy="1"/>
<feGaussianBlur stdDeviation="0.5"/>
<feColorMatrix type="matrix" values="0 0 0 0 0.0352941 0 0 0 0 0.0509804 0 0 0 0 0.0784314 0 0 0 0.06 0"/>
<feBlend mode="normal" in2="effect3_dropShadow_1644_138" result="effect4_dropShadow_1644_138"/>
<feBlend mode="normal" in="SourceGraphic" in2="effect4_dropShadow_1644_138" result="shape"/>
</filter>
<filter id="filter6_bddd_1644_138" x="118.4" y="-66.3641" width="686.421" height="564.651" filterUnits="userSpaceOnUse" color-interpolation-filters="sRGB">
<feFlood flood-opacity="0" result="BackgroundImageFix"/>
<feGaussianBlur in="BackgroundImage" stdDeviation="54.3656"/>
<feComposite in2="SourceAlpha" operator="in" result="effect1_backgroundBlur_1644_138"/>
<feColorMatrix in="SourceAlpha" type="matrix" values="0 0 0 0 0 0 0 0 0 0 0 0 0 0 0 0 0 0 127 0" result="hardAlpha"/>
<feOffset dx="8" dy="8"/>
<feGaussianBlur stdDeviation="12"/>
<feColorMatrix type="matrix" values="0 0 0 0 0.0352941 0 0 0 0 0.0509804 0 0 0 0 0.0784314 0 0 0 0.06 0"/>
<feBlend mode="normal" in2="effect1_backgroundBlur_1644_138" result="effect2_dropShadow_1644_138"/>
<feColorMatrix in="SourceAlpha" type="matrix" values="0 0 0 0 0 0 0 0 0 0 0 0 0 0 0 0 0 0 127 0" result="hardAlpha"/>
<feOffset dx="-4" dy="-4"/>
<feGaussianBlur stdDeviation="4"/>
<feColorMatrix type="matrix" values="0 0 0 0 1 0 0 0 0 1 0 0 0 0 1 0 0 0 0.4 0"/>
<feBlend mode="normal" in2="effect2_dropShadow_1644_138" result="effect3_dropShadow_1644_138"/>
<feColorMatrix in="SourceAlpha" type="matrix" values="0 0 0 0 0 0 0 0 0 0 0 0 0 0 0 0 0 0 127 0" result="hardAlpha"/>
<feOffset dy="1"/>
<feGaussianBlur stdDeviation="0.5"/>
<feColorMatrix type="matrix" values="0 0 0 0 0.0352941 0 0 0 0 0.0509804 0 0 0 0 0.0784314 0 0 0 0.06 0"/>
<feBlend mode="normal" in2="effect3_dropShadow_1644_138" result="effect4_dropShadow_1644_138"/>
<feBlend mode="normal" in="SourceGraphic" in2="effect4_dropShadow_1644_138" result="shape"/>
</filter>
<filter id="filter7_dddd_1644_138" x="542.79" y="154.41" width="128.046" height="128.046" filterUnits="userSpaceOnUse" color-interpolation-filters="sRGB">
<feFlood flood-opacity="0" result="BackgroundImageFix"/>
<feColorMatrix in="SourceAlpha" type="matrix" values="0 0 0 0 0 0 0 0 0 0 0 0 0 0 0 0 0 0 127 0" result="hardAlpha"/>
<feOffset dy="8"/>
<feGaussianBlur stdDeviation="4"/>
<feColorMatrix type="matrix" values="0 0 0 0 0.611765 0 0 0 0 0.258824 0 0 0 0 0.960784 0 0 0 0.12 0"/>
<feBlend mode="normal" in2="BackgroundImageFix" result="effect1_dropShadow_1644_138"/>
<feColorMatrix in="SourceAlpha" type="matrix" values="0 0 0 0 0 0 0 0 0 0 0 0 0 0 0 0 0 0 127 0" result="hardAlpha"/>
<feOffset dy="16"/>
<feGaussianBlur stdDeviation="12"/>
<feColorMatrix type="matrix" values="0 0 0 0 0.611765 0 0 0 0 0.258824 0 0 0 0 0.960784 0 0 0 0.24 0"/>
<feBlend mode="normal" in2="effect1_dropShadow_1644_138" result="effect2_dropShadow_1644_138"/>
<feColorMatrix in="SourceAlpha" type="matrix" values="0 0 0 0 0 0 0 0 0 0 0 0 0 0 0 0 0 0 127 0" result="hardAlpha"/>
<feOffset dy="2"/>
<feGaussianBlur stdDeviation="2"/>
<feColorMatrix type="matrix" values="0 0 0 0 0.105882 0 0 0 0 0.0392157 0 0 0 0 0.321569 0 0 0 0.12 0"/>
<feBlend mode="normal" in2="effect2_dropShadow_1644_138" result="effect3_dropShadow_1644_138"/>
<feColorMatrix in="SourceAlpha" type="matrix" values="0 0 0 0 0 0 0 0 0 0 0 0 0 0 0 0 0 0 127 0" result="hardAlpha"/>
<feOffset/>
<feGaussianBlur stdDeviation="0.5"/>
<feColorMatrix type="matrix" values="0 0 0 0 0.611765 0 0 0 0 0.258824 0 0 0 0 0.960784 0 0 0 0.24 0"/>
<feBlend mode="normal" in2="effect3_dropShadow_1644_138" result="effect4_dropShadow_1644_138"/>
<feBlend mode="normal" in="SourceGraphic" in2="effect4_dropShadow_1644_138" result="shape"/>
</filter>
<linearGradient id="paint0_linear_1644_138" x1="417.5" y1="587" x2="637.498" y2="805.998" gradientUnits="userSpaceOnUse">
<stop stop-color="#00BBFF"/>
<stop offset="0.529825" stop-color="#9C42F5"/>
<stop offset="1" stop-color="#5D2DE1"/>
</linearGradient>
<linearGradient id="paint1_linear_1644_138" x1="-160.929" y1="295.425" x2="162.861" y2="606.791" gradientUnits="userSpaceOnUse">
<stop stop-color="#FF5E00"/>
<stop offset="0.541068" stop-color="#F54562"/>
<stop offset="1" stop-color="#C32DE1"/>
</linearGradient>
<linearGradient id="paint2_linear_1644_138" x1="-126.137" y1="312.821" x2="197.653" y2="624.186" gradientUnits="userSpaceOnUse">
<stop stop-color="#00FFAA"/>
<stop offset="0.530854" stop-color="#00BBFF"/>
<stop offset="1" stop-color="#4579F5"/>
</linearGradient>
<linearGradient id="paint3_linear_1644_138" x1="-91.3448" y1="330.217" x2="232.445" y2="641.583" gradientUnits="userSpaceOnUse">
<stop stop-color="#EEFF00"/>
<stop offset="0.508129" stop-color="#FFAA00"/>
<stop offset="1" stop-color="#FF5E00"/>
</linearGradient>
<linearGradient id="paint4_linear_1644_138" x1="-56.5526" y1="347.613" x2="267.237" y2="658.978" gradientUnits="userSpaceOnUse">
<stop stop-color="#00BBFF"/>
<stop offset="0.529825" stop-color="#9C42F5"/>
<stop offset="1" stop-color="#5D2DE1"/>
</linearGradient>
<linearGradient id="paint5_linear_1644_138" x1="-21.7603" y1="365.009" x2="302.03" y2="676.375" gradientUnits="userSpaceOnUse">
<stop stop-color="#FF00AA"/>
<stop offset="0.501768" stop-color="#9C42F5"/>
<stop offset="1" stop-color="#5D2DE1"/>
</linearGradient>
<linearGradient id="paint6_linear_1644_138" x1="41.8468" y1="103.486" x2="166.574" y2="535.031" gradientUnits="userSpaceOnUse">
<stop stop-color="white" stop-opacity="0.8"/>
<stop offset="0.51822" stop-color="#FAFBFC" stop-opacity="0.6"/>
<stop offset="1" stop-color="#F5F7FA" stop-opacity="0.4"/>
</linearGradient>
<linearGradient id="paint7_linear_1644_138" x1="529.514" y1="181.721" x2="586.1" y2="279.733" gradientUnits="userSpaceOnUse">
<stop stop-color="#FF00AA"/>
<stop offset="0.501768" stop-color="#9C42F5"/>
<stop offset="1" stop-color="#5D2DE1"/>
</linearGradient>
<linearGradient id="paint8_linear_1644_138" x1="529.514" y1="181.721" x2="586.1" y2="279.733" gradientUnits="userSpaceOnUse">
<stop stop-color="#F5F7FA" stop-opacity="0.4"/>
<stop offset="0.521392" stop-color="#F5F7FA" stop-opacity="0.06"/>
<stop offset="1" stop-color="#F5F7FA" stop-opacity="0.01"/>
</linearGradient>
</defs>
</svg>
