<svg width="747" height="477" fill="none" xmlns="http://www.w3.org/2000/svg"><rect x="527" y="477" width="219" height="220" rx="109.5" transform="rotate(-90 527 477)" fill="url(#a)"/><g filter="url(#b)"><path d="M31.78 175.098c-5.874-21.92-8.81-32.88-6.788-42.395a40.522 40.522 0 0 1 12.521-21.688c7.23-6.509 18.19-9.446 40.11-15.319L372.141 16.78c21.919-5.874 32.879-8.81 42.394-6.788a40.522 40.522 0 0 1 21.688 12.521c6.509 7.23 9.446 18.19 15.319 40.11l34.346 128.179c5.873 21.919 8.81 32.879 6.787 42.395a40.518 40.518 0 0 1-12.521 21.687c-7.229 6.509-18.189 9.446-40.109 15.319L145.527 349.12c-21.92 5.873-32.88 8.81-42.395 6.787a40.518 40.518 0 0 1-21.688-12.521c-6.509-7.229-9.445-18.189-15.319-40.109L31.78 175.098Z" fill="url(#c)"/></g><path d="M29.944 168.249 449.708 55.773l12.847 47.945L42.791 216.194l-12.847-47.945Z" fill="#fff"/><path opacity=".24" d="M98.448 267.35c-3.33-12.43 4.045-25.205 16.474-28.535l24.462-6.555c12.429-3.33 25.205 4.046 28.535 16.475 3.33 12.429-4.046 25.204-16.475 28.535l-24.461 6.554c-12.43 3.331-25.205-4.045-28.535-16.474Z" fill="#fff"/><g filter="url(#d)"><path d="M66.572 192.493c-5.873-21.92-8.81-32.88-6.788-42.395a40.52 40.52 0 0 1 12.522-21.687c7.229-6.509 18.189-9.446 40.108-15.319l294.52-78.917c21.92-5.873 32.879-8.81 42.395-6.787a40.52 40.52 0 0 1 21.687 12.52c6.509 7.23 9.446 18.19 15.319 40.11l34.346 128.179c5.873 21.92 8.81 32.88 6.787 42.395a40.521 40.521 0 0 1-12.521 21.688c-7.229 6.509-18.189 9.445-40.109 15.319l-294.519 78.916c-21.92 5.874-32.88 8.81-42.395 6.788a40.515 40.515 0 0 1-21.687-12.521c-6.509-7.23-9.446-18.19-15.32-40.109l-34.345-128.18Z" fill="url(#e)"/></g><path d="M64.737 185.645 484.5 73.169l12.847 47.945L77.583 233.59l-12.846-47.945Z" fill="#fff"/><path opacity=".24" d="M133.24 284.745c-3.331-12.429 4.045-25.205 16.474-28.535l24.462-6.554c12.429-3.331 25.205 4.045 28.535 16.474 3.33 12.429-4.045 25.205-16.475 28.535l-24.461 6.555c-12.429 3.33-25.205-4.046-28.535-16.475Z" fill="#fff"/><g filter="url(#f)"><path d="M101.364 209.89c-5.873-21.92-8.81-32.88-6.787-42.395a40.522 40.522 0 0 1 12.521-21.688c7.229-6.509 18.189-9.446 40.109-15.319l294.519-78.916c21.92-5.874 32.88-8.81 42.395-6.788a40.516 40.516 0 0 1 21.687 12.521c6.51 7.23 9.446 18.19 15.32 40.11l34.345 128.179c5.873 21.919 8.81 32.879 6.788 42.395a40.52 40.52 0 0 1-12.522 21.687c-7.229 6.509-18.189 9.446-40.108 15.319l-294.52 78.917c-21.92 5.873-32.879 8.81-42.395 6.787a40.518 40.518 0 0 1-21.687-12.521c-6.509-7.229-9.446-18.189-15.319-40.109L101.364 209.89Z" fill="url(#g)"/></g><path d="M99.529 203.041 519.292 90.565l12.847 47.945-419.763 112.476-12.847-47.945Z" fill="#fff"/><path opacity=".24" d="M168.032 302.142c-3.33-12.43 4.045-25.205 16.475-28.535l24.461-6.555c12.429-3.33 25.205 4.046 28.535 16.475 3.331 12.429-4.045 25.204-16.474 28.535l-24.462 6.554c-12.429 3.331-25.205-4.045-28.535-16.474Z" fill="#fff"/><g filter="url(#h)"><path d="M136.156 227.285c-5.873-21.92-8.81-32.88-6.787-42.395a40.518 40.518 0 0 1 12.521-21.687c7.229-6.509 18.189-9.446 40.109-15.319l294.519-78.917c21.92-5.873 32.88-8.81 42.395-6.787A40.522 40.522 0 0 1 540.601 74.7c6.509 7.23 9.445 18.19 15.319 40.109l34.345 128.179c5.874 21.92 8.811 32.88 6.788 42.395a40.521 40.521 0 0 1-12.521 21.688c-7.229 6.509-18.189 9.446-40.109 15.319l-294.519 78.916c-21.92 5.874-32.88 8.81-42.395 6.788a40.521 40.521 0 0 1-21.688-12.521c-6.509-7.23-9.446-18.19-15.319-40.109l-34.346-128.18Z" fill="url(#i)"/></g><path d="m134.321 220.437 419.763-112.476 12.847 47.945-419.763 112.476-12.847-47.945Z" fill="#fff"/><path opacity=".24" d="M202.824 319.537c-3.33-12.429 4.046-25.205 16.475-28.535l24.461-6.554c12.43-3.331 25.205 4.045 28.535 16.474 3.331 12.429-4.045 25.205-16.474 28.535l-24.462 6.555c-12.429 3.33-25.205-4.046-28.535-16.475Z" fill="#fff"/><g filter="url(#j)"><path d="M170.949 244.682c-5.874-21.92-8.81-32.88-6.788-42.395a40.521 40.521 0 0 1 12.521-21.688c7.23-6.509 18.189-9.446 40.109-15.319L511.31 86.364c21.92-5.874 32.88-8.81 42.395-6.788a40.522 40.522 0 0 1 21.688 12.521c6.509 7.23 9.446 18.189 15.319 40.109l34.346 128.18c5.873 21.919 8.81 32.879 6.787 42.395a40.518 40.518 0 0 1-12.521 21.687c-7.229 6.509-18.189 9.446-40.109 15.319l-294.519 78.917c-21.92 5.873-32.88 8.81-42.395 6.787a40.521 40.521 0 0 1-21.688-12.521c-6.509-7.229-9.445-18.189-15.319-40.109l-34.345-128.179Z" fill="url(#k)"/></g><path d="m169.113 237.833 419.764-112.476 12.846 47.945L181.96 285.778l-12.847-47.945Z" fill="#fff"/><path opacity=".24" d="M237.616 336.933c-3.33-12.429 4.046-25.204 16.475-28.534l24.462-6.555c12.429-3.33 25.204 4.046 28.535 16.475 3.33 12.429-4.046 25.204-16.475 28.535l-24.462 6.554c-12.429 3.331-25.204-4.045-28.535-16.475Z" fill="#fff"/><path d="M268.901 95.634c5.874-21.92 8.81-32.88 15.32-40.11a40.516 40.516 0 0 1 21.687-12.52c9.515-2.023 20.475.914 42.395 6.787l294.519 78.916c21.92 5.874 32.88 8.811 40.109 15.32a40.515 40.515 0 0 1 12.521 21.687c2.023 9.515-.914 20.475-6.787 42.395l-34.346 128.18c-5.873 21.919-8.81 32.879-15.319 40.108a40.524 40.524 0 0 1-21.687 12.522c-9.516 2.022-20.476-.915-42.395-6.788l-294.52-78.916c-21.919-5.874-32.879-8.81-40.109-15.319a40.521 40.521 0 0 1-12.521-21.688c-2.022-9.515.914-20.475 6.788-42.395l34.345-128.18Z" fill="#FDFDFD"/><path fill-rule="evenodd" clip-rule="evenodd" d="M642.56 129.686 348.041 50.77c-10.976-2.941-19.15-5.13-25.769-6.337-6.607-1.204-11.579-1.41-16.153-.438a39.51 39.51 0 0 0-21.146 12.208c-3.129 3.475-5.436 7.884-7.697 14.208-2.264 6.336-4.455 14.509-7.396 25.485l-34.346 128.179c-2.941 10.977-5.13 19.15-6.336 25.769-1.205 6.608-1.411 11.579-.439 16.154a39.512 39.512 0 0 0 12.208 21.145c3.476 3.129 7.884 5.436 14.209 7.697 6.335 2.265 14.508 4.455 25.484 7.396l294.52 78.917c10.976 2.941 19.149 5.13 25.768 6.336 6.608 1.205 11.579 1.411 16.154.439a39.505 39.505 0 0 0 21.145-12.208c3.13-3.476 5.436-7.885 7.697-14.209 2.265-6.336 4.456-14.509 7.397-25.485l34.345-128.179c2.941-10.976 5.131-19.15 6.337-25.769 1.204-6.607 1.411-11.579.439-16.153a39.507 39.507 0 0 0-12.209-21.145c-3.475-3.13-7.884-5.437-14.208-7.697-6.336-2.265-14.509-4.456-25.485-7.397ZM284.221 55.525c-6.51 7.23-9.446 18.189-15.32 40.109l-34.345 128.179c-5.874 21.92-8.81 32.88-6.788 42.395a40.521 40.521 0 0 0 12.521 21.688c7.23 6.509 18.19 9.445 40.109 15.319l294.52 78.916c21.919 5.873 32.879 8.81 42.395 6.788A40.524 40.524 0 0 0 639 376.397c6.509-7.229 9.446-18.189 15.319-40.108l34.346-128.18c5.873-21.92 8.81-32.88 6.787-42.395a40.515 40.515 0 0 0-12.521-21.687c-7.229-6.509-18.189-9.446-40.109-15.32L348.303 49.791c-21.92-5.873-32.88-8.81-42.395-6.787a40.516 40.516 0 0 0-21.687 12.52Z" fill="#212429" fill-opacity=".06"/><path d="M315.228 99.774c1.628.436 3.116.08 4.093-1l-1.268-1.28c-.714.664-1.562.823-2.392.6-1.44-.385-2.272-1.665-1.836-3.293.432-1.613 1.797-2.321 3.237-1.935.83.222 1.485.784 1.772 1.716l1.738-.474c-.303-1.44-1.422-2.461-3.05-2.897-2.645-.71-4.998.556-5.669 3.061-.672 2.505.729 4.793 3.375 5.502ZM324.294 94.434l.327-1.22-1.863-.5-2.24 8.36 1.957.525 1.087-4.055c.457-1.707 1.631-2.332 3.118-1.933.141.038.278.091.442.168l.499-1.862c-1.393-.374-2.528-.208-3.327.517ZM335.906 100.768c.7-2.615-.627-4.8-3.069-5.454-2.49-.667-4.799.627-5.466 3.116-.667 2.489.666 4.776 3.469 5.527 1.44.386 2.74.231 3.73-.46l-.725-1.486c-.759.451-1.575.551-2.514.299-1.456-.39-2.264-1.445-2.171-2.73l6.559 1.758c.066-.183.145-.414.187-.57Zm-3.489-3.888c1.284.344 1.985 1.42 1.819 2.668l-4.744-1.27c.515-1.172 1.657-1.738 2.925-1.398ZM346.022 95.457l-1.15 4.29c-.452-.943-1.31-1.56-2.39-1.849-2.427-.65-4.676.543-5.373 3.142-.696 2.599.651 4.772 3.078 5.422 1.143.306 2.218.175 3.09-.447l-.29 1.08 1.879.503 3.113-11.616-1.957-.525Zm-5.151 9.393c-1.409-.378-2.217-1.685-1.789-3.282.428-1.597 1.781-2.325 3.19-1.947 1.409.377 2.216 1.684 1.788 3.281-.427 1.597-1.78 2.325-3.189 1.948ZM351.022 98.81c.735.198 1.395-.196 1.579-.885.172-.642-.23-1.27-.95-1.463-.72-.193-1.391.181-1.567.839-.176.657.217 1.317.938 1.51Zm-3.596 9.474 1.957.525 2.24-8.361-1.957-.524-2.24 8.36ZM356.924 108.849c-.36.155-.781.16-1.188.051-.752-.201-1.041-.749-.823-1.563l1.065-3.976 2.239.599.42-1.565-2.239-.6.512-1.91-1.957-.524-.512 1.91-1.378-.37-.419 1.566 1.377.369-1.078 4.024c-.495 1.847.294 3.099 2.126 3.589.704.189 1.459.19 2.03-.06l-.175-1.54ZM366.72 113.571c1.628.437 3.116.08 4.093-1l-1.268-1.28c-.714.665-1.562.823-2.392.601-1.44-.386-2.272-1.666-1.836-3.294.432-1.613 1.797-2.321 3.237-1.935.83.222 1.485.784 1.772 1.716l1.738-.474c-.303-1.44-1.422-2.461-3.05-2.897-2.645-.709-4.998.556-5.669 3.061-.672 2.505.729 4.793 3.375 5.502ZM377.469 107.273c-1.346-.361-2.738-.364-3.815.085l.385 1.631c.765-.349 1.82-.402 2.759-.151 1.393.374 1.902 1.232 1.596 2.374l-.034.126-2.16-.579c-2.537-.68-3.77.164-4.143 1.558-.39 1.456.534 2.828 2.444 3.339 1.253.336 2.27.172 2.932-.422l-.272 1.017 1.847.495 1.313-4.9c.646-2.411-.441-3.927-2.852-4.573Zm-2.179 7.068c-1.002-.269-1.475-.882-1.286-1.587.163-.61.658-1.015 1.988-.658l2.02.541-.26.971c-.56.773-1.507.989-2.462.733ZM385.296 110.78l.327-1.221-1.863-.5-2.24 8.36 1.957.525 1.086-4.055c.457-1.706 1.632-2.331 3.119-1.933.141.038.277.091.441.169l.499-1.863c-1.393-.374-2.528-.208-3.326.518ZM397.284 109.193l-1.149 4.29c-.452-.944-1.311-1.56-2.391-1.849-2.426-.65-4.676.543-5.372 3.141-.696 2.599.651 4.772 3.078 5.423 1.142.306 2.218.175 3.089-.448l-.289 1.08 1.879.504 3.112-11.617-1.957-.524Zm-5.151 9.392c-1.409-.377-2.216-1.684-1.788-3.281.428-1.597 1.78-2.325 3.189-1.948 1.409.378 2.217 1.685 1.789 3.282-.428 1.597-1.781 2.325-3.19 1.947Z" fill="#141029" fill-opacity=".6"/><path d="m276.814 228.844.624-2.329 3.346.897 1.924-7.182-2.759-.739.477-1.781a28.7 28.7 0 0 0 1.168.103c.36.013.69.01.988-.008.298-.018.579-.048.842-.089.279-.051.556-.117.829-.197l2.113.566-2.705 10.098 2.818.755-.624 2.329-9.041-2.423ZM288.137 231.878l.44-1.644c1.086-.506 2.081-.98 2.983-1.424a29.445 29.445 0 0 0 2.366-1.317c.672-.421 1.218-.841 1.638-1.26.42-.418.689-.85.808-1.293.164-.613.112-1.124-.156-1.531-.265-.421-.724-.718-1.376-.893a2.624 2.624 0 0 0-1.475.024c-.47.14-.927.332-1.371.577l-1.131-1.961c.413-.238.81-.44 1.189-.604.393-.16.786-.272 1.18-.334a5.226 5.226 0 0 1 1.235-.067c.429.017.885.09 1.368.219a5.346 5.346 0 0 1 1.702.771c.486.326.871.716 1.155 1.169.3.444.49.936.569 1.474a3.972 3.972 0 0 1-.102 1.714c-.14.522-.407 1.023-.802 1.505a8.55 8.55 0 0 1-1.453 1.351c-.561.423-1.188.836-1.883 1.237-.691.388-1.407.762-2.147 1.123.363.056.75.124 1.161.207.428.072.805.152 1.131.24l2.955.792-.65 2.426-9.334-2.501ZM304.133 236.416c-1.07-.287-1.948-.69-2.634-1.209-.682-.533-1.193-1.131-1.532-1.795l1.818-1.464c.319.478.702.902 1.148 1.273.459.375.976.639 1.55.793.678.181 1.266.206 1.763.073.513-.142.833-.447.959-.917.073-.274.081-.538.023-.791s-.212-.49-.46-.71c-.245-.234-.599-.454-1.06-.662-.459-.221-1.053-.429-1.784-.625l.546-2.035c1.226.329 2.127.409 2.704.242.592-.177.955-.513 1.088-1.009.115-.43.041-.807-.222-1.129-.26-.335-.677-.58-1.251-.733a3.292 3.292 0 0 0-1.448-.074c-.47.084-.966.238-1.487.462l-.976-2.15a7.782 7.782 0 0 1 2.266-.63 6.166 6.166 0 0 1 2.385.178 7.149 7.149 0 0 1 1.797.733c.522.294.945.645 1.269 1.053.328.396.547.832.657 1.309.109.476.091.989-.056 1.537-.175.652-.532 1.151-1.072 1.495-.536.332-1.214.542-2.035.63l-.021.078c.727.418 1.29.954 1.688 1.606.402.639.495 1.363.278 2.172a3.059 3.059 0 0 1-.825 1.436c-.38.373-.84.656-1.381.846a5.586 5.586 0 0 1-1.754.285 7.647 7.647 0 0 1-1.941-.268ZM317.143 239.65l.797-2.974-5.988-1.605.529-1.976 7.189-6.086 3.483.933-1.945 7.26 1.566.42-.588 2.191-1.565-.419-.797 2.974-2.681-.718Zm-1.825-6.026 3.209.86.561-2.094c.105-.392.232-.84.382-1.345.165-.515.314-.965.445-1.349l-.078-.021c-.304.296-.62.589-.949.878-.329.29-.652.581-.968.874l-2.602 2.197ZM339.413 245.869c-1.083-.29-1.959-.7-2.628-1.229-.653-.538-1.168-1.123-1.543-1.755l1.779-1.474c.326.451.691.863 1.095 1.237.419.364.923.625 1.51.782.704.189 1.322.18 1.853-.028.544-.203.902-.625 1.073-1.264.168-.627.08-1.16-.263-1.602-.33-.438-.828-.746-1.493-.924a3.852 3.852 0 0 0-.578-.113 2.09 2.09 0 0 0-.496-.028 5.09 5.09 0 0 0-.542.064c-.19.033-.406.08-.646.142l-1.052-1.163 2.016-6.193 7.613 2.04-.651 2.427-5.127-1.374-.839 2.271c.315-.027.602-.027.86 0 .262.014.549.063.863.147a5.69 5.69 0 0 1 1.561.67c.48.296.873.654 1.181 1.072.307.418.507.898.6 1.44.105.545.069 1.151-.109 1.816-.186.692-.487 1.268-.904 1.73a4.226 4.226 0 0 1-1.444 1.081 4.932 4.932 0 0 1-1.771.427 5.97 5.97 0 0 1-1.918-.199ZM351.812 249.191a5.235 5.235 0 0 1-1.765-.85 4.568 4.568 0 0 1-1.311-1.526c-.336-.621-.545-1.356-.626-2.202-.077-.86.031-1.838.325-2.934.311-1.161.73-2.125 1.257-2.893.527-.767 1.112-1.359 1.755-1.774a5.018 5.018 0 0 1 2.047-.752 5.209 5.209 0 0 1 2.106.124c.888.238 1.624.596 2.209 1.074.588.466 1.037.956 1.346 1.473l-1.968 1.318a3.703 3.703 0 0 0-.816-.869 2.955 2.955 0 0 0-2.294-.677c-.374.039-.74.179-1.098.419-.341.23-.663.57-.965 1.02-.303.451-.565 1.038-.787 1.761a5.14 5.14 0 0 1 1.735-.604c.611-.088 1.151-.07 1.621.056a4.79 4.79 0 0 1 1.444.639c.428.282.769.625 1.024 1.029.269.408.436.879.503 1.414.066.536.012 1.129-.163 1.782-.175.652-.454 1.199-.839 1.642a4.028 4.028 0 0 1-1.329 1.049 4.433 4.433 0 0 1-1.635.464 5.421 5.421 0 0 1-1.776-.183Zm.518-2.168c.248.066.493.09.736.071.256-.015.49-.078.701-.189a1.86 1.86 0 0 0 .599-.511c.174-.233.308-.526.403-.878.171-.639.124-1.141-.142-1.506-.262-.378-.668-.64-1.216-.787a2.766 2.766 0 0 0-1.208-.03c-.44.077-.909.287-1.406.63a5.553 5.553 0 0 0-.003 1.341c.069.368.173.683.313.944.143.248.32.449.531.604.213.141.444.245.692.311ZM361.182 251.45c.329-1.016.68-1.936 1.054-2.758a16.67 16.67 0 0 1 1.312-2.313c.5-.719 1.072-1.391 1.715-2.015a21.223 21.223 0 0 1 2.278-1.928l-6.243-1.672.651-2.427 9.334 2.501-.472 1.761c-1.017.665-1.87 1.317-2.559 1.958a11.043 11.043 0 0 0-1.769 2.063 13.761 13.761 0 0 0-1.29 2.465 40.418 40.418 0 0 0-1.114 3.141l-2.897-.776ZM374.928 255.385a7.604 7.604 0 0 1-1.875-.754c-.528-.323-.954-.689-1.278-1.098a3.292 3.292 0 0 1-.651-1.328 3.16 3.16 0 0 1 .059-1.473c.101-.378.251-.702.449-.97a3.33 3.33 0 0 1 .734-.705c.288-.189.595-.344.922-.467a7.338 7.338 0 0 1 1.061-.281l.021-.079a6.15 6.15 0 0 1-.981-1.584c-.213-.56-.231-1.173-.052-1.839.139-.522.37-.963.69-1.325a3.332 3.332 0 0 1 1.155-.865c.459-.199.97-.306 1.534-.323a6.106 6.106 0 0 1 1.765.221c.627.168 1.165.403 1.615.706.467.292.836.636 1.108 1.031.275.381.447.811.514 1.291.084.47.058.959-.079 1.468a2.578 2.578 0 0 1-.948 1.424 4.76 4.76 0 0 1-1.561.819l-.021.078c.284.244.542.509.773.795.234.272.421.567.56.884.139.317.221.66.248 1.031.03.358-.011.745-.123 1.163-.133.495-.36.924-.68 1.286a3.304 3.304 0 0 1-1.214.849c-.471.195-1.025.306-1.661.331-.633.012-1.327-.083-2.084-.286Zm2.864-7.245c.777-.393 1.252-.916 1.427-1.568.129-.483.082-.908-.141-1.275-.219-.381-.616-.648-1.19-.801-.457-.123-.88-.11-1.269.037-.376.151-.629.468-.758.951-.136.508-.015.968.365 1.377.38.409.902.836 1.566 1.279Zm-2.251 5.27c.587.157 1.09.159 1.509.006.435-.163.722-.506.862-1.028.077-.287.07-.547-.021-.781a2.037 2.037 0 0 0-.485-.696 4.613 4.613 0 0 0-.818-.702c-.327-.242-.69-.507-1.088-.795a4.155 4.155 0 0 0-1.116.645c-.31.266-.518.602-.627 1.006-.147.548-.047 1.037.3 1.465.35.415.845.709 1.484.88ZM399.919 254.657c.379.101.788.113 1.228.035.457-.087.921-.306 1.392-.655.051-.503.042-.939-.027-1.307-.052-.378-.157-.693-.313-.944a1.622 1.622 0 0 0-.531-.604 2.061 2.061 0 0 0-.687-.331 2.348 2.348 0 0 0-.755-.076 1.777 1.777 0 0 0-.707.209 1.747 1.747 0 0 0-.578.516c-.171.22-.304.506-.398.858-.172.639-.126 1.148.136 1.526.266.365.679.622 1.24.773Zm-2.188 6.838c-.888-.238-1.624-.596-2.209-1.074-.585-.478-1.04-.971-1.366-1.478l1.988-1.313c.198.305.469.601.811.889a3.14 3.14 0 0 0 2.274.672 2.498 2.498 0 0 0 1.098-.419c.358-.24.688-.585.99-1.035.306-.463.57-1.057.792-1.781a5.652 5.652 0 0 1-1.779.614c-.598.092-1.125.076-1.582-.046a4.963 4.963 0 0 1-1.464-.644 3.626 3.626 0 0 1-1.044-1.035 3.375 3.375 0 0 1-.482-1.408c-.067-.535-.012-1.129.162-1.782.172-.639.443-1.181.814-1.627a4.344 4.344 0 0 1 1.335-1.069 4.37 4.37 0 0 1 1.649-.439 5.093 5.093 0 0 1 1.781.163 5.245 5.245 0 0 1 1.765.85c.55.399.994.91 1.331 1.531.336.622.537 1.361.601 2.217.081.847-.026 1.818-.319 2.914-.311 1.161-.731 2.125-1.258 2.893-.527.767-1.112 1.359-1.755 1.774a4.983 4.983 0 0 1-2.052.771 5.353 5.353 0 0 1-2.081-.138ZM410.13 264.817a7.643 7.643 0 0 1-1.875-.753c-.528-.324-.954-.69-1.279-1.098a3.309 3.309 0 0 1-.65-1.328 3.163 3.163 0 0 1 .059-1.474c.101-.378.251-.701.449-.97a3.33 3.33 0 0 1 .734-.705c.288-.189.595-.344.922-.466a7.213 7.213 0 0 1 1.061-.282l.021-.078a6.171 6.171 0 0 1-.981-1.585c-.213-.56-.231-1.173-.052-1.839a3.22 3.22 0 0 1 .69-1.325 3.332 3.332 0 0 1 1.155-.865c.459-.198.97-.306 1.534-.323a6.106 6.106 0 0 1 1.765.221c.627.168 1.165.403 1.615.706.467.293.836.636 1.108 1.031.275.381.447.812.514 1.291.084.47.058.959-.079 1.468a2.578 2.578 0 0 1-.948 1.424 4.76 4.76 0 0 1-1.561.819l-.021.078c.284.244.542.509.773.795.234.272.421.567.56.884.139.317.221.661.248 1.031.03.358-.011.745-.123 1.163-.133.496-.36.924-.68 1.286a3.292 3.292 0 0 1-1.214.849c-.471.196-1.025.306-1.661.331-.633.012-1.327-.083-2.084-.286Zm2.864-7.244c.777-.394 1.252-.916 1.427-1.569.129-.482.082-.907-.141-1.275-.219-.38-.616-.647-1.19-.801-.457-.123-.88-.11-1.269.037-.376.151-.629.468-.758.951-.136.509-.015.968.365 1.377.38.41.902.836 1.566 1.28Zm-2.251 5.269c.587.158 1.09.16 1.509.006.435-.163.722-.505.862-1.027.077-.287.07-.548-.021-.782a2.046 2.046 0 0 0-.485-.696 4.613 4.613 0 0 0-.818-.702c-.327-.241-.69-.506-1.088-.795a4.182 4.182 0 0 0-1.116.645c-.31.267-.518.602-.627 1.007-.147.548-.047 1.036.3 1.464.35.416.845.709 1.484.88ZM419.852 267.171c.329-1.017.68-1.936 1.054-2.759.391-.832.828-1.603 1.312-2.312.5-.719 1.072-1.391 1.715-2.016a21.22 21.22 0 0 1 2.278-1.927l-6.243-1.673.651-2.427 9.334 2.502-.472 1.761c-1.017.664-1.87 1.317-2.559 1.957a11.017 11.017 0 0 0-1.769 2.064 13.728 13.728 0 0 0-1.29 2.465 40.418 40.418 0 0 0-1.114 3.141l-2.897-.776ZM433.95 271.2a5.254 5.254 0 0 1-1.765-.85 4.577 4.577 0 0 1-1.311-1.526c-.336-.622-.545-1.356-.626-2.203-.077-.859.031-1.837.325-2.933.311-1.161.73-2.125 1.257-2.893.527-.768 1.112-1.359 1.755-1.774a5.004 5.004 0 0 1 2.047-.752 5.191 5.191 0 0 1 2.106.124c.888.238 1.624.596 2.209 1.074.588.465 1.037.956 1.346 1.472l-1.968 1.319a3.684 3.684 0 0 0-.816-.869 2.973 2.973 0 0 0-2.294-.678c-.374.04-.74.18-1.098.419-.341.231-.663.571-.966 1.021-.302.45-.564 1.037-.786 1.761a5.143 5.143 0 0 1 1.735-.605c.611-.088 1.151-.069 1.621.057a4.79 4.79 0 0 1 1.444.639c.428.282.769.625 1.024 1.029.269.408.436.879.502 1.414.067.535.013 1.129-.162 1.781-.175.653-.454 1.2-.839 1.642a4.015 4.015 0 0 1-1.329 1.049 4.414 4.414 0 0 1-1.635.464 5.393 5.393 0 0 1-1.776-.182Zm.518-2.168c.248.066.493.09.736.071.256-.015.49-.079.701-.19.228-.12.428-.291.599-.511a2.57 2.57 0 0 0 .403-.877c.171-.64.124-1.142-.142-1.507-.263-.377-.668-.64-1.216-.787a2.766 2.766 0 0 0-1.208-.03c-.44.078-.909.288-1.406.63a5.561 5.561 0 0 0-.003 1.342c.069.368.173.682.313.944.143.248.32.449.531.603.213.141.444.245.692.312ZM456.753 277.31c-1.083-.29-1.959-.7-2.628-1.229-.653-.538-1.168-1.123-1.544-1.755l1.78-1.474c.326.451.691.863 1.094 1.237.42.364.924.625 1.511.782.704.189 1.322.18 1.853-.028.544-.204.902-.625 1.073-1.264.168-.627.08-1.16-.263-1.602-.33-.438-.828-.746-1.493-.924a3.852 3.852 0 0 0-.578-.113 2.039 2.039 0 0 0-.496-.028c-.171.01-.351.031-.542.064-.19.033-.406.08-.646.142l-1.052-1.163 2.016-6.193 7.613 2.04-.651 2.427-5.127-1.374-.839 2.271c.315-.027.602-.028.86 0 .262.014.549.063.862.147a5.683 5.683 0 0 1 1.562.67c.48.296.873.654 1.181 1.072.307.417.507.898.6 1.44.105.545.069 1.151-.109 1.816-.186.692-.487 1.268-.904 1.73a4.226 4.226 0 0 1-1.444 1.081 4.953 4.953 0 0 1-1.771.427 5.97 5.97 0 0 1-1.918-.199ZM469.685 280.523l.797-2.974-5.989-1.605.53-1.976 7.189-6.086 3.483.933-1.945 7.26 1.566.42-.588 2.192-1.565-.42-.797 2.975-2.681-.719Zm-1.825-6.026 3.209.86.561-2.094c.105-.391.232-.84.381-1.345.166-.515.315-.964.446-1.349l-.078-.021c-.304.296-.62.589-.949.879-.329.289-.652.58-.968.873l-2.602 2.197ZM480.142 283.577c-1.069-.287-1.947-.69-2.633-1.209-.682-.532-1.193-1.131-1.533-1.795l1.819-1.463c.319.477.702.901 1.148 1.272.459.375.975.639 1.549.793.679.182 1.267.206 1.764.074.513-.142.833-.448.959-.918.073-.274.081-.537.023-.791-.058-.253-.212-.49-.46-.71-.245-.234-.599-.454-1.06-.662-.459-.22-1.053-.429-1.784-.624l.546-2.036c1.226.329 2.127.41 2.703.243.593-.177.956-.514 1.089-1.009.115-.431.041-.807-.222-1.129-.26-.336-.677-.58-1.251-.734a3.307 3.307 0 0 0-1.448-.074c-.47.084-.966.238-1.487.462l-.976-2.149a7.754 7.754 0 0 1 2.266-.631 6.167 6.167 0 0 1 2.385.178 7.141 7.141 0 0 1 1.796.733c.523.294.946.645 1.27 1.054.328.395.547.831.657 1.308.109.477.091.989-.056 1.537-.175.653-.532 1.151-1.072 1.496-.536.332-1.215.541-2.035.629l-.021.078c.727.419 1.289.954 1.688 1.606.402.639.495 1.363.278 2.172a3.054 3.054 0 0 1-.825 1.436c-.38.374-.84.656-1.381.847a5.586 5.586 0 0 1-1.754.285 7.707 7.707 0 0 1-1.942-.269ZM487.615 285.328l.44-1.644a158.86 158.86 0 0 0 2.982-1.424 29.615 29.615 0 0 0 2.367-1.317c.672-.421 1.218-.841 1.638-1.26.42-.419.689-.85.808-1.294.164-.613.112-1.123-.156-1.531-.265-.42-.724-.718-1.376-.893a2.633 2.633 0 0 0-1.475.025 6.81 6.81 0 0 0-1.371.576l-1.131-1.96c.413-.239.81-.44 1.189-.604a5.264 5.264 0 0 1 1.18-.334 5.227 5.227 0 0 1 1.235-.068c.429.017.885.09 1.367.22a5.34 5.34 0 0 1 1.703.77c.486.326.871.716 1.154 1.17.301.444.491.935.57 1.474a3.968 3.968 0 0 1-.102 1.713c-.14.522-.407 1.024-.802 1.505a8.592 8.592 0 0 1-1.453 1.352c-.561.423-1.188.835-1.883 1.236-.691.388-1.407.763-2.147 1.124.363.055.75.124 1.161.206.428.073.805.153 1.131.24l2.955.792-.65 2.427-9.334-2.501Z" fill="#141029" fill-opacity=".8"/><path d="m281.653 258.457 2.92-10.963-1.675-.449-6.22 6.119-2.406-8.431-1.675-.449-2.937 10.959 1.942.52 1.921-7.17 2.015 6.883.908.243 5.212-5.047-1.931 7.269 1.926.516ZM288.201 252.56l.327-1.221-1.863-.5-2.24 8.36 1.957.525 1.086-4.055c.457-1.706 1.632-2.331 3.119-1.933.141.038.278.091.441.169l.5-1.863c-1.394-.374-2.529-.208-3.327.518ZM297.178 262.784c2.411.646 4.034-.278 4.727-2.861l1.946-7.264-5.933-1.59-.458 1.707 3.899 1.044-1.519 5.667c-.361 1.347-1.12 1.865-2.248 1.563-.861-.231-1.463-.862-1.84-1.836l-1.532 1.083c.479 1.219 1.58 2.118 2.958 2.487ZM307.309 265.449c2.599.696 4.94-.589 5.612-3.094.671-2.505-.718-4.773-3.317-5.47-2.568-.688-4.92.578-5.591 3.083-.672 2.505.729 4.793 3.296 5.481Zm.449-1.675c-1.409-.378-2.201-1.681-1.773-3.278.428-1.597 1.765-2.329 3.174-1.951 1.425.381 2.217 1.684 1.789 3.281-.428 1.597-1.765 2.329-3.19 1.948ZM320.681 259.853c-1.159-.31-2.246-.199-3.072.318l1.132-4.227-1.957-.524-3.112 11.616 1.957.524 1.132-4.227c.449-1.675 1.615-2.268 3.008-1.895 1.253.336 1.796 1.253 1.397 2.74l-1.216 4.54 1.957.525 1.283-4.791c.676-2.521-.505-4.062-2.509-4.599ZM331.398 262.725c-1.221-.327-2.348-.193-3.195.402l.289-1.08-1.863-.499-2.24 8.36 1.957.524 1.133-4.227c.449-1.675 1.614-2.269 3.008-1.895 1.252.335 1.795 1.253 1.397 2.74l-1.217 4.54 1.957.524 1.284-4.79c.675-2.521-.506-4.062-2.51-4.599ZM342.976 275.056c3.006.805 4.834-.316 5.303-2.069 1.078-4.024-5.826-4.246-5.2-6.579.222-.829 1.087-1.302 2.778-.849.955.256 1.959.827 2.79 1.67l1.066-1.409c-.787-.882-2.073-1.595-3.388-1.948-3.005-.805-4.817.32-5.291 2.089-1.091 4.071 5.837 4.266 5.204 6.63-.218.814-1.102 1.231-2.809.774-1.346-.361-2.605-1.235-3.293-2.174l-1.128 1.392c.698 1.026 2.262 2.016 3.968 2.473ZM362.096 270.95c-1.331-.356-2.6-.126-3.504.555-.328-1.095-1.224-1.821-2.445-2.149-1.143-.306-2.223-.159-3.05.425l.285-1.065-1.863-.499-2.24 8.36 1.957.524 1.137-4.242c.444-1.66 1.548-2.27 2.847-1.922 1.19.319 1.686 1.223 1.287 2.711l-1.216 4.54 1.957.524 1.136-4.242c.445-1.66 1.564-2.266 2.848-1.922 1.19.319 1.685 1.223 1.287 2.711l-1.217 4.54 1.957.524 1.284-4.791c.675-2.52-.427-4.04-2.447-4.582ZM369.356 271.52c.735.197 1.395-.197 1.579-.886.172-.642-.23-1.27-.95-1.463-.72-.193-1.391.181-1.567.839-.176.657.217 1.317.938 1.51Zm-3.596 9.473 1.957.524 2.24-8.36-1.957-.524-2.24 8.36ZM375.258 281.558c-.36.155-.781.16-1.188.051-.752-.201-1.041-.749-.823-1.563l1.065-3.977 2.239.6.42-1.565-2.239-.6.512-1.91-1.957-.524-.512 1.91-1.378-.37-.419 1.566 1.377.369-1.078 4.024c-.495 1.847.294 3.099 2.126 3.589.704.189 1.459.19 2.03-.06l-.175-1.54ZM383.93 276.801c-1.159-.311-2.246-.199-3.072.318l1.132-4.227-1.957-.525-3.112 11.617 1.957.524 1.132-4.227c.449-1.675 1.615-2.269 3.008-1.896 1.253.336 1.796 1.253 1.397 2.741l-1.216 4.54 1.957.524 1.283-4.79c.676-2.521-.505-4.062-2.509-4.599Z" fill="#141029" fill-opacity=".6"/><path d="m321.604 140.002-12.416-3.327-3.909 5.089-6.335-1.698 19.074-23.518 6.113 1.638 4.799 29.915-6.493-1.74-.833-6.359Zm-.69-5.219-1.504-11.361-6.984 9.087 8.488 2.274Zm35.22-1.394-14.219 18.225-6.144-1.646-3.13-22.874 6.152 1.648 1.951 15.49 9.625-12.388 5.765 1.545Zm18.686 17.804-15.551-4.167c-.109 2.717 1.645 4.882 4.78 5.722a7.226 7.226 0 0 0 5.685-.629l2.248 4.28c-2.491 1.663-5.641 2.048-9.37 1.049-7.126-1.909-10.532-7.602-8.896-13.706 1.636-6.105 7.528-9.314 13.799-7.634 6.034 1.617 9.613 6.915 7.846 13.51-.115.46-.368 1.088-.541 1.575Zm-14.669-7.651 10.119 2.712a5.315 5.315 0 0 0-10.119-2.712Zm40.642 11.212-3.15 11.758-5.955-1.595 2.905-10.841c.89-3.321-.229-5.257-2.866-5.963-2.866-.768-5.403.433-6.416 4.213l-2.721 10.153-5.962-1.597 5.509-20.56 5.693 1.526-.636 2.372a9.341 9.341 0 0 1 7.529-.89c4.813 1.358 7.722 5.163 6.046 11.418l.024.006Zm3.685 2.589c1.657-6.183 7.584-9.299 14.298-7.5 4.316 1.157 7.218 3.943 7.809 7.695l-5.309 1.221a5.31 5.31 0 0 0-3.864-4.044c-3.017-.808-5.946.653-6.908 4.243-.962 3.59.852 6.322 3.861 7.128a5.239 5.239 0 0 0 5.383-1.592l3.948 3.762c-2.376 2.88-6.291 3.874-10.638 2.709-6.652-1.782-10.258-7.452-8.603-13.628l.023.006Zm27.789-10.182c.5-1.866 2.379-2.922 4.596-2.328 2.217.594 3.337 2.369 2.845 4.203-.529 1.977-2.408 3.033-4.625 2.439-2.217-.594-3.339-2.454-2.839-4.32l.023.006Zm-.928 6.379 5.962 1.598-5.509 20.559-5.994-1.606 5.541-20.551Zm27.301 16.756-3.14 11.719-5.583-1.496.687-2.562c-1.603 1.579-4.014 1.993-7.03 1.185-4.815-1.29-6.965-4.731-6.015-8.274.949-3.542 4.211-5.456 10.474-3.778l4.751 1.273c.685-2.554-.443-4.458-3.666-5.321a10.218 10.218 0 0 0-6.435.326l-1.024-4.732a16.335 16.335 0 0 1 9.526-.109c6.263 1.678 9.12 5.554 7.455 11.769Zm-7.339 3.636.561-2.096-4.086-1.094c-2.787-.747-3.941.045-4.301 1.39-.361 1.344.595 2.812 2.694 3.374a4.544 4.544 0 0 0 5.132-1.574Z" fill="#141029" fill-opacity=".8"/><g filter="url(#l)"><path d="M568.163 192.077c5.72-21.345 27.66-34.013 49.006-28.293 21.345 5.719 34.013 27.66 28.293 49.006-5.719 21.345-27.66 34.012-49.005 28.293-21.346-5.72-34.013-27.66-28.294-49.006Z" fill="url(#m)"/></g><path d="m606.723 174.52-.01.001a5.663 5.663 0 0 0-4.931 6.311l5.281 43.01a5.663 5.663 0 0 0 6.311 4.931l.01-.002a5.663 5.663 0 0 0 4.931-6.311l-5.281-43.01a5.662 5.662 0 0 0-6.311-4.93Z" fill="#fff" fill-opacity=".5"/><path d="m610.93 175.578-.008-.006a5.664 5.664 0 0 0-7.925 1.159l-25.731 34.546a5.664 5.664 0 0 0 1.159 7.925l.008.006a5.664 5.664 0 0 0 7.925-1.159l25.731-34.546a5.664 5.664 0 0 0-1.159-7.925ZM633.577 194.942l-.008-.006a5.662 5.662 0 0 0-7.925 1.159l-17.609 23.64a5.663 5.663 0 0 0 1.159 7.924l.008.006a5.663 5.663 0 0 0 7.925-1.159l17.608-23.64a5.662 5.662 0 0 0-1.158-7.924Z" fill="#fff" fill-opacity=".8"/><path d="M568.163 192.077c5.72-21.345 27.66-34.013 49.006-28.293 21.345 5.719 34.013 27.66 28.293 49.006-5.719 21.345-27.66 34.012-49.005 28.293-21.346-5.72-34.013-27.66-28.294-49.006Z" fill="url(#n)"/><path fill-rule="evenodd" clip-rule="evenodd" d="M569.142 192.339c-5.575 20.806 6.772 42.191 27.577 47.765 20.805 5.575 42.19-6.771 47.765-27.577 5.574-20.805-6.772-42.19-27.577-47.765-20.806-5.574-42.191 6.772-47.765 27.577Zm48.027-28.555c-21.346-5.72-43.286 6.948-49.006 28.293-5.719 21.346 6.948 43.286 28.294 49.006 21.345 5.719 43.286-6.948 49.005-28.293 5.72-21.346-6.948-43.287-28.293-49.006Z" fill="#F5F7FA" fill-opacity=".06"/><path fill-rule="evenodd" clip-rule="evenodd" d="M566.233 337.734a9.066 9.066 0 0 1-2.24-1.454c-2.357-2.064-3.458-5.215-2.867-8.206l.111-.562 10.464 2.806 13.4 3.593-1.047 3.965c-.575 2.18-1.077 4.048-1.116 4.15l-.069.186-.37-.604-.369-.604.374.656.374.656-6.569-1.765c-6.146-1.651-9.541-2.569-10.076-2.817Zm18.838 5.13c-.015-.027.474-1.92 1.087-4.208l1.115-4.16 10.465 2.802 13.4 3.589-.192.561c-.656 1.913-1.948 3.483-3.752 4.562-.609.364-1.62.826-1.738.794-.024-.006-.094-.086-.156-.177l-.113-.165.098.192c.095.187.094.193-.034.242-.335.128-1.571.344-2.094.367-1.622.068-4.228-.649-11.596-2.622-3.554-.951-6.474-1.751-6.49-1.777Zm-2.958-1.912c.003-.01-.068-.13-.158-.268l-.162-.25.14.263c.131.244.169.298.18.255Zm4.67.969c.074-.046.121-.088.105-.092a.47.47 0 0 0-.162.077c-.073.046-.12.088-.105.092a.455.455 0 0 0 .162-.077Zm-5.007-1.54a1.851 1.851 0 0 0-.158-.267l-.162-.251.14.263c.131.245.169.298.18.255Zm-17.568-5.244.216-.138-.229.115c-.215.107-.266.143-.222.155.01.002.116-.057.235-.132Zm16.939 4.163c-.172-.294-.326-.538-.342-.542-.015-.004.113.233.285.527.172.294.326.537.342.542.015.004-.113-.233-.285-.527Zm6.791 1.97c.073-.047.121-.088.105-.092a.464.464 0 0 0-.162.076c-.074.047-.121.088-.105.092.016.005.089-.03.162-.076Zm16.813 4.422c.003-.012-.031-.068-.074-.125-.072-.094-.075-.092-.027.016.049.113.088.155.101.109Zm-.338-.568c.002-.01-.05-.098-.116-.196l-.121-.178.097.191c.091.179.128.227.14.183Zm-23.649-6.452c.003-.009-.343-.594-.768-1.302l-.773-1.288.754 1.298c.7 1.206.777 1.331.787 1.292Zm8.328 1.946c.074-.046.121-.087.105-.092a.492.492 0 0 0-.162.077c-.073.046-.12.088-.105.092a.455.455 0 0 0 .162-.077Zm-23.153-6.459.217-.137-.23.115c-.214.107-.265.143-.221.155.01.002.115-.057.234-.133Zm.578-.325.216-.137-.229.114c-.215.107-.266.143-.222.155.01.003.116-.057.235-.132Zm37.222 10.149c.002-.01-.05-.098-.116-.196l-.121-.178.097.191c.091.179.128.227.14.183Zm-13.492-4.016c.073-.046.12-.088.105-.092a.455.455 0 0 0-.162.077c-.074.046-.121.087-.105.092a.492.492 0 0 0 .162-.077Zm-23.197-6.426c.095-.057.159-.107.144-.111-.016-.005-.106.039-.201.096-.094.057-.159.108-.143.112a.68.68 0 0 0 .2-.097Zm36.352 9.868c.004-.011-.03-.068-.073-.125-.072-.094-.075-.092-.028.016.05.113.089.155.101.109Zm-37.181-16.771-4.411-1.197 1.047-3.905 1.046-3.905.275-.169.275-.169-.266.136-.266.135.228-.851.228-.851.298.079c.265.071.317.11.472.352l.175.272-.141-.263-.14-.263.538.145.539.144-.832.483-.833.482.863-.474.863-.475 5.213 1.397 8.149 2.184-1.284 4.79-1.283 4.79-.643-.172c-.354-.094-4.056-1.079-4.639-1.228-.584-.148-3.046-.808-5.471-1.467Zm30.851 8.265-.551-.164.107-.465c.059-.256.636-2.411 1.282-4.789l1.174-4.324 8.173 2.19c4.905 1.315 5.243 1.412 5.329 1.533.087.124.089.124.04.011-.048-.111-.011-.108.594.054l.644.173-.142.097-.142.097.18-.087a.561.561 0 0 1 .333-.046l.153.041-.218.816c-.171.636-.232.802-.28.757-.048-.047-.05-.04-.009.036.04.073-.181.959-1.004 4.032l-1.055 3.938-5.561-1.474a1507.84 1507.84 0 0 1-9.047-2.426Zm-15.408-14.394 2.579-9.561.176.016c.096.009 3.537.924 7.646 2.034l7.47 2.017-2.566 9.58-2.567 9.58-7.658-2.052-7.658-2.052 2.578-9.562Zm-.019 7.335c.135-.079.233-.147.217-.152-.015-.004-.139.058-.275.137-.135.079-.233.148-.217.152.015.004.139-.057.275-.137Zm11.798 3.052c.003-.01-.05-.098-.116-.196l-.121-.178.098.191c.09.179.127.227.139.183Zm11.975 3.048c.073-.046.121-.088.105-.092a.455.455 0 0 0-.162.077c-.073.046-.121.088-.105.092a.475.475 0 0 0 .162-.077Zm-23.196-6.425c.135-.08.233-.148.218-.152-.016-.004-.14.057-.275.136-.136.079-.234.148-.218.152.016.004.139-.057.275-.136Zm10.969 2.946c.003-.012-.03-.068-.074-.125-.072-.094-.074-.092-.027.016.05.113.089.155.101.109Zm12.563 3.284c.095-.07.093-.072-.016-.027-.115.048-.157.085-.11.098a.39.39 0 0 0 .126-.071Zm-12.733-3.565c.003-.01-.068-.13-.158-.268l-.162-.25.14.263c.131.244.169.298.18.255Zm-10.222-2.991c.136-.079.234-.148.218-.152-.016-.004-.14.057-.275.137-.136.079-.234.147-.218.151.016.005.139-.057.275-.136Zm23.485 6.263c.073-.047.121-.088.105-.092-.016-.005-.089.03-.162.076-.074.047-.121.088-.105.092a.464.464 0 0 0 .162-.076Zm-36.807-9.885c.003-.012-.03-.068-.074-.125-.071-.094-.074-.093-.027.015.05.113.089.156.101.11Zm23.207 6.042a1.851 1.851 0 0 0-.158-.267l-.162-.251.14.263c.131.245.169.298.18.255Zm-9.308-2.746c.136-.079.234-.147.218-.152-.016-.004-.139.058-.275.137-.135.079-.233.147-.218.152.016.004.14-.058.275-.137Zm-14.111-3.649a1.851 1.851 0 0 0-.158-.267l-.162-.251.141.263c.13.245.168.298.179.255Zm37.596 9.912c.073-.047.121-.088.105-.092a.455.455 0 0 0-.162.077c-.073.046-.121.087-.105.092a.475.475 0 0 0 .162-.077Zm-14.514-4.088a1.913 1.913 0 0 0-.158-.267l-.162-.251.14.263c.131.245.169.298.18.255Zm-8.394-2.501c.136-.079.234-.147.218-.151-.015-.005-.139.057-.275.136-.135.079-.233.148-.218.152.016.004.14-.057.275-.137Zm-15.025-3.894a1.913 1.913 0 0 0-.158-.267l-.162-.251.14.263c.131.245.169.298.18.255Zm38.51 10.157c.074-.046.121-.088.105-.092a.47.47 0 0 0-.162.077c-.073.046-.12.088-.105.092a.455.455 0 0 0 .162-.077Zm-15.428-4.332c.003-.01-.068-.13-.158-.268l-.162-.25.14.263c.131.244.169.298.18.255Zm-7.479-2.256c.135-.08.233-.148.217-.152-.015-.004-.139.057-.274.136-.136.08-.234.148-.218.152.015.004.139-.057.275-.136Zm-15.94-4.139c.003-.01-.068-.13-.158-.268l-.162-.25.14.263c.131.244.169.297.18.255Zm23.082 5.824a1.851 1.851 0 0 0-.158-.267l-.162-.251.14.263c.131.245.169.298.18.255Zm16.812 4.313c.135-.08.233-.148.217-.152-.015-.004-.139.057-.275.136-.135.08-.233.148-.217.152.015.004.139-.057.275-.136Zm-23.377-6.324c.135-.079.233-.148.218-.152-.016-.004-.14.057-.275.137-.136.079-.234.147-.218.151.016.005.139-.057.275-.136Zm-16.854-4.384a1.891 1.891 0 0 0-.158-.268l-.162-.25.14.263c.131.244.169.298.18.255Zm23.082 5.824a1.913 1.913 0 0 0-.158-.267l-.162-.251.14.263c.131.245.169.298.18.255Zm-5.651-1.766c.136-.079.234-.147.218-.152-.016-.004-.14.058-.275.137-.136.079-.234.148-.218.152.016.004.14-.057.275-.137Zm-17.768-4.629a1.913 1.913 0 0 0-.158-.267l-.162-.251.14.263c.131.245.169.298.18.255Zm23.082 5.825c.003-.01-.068-.13-.158-.268l-.162-.25.14.263c.131.244.169.298.18.255Zm-4.737-1.521c.136-.08.234-.148.218-.152-.016-.004-.139.057-.275.136-.135.08-.233.148-.218.152.016.004.14-.057.275-.136Zm-18.682-4.874c.003-.01-.068-.13-.158-.268l-.162-.25.14.262c.131.245.169.298.18.256Zm23.082 5.824a1.851 1.851 0 0 0-.158-.267l-.162-.251.14.263c.131.245.169.298.18.255Zm-3.529-1.453.544-.319-.555.3c-.516.279-.59.324-.548.335.009.002.26-.14.559-.316Zm3.192.882a2.037 2.037 0 0 0-.158-.267l-.162-.251.14.263c.131.245.169.298.18.255Zm-23.461-6.467a.992.992 0 0 0-.115-.197l-.121-.177.097.191c.091.178.128.227.139.183Zm44.038 11.699c.073-.047.12-.088.105-.092a.455.455 0 0 0-.162.077c-.074.046-.121.087-.105.092a.492.492 0 0 0 .162-.077Zm-20.914-5.802c.003-.01-.069-.13-.158-.268l-.162-.25.14.263c.131.244.169.297.18.255Zm-1.994-.787c.135-.079.233-.147.218-.151-.016-.005-.14.057-.275.136-.136.079-.234.148-.218.152.016.004.139-.057.275-.137Zm-21.425-5.609a1.408 1.408 0 0 0-.137-.232l-.141-.214.119.227c.111.212.148.262.159.219Zm23.082 5.825a2.012 2.012 0 0 0-.158-.268l-.163-.25.141.263c.131.244.169.298.18.255Zm-.429-.682c.068.104.064.082-.012-.063-.065-.125-.13-.23-.145-.234-.015-.004-.014.014.002.042.016.027-.16.162-.392.3l-.421.251.431-.23.431-.23.106.164Zm-22.99-5.713c.003-.01-.068-.13-.158-.268l-.162-.25.14.263c.131.244.169.298.18.255Zm45.824 12.116c.073-.046.121-.087.105-.092a.475.475 0 0 0-.162.077c-.073.046-.121.088-.105.092a.455.455 0 0 0 .162-.077Zm-46.161-12.687a1.851 1.851 0 0 0-.158-.267l-.162-.251.14.263c.131.245.169.298.18.255Zm23.125 5.894a.647.647 0 0 0-.095-.161l-.1-.141.075.155c.071.146.108.191.12.147Zm.925-.255c.011-.042-.052-.011-.355.173l-.326.198.338-.177c.187-.098.341-.185.343-.194Zm23.162 6.547c-.011-.038.025-.1.08-.139.091-.063.087-.066-.046-.027-.109.032-.135.066-.104.132.05.106.1.131.07.034Zm-24.297-6.651a.393.393 0 0 0-.074-.125c-.072-.094-.075-.092-.027.016.049.113.088.155.101.109Zm-.169-.285c.003-.012-.03-.068-.074-.125-.072-.094-.074-.093-.027.015.05.114.089.156.101.11Zm2.239-.128c.455-.258.815-.472.799-.477-.015-.004-.401.204-.856.462-.455.257-.815.472-.799.476.015.004.401-.203.856-.461Zm-2.407-.158a.393.393 0 0 0-.074-.124c-.072-.094-.075-.093-.027.015.049.113.088.156.101.109Zm-.17-.281a2.178 2.178 0 0 0-.158-.267l-.163-.251.141.263c.131.245.168.298.18.255Zm-.337-.57a2.07 2.07 0 0 0-.158-.268l-.163-.25.141.262c.131.245.168.298.18.256Zm-.337-.571a2.148 2.148 0 0 0-.158-.268l-.163-.25.141.263c.131.244.168.298.18.255Zm4.405.928c.136-.079.234-.147.218-.151-.015-.005-.139.057-.275.136-.135.079-.233.148-.217.152.015.004.139-.057.274-.137Zm-4.742-1.499a2.097 2.097 0 0 0-.158-.267l-.163-.251.141.263c.131.245.168.298.18.255Zm5.614.997.543-.32-.555.301a9.644 9.644 0 0 0-.559.315c-.011.041.066.001.571-.296Zm-5.951-1.567a2.07 2.07 0 0 0-.158-.268l-.163-.25.141.262c.131.245.168.298.18.256Zm-21.016-9.877 1.005-3.754 4.729 1.265c5.997 1.603 10.396 2.786 10.411 2.813.009.015-1.73 6.572-1.968 7.423-.016.055-3.824-.949-7.105-1.829-3.943-1.056-4.144-1.115-4.046-1.189.099-.073.097-.074-.04-.011-.131.061-.319.02-2.068-.449l-1.924-.515 1.006-3.754Zm34.714 9.265 1.015-3.788.12.068c.066.037 5.748 1.577 9.04 2.459l5.985 1.605-1.005 3.753-1.006 3.754-6.114-1.638-9.05-2.425 1.015-3.788Zm-30.106-5.433 1.41-.808-1.421.789c-.782.435-1.423.797-1.425.805-.011.039.126-.035 1.436-.786Zm16.071 5.474a2.07 2.07 0 0 0-.158-.268l-.163-.25.141.263c.131.244.168.298.18.255Zm7.442 1.487.543-.32-.555.3c-.515.279-.589.324-.547.335.008.003.26-.139.559-.315Zm16.708 4.919a.381.381 0 0 0-.073-.124c-.072-.094-.075-.093-.028.015.05.113.089.156.101.109Zm-.253-.426a.65.65 0 0 0-.095-.16l-.1-.141.075.155c.071.146.108.191.12.146Zm-24.234-6.551a2.097 2.097 0 0 0-.158-.267l-.163-.251.141.263c.131.245.168.298.18.255Zm23.897 5.981a.647.647 0 0 0-.095-.161l-.1-.141.075.155c.071.146.108.191.12.147Zm-24.234-6.552a2.178 2.178 0 0 0-.158-.267l-.163-.251.141.263c.131.245.168.298.18.255Zm9.27 1.977.544-.319-.555.3c-.516.279-.59.324-.548.335.009.002.26-.14.559-.316Zm14.627 4.004a.647.647 0 0 0-.095-.161l-.1-.141.075.155c.071.146.108.192.12.147Zm-24.234-6.551a2.07 2.07 0 0 0-.158-.268l-.163-.25.141.263c.131.244.168.298.18.255Zm23.897 5.98a.65.65 0 0 0-.095-.16l-.1-.141.075.155c.071.146.108.191.12.146Zm-24.234-6.551a2.097 2.097 0 0 0-.158-.267l-.163-.251.141.263c.131.245.168.298.18.255Zm10.805 2.643c.136-.079.234-.147.218-.151-.016-.005-.14.057-.275.136-.136.079-.234.148-.218.152.016.004.14-.057.275-.137Zm13.092 3.338a.647.647 0 0 0-.095-.161l-.1-.141.075.155c.071.146.108.191.12.147Zm-36.893-10.135c.136-.08.234-.148.218-.152-.016-.004-.139.057-.275.136-.136.08-.234.148-.218.152.016.004.14-.057.275-.136Zm12.659 3.583a2.178 2.178 0 0 0-.158-.267l-.163-.251.141.263c.131.245.168.298.18.255Zm11.647 2.929c.095-.057.159-.107.143-.111-.015-.005-.106.039-.2.096-.095.057-.159.108-.143.112a.693.693 0 0 0 .2-.097Zm12.334 3.196a.967.967 0 0 0-.116-.197l-.121-.177.098.191c.09.178.127.227.139.183Zm-24.318-6.697c.003-.01-.05-.098-.116-.196l-.121-.178.098.192c.09.178.127.226.139.182Zm-17.009-12.028c.29-1.064 1.07-2.384 1.983-3.357.543-.579 1.547-1.337 2.192-1.657.233-.115.275-.118.344-.027.073.094.075.092.025-.021-.049-.111-.03-.134.186-.236.493-.23 1.555-.549 2.201-.66.733-.127 1.217-.154 2.098-.117.581.024 3.547.818 10.266 2.599l6.748 1.788-1.119 4.176-1.119 4.175-13.406-3.592-10.471-2.805.072-.266Zm26.91 3.649c.765-2.855.974-3.577 1.022-3.53.049.046.051.039.01-.036-.034-.063-.001-.282.096-.644l.147-.549 6.453 1.729c4.322 1.158 9.53 2.575 9.818 2.696 1.374.576 2.523 1.386 3.391 2.391.513.594.808 1.011.752 1.063-.026.024-.023.042.007.041.142-.005.697 1.04.98 1.846.526 1.499.635 3.384.274 4.734l-.063.238-13.392-3.589-10.457-2.801.962-3.589Zm-6.871-.757c.276-.157.489-.289.473-.293-.016-.005-.254.121-.53.278-.276.157-.489.289-.474.293.016.004.255-.121.531-.278Zm-12.592-3.032a2.097 2.097 0 0 0-.158-.267l-.163-.251.141.263c.131.245.168.298.18.255Zm23.897 5.983a2.148 2.148 0 0 0-.158-.268l-.163-.25.141.263c.131.244.168.298.18.255Zm-24.486-6.986a.373.373 0 0 0-.074-.125c-.072-.093-.074-.092-.027.016.05.113.089.155.101.109Zm14.011 3.567c.135-.079.233-.148.217-.152-.015-.004-.139.057-.275.137-.135.079-.233.147-.217.151.015.005.139-.057.275-.136Zm10.138 2.848a2.178 2.178 0 0 0-.158-.267l-.163-.251.141.263c.131.245.168.298.18.255Zm14.199 3.448.216-.137-.229.114a1.489 1.489 0 0 0-.235.133c-.011.043.046.018.248-.11Zm-38.559-10.218a.67.67 0 0 0-.095-.16l-.1-.141.075.155c.071.146.108.191.12.146Zm15.093 3.42.543-.32-.555.3c-.516.279-.589.324-.548.335.009.003.261-.139.56-.315Zm8.93 2.78a2.07 2.07 0 0 0-.158-.268l-.163-.25.141.262c.131.245.168.298.18.256Zm15.113 3.692.217-.137-.23.115a1.44 1.44 0 0 0-.235.132c-.011.043.046.018.248-.11Zm-15.45-4.263a2.07 2.07 0 0 0-.158-.268l-.163-.25.141.263c.131.244.168.298.18.255Zm16.027 3.937.217-.137-.23.115a1.491 1.491 0 0 0-.234.132c-.012.044.045.018.247-.11Zm-40.387-10.707a.63.63 0 0 0-.095-.16l-.1-.142.075.156c.071.145.108.191.12.146Zm17.204 3.76c.456-.258.815-.472.8-.476-.016-.005-.401.203-.857.461-.455.258-.815.472-.799.476.016.004.401-.203.856-.461Zm6.819 2.439a2.097 2.097 0 0 0-.158-.267l-.163-.251.141.263c.131.245.168.298.18.255Zm16.941 4.183.217-.137-.23.114a1.371 1.371 0 0 0-.234.133c-.012.043.046.017.247-.11Zm-17.279-4.754a1.913 1.913 0 0 0-.158-.267l-.162-.251.141.263c.13.245.168.298.179.255Zm17.857 4.428.216-.137-.229.115c-.215.107-.266.142-.222.154.01.003.116-.057.235-.132Zm-42.216-11.197a.647.647 0 0 0-.095-.161l-.1-.141.075.155c.071.146.108.192.12.147Zm24.022 6.199c.003-.01-.068-.13-.158-.268l-.162-.25.141.263c.13.244.168.298.179.255Zm-4.989-1.949c.135-.08.233-.148.218-.152-.016-.004-.14.057-.275.136-.136.08-.234.148-.218.152.016.004.139-.057.275-.136Zm4.652 1.378a1.851 1.851 0 0 0-.158-.267l-.162-.251.141.263c.13.245.168.298.179.255Zm19.389 5.093c.074-.046.121-.087.105-.092a.475.475 0 0 0-.162.077c-.073.047-.121.088-.105.092a.455.455 0 0 0 .162-.077Zm-23.464-6.797c.136-.079.234-.148.218-.152-.016-.004-.14.057-.275.137-.136.079-.234.147-.218.151.016.005.14-.057.275-.136Zm3.738 1.133a1.913 1.913 0 0 0-.158-.267l-.162-.251.14.263c.131.245.169.298.18.255Zm-3.269-1.398c.073-.046.121-.088.105-.092a.475.475 0 0 0-.162.077c-.073.046-.121.088-.105.092a.455.455 0 0 0 .162-.077Zm2.932.828c.003-.01-.068-.13-.158-.268l-.162-.25.14.263c.131.244.169.298.18.255Z" fill="#141029" fill-opacity=".8"/><defs><linearGradient id="c" x1="-160.929" y1="295.425" x2="162.861" y2="606.791" gradientUnits="userSpaceOnUse"><stop stop-color="#FF5E00"/><stop offset=".541" stop-color="#F54562"/><stop offset="1" stop-color="#C32DE1"/></linearGradient><linearGradient id="n" x1="529.514" y1="181.721" x2="586.1" y2="279.733" gradientUnits="userSpaceOnUse"><stop stop-color="#F5F7FA" stop-opacity=".4"/><stop offset=".521" stop-color="#F5F7FA" stop-opacity=".06"/><stop offset="1" stop-color="#F5F7FA" stop-opacity=".01"/></linearGradient><linearGradient id="m" x1="529.514" y1="181.721" x2="586.1" y2="279.733" gradientUnits="userSpaceOnUse"><stop stop-color="#F0A"/><stop offset=".502" stop-color="#9C42F5"/><stop offset="1" stop-color="#5D2DE1"/></linearGradient><linearGradient id="k" x1="-21.76" y1="365.009" x2="302.03" y2="676.375" gradientUnits="userSpaceOnUse"><stop stop-color="#F0A"/><stop offset=".502" stop-color="#9C42F5"/><stop offset="1" stop-color="#5D2DE1"/></linearGradient><linearGradient id="i" x1="-56.553" y1="347.613" x2="267.237" y2="658.978" gradientUnits="userSpaceOnUse"><stop stop-color="#0BF"/><stop offset=".53" stop-color="#9C42F5"/><stop offset="1" stop-color="#5D2DE1"/></linearGradient><linearGradient id="g" x1="-91.345" y1="330.217" x2="232.445" y2="641.583" gradientUnits="userSpaceOnUse"><stop stop-color="#EF0"/><stop offset=".508" stop-color="#FA0"/><stop offset="1" stop-color="#FF5E00"/></linearGradient><linearGradient id="a" x1="417.5" y1="587" x2="637.498" y2="805.998" gradientUnits="userSpaceOnUse"><stop stop-color="#0BF"/><stop offset=".53" stop-color="#9C42F5"/><stop offset="1" stop-color="#5D2DE1"/></linearGradient><linearGradient id="e" x1="-126.137" y1="312.821" x2="197.653" y2="624.186" gradientUnits="userSpaceOnUse"><stop stop-color="#0FA"/><stop offset=".531" stop-color="#0BF"/><stop offset="1" stop-color="#4579F5"/></linearGradient><filter id="d" x="35.148" y="18.751" width="516.958" height="395.188" filterUnits="userSpaceOnUse" color-interpolation-filters="sRGB"><feFlood flood-opacity="0" result="BackgroundImageFix"/><feColorMatrix in="SourceAlpha" values="0 0 0 0 0 0 0 0 0 0 0 0 0 0 0 0 0 0 127 0" result="hardAlpha"/><feMorphology radius="4" in="SourceAlpha" result="effect1_dropShadow_1589_134"/><feOffset dy="8"/><feGaussianBlur stdDeviation="4"/><feColorMatrix values="0 0 0 0 0 0 0 0 0 0.733333 0 0 0 0 1 0 0 0 0.12 0"/><feBlend in2="BackgroundImageFix" result="effect1_dropShadow_1589_134"/><feColorMatrix in="SourceAlpha" values="0 0 0 0 0 0 0 0 0 0 0 0 0 0 0 0 0 0 127 0" result="hardAlpha"/><feOffset dy="16"/><feGaussianBlur stdDeviation="12"/><feColorMatrix values="0 0 0 0 0 0 0 0 0 0.733333 0 0 0 0 1 0 0 0 0.24 0"/><feBlend in2="effect1_dropShadow_1589_134" result="effect2_dropShadow_1589_134"/><feColorMatrix in="SourceAlpha" values="0 0 0 0 0 0 0 0 0 0 0 0 0 0 0 0 0 0 127 0" result="hardAlpha"/><feMorphology radius="1" in="SourceAlpha" result="effect3_dropShadow_1589_134"/><feOffset dy="2"/><feGaussianBlur stdDeviation="2"/><feColorMatrix values="0 0 0 0 0.0392157 0 0 0 0 0.27451 0 0 0 0 0.321569 0 0 0 0.12 0"/><feBlend in2="effect2_dropShadow_1589_134" result="effect3_dropShadow_1589_134"/><feColorMatrix in="SourceAlpha" values="0 0 0 0 0 0 0 0 0 0 0 0 0 0 0 0 0 0 127 0" result="hardAlpha"/><feOffset/><feGaussianBlur stdDeviation=".5"/><feColorMatrix values="0 0 0 0 0 0 0 0 0 0.733333 0 0 0 0 1 0 0 0 0.24 0"/><feBlend in2="effect3_dropShadow_1589_134" result="effect4_dropShadow_1589_134"/><feBlend in="SourceGraphic" in2="effect4_dropShadow_1589_134" result="shape"/></filter><filter id="l" x="542.79" y="154.41" width="128.046" height="128.046" filterUnits="userSpaceOnUse" color-interpolation-filters="sRGB"><feFlood flood-opacity="0" result="BackgroundImageFix"/><feColorMatrix in="SourceAlpha" values="0 0 0 0 0 0 0 0 0 0 0 0 0 0 0 0 0 0 127 0" result="hardAlpha"/><feOffset dy="8"/><feGaussianBlur stdDeviation="4"/><feColorMatrix values="0 0 0 0 0.611765 0 0 0 0 0.258824 0 0 0 0 0.960784 0 0 0 0.12 0"/><feBlend in2="BackgroundImageFix" result="effect1_dropShadow_1589_134"/><feColorMatrix in="SourceAlpha" values="0 0 0 0 0 0 0 0 0 0 0 0 0 0 0 0 0 0 127 0" result="hardAlpha"/><feOffset dy="16"/><feGaussianBlur stdDeviation="12"/><feColorMatrix values="0 0 0 0 0.611765 0 0 0 0 0.258824 0 0 0 0 0.960784 0 0 0 0.24 0"/><feBlend in2="effect1_dropShadow_1589_134" result="effect2_dropShadow_1589_134"/><feColorMatrix in="SourceAlpha" values="0 0 0 0 0 0 0 0 0 0 0 0 0 0 0 0 0 0 127 0" result="hardAlpha"/><feOffset dy="2"/><feGaussianBlur stdDeviation="2"/><feColorMatrix values="0 0 0 0 0.105882 0 0 0 0 0.0392157 0 0 0 0 0.321569 0 0 0 0.12 0"/><feBlend in2="effect2_dropShadow_1589_134" result="effect3_dropShadow_1589_134"/><feColorMatrix in="SourceAlpha" values="0 0 0 0 0 0 0 0 0 0 0 0 0 0 0 0 0 0 127 0" result="hardAlpha"/><feOffset/><feGaussianBlur stdDeviation=".5"/><feColorMatrix values="0 0 0 0 0.611765 0 0 0 0 0.258824 0 0 0 0 0.960784 0 0 0 0.24 0"/><feBlend in2="effect3_dropShadow_1589_134" result="effect4_dropShadow_1589_134"/><feBlend in="SourceGraphic" in2="effect4_dropShadow_1589_134" result="shape"/></filter><filter id="j" x="139.524" y="70.939" width="516.958" height="395.188" filterUnits="userSpaceOnUse" color-interpolation-filters="sRGB"><feFlood flood-opacity="0" result="BackgroundImageFix"/><feColorMatrix in="SourceAlpha" values="0 0 0 0 0 0 0 0 0 0 0 0 0 0 0 0 0 0 127 0" result="hardAlpha"/><feOffset dy="8"/><feGaussianBlur stdDeviation="4"/><feColorMatrix values="0 0 0 0 0.611765 0 0 0 0 0.258824 0 0 0 0 0.960784 0 0 0 0.12 0"/><feBlend in2="BackgroundImageFix" result="effect1_dropShadow_1589_134"/><feColorMatrix in="SourceAlpha" values="0 0 0 0 0 0 0 0 0 0 0 0 0 0 0 0 0 0 127 0" result="hardAlpha"/><feOffset dy="16"/><feGaussianBlur stdDeviation="12"/><feColorMatrix values="0 0 0 0 0.611765 0 0 0 0 0.258824 0 0 0 0 0.960784 0 0 0 0.24 0"/><feBlend in2="effect1_dropShadow_1589_134" result="effect2_dropShadow_1589_134"/><feColorMatrix in="SourceAlpha" values="0 0 0 0 0 0 0 0 0 0 0 0 0 0 0 0 0 0 127 0" result="hardAlpha"/><feOffset dy="2"/><feGaussianBlur stdDeviation="2"/><feColorMatrix values="0 0 0 0 0.105882 0 0 0 0 0.0392157 0 0 0 0 0.321569 0 0 0 0.12 0"/><feBlend in2="effect2_dropShadow_1589_134" result="effect3_dropShadow_1589_134"/><feColorMatrix in="SourceAlpha" values="0 0 0 0 0 0 0 0 0 0 0 0 0 0 0 0 0 0 127 0" result="hardAlpha"/><feOffset/><feGaussianBlur stdDeviation=".5"/><feColorMatrix values="0 0 0 0 0.611765 0 0 0 0 0.258824 0 0 0 0 0.960784 0 0 0 0.24 0"/><feBlend in2="effect3_dropShadow_1589_134" result="effect4_dropShadow_1589_134"/><feBlend in="SourceGraphic" in2="effect4_dropShadow_1589_134" result="shape"/></filter><filter id="h" x="104.732" y="53.543" width="516.958" height="395.188" filterUnits="userSpaceOnUse" color-interpolation-filters="sRGB"><feFlood flood-opacity="0" result="BackgroundImageFix"/><feColorMatrix in="SourceAlpha" values="0 0 0 0 0 0 0 0 0 0 0 0 0 0 0 0 0 0 127 0" result="hardAlpha"/><feMorphology radius="4" in="SourceAlpha" result="effect1_dropShadow_1589_134"/><feOffset dy="8"/><feGaussianBlur stdDeviation="4"/><feColorMatrix values="0 0 0 0 0.611765 0 0 0 0 0.258824 0 0 0 0 0.960784 0 0 0 0.12 0"/><feBlend in2="BackgroundImageFix" result="effect1_dropShadow_1589_134"/><feColorMatrix in="SourceAlpha" values="0 0 0 0 0 0 0 0 0 0 0 0 0 0 0 0 0 0 127 0" result="hardAlpha"/><feOffset dy="16"/><feGaussianBlur stdDeviation="12"/><feColorMatrix values="0 0 0 0 0.611765 0 0 0 0 0.258824 0 0 0 0 0.960784 0 0 0 0.24 0"/><feBlend in2="effect1_dropShadow_1589_134" result="effect2_dropShadow_1589_134"/><feColorMatrix in="SourceAlpha" values="0 0 0 0 0 0 0 0 0 0 0 0 0 0 0 0 0 0 127 0" result="hardAlpha"/><feMorphology radius="1" in="SourceAlpha" result="effect3_dropShadow_1589_134"/><feOffset dy="2"/><feGaussianBlur stdDeviation="2"/><feColorMatrix values="0 0 0 0 0.105882 0 0 0 0 0.0392157 0 0 0 0 0.321569 0 0 0 0.12 0"/><feBlend in2="effect2_dropShadow_1589_134" result="effect3_dropShadow_1589_134"/><feColorMatrix in="SourceAlpha" values="0 0 0 0 0 0 0 0 0 0 0 0 0 0 0 0 0 0 127 0" result="hardAlpha"/><feOffset/><feGaussianBlur stdDeviation=".5"/><feColorMatrix values="0 0 0 0 0.611765 0 0 0 0 0.258824 0 0 0 0 0.960784 0 0 0 0.24 0"/><feBlend in2="effect3_dropShadow_1589_134" result="effect4_dropShadow_1589_134"/><feBlend in="SourceGraphic" in2="effect4_dropShadow_1589_134" result="shape"/></filter><filter id="f" x="69.94" y="36.148" width="516.958" height="395.188" filterUnits="userSpaceOnUse" color-interpolation-filters="sRGB"><feFlood flood-opacity="0" result="BackgroundImageFix"/><feColorMatrix in="SourceAlpha" values="0 0 0 0 0 0 0 0 0 0 0 0 0 0 0 0 0 0 127 0" result="hardAlpha"/><feMorphology radius="4" in="SourceAlpha" result="effect1_dropShadow_1589_134"/><feOffset dy="8"/><feGaussianBlur stdDeviation="4"/><feColorMatrix values="0 0 0 0 1 0 0 0 0 0.670588 0 0 0 0 0 0 0 0 0.12 0"/><feBlend in2="BackgroundImageFix" result="effect1_dropShadow_1589_134"/><feColorMatrix in="SourceAlpha" values="0 0 0 0 0 0 0 0 0 0 0 0 0 0 0 0 0 0 127 0" result="hardAlpha"/><feOffset dy="16"/><feGaussianBlur stdDeviation="12"/><feColorMatrix values="0 0 0 0 1 0 0 0 0 0.670588 0 0 0 0 0 0 0 0 0.24 0"/><feBlend in2="effect1_dropShadow_1589_134" result="effect2_dropShadow_1589_134"/><feColorMatrix in="SourceAlpha" values="0 0 0 0 0 0 0 0 0 0 0 0 0 0 0 0 0 0 127 0" result="hardAlpha"/><feMorphology radius="1" in="SourceAlpha" result="effect3_dropShadow_1589_134"/><feOffset dy="2"/><feGaussianBlur stdDeviation="2"/><feColorMatrix values="0 0 0 0 0.0392157 0 0 0 0 0.27451 0 0 0 0 0.321569 0 0 0 0.12 0"/><feBlend in2="effect2_dropShadow_1589_134" result="effect3_dropShadow_1589_134"/><feColorMatrix in="SourceAlpha" values="0 0 0 0 0 0 0 0 0 0 0 0 0 0 0 0 0 0 127 0" result="hardAlpha"/><feOffset/><feGaussianBlur stdDeviation=".5"/><feColorMatrix values="0 0 0 0 1 0 0 0 0 0.670588 0 0 0 0 0 0 0 0 0.24 0"/><feBlend in2="effect3_dropShadow_1589_134" result="effect4_dropShadow_1589_134"/><feBlend in="SourceGraphic" in2="effect4_dropShadow_1589_134" result="shape"/></filter><filter id="b" x=".355" y="1.355" width="516.958" height="395.188" filterUnits="userSpaceOnUse" color-interpolation-filters="sRGB"><feFlood flood-opacity="0" result="BackgroundImageFix"/><feColorMatrix in="SourceAlpha" values="0 0 0 0 0 0 0 0 0 0 0 0 0 0 0 0 0 0 127 0" result="hardAlpha"/><feMorphology radius="4" in="SourceAlpha" result="effect1_dropShadow_1589_134"/><feOffset dy="8"/><feGaussianBlur stdDeviation="4"/><feColorMatrix values="0 0 0 0 0.960784 0 0 0 0 0.270588 0 0 0 0 0.384314 0 0 0 0.12 0"/><feBlend in2="BackgroundImageFix" result="effect1_dropShadow_1589_134"/><feColorMatrix in="SourceAlpha" values="0 0 0 0 0 0 0 0 0 0 0 0 0 0 0 0 0 0 127 0" result="hardAlpha"/><feOffset dy="16"/><feGaussianBlur stdDeviation="12"/><feColorMatrix values="0 0 0 0 0.960784 0 0 0 0 0.270588 0 0 0 0 0.384314 0 0 0 0.24 0"/><feBlend in2="effect1_dropShadow_1589_134" result="effect2_dropShadow_1589_134"/><feColorMatrix in="SourceAlpha" values="0 0 0 0 0 0 0 0 0 0 0 0 0 0 0 0 0 0 127 0" result="hardAlpha"/><feMorphology radius="1" in="SourceAlpha" result="effect3_dropShadow_1589_134"/><feOffset dy="2"/><feGaussianBlur stdDeviation="2"/><feColorMatrix values="0 0 0 0 0.105882 0 0 0 0 0.0392157 0 0 0 0 0.321569 0 0 0 0.12 0"/><feBlend in2="effect2_dropShadow_1589_134" result="effect3_dropShadow_1589_134"/><feColorMatrix in="SourceAlpha" values="0 0 0 0 0 0 0 0 0 0 0 0 0 0 0 0 0 0 127 0" result="hardAlpha"/><feOffset/><feGaussianBlur stdDeviation=".5"/><feColorMatrix values="0 0 0 0 0.960784 0 0 0 0 0.270588 0 0 0 0 0.384314 0 0 0 0.24 0"/><feBlend in2="effect3_dropShadow_1589_134" result="effect4_dropShadow_1589_134"/><feBlend in="SourceGraphic" in2="effect4_dropShadow_1589_134" result="shape"/></filter></defs></svg>