<svg width="662" height="661" viewBox="0 0 662 661" fill="none" xmlns="http://www.w3.org/2000/svg">
<rect width="205" height="205" rx="102.5" fill="url(#paint0_linear_1589_133)"/>
<g filter="url(#filter0_dddd_1589_133)">
<rect x="264" y="247" width="374" height="374" rx="187" fill="url(#paint1_linear_1589_133)"/>
</g>
<path d="M602.346 246.581L623.413 263.246L637.249 222.998L624.042 213.879L602.346 246.581Z" fill="#E1D5ED"/>
<path d="M580.336 252.56V252.246C580.336 251.931 580.336 251.617 580.336 251.617C580.336 251.617 580.336 251.617 580.336 251.302C580.336 250.988 580.336 250.988 580.336 250.674C580.336 250.674 580.336 250.674 580.336 250.359V250.045V249.73C580.336 249.73 580.336 249.416 580.65 249.416C580.65 249.416 580.65 249.416 580.65 249.101C580.65 248.787 580.965 248.787 580.965 248.472C580.965 248.158 581.279 248.158 581.279 247.844C581.279 247.844 581.279 247.844 581.279 247.529C581.279 247.215 581.594 247.215 581.594 247.215C581.594 247.215 581.594 247.215 581.908 246.9L582.222 246.586C582.537 246.271 582.537 246.271 582.851 245.957C583.166 245.643 583.166 245.642 583.48 245.328C583.795 245.014 584.109 245.014 584.423 244.699L600.46 235.58C600.774 235.58 600.774 235.266 601.089 235.266C601.403 235.266 601.403 234.952 601.718 234.952C601.718 234.952 601.718 234.952 602.032 234.952H602.346H602.661C602.661 234.952 602.661 234.952 602.975 234.952H603.29C603.29 234.952 603.29 234.952 603.604 234.952H603.919C603.919 234.952 604.233 234.952 604.233 235.266L622.785 246.271C622.785 246.271 622.47 246.271 622.47 245.957H622.156C622.156 245.957 622.156 245.957 621.842 245.957H621.527C621.527 245.957 621.527 245.957 621.213 245.957H620.898C620.898 245.957 620.898 245.957 620.584 245.957H620.269C620.269 245.957 620.269 245.957 619.955 245.957C619.64 245.957 619.64 245.957 619.326 246.271C619.012 246.271 619.012 246.586 618.697 246.586L602.661 255.704C602.346 256.019 602.032 256.019 601.718 256.333C601.718 256.333 601.718 256.333 601.403 256.333C601.089 256.648 601.089 256.648 600.774 256.962C600.46 257.277 600.46 257.277 600.145 257.591C600.145 257.591 600.145 257.591 599.831 257.906L599.516 258.22C599.516 258.22 599.516 258.22 599.202 258.534L598.888 258.849C598.888 258.849 598.888 258.849 598.888 259.163C598.888 259.478 598.573 259.478 598.573 259.792C598.573 260.107 598.259 260.107 598.259 260.421V260.735C598.259 260.735 598.259 261.05 597.944 261.05V261.364V261.679V261.993C597.944 262.308 597.944 262.308 597.944 262.622C597.944 262.622 597.944 262.622 597.944 262.937C597.944 263.251 597.944 263.565 597.944 263.565V263.88C597.944 263.88 597.944 263.88 597.944 264.194C597.944 264.509 597.944 264.509 597.944 264.823L599.202 278.658V278.973C599.202 279.287 599.202 279.602 599.516 279.602C599.516 279.916 599.831 279.916 599.831 280.231C599.831 280.545 600.145 280.545 600.145 280.859C600.46 281.174 600.46 281.174 600.774 281.174L582.222 270.169C581.908 270.169 581.908 269.854 581.594 269.854C581.279 269.854 581.279 269.54 581.279 269.225C581.279 268.911 580.965 268.911 580.965 268.596C580.965 268.282 580.965 267.968 580.65 267.968V267.653L579.392 253.818C580.336 253.189 580.336 252.875 580.336 252.56C580.336 252.875 580.336 252.56 580.336 252.56Z" fill="#7E54A8"/>
<path d="M603.918 255.393C601.088 256.965 598.887 261.053 599.202 264.197L600.459 278.033C600.774 281.177 603.289 282.435 606.434 280.863C606.434 280.863 615.238 273.316 618.068 270.801C620.583 268.6 623.728 264.826 623.728 261.367L624.986 249.733C625.3 246.274 623.099 244.702 620.269 246.274L603.918 255.393Z" fill="#E1D5ED"/>
<path d="M491.036 187.783L488.206 186.21L433.808 232.118L436.324 233.69L491.036 187.783Z" fill="#E4E4E4"/>
<path d="M436.323 233.69L433.808 232.118V261.361L436.638 262.933L436.323 233.69Z" fill="#C5C5C5"/>
<path d="M491.036 187.783L436.324 233.691L436.638 262.933L491.036 216.711V187.783Z" fill="#E1D5ED"/>
<path d="M634.104 208.224L546.062 156.971C545.433 156.656 544.49 156.342 543.546 156.027L631.589 207.281C632.532 207.595 633.475 207.91 634.104 208.224Z" fill="#E1D5ED"/>
<path d="M631.589 207.281L543.546 156.028C542.288 155.713 540.716 156.028 538.83 156.657L626.872 207.91C628.759 207.595 630.016 207.281 631.589 207.281Z" fill="#E1D5ED"/>
<path d="M626.872 207.911L538.83 156.657C538.201 156.972 537.257 157.286 536.629 157.601L624.671 208.854C625.614 208.854 626.243 208.225 626.872 207.911Z" fill="white"/>
<path d="M624.671 209.168L536.629 157.915C535.685 158.543 534.742 159.172 533.484 160.116L621.527 211.369C622.784 210.426 623.728 209.797 624.671 209.168Z" fill="white"/>
<path d="M621.527 211.366L533.799 160.112L399.219 274.253L487.262 325.506L621.527 211.366Z" fill="#FDFDFD"/>
<path d="M524.051 173.323L605.176 220.489L556.438 261.68L475.313 214.829L524.051 173.323Z" fill="#E1D5ED"/>
<path d="M487.262 325.507L399.219 274.253C396.075 277.083 393.245 280.542 391.673 284.63L479.715 335.883C481.288 331.795 484.117 328.022 487.262 325.507Z" fill="white"/>
<path d="M479.401 335.886L391.358 284.633C390.415 286.834 389.786 288.72 389.157 290.922L477.2 342.175C477.829 339.974 478.458 337.773 479.401 335.886Z" fill="#F2E6FD"/>
<path d="M477.514 342.174L389.472 290.921C388.843 293.436 388.843 296.266 389.472 298.467C390.101 300.983 391.358 302.87 392.931 303.813L480.973 355.066C479.401 354.123 478.143 352.236 477.514 349.721C476.885 347.205 476.885 344.69 477.514 342.174Z" fill="#E1D5ED"/>
<path d="M624.671 209.168C623.728 209.796 622.784 210.425 621.527 211.369L486.948 325.509C479.715 331.484 475.313 342.489 477.2 349.721C478.772 356.01 484.118 357.582 490.092 354.123C491.035 353.494 491.979 352.865 493.236 351.922L627.815 237.781C635.048 231.807 639.45 220.802 637.563 213.57C636.305 207.281 630.645 205.709 624.671 209.168Z" fill="#E1D5ED"/>
<path d="M624.043 225.832L585.996 253.502L600.774 279.286L627.501 246.584L624.043 225.832Z" fill="#E1D5ED"/>
<path d="M470.912 229.289V232.119C470.912 232.433 470.912 232.748 471.227 233.377V230.547C471.227 229.918 470.912 229.603 470.912 229.289Z" fill="#3E0DCB"/>
<path d="M471.226 230.235V233.065C471.226 233.379 471.541 233.694 471.855 234.008V231.178C471.541 230.864 471.541 230.549 471.226 230.235Z" fill="#3E0DCB"/>
<path d="M489.149 237.15V239.98C490.407 239.037 491.036 237.779 491.036 236.836V234.006C490.721 235.264 490.093 236.207 489.149 237.15Z" fill="#3E0DCB"/>
<path d="M486.319 239.35V242.494L489.149 240.293V237.148L486.319 239.35Z" fill="#3E0DCB"/>
<path d="M471.856 231.179V234.009L479.402 242.813V239.983L471.856 231.179Z" fill="#3E0DCB"/>
<path d="M479.401 239.979V242.809C480.03 243.438 480.974 243.752 482.231 243.752V240.922C480.974 240.922 480.03 240.608 479.401 239.979Z" fill="#3E0DCB"/>
<path d="M482.232 240.925V243.755C483.175 243.755 484.433 243.44 485.376 242.811C485.69 242.497 486.005 242.497 486.319 242.182V239.353C486.005 239.667 485.69 239.667 485.376 239.981C484.433 240.61 483.175 240.925 482.232 240.925Z" fill="#3E0DCB"/>
<path d="M472.799 226.146C470.913 227.403 470.284 229.604 471.856 231.177L479.402 239.981C480.66 241.239 483.176 241.553 485.377 240.295C485.691 239.981 486.006 239.981 486.32 239.666L489.15 237.465C491.351 235.579 491.666 233.063 489.464 231.805L480.346 226.46C478.145 225.202 475 225.202 472.799 226.146Z" fill="#8824EA"/>
<path d="M488.52 245.011V247.841C488.52 248.155 488.835 248.47 489.149 248.47V245.64C488.835 245.64 488.835 245.325 488.52 245.011Z" fill="#3E0DCB"/>
<path d="M514.933 249.1V251.93C515.247 251.615 515.247 251.301 515.247 250.672V247.842C515.247 248.471 515.247 248.785 514.933 249.1Z" fill="#3E0DCB"/>
<path d="M513.361 251.301V254.131C514.305 253.502 514.619 252.873 514.934 251.93V249.1C514.619 250.043 513.99 250.672 513.361 251.301Z" fill="#3E0DCB"/>
<path d="M510.532 253.505V256.335L513.361 254.134V251.304L510.532 253.505Z" fill="#3E0DCB"/>
<path d="M489.464 245.956V248.786L504.557 257.59V254.76L489.464 245.956Z" fill="#3E0DCB"/>
<path d="M504.557 254.762V257.592C505.186 257.906 505.814 258.221 506.443 257.906V255.076C505.814 255.076 504.871 255.076 504.557 254.762Z" fill="#3E0DCB"/>
<path d="M506.443 255.075V257.905C507.387 257.905 508.644 257.59 509.588 256.961C509.902 256.647 510.217 256.647 510.531 256.332V253.502C510.217 253.817 509.902 253.817 509.588 254.131C508.644 254.76 507.387 255.075 506.443 255.075Z" fill="#3E0DCB"/>
<path d="M490.093 242.814C488.206 243.758 487.892 245.015 489.464 245.644L504.557 254.448C505.815 255.077 508.016 255.077 509.588 254.134C509.902 253.82 510.217 253.82 510.531 253.505L513.361 251.304C514.304 250.675 514.619 250.046 514.933 249.103C515.877 247.845 515.248 246.588 513.676 245.644L504.557 240.299C502.985 239.355 500.469 239.041 498.583 239.67C497.325 239.67 496.067 240.299 494.809 240.613L491.036 242.185C490.722 242.5 490.407 242.814 490.093 242.814Z" fill="#8824EA"/>
<path d="M512.732 259.163V261.993C513.046 262.622 513.675 262.936 514.619 263.251V260.421C513.675 260.106 513.046 259.792 512.732 259.163Z" fill="#3E0DCB"/>
<path d="M514.618 260.424V263.254L529.397 267.656V264.827L514.618 260.424Z" fill="#3E0DCB"/>
<path d="M529.397 264.827V267.657C530.655 267.972 531.913 268.286 533.17 267.972V265.142C531.913 265.142 530.655 265.142 529.397 264.827Z" fill="#3E0DCB"/>
<path d="M533.17 265.139V267.969C535.057 267.969 536.943 267.655 537.886 267.026C538.83 266.397 539.144 265.768 539.144 265.139V262.309C539.144 262.938 538.83 263.881 537.886 264.196C536.943 264.825 535.057 265.139 533.17 265.139Z" fill="#3E0DCB"/>
<path d="M514.304 256.964C512.103 258.222 512.103 259.794 514.618 260.423L529.397 264.825C532.227 265.768 536 265.454 537.887 264.196C539.773 262.938 539.773 261.052 537.572 259.794L528.454 254.448C526.253 253.191 521.85 253.191 518.706 254.763L514.933 256.335C514.933 256.649 514.618 256.649 514.304 256.964Z" fill="#8824EA"/>
<path d="M454.246 243.438V246.268C454.246 246.582 454.246 246.897 454.561 247.526V244.696C454.246 244.381 454.246 244.067 454.246 243.438Z" fill="#3E0DCB"/>
<path d="M454.561 244.697V247.527C454.561 247.842 454.875 248.156 455.19 248.471V245.641C454.875 245.326 454.561 245.012 454.561 244.697Z" fill="#3E0DCB"/>
<path d="M472.169 251.611V254.441C473.427 253.498 474.056 252.24 474.056 251.297V248.467C474.056 249.41 473.427 250.668 472.169 251.611Z" fill="#3E0DCB"/>
<path d="M469.339 253.812V256.642L472.169 254.441V251.611L469.339 253.812Z" fill="#3E0DCB"/>
<path d="M455.189 245.642V248.472L462.735 257.276V254.131L455.189 245.642Z" fill="#3E0DCB"/>
<path d="M462.735 254.128V256.958C463.364 257.587 464.308 257.902 465.565 257.902V255.072C464.308 255.386 463.364 255.072 462.735 254.128Z" fill="#3E0DCB"/>
<path d="M465.565 255.388V258.218C466.509 258.218 467.766 257.903 468.71 257.274C469.024 256.96 469.339 256.96 469.653 256.645V253.815C469.339 254.13 469.024 254.13 468.71 254.444C467.452 255.073 466.509 255.388 465.565 255.388Z" fill="#3E0DCB"/>
<path d="M456.132 240.608C454.246 241.866 453.617 244.067 455.189 245.639L462.735 254.443C463.993 255.701 466.509 256.015 468.71 254.757C469.024 254.443 469.339 254.443 469.653 254.129L472.483 251.928C474.684 250.041 474.999 247.525 472.797 246.268L463.679 240.922C461.478 239.665 458.019 239.35 456.132 240.608Z" fill="#8824EA"/>
<path d="M471.855 259.473V262.303C471.855 262.617 472.17 262.932 472.484 262.932V260.102C472.17 260.102 471.855 259.788 471.855 259.473Z" fill="#3E0DCB"/>
<path d="M498.268 263.562V266.392C498.582 266.078 498.582 265.763 498.582 265.134V262.304C498.582 262.933 498.268 263.247 498.268 263.562Z" fill="#3E0DCB"/>
<path d="M496.382 265.764V268.594C497.325 267.965 497.639 267.336 497.954 266.393V263.562C497.954 264.191 497.325 265.135 496.382 265.764Z" fill="#3E0DCB"/>
<path d="M493.551 267.969V270.799L496.381 268.598V265.768L493.551 267.969Z" fill="#3E0DCB"/>
<path d="M472.483 260.107V262.937L487.576 271.741V268.911L472.483 260.107Z" fill="#3E0DCB"/>
<path d="M487.577 268.913V271.743C488.206 272.057 488.835 272.371 489.464 272.057V269.227C488.835 269.541 488.206 269.227 487.577 268.913Z" fill="#3E0DCB"/>
<path d="M489.778 269.539V272.369C490.721 272.369 491.979 272.054 492.922 271.426C493.237 271.111 493.551 271.111 493.866 270.797V267.967C493.551 268.281 493.237 268.281 492.922 268.596C491.665 269.224 490.721 269.539 489.778 269.539Z" fill="#3E0DCB"/>
<path d="M473.427 257.278C471.541 258.221 471.226 259.479 472.798 260.108L487.891 268.912C489.149 269.541 491.35 269.541 492.922 268.598C493.237 268.284 493.551 268.284 493.866 267.969L496.696 265.768C497.639 265.139 497.953 264.51 498.268 263.567C499.211 262.309 498.582 261.052 497.01 260.108L487.891 254.763C486.319 253.819 483.804 253.505 481.917 254.134C480.659 254.134 479.402 254.763 478.144 255.077L474.371 256.649C474.056 256.964 473.742 256.964 473.427 257.278Z" fill="#8824EA"/>
<path d="M496.067 273.62V276.45C496.381 277.079 497.01 277.393 497.954 277.708V274.878C496.696 274.249 496.381 273.935 496.067 273.62Z" fill="#3E0DCB"/>
<path d="M497.953 274.568V277.712L512.732 282.114V278.97L497.953 274.568Z" fill="#3E0DCB"/>
<path d="M512.732 278.974V281.804C513.989 282.118 515.247 282.433 516.505 282.433V279.603C515.247 279.603 513.989 279.603 512.732 278.974Z" fill="#3E0DCB"/>
<path d="M516.504 279.606V282.436C518.391 282.436 520.278 282.121 521.221 281.492C522.164 280.864 522.479 280.235 522.479 279.606V276.776C522.479 277.405 522.164 278.348 521.221 278.663C520.278 279.291 518.391 279.606 516.504 279.606Z" fill="#3E0DCB"/>
<path d="M497.639 271.427C495.438 272.684 495.437 274.257 497.953 274.885L512.732 279.288C515.562 280.231 519.335 279.917 521.221 278.659C523.108 277.401 523.108 275.514 520.907 274.257L511.788 268.911C509.587 267.653 505.185 267.653 502.041 269.226L498.267 270.798C498.267 270.798 497.953 271.112 497.639 271.427Z" fill="#8824EA"/>
<path d="M437.267 258.218V261.048C437.267 261.363 437.267 261.677 437.582 262.306V259.476C437.267 259.162 437.267 258.533 437.267 258.218Z" fill="#3E0DCB"/>
<path d="M437.582 259.478V262.307C437.582 262.622 437.896 262.936 438.211 263.251V260.421C437.896 260.106 437.582 259.792 437.582 259.478Z" fill="#3E0DCB"/>
<path d="M455.19 266.392V269.222C456.448 268.279 457.077 267.021 457.077 266.077V263.248C457.077 264.191 456.448 265.449 455.19 266.392Z" fill="#3E0DCB"/>
<path d="M452.36 268.594V271.424L455.19 269.223V266.393L452.36 268.594Z" fill="#3E0DCB"/>
<path d="M437.896 260.417V263.247L445.757 271.737V268.907L437.896 260.417Z" fill="#3E0DCB"/>
<path d="M445.757 268.904V271.734C446.386 272.363 447.329 272.677 448.587 272.677V269.847C447.329 270.162 446.386 269.533 445.757 268.904Z" fill="#3E0DCB"/>
<path d="M448.272 270.163V272.993C449.216 272.993 450.474 272.679 451.417 272.05C451.731 271.735 452.046 271.735 452.36 271.421V268.591C452.046 268.905 451.731 268.905 451.417 269.22C450.474 269.849 449.53 270.163 448.272 270.163Z" fill="#3E0DCB"/>
<path d="M439.154 255.385C437.267 256.643 436.638 258.844 438.211 260.416L445.757 269.221C447.015 270.478 449.53 270.793 451.731 269.535C452.046 269.221 452.36 269.221 452.675 268.906L455.505 266.705C457.706 264.818 458.02 262.303 455.819 261.045L446.7 255.7C444.499 254.128 441.04 254.128 439.154 255.385Z" fill="#8824EA"/>
<path d="M454.876 274.249V277.079C454.876 277.393 455.19 277.708 455.504 277.708V274.878C455.19 274.563 454.876 274.249 454.876 274.249Z" fill="#3E0DCB"/>
<path d="M480.974 278.346V281.176C481.289 280.862 481.289 280.547 481.289 279.918V277.088C481.603 277.403 481.289 278.032 480.974 278.346Z" fill="#3E0DCB"/>
<path d="M479.402 280.539V283.369C480.345 282.74 480.66 282.111 480.974 281.168V278.338C480.66 278.967 480.345 279.596 479.402 280.539Z" fill="#3E0DCB"/>
<path d="M476.572 282.747V285.577L479.402 283.376V280.546L476.572 282.747Z" fill="#3E0DCB"/>
<path d="M455.505 274.882V277.712L470.598 286.516V283.686L455.505 274.882Z" fill="#3E0DCB"/>
<path d="M470.597 283.691V286.521C471.226 286.835 471.855 287.15 472.484 286.835V284.005C471.855 284.005 471.226 284.005 470.597 283.691Z" fill="#3E0DCB"/>
<path d="M472.484 284.004V286.834C473.427 286.834 474.685 286.519 475.628 285.89C475.942 285.576 476.257 285.576 476.571 285.262V282.432C476.257 282.746 475.942 282.746 475.628 283.061C474.685 283.689 473.741 284.004 472.484 284.004Z" fill="#3E0DCB"/>
<path d="M456.133 271.741C454.246 272.684 453.932 273.942 455.504 274.571L470.597 283.375C471.855 284.004 474.056 284.004 475.628 283.06C475.943 282.746 476.257 282.746 476.572 282.431L479.401 280.23C480.345 279.602 480.659 278.973 480.974 278.029C481.917 276.772 481.288 275.514 479.716 274.571L470.597 269.225C469.025 268.282 466.51 267.967 464.623 268.596C463.365 268.596 462.107 268.911 460.85 269.54L457.076 271.112C456.762 271.426 456.448 271.741 456.133 271.741Z" fill="#8824EA"/>
<path d="M478.773 287.78V290.61V290.925V288.095C479.087 288.095 478.773 288.095 478.773 287.78Z" fill="#3E0DCB"/>
<path d="M479.087 288.093V290.923C479.401 291.552 480.03 291.866 480.973 292.181V289.351C479.716 289.037 479.087 288.722 479.087 288.093Z" fill="#3E0DCB"/>
<path d="M480.658 289.352V292.182L495.751 296.584V293.754L480.658 289.352Z" fill="#3E0DCB"/>
<path d="M495.752 293.749V296.579C497.01 296.893 498.267 297.208 499.525 297.208V294.378C498.267 294.378 496.695 294.063 495.752 293.749Z" fill="#3E0DCB"/>
<path d="M499.525 294.381V297.211C501.411 297.211 503.298 296.896 504.241 296.267C505.185 295.638 505.499 295.01 505.499 294.381V291.551C505.499 292.18 505.185 293.123 504.241 293.437C502.984 293.752 501.411 294.381 499.525 294.381Z" fill="#3E0DCB"/>
<path d="M480.344 285.889C478.143 287.147 478.143 288.719 480.659 289.348L495.437 293.75C498.267 294.693 502.04 294.379 503.927 293.121C505.814 291.863 505.814 289.977 503.613 288.719L494.494 283.374C492.293 282.116 487.891 282.116 484.746 283.688L480.973 285.26C481.288 285.575 480.659 285.889 480.344 285.889Z" fill="#8824EA"/>
<path d="M418.086 274.881V277.711C418.086 278.026 418.086 278.34 418.4 278.969V276.139C418.086 275.825 418.086 275.51 418.086 274.881Z" fill="#09A452"/>
<path d="M418.4 276.141V278.971C418.4 279.285 418.715 279.599 419.029 279.914V277.084C418.715 276.77 418.4 276.455 418.4 276.141Z" fill="#09A452"/>
<path d="M436.009 283.055V285.884C437.267 284.941 437.896 283.683 437.896 282.74V279.91C437.896 280.853 437.267 282.111 436.009 283.055Z" fill="#09A452"/>
<path d="M433.179 285.256L433.493 288.086L436.009 285.885V283.055L433.179 285.256Z" fill="#09A452"/>
<path d="M419.029 277.089V279.919L426.575 288.723V285.893L419.029 277.089Z" fill="#09A452"/>
<path d="M426.575 285.889V288.719C427.204 289.347 428.147 289.662 429.405 289.662V286.832C428.147 286.832 427.204 286.518 426.575 285.889Z" fill="#09A452"/>
<path d="M429.405 286.835V289.665C430.348 289.665 431.606 289.35 432.55 288.721C432.864 288.407 433.178 288.407 433.493 288.093V285.263C433.178 285.577 432.864 285.577 432.55 285.892C431.292 286.52 430.348 286.835 429.405 286.835Z" fill="#09A452"/>
<path d="M419.972 272.055C418.086 273.313 417.457 275.514 419.029 277.086L426.576 285.89C427.833 287.148 430.349 287.463 432.55 286.205C432.864 285.89 433.179 285.89 433.493 285.576L436.323 283.375C438.524 281.488 438.839 278.973 436.638 277.715L427.519 272.37C425.318 271.112 421.859 271.112 419.972 272.055Z" fill="#16B862"/>
<path d="M435.694 290.918V293.748C435.694 294.063 436.009 294.377 436.323 294.377V291.547C436.009 291.547 435.694 291.233 435.694 290.918Z" fill="#FF8A00"/>
<path d="M462.108 295.008V297.838C462.422 297.523 462.422 297.209 462.422 296.58V293.75C462.422 294.379 462.108 294.693 462.108 295.008Z" fill="#FF8A00"/>
<path d="M460.221 297.209V300.039C461.164 299.41 461.478 298.782 461.793 297.838V295.008C461.793 295.952 461.164 296.581 460.221 297.209Z" fill="#FF8A00"/>
<path d="M457.705 299.413V302.243L460.221 300.042V297.212L457.705 299.413Z" fill="#FF8A00"/>
<path d="M436.323 291.55V294.38L451.416 303.184V300.354L436.323 291.55Z" fill="#FF8A00"/>
<path d="M451.417 300.356V303.186C452.046 303.501 452.675 303.815 453.303 303.501V300.671C452.675 300.985 452.046 300.671 451.417 300.356Z" fill="#FF8A00"/>
<path d="M453.618 300.983V303.813C454.561 303.813 455.819 303.498 456.762 302.869C457.076 302.555 457.391 302.555 457.705 302.241V299.411C457.391 299.725 457.076 299.725 456.762 300.039C455.504 300.668 454.561 300.983 453.618 300.983Z" fill="#FF8A00"/>
<path d="M437.267 288.72C435.381 289.663 435.066 290.921 436.638 291.55L451.731 300.354C452.989 300.983 455.19 300.983 456.762 300.039C457.077 299.725 457.391 299.725 457.706 299.411L460.535 297.209C461.479 296.581 461.793 295.952 462.108 295.008C463.051 293.751 462.422 292.493 460.85 291.55L451.731 286.204C450.159 285.261 447.644 284.946 445.757 285.575C444.499 285.575 443.241 286.204 441.984 286.519L438.21 288.091C437.896 288.405 437.582 288.405 437.267 288.72Z" fill="#FFAB00"/>
<path d="M459.906 305.072V307.902C460.22 308.531 460.849 308.845 461.793 309.159V306.33C460.849 306.015 460.22 305.386 459.906 305.072Z" fill="#D3223F"/>
<path d="M461.793 306.011V309.155L476.571 313.557V310.727L461.793 306.011Z" fill="#D3223F"/>
<path d="M476.571 310.734V313.564C477.829 313.878 479.086 314.193 480.344 314.193V311.363C479.086 311.048 477.829 311.048 476.571 310.734Z" fill="#D3223F"/>
<path d="M480.344 311.046V313.876C482.231 313.876 484.117 313.561 485.061 312.932C486.004 312.304 486.318 311.675 486.318 311.046V308.216C486.318 308.845 486.004 309.788 485.061 310.102C484.117 310.731 482.231 311.046 480.344 311.046Z" fill="#D3223F"/>
<path d="M461.478 302.868C459.277 304.126 459.277 305.698 461.793 306.327L476.571 310.729C479.401 311.672 483.175 311.358 485.061 310.1C486.948 308.842 486.948 306.956 484.747 305.698L475.628 300.353C473.427 299.095 469.025 299.095 465.88 300.667L462.107 302.239C462.107 302.554 461.793 302.554 461.478 302.868Z" fill="#F54562"/>
<path d="M587.882 227.089L518.077 186.527L485.061 214.197L555.18 254.76L587.882 227.089Z" fill="#F5F7FA"/>
<path d="M547.634 172.063L602.346 204.136L595.743 209.796L541.66 177.409L547.634 172.063Z" fill="#E1D5ED"/>
<path d="M221.183 283.66L345 211.893L309.511 62.0508L185.694 134.212L221.183 283.66Z" fill="#A957FA"/>
<path d="M185.694 134.211L309.511 62.0505L218.817 10L95 81.7666L185.694 134.211Z" fill="#FDFDFD"/>
<path d="M220.788 444.543L344.605 372.777L345 211.894L221.183 283.66L220.788 444.543Z" fill="#FDFDFD"/>
<path d="M271.178 289.856L271.168 289.863C267.82 292.029 266.77 296.882 268.823 300.703L297.256 353.637C299.308 357.458 303.685 358.799 307.033 356.633L307.043 356.626C310.391 354.46 311.441 349.606 309.388 345.786L280.955 292.852C278.903 289.031 274.526 287.69 271.178 289.856Z" fill="url(#paint2_linear_1589_133)"/>
<path d="M276.536 288.965L276.524 288.962C272.685 287.89 268.903 290.473 268.075 294.732L256.678 353.389C255.851 357.648 258.291 361.97 262.13 363.043L262.142 363.046C265.98 364.118 269.762 361.534 270.59 357.275L281.987 298.618C282.815 294.359 280.374 290.037 276.536 288.965Z" fill="#FF00AA"/>
<path d="M312.489 301.882L312.476 301.878C308.638 300.806 304.856 303.39 304.028 307.649L296.229 347.789C295.401 352.048 297.842 356.37 301.68 357.442L301.692 357.446C305.531 358.518 309.313 355.934 310.141 351.675L317.94 311.535C318.767 307.276 316.327 302.954 312.489 301.882Z" fill="#5D2DE1"/>
<path d="M95 81.7676L96.9716 212.288L96.5773 373.171L220.789 444.544L221.183 283.66L185.694 134.212L95 81.7676Z" fill="#E1D5ED"/>
<path d="M311.089 87.2856L337.903 200.85L304.78 183.894L285.458 102.664L311.089 87.2856Z" fill="#9C42F5"/>
<path d="M304.779 183.895L337.902 200.85L226.309 265.913L218.817 233.973L304.779 183.895Z" fill="#C48DFB"/>
<path d="M305.962 216.228L326.073 204.399L302.414 191.78L281.514 203.61L305.962 216.228Z" fill="#E6E6E6"/>
<path d="M304.779 183.896L285.457 102.666L199.101 152.745L218.817 233.975L304.779 183.896Z" fill="#8310F5"/>
<path d="M296.499 172.064L281.909 110.944L205.41 155.502L220 216.228L296.499 172.064Z" fill="white"/>
<path d="M209.354 157.474L279.543 116.858L292.556 170.092L222.366 210.707L209.354 157.474Z" fill="#FF00AA"/>
<path d="M250.362 220.959V222.142C250.362 222.142 250.362 222.536 250.756 222.536V221.353C250.756 220.959 250.362 220.959 250.362 220.959Z" fill="#BFBFBF"/>
<path d="M261.797 221.353V222.536C262.191 222.536 262.191 222.142 262.191 222.142V220.959C262.191 220.959 262.191 221.353 261.797 221.353Z" fill="#BFBFBF"/>
<path d="M257.066 224.115V225.298L261.797 222.537V221.354L257.066 224.115Z" fill="#B9B9B9"/>
<path d="M250.757 221.354V222.537L255.489 225.298V224.115L250.757 221.354Z" fill="#979797"/>
<path d="M255.489 224.115V225.298C255.883 225.692 256.672 225.692 257.066 225.298V224.115C256.672 224.115 255.883 224.115 255.489 224.115Z" fill="#BFBFBF"/>
<path d="M250.756 220.171C250.362 220.566 250.362 220.96 250.756 221.354L255.488 224.114C255.882 224.509 256.671 224.509 257.065 224.114L261.797 221.354C262.191 220.96 262.191 220.566 261.797 220.171L257.065 217.411C256.671 217.017 255.882 217.017 255.488 217.411L250.756 220.171Z" fill="#E6E6E6"/>
<path d="M242.476 225.297V226.48C242.476 226.48 242.476 226.875 242.871 226.875V225.692C242.871 225.692 242.476 225.692 242.476 225.297Z" fill="#BFBFBF"/>
<path d="M253.911 226.086V227.269C254.305 227.269 254.305 226.874 254.305 226.874V225.691C254.305 225.691 253.911 225.691 253.911 226.086Z" fill="#BFBFBF"/>
<path d="M242.871 225.691V226.874L247.603 229.634V228.451L242.871 225.691Z" fill="#979797"/>
<path d="M249.179 228.452V229.635L253.911 227.269V226.086L249.179 228.452Z" fill="#B9B9B9"/>
<path d="M247.602 228.451V229.634C247.996 230.028 248.785 230.028 249.179 229.634V228.451C248.785 228.845 247.996 228.845 247.602 228.451Z" fill="#BFBFBF"/>
<path d="M242.87 224.902C242.476 225.297 242.476 225.691 242.87 226.085L247.602 228.845C247.996 229.24 248.785 229.24 249.179 228.845L253.911 226.085C254.305 225.691 254.305 225.297 253.911 224.902L249.179 222.142C248.785 221.748 247.996 221.748 247.602 222.142L242.87 224.902Z" fill="#E6E6E6"/>
<path d="M234.589 230.03V231.213C234.589 231.213 234.589 231.607 234.984 231.607V230.424C234.589 230.424 234.589 230.03 234.589 230.03Z" fill="#BFBFBF"/>
<path d="M246.025 230.424V231.607C246.419 231.607 246.419 231.213 246.419 231.213V230.03C246.025 230.03 246.025 230.424 246.025 230.424Z" fill="#BFBFBF"/>
<path d="M234.984 230.423V231.606L239.716 234.366V233.183L234.984 230.423Z" fill="#979797"/>
<path d="M241.293 233.183V234.366L246.025 231.606V230.423L241.293 233.183Z" fill="#B9B9B9"/>
<path d="M239.716 233.184V234.367C240.11 234.761 240.899 234.761 241.293 234.367V233.184C240.899 233.578 240.11 233.578 239.716 233.184Z" fill="#BFBFBF"/>
<path d="M234.983 229.635C234.589 230.029 234.589 230.424 234.983 230.818L239.715 233.578C240.11 233.973 240.898 233.973 241.293 233.578L246.024 230.818C246.419 230.424 246.419 230.029 246.024 229.635L241.293 226.875C240.898 226.481 240.11 226.481 239.715 226.875L234.983 229.635Z" fill="#E6E6E6"/>
<path d="M277.964 212.284V213.467C278.359 213.467 278.359 213.073 278.359 213.073V211.89C278.359 211.89 277.964 211.89 277.964 212.284Z" fill="#BFBFBF"/>
<path d="M260.615 215.045V216.228C260.615 216.228 260.615 216.622 261.009 216.622V215.439L260.615 215.045Z" fill="#BFBFBF"/>
<path d="M261.01 215.44V216.623L265.742 219.384V218.201L261.01 215.44Z" fill="#979797"/>
<path d="M267.318 218.201V219.384L277.965 213.469V212.286L267.318 218.201Z" fill="#B9B9B9"/>
<path d="M265.742 218.201V219.384C266.136 219.778 266.925 219.778 267.319 219.384V218.201C266.925 218.201 266.136 218.201 265.742 218.201Z" fill="#BFBFBF"/>
<path d="M261.009 214.256C260.615 214.651 260.615 215.045 261.009 215.439L265.741 218.2C266.135 218.594 266.924 218.594 267.318 218.2L277.57 212.285C277.965 211.891 277.965 211.496 277.57 211.102L272.839 208.342C272.444 207.947 271.656 207.947 271.261 208.342L261.009 214.256Z" fill="#E6E6E6"/>
<path d="M258.644 225.297V226.48C258.644 226.48 258.644 226.875 259.038 226.875V225.692C258.644 225.692 258.644 225.692 258.644 225.297Z" fill="#BFBFBF"/>
<path d="M269.685 226.086V227.269C270.079 227.269 270.079 226.874 270.079 226.874V225.691C270.079 225.691 270.079 225.691 269.685 226.086Z" fill="#BFBFBF"/>
<path d="M265.347 228.452V229.635L269.684 227.269V226.086L265.347 228.452Z" fill="#B9B9B9"/>
<path d="M259.038 226.086V227.269L263.376 229.635V228.452L259.038 226.086Z" fill="#979797"/>
<path d="M263.375 228.451V229.634C263.77 230.028 264.558 230.028 264.953 229.634V228.451C264.558 228.845 263.77 228.845 263.375 228.451Z" fill="#BFBFBF"/>
<path d="M259.038 224.902C258.643 225.297 258.643 225.691 259.038 226.085L263.77 228.845C264.164 229.24 264.953 229.24 265.347 228.845L270.079 226.085C270.473 225.691 270.473 225.297 270.079 224.902L265.347 222.142C264.953 221.748 264.164 221.748 263.77 222.142L259.038 224.902Z" fill="#E6E6E6"/>
<path d="M250.362 230.03V231.213C250.362 231.213 250.362 231.607 250.756 231.607V230.424L250.362 230.03Z" fill="#BFBFBF"/>
<path d="M261.797 230.423V231.606C262.192 231.606 262.192 231.211 262.192 231.211V230.028C262.192 230.423 262.192 230.423 261.797 230.423Z" fill="#BFBFBF"/>
<path d="M250.757 230.423V231.606L255.489 234.366V233.183L250.757 230.423Z" fill="#979797"/>
<path d="M257.46 233.183V234.366L261.798 231.606V230.423L257.46 233.183Z" fill="#B9B9B9"/>
<path d="M255.489 233.184V234.367C255.883 234.761 256.672 234.761 257.066 234.367V233.184C256.672 233.578 255.883 233.578 255.489 233.184Z" fill="#BFBFBF"/>
<path d="M250.756 229.635C250.362 230.029 250.362 230.424 250.756 230.818L255.488 233.578C255.883 233.973 256.671 233.973 257.066 233.578L261.797 230.818C262.192 230.424 262.192 230.029 261.797 229.635L257.066 226.875C256.671 226.481 255.883 226.481 255.488 226.875L250.756 229.635Z" fill="#E6E6E6"/>
<path d="M242.476 234.761V235.944C242.476 235.944 242.476 236.338 242.871 236.338V235.155L242.476 234.761Z" fill="#BFBFBF"/>
<path d="M253.911 235.155V236.338C254.305 236.338 254.305 235.944 254.305 235.944V234.761C254.305 234.761 253.911 235.155 253.911 235.155Z" fill="#BFBFBF"/>
<path d="M242.871 235.156V236.339L247.603 239.099V237.916L242.871 235.156Z" fill="#979797"/>
<path d="M249.179 237.916V239.099L253.911 236.339V235.156L249.179 237.916Z" fill="#B9B9B9"/>
<path d="M247.602 237.917V239.1C247.996 239.494 248.785 239.494 249.179 239.1V237.917C248.785 237.917 247.996 237.917 247.602 237.917Z" fill="#BFBFBF"/>
<path d="M242.87 233.972C242.476 234.366 242.476 234.76 242.87 235.154L247.602 237.915C247.996 238.309 248.785 238.309 249.179 237.915L253.911 235.154C254.305 234.76 254.305 234.366 253.911 233.972L249.179 231.211C248.785 230.817 247.996 230.817 247.602 231.211L242.87 233.972Z" fill="#E6E6E6"/>
<path d="M285.851 216.624V217.807C286.246 217.807 286.246 217.413 286.246 217.413V216.23C286.246 216.624 286.246 216.624 285.851 216.624Z" fill="#BFBFBF"/>
<path d="M268.895 219.384V220.567C268.895 220.567 268.895 220.962 269.29 220.962V219.779C268.895 219.779 268.895 219.779 268.895 219.384Z" fill="#BFBFBF"/>
<path d="M269.29 220.172V221.355L273.627 224.116V222.933L269.29 220.172Z" fill="#979797"/>
<path d="M275.598 222.931V224.114L285.851 217.805V216.622L275.598 222.931Z" fill="#B9B9B9"/>
<path d="M273.627 222.934V224.117C274.021 224.511 274.81 224.511 275.204 224.117V222.934C274.81 222.934 274.021 222.934 273.627 222.934Z" fill="#BFBFBF"/>
<path d="M268.895 218.989C268.501 219.384 268.501 219.778 268.895 220.172L273.627 222.933C274.021 223.327 274.81 223.327 275.205 222.933L285.457 217.018C285.851 216.623 285.851 216.229 285.457 215.835L280.725 213.075C280.331 212.68 279.542 212.68 279.148 213.075L268.895 218.989Z" fill="#E6E6E6"/>
<path d="M266.53 230.03V231.213C266.53 231.213 266.53 231.607 266.924 231.607V230.424C266.53 230.424 266.53 230.424 266.53 230.03Z" fill="#BFBFBF"/>
<path d="M277.965 230.816V231.999C278.359 231.999 278.359 231.605 278.359 231.605V230.422C278.359 230.422 277.965 230.422 277.965 230.816Z" fill="#BFBFBF"/>
<path d="M273.233 233.185V234.368L277.965 232.002V230.819L273.233 233.185Z" fill="#B9B9B9"/>
<path d="M266.925 230.423V231.606L271.657 234.366V233.183L266.925 230.423Z" fill="#979797"/>
<path d="M271.656 233.184V234.367C272.05 234.761 272.839 234.761 273.233 234.367V233.184C272.839 233.578 272.05 233.578 271.656 233.184Z" fill="#BFBFBF"/>
<path d="M266.924 229.635C266.53 230.029 266.53 230.424 266.924 230.818L271.656 233.578C272.05 233.973 272.839 233.973 273.233 233.578L277.965 230.818C278.359 230.424 278.359 230.029 277.965 229.635L273.233 226.875C272.839 226.481 272.05 226.481 271.656 226.875L266.924 229.635Z" fill="#E6E6E6"/>
<path d="M258.644 234.762V235.945C258.644 235.945 258.644 236.339 259.038 236.339V235.156C258.644 235.156 258.644 234.762 258.644 234.762Z" fill="#BFBFBF"/>
<path d="M269.685 235.157V236.34C270.079 236.34 270.079 235.946 270.079 235.946V234.763C270.079 234.763 270.079 235.157 269.685 235.157Z" fill="#BFBFBF"/>
<path d="M259.038 235.156V236.339L263.376 239.099V237.916L259.038 235.156Z" fill="#979797"/>
<path d="M265.347 237.916V239.099L269.684 236.339V235.156L265.347 237.916Z" fill="#B9B9B9"/>
<path d="M263.375 237.917V239.1C263.77 239.495 264.558 239.495 264.953 239.1V237.917C264.953 238.312 264.164 238.312 263.375 237.917Z" fill="#BFBFBF"/>
<path d="M259.038 234.368C258.643 234.762 258.643 235.157 259.038 235.551L263.77 238.311C264.164 238.706 264.953 238.706 265.347 238.311L270.079 235.551C270.473 235.157 270.473 234.762 270.079 234.368L265.347 231.608C264.953 231.213 264.164 231.213 263.77 231.608L259.038 234.368Z" fill="#E6E6E6"/>
<path d="M250.757 239.098V240.281C250.757 240.281 250.758 240.675 251.152 240.675V239.492C250.758 239.492 250.757 239.492 250.757 239.098Z" fill="#BFBFBF"/>
<path d="M261.799 239.887V241.069C262.193 241.069 262.193 240.675 262.193 240.675V239.492C262.193 239.492 262.193 239.887 261.799 239.887Z" fill="#BFBFBF"/>
<path d="M251.152 239.889V241.072L255.49 243.832V242.649L251.152 239.889Z" fill="#979797"/>
<path d="M257.461 242.649V243.832L261.798 241.072V239.889L257.461 242.649Z" fill="#B9B9B9"/>
<path d="M255.489 242.647V243.83C255.883 244.225 256.672 244.225 257.066 243.83V242.647C256.672 242.647 255.883 242.647 255.489 242.647Z" fill="#BFBFBF"/>
<path d="M251.151 238.704C250.757 239.099 250.757 239.493 251.151 239.887L255.883 242.648C256.277 243.042 257.066 243.042 257.46 242.648L262.192 239.887C262.586 239.493 262.586 239.099 262.192 238.704L257.46 235.944C257.066 235.55 256.277 235.55 255.883 235.944L251.151 238.704Z" fill="#E6E6E6"/>
<path d="M293.738 221.356V222.539C294.132 222.539 294.132 222.145 294.132 222.145V220.962C294.132 220.962 294.132 221.356 293.738 221.356Z" fill="#BFBFBF"/>
<path d="M276.781 224.115V225.298C276.781 225.298 276.781 225.692 277.176 225.692V224.509C276.781 224.509 276.781 224.509 276.781 224.115Z" fill="#BFBFBF"/>
<path d="M277.176 224.905V226.088L281.514 228.454V227.271L277.176 224.905Z" fill="#979797"/>
<path d="M283.485 227.269V228.452L293.737 222.537V221.354L283.485 227.269Z" fill="#B9B9B9"/>
<path d="M281.513 227.271V228.453C281.908 228.848 282.697 228.848 283.091 228.453V227.271C283.091 227.665 282.302 227.665 281.513 227.271Z" fill="#BFBFBF"/>
<path d="M277.176 223.722C276.781 224.117 276.781 224.511 277.176 224.905L281.908 227.666C282.302 228.06 283.091 228.06 283.485 227.666L293.737 221.751C294.132 221.356 294.132 220.962 293.737 220.568L289.005 217.807C288.611 217.413 287.822 217.413 287.428 217.807L277.176 223.722Z" fill="#E6E6E6"/>
<path d="M228.675 222.933L258.25 205.978L257.067 200.457L227.492 217.413L228.675 222.933Z" fill="white"/>
<path d="M281.514 193.361L298.076 183.897L296.893 178.376L280.331 187.84L281.514 193.361Z" fill="white"/>
<path d="M143.108 146.042C124.969 135.396 109.984 144.071 109.984 164.97C109.984 185.869 124.969 211.5 143.108 222.146C161.246 232.793 176.231 224.118 176.231 203.219C175.836 181.926 161.246 156.295 143.108 146.042ZM158.092 206.374C159.275 203.219 159.669 199.67 160.063 195.727L173.076 203.219C172.682 210.317 170.71 215.443 166.767 218.992C164.007 214.26 161.246 210.317 158.092 206.374ZM119.448 191.389C115.899 183.897 113.533 176.011 113.139 168.519L126.546 176.405C126.546 180.348 126.94 184.686 128.123 189.023C124.969 189.023 121.814 189.812 119.448 191.389ZM128.123 163.393C127.335 166.153 126.94 169.307 126.546 172.856L113.139 164.97C113.533 158.266 115.505 153.14 118.66 149.986C121.42 154.717 124.574 159.449 128.123 163.393ZM144.685 177.194C148.628 179.165 152.177 180.348 155.726 180.743C156.514 183.897 156.514 187.446 156.909 190.601L145.079 183.897V177.194H144.685ZM144.685 173.251V152.352C149.417 160.238 152.571 168.519 154.543 176.405C151.783 176.011 148.234 175.222 144.685 173.251ZM141.53 151.957V171.673C137.981 169.702 134.827 166.941 131.672 163.787C134.038 158.266 137.193 154.323 141.53 151.957ZM141.53 175.222V181.531L129.7 174.828C129.7 172.068 130.095 169.307 130.884 166.547C134.432 170.096 137.981 172.856 141.53 175.222ZM129.7 178.377L141.53 185.08V192.967C137.981 190.995 134.432 189.812 130.884 189.418C130.489 185.475 129.7 181.926 129.7 178.377ZM141.53 196.516V216.232C137.193 208.74 133.644 200.853 131.672 193.361C135.221 193.755 138.376 194.544 141.53 196.516ZM144.685 216.626V198.487C147.839 200.459 150.994 203.219 154.148 206.374C152.177 210.711 149.022 214.654 144.685 216.626ZM144.685 194.544V186.657L156.514 193.361C156.514 196.91 155.726 200.064 154.937 202.825C151.783 200.064 148.234 196.91 144.685 194.544ZM160.063 192.178C160.063 188.629 159.669 184.686 158.88 180.743C162.035 180.743 164.795 179.56 167.555 177.982C170.71 185.08 172.682 192.572 173.076 199.67L160.063 192.178ZM165.189 173.645C162.823 175.222 160.458 176.011 157.697 176.405C155.726 168.519 152.571 160.632 148.234 153.14C154.937 158.266 160.852 165.758 165.189 173.645ZM139.559 148.014C134.827 150.38 131.278 154.717 128.912 160.632C125.757 157.083 122.997 152.746 120.631 148.408C125.757 144.859 132.066 144.465 139.559 148.014ZM121.42 195.333C123.786 193.755 126.152 192.967 129.306 192.967C131.278 200.459 134.432 207.951 138.376 215.443C131.672 210.317 125.757 203.219 121.42 195.333ZM147.051 220.569C151.388 218.203 154.937 214.26 156.909 209.134C159.669 212.288 162.429 216.232 164.401 220.175C160.063 223.329 153.754 223.329 147.051 220.569Z" fill="white"/>
<rect y="314" width="132" height="132" rx="66" fill="url(#paint3_linear_1589_133)"/>
<defs>
<filter id="filter0_dddd_1589_133" x="240" y="239" width="422" height="422" filterUnits="userSpaceOnUse" color-interpolation-filters="sRGB">
<feFlood flood-opacity="0" result="BackgroundImageFix"/>
<feColorMatrix in="SourceAlpha" type="matrix" values="0 0 0 0 0 0 0 0 0 0 0 0 0 0 0 0 0 0 127 0" result="hardAlpha"/>
<feMorphology radius="4" operator="erode" in="SourceAlpha" result="effect1_dropShadow_1589_133"/>
<feOffset dy="8"/>
<feGaussianBlur stdDeviation="4"/>
<feColorMatrix type="matrix" values="0 0 0 0 0.611765 0 0 0 0 0.258824 0 0 0 0 0.960784 0 0 0 0.12 0"/>
<feBlend mode="normal" in2="BackgroundImageFix" result="effect1_dropShadow_1589_133"/>
<feColorMatrix in="SourceAlpha" type="matrix" values="0 0 0 0 0 0 0 0 0 0 0 0 0 0 0 0 0 0 127 0" result="hardAlpha"/>
<feOffset dy="16"/>
<feGaussianBlur stdDeviation="12"/>
<feColorMatrix type="matrix" values="0 0 0 0 0.611765 0 0 0 0 0.258824 0 0 0 0 0.960784 0 0 0 0.24 0"/>
<feBlend mode="normal" in2="effect1_dropShadow_1589_133" result="effect2_dropShadow_1589_133"/>
<feColorMatrix in="SourceAlpha" type="matrix" values="0 0 0 0 0 0 0 0 0 0 0 0 0 0 0 0 0 0 127 0" result="hardAlpha"/>
<feMorphology radius="1" operator="erode" in="SourceAlpha" result="effect3_dropShadow_1589_133"/>
<feOffset dy="2"/>
<feGaussianBlur stdDeviation="2"/>
<feColorMatrix type="matrix" values="0 0 0 0 0.105882 0 0 0 0 0.0392157 0 0 0 0 0.321569 0 0 0 0.12 0"/>
<feBlend mode="normal" in2="effect2_dropShadow_1589_133" result="effect3_dropShadow_1589_133"/>
<feColorMatrix in="SourceAlpha" type="matrix" values="0 0 0 0 0 0 0 0 0 0 0 0 0 0 0 0 0 0 127 0" result="hardAlpha"/>
<feOffset/>
<feGaussianBlur stdDeviation="0.5"/>
<feColorMatrix type="matrix" values="0 0 0 0 0.611765 0 0 0 0 0.258824 0 0 0 0 0.960784 0 0 0 0.24 0"/>
<feBlend mode="normal" in2="effect3_dropShadow_1589_133" result="effect4_dropShadow_1589_133"/>
<feBlend mode="normal" in="SourceGraphic" in2="effect4_dropShadow_1589_133" result="shape"/>
</filter>
<linearGradient id="paint0_linear_1589_133" x1="-102.5" y1="102.5" x2="102.5" y2="307.5" gradientUnits="userSpaceOnUse">
<stop stop-color="#00BBFF"/>
<stop offset="0.529825" stop-color="#9C42F5"/>
<stop offset="1" stop-color="#5D2DE1"/>
</linearGradient>
<linearGradient id="paint1_linear_1589_133" x1="77" y1="434" x2="451" y2="808" gradientUnits="userSpaceOnUse">
<stop stop-color="#FF00AA"/>
<stop offset="0.501768" stop-color="#9C42F5"/>
<stop offset="1" stop-color="#5D2DE1"/>
</linearGradient>
<linearGradient id="paint2_linear_1589_133" x1="294.87" y1="358.887" x2="284.54" y2="287.413" gradientUnits="userSpaceOnUse">
<stop offset="0.15" stop-color="#5D2DE1"/>
<stop offset="0.85" stop-color="#FF00AA"/>
</linearGradient>
<linearGradient id="paint3_linear_1589_133" x1="-66" y1="380" x2="66" y2="512" gradientUnits="userSpaceOnUse">
<stop stop-color="#00BBFF"/>
<stop offset="0.529825" stop-color="#9C42F5"/>
<stop offset="1" stop-color="#5D2DE1"/>
</linearGradient>
</defs>
</svg>
