<svg width="662" height="667" viewBox="0 0 662 667" fill="none" xmlns="http://www.w3.org/2000/svg">
<rect y="6" width="205" height="205" rx="102.5" fill="url(#paint0_linear_1644_139)"/>
<g filter="url(#filter0_dddd_1644_139)">
<rect x="264" y="253" width="374" height="374" rx="187" fill="url(#paint1_linear_1644_139)"/>
</g>
<path d="M602.346 252.581L623.413 269.246L637.249 228.998L624.042 219.879L602.346 252.581Z" fill="#E1D5ED"/>
<path d="M580.336 258.56V258.246C580.336 257.931 580.336 257.617 580.336 257.617C580.336 257.617 580.336 257.617 580.336 257.302C580.336 256.988 580.336 256.988 580.336 256.674C580.336 256.674 580.336 256.674 580.336 256.359V256.045V255.73C580.336 255.73 580.336 255.416 580.65 255.416C580.65 255.416 580.65 255.416 580.65 255.101C580.65 254.787 580.965 254.787 580.965 254.472C580.965 254.158 581.279 254.158 581.279 253.844C581.279 253.844 581.279 253.844 581.279 253.529C581.279 253.215 581.594 253.215 581.594 253.215C581.594 253.215 581.594 253.215 581.908 252.9L582.222 252.586C582.537 252.271 582.537 252.271 582.851 251.957C583.166 251.643 583.166 251.642 583.48 251.328C583.795 251.014 584.109 251.014 584.423 250.699L600.46 241.58C600.774 241.58 600.774 241.266 601.089 241.266C601.403 241.266 601.403 240.952 601.718 240.952C601.718 240.952 601.718 240.952 602.032 240.952H602.346H602.661C602.661 240.952 602.661 240.952 602.975 240.952H603.29C603.29 240.952 603.29 240.952 603.604 240.952H603.919C603.919 240.952 604.233 240.952 604.233 241.266L622.785 252.271C622.785 252.271 622.47 252.271 622.47 251.957H622.156C622.156 251.957 622.156 251.957 621.842 251.957H621.527C621.527 251.957 621.527 251.957 621.213 251.957H620.898C620.898 251.957 620.898 251.957 620.584 251.957H620.269C620.269 251.957 620.269 251.957 619.955 251.957C619.64 251.957 619.64 251.957 619.326 252.271C619.012 252.271 619.012 252.586 618.697 252.586L602.661 261.704C602.346 262.019 602.032 262.019 601.718 262.333C601.718 262.333 601.718 262.333 601.403 262.333C601.089 262.648 601.089 262.648 600.774 262.962C600.46 263.277 600.46 263.277 600.145 263.591C600.145 263.591 600.145 263.591 599.831 263.906L599.516 264.22C599.516 264.22 599.516 264.22 599.202 264.534L598.888 264.849C598.888 264.849 598.888 264.849 598.888 265.163C598.888 265.478 598.573 265.478 598.573 265.792C598.573 266.107 598.259 266.107 598.259 266.421V266.735C598.259 266.735 598.259 267.05 597.944 267.05V267.364V267.679V267.993C597.944 268.308 597.944 268.308 597.944 268.622C597.944 268.622 597.944 268.622 597.944 268.937C597.944 269.251 597.944 269.565 597.944 269.565V269.88C597.944 269.88 597.944 269.88 597.944 270.194C597.944 270.509 597.944 270.509 597.944 270.823L599.202 284.658V284.973C599.202 285.287 599.202 285.602 599.516 285.602C599.516 285.916 599.831 285.916 599.831 286.231C599.831 286.545 600.145 286.545 600.145 286.859C600.46 287.174 600.46 287.174 600.774 287.174L582.222 276.169C581.908 276.169 581.908 275.854 581.594 275.854C581.279 275.854 581.279 275.54 581.279 275.225C581.279 274.911 580.965 274.911 580.965 274.596C580.965 274.282 580.965 273.968 580.65 273.968V273.653L579.392 259.818C580.336 259.189 580.336 258.875 580.336 258.56C580.336 258.875 580.336 258.56 580.336 258.56Z" fill="#7E54A8"/>
<path d="M603.918 261.393C601.088 262.965 598.887 267.053 599.202 270.197L600.459 284.033C600.774 287.177 603.289 288.435 606.434 286.863C606.434 286.863 615.238 279.316 618.068 276.801C620.583 274.6 623.728 270.826 623.728 267.367L624.986 255.733C625.3 252.274 623.099 250.702 620.269 252.274L603.918 261.393Z" fill="#E1D5ED"/>
<path d="M491.036 193.783L488.206 192.21L433.808 238.118L436.324 239.69L491.036 193.783Z" fill="#E4E4E4"/>
<path d="M436.323 239.69L433.808 238.118V267.361L436.638 268.933L436.323 239.69Z" fill="#C5C5C5"/>
<path d="M491.036 193.783L436.324 239.691L436.638 268.933L491.036 222.711V193.783Z" fill="#E1D5ED"/>
<path d="M634.104 214.224L546.062 162.971C545.433 162.656 544.49 162.342 543.546 162.027L631.589 213.281C632.532 213.595 633.475 213.91 634.104 214.224Z" fill="#E1D5ED"/>
<path d="M631.589 213.281L543.546 162.028C542.288 161.713 540.716 162.028 538.83 162.657L626.872 213.91C628.759 213.595 630.016 213.281 631.589 213.281Z" fill="#E1D5ED"/>
<path d="M626.872 213.911L538.83 162.657C538.201 162.972 537.257 163.286 536.629 163.601L624.671 214.854C625.614 214.854 626.243 214.225 626.872 213.911Z" fill="white"/>
<path d="M624.671 215.168L536.629 163.915C535.685 164.543 534.742 165.172 533.484 166.116L621.527 217.369C622.784 216.426 623.728 215.797 624.671 215.168Z" fill="white"/>
<path d="M621.527 217.366L533.799 166.112L399.219 280.253L487.262 331.506L621.527 217.366Z" fill="#FDFDFD"/>
<path d="M524.051 179.323L605.176 226.489L556.438 267.68L475.313 220.829L524.051 179.323Z" fill="#E1D5ED"/>
<path d="M487.262 331.507L399.219 280.253C396.075 283.083 393.245 286.542 391.673 290.63L479.715 341.883C481.288 337.795 484.117 334.022 487.262 331.507Z" fill="white"/>
<path d="M479.401 341.886L391.358 290.633C390.415 292.834 389.786 294.72 389.157 296.922L477.2 348.175C477.829 345.974 478.458 343.773 479.401 341.886Z" fill="#F2E6FD"/>
<path d="M477.514 348.174L389.472 296.921C388.843 299.436 388.843 302.266 389.472 304.467C390.101 306.983 391.358 308.87 392.931 309.813L480.973 361.066C479.401 360.123 478.143 358.236 477.514 355.721C476.885 353.205 476.885 350.69 477.514 348.174Z" fill="#E1D5ED"/>
<path d="M624.671 215.168C623.728 215.796 622.784 216.425 621.527 217.369L486.948 331.509C479.715 337.484 475.313 348.489 477.2 355.721C478.772 362.01 484.118 363.582 490.092 360.123C491.035 359.494 491.979 358.865 493.236 357.922L627.815 243.781C635.048 237.807 639.45 226.802 637.563 219.57C636.305 213.281 630.645 211.709 624.671 215.168Z" fill="#E1D5ED"/>
<path d="M624.043 231.832L585.996 259.502L600.774 285.286L627.501 252.584L624.043 231.832Z" fill="#E1D5ED"/>
<path d="M470.912 235.289V238.119C470.912 238.433 470.912 238.748 471.227 239.377V236.547C471.227 235.918 470.912 235.603 470.912 235.289Z" fill="#3E0DCB"/>
<path d="M471.226 236.235V239.065C471.226 239.379 471.541 239.694 471.855 240.008V237.178C471.541 236.864 471.541 236.549 471.226 236.235Z" fill="#3E0DCB"/>
<path d="M489.149 243.15V245.98C490.407 245.037 491.036 243.779 491.036 242.836V240.006C490.721 241.264 490.093 242.207 489.149 243.15Z" fill="#3E0DCB"/>
<path d="M486.319 245.35V248.494L489.149 246.293V243.148L486.319 245.35Z" fill="#3E0DCB"/>
<path d="M471.856 237.179V240.009L479.402 248.813V245.983L471.856 237.179Z" fill="#3E0DCB"/>
<path d="M479.401 245.979V248.809C480.03 249.438 480.974 249.752 482.231 249.752V246.922C480.974 246.922 480.03 246.608 479.401 245.979Z" fill="#3E0DCB"/>
<path d="M482.232 246.925V249.755C483.175 249.755 484.433 249.44 485.376 248.811C485.69 248.497 486.005 248.497 486.319 248.182V245.353C486.005 245.667 485.69 245.667 485.376 245.981C484.433 246.61 483.175 246.925 482.232 246.925Z" fill="#3E0DCB"/>
<path d="M472.799 232.146C470.913 233.403 470.284 235.604 471.856 237.177L479.402 245.981C480.66 247.239 483.176 247.553 485.377 246.295C485.691 245.981 486.006 245.981 486.32 245.666L489.15 243.465C491.351 241.579 491.666 239.063 489.464 237.805L480.346 232.46C478.145 231.202 475 231.202 472.799 232.146Z" fill="#8824EA"/>
<path d="M488.52 251.011V253.841C488.52 254.155 488.835 254.47 489.149 254.47V251.64C488.835 251.64 488.835 251.325 488.52 251.011Z" fill="#3E0DCB"/>
<path d="M514.933 255.1V257.93C515.247 257.615 515.247 257.301 515.247 256.672V253.842C515.247 254.471 515.247 254.785 514.933 255.1Z" fill="#3E0DCB"/>
<path d="M513.361 257.301V260.131C514.305 259.502 514.619 258.873 514.934 257.93V255.1C514.619 256.043 513.99 256.672 513.361 257.301Z" fill="#3E0DCB"/>
<path d="M510.532 259.505V262.335L513.361 260.134V257.304L510.532 259.505Z" fill="#3E0DCB"/>
<path d="M489.464 251.956V254.786L504.557 263.59V260.76L489.464 251.956Z" fill="#3E0DCB"/>
<path d="M504.557 260.762V263.592C505.186 263.906 505.814 264.221 506.443 263.906V261.076C505.814 261.076 504.871 261.076 504.557 260.762Z" fill="#3E0DCB"/>
<path d="M506.443 261.075V263.905C507.387 263.905 508.644 263.59 509.588 262.961C509.902 262.647 510.217 262.647 510.531 262.332V259.502C510.217 259.817 509.902 259.817 509.588 260.131C508.644 260.76 507.387 261.075 506.443 261.075Z" fill="#3E0DCB"/>
<path d="M490.093 248.814C488.206 249.758 487.892 251.015 489.464 251.644L504.557 260.448C505.815 261.077 508.016 261.077 509.588 260.134C509.902 259.82 510.217 259.82 510.531 259.505L513.361 257.304C514.304 256.675 514.619 256.046 514.933 255.103C515.877 253.845 515.248 252.588 513.676 251.644L504.557 246.299C502.985 245.355 500.469 245.041 498.583 245.67C497.325 245.67 496.067 246.299 494.809 246.613L491.036 248.185C490.722 248.5 490.407 248.814 490.093 248.814Z" fill="#8824EA"/>
<path d="M512.732 265.163V267.993C513.046 268.622 513.675 268.936 514.619 269.251V266.421C513.675 266.106 513.046 265.792 512.732 265.163Z" fill="#3E0DCB"/>
<path d="M514.618 266.424V269.254L529.397 273.656V270.827L514.618 266.424Z" fill="#3E0DCB"/>
<path d="M529.397 270.827V273.657C530.655 273.972 531.913 274.286 533.17 273.972V271.142C531.913 271.142 530.655 271.142 529.397 270.827Z" fill="#3E0DCB"/>
<path d="M533.17 271.139V273.969C535.057 273.969 536.943 273.655 537.886 273.026C538.83 272.397 539.144 271.768 539.144 271.139V268.309C539.144 268.938 538.83 269.881 537.886 270.196C536.943 270.825 535.057 271.139 533.17 271.139Z" fill="#3E0DCB"/>
<path d="M514.304 262.964C512.103 264.222 512.103 265.794 514.618 266.423L529.397 270.825C532.227 271.768 536 271.454 537.887 270.196C539.773 268.938 539.773 267.052 537.572 265.794L528.454 260.448C526.253 259.191 521.85 259.191 518.706 260.763L514.933 262.335C514.933 262.649 514.618 262.649 514.304 262.964Z" fill="#8824EA"/>
<path d="M454.246 249.438V252.268C454.246 252.582 454.246 252.897 454.561 253.526V250.696C454.246 250.381 454.246 250.067 454.246 249.438Z" fill="#3E0DCB"/>
<path d="M454.561 250.697V253.527C454.561 253.842 454.875 254.156 455.19 254.471V251.641C454.875 251.326 454.561 251.012 454.561 250.697Z" fill="#3E0DCB"/>
<path d="M472.169 257.611V260.441C473.427 259.498 474.056 258.24 474.056 257.297V254.467C474.056 255.41 473.427 256.668 472.169 257.611Z" fill="#3E0DCB"/>
<path d="M469.339 259.812V262.642L472.169 260.441V257.611L469.339 259.812Z" fill="#3E0DCB"/>
<path d="M455.189 251.642V254.472L462.735 263.276V260.131L455.189 251.642Z" fill="#3E0DCB"/>
<path d="M462.735 260.128V262.958C463.364 263.587 464.308 263.902 465.565 263.902V261.072C464.308 261.386 463.364 261.072 462.735 260.128Z" fill="#3E0DCB"/>
<path d="M465.565 261.388V264.218C466.509 264.218 467.766 263.903 468.71 263.274C469.024 262.96 469.339 262.96 469.653 262.645V259.815C469.339 260.13 469.024 260.13 468.71 260.444C467.452 261.073 466.509 261.388 465.565 261.388Z" fill="#3E0DCB"/>
<path d="M456.132 246.608C454.246 247.866 453.617 250.067 455.189 251.639L462.735 260.443C463.993 261.701 466.509 262.015 468.71 260.757C469.024 260.443 469.339 260.443 469.653 260.129L472.483 257.928C474.684 256.041 474.999 253.525 472.797 252.268L463.679 246.922C461.478 245.665 458.019 245.35 456.132 246.608Z" fill="#8824EA"/>
<path d="M471.855 265.473V268.303C471.855 268.617 472.17 268.932 472.484 268.932V266.102C472.17 266.102 471.855 265.788 471.855 265.473Z" fill="#3E0DCB"/>
<path d="M498.268 269.562V272.392C498.582 272.078 498.582 271.763 498.582 271.134V268.304C498.582 268.933 498.268 269.247 498.268 269.562Z" fill="#3E0DCB"/>
<path d="M496.382 271.764V274.594C497.325 273.965 497.639 273.336 497.954 272.393V269.562C497.954 270.191 497.325 271.135 496.382 271.764Z" fill="#3E0DCB"/>
<path d="M493.551 273.969V276.799L496.381 274.598V271.768L493.551 273.969Z" fill="#3E0DCB"/>
<path d="M472.483 266.107V268.937L487.576 277.741V274.911L472.483 266.107Z" fill="#3E0DCB"/>
<path d="M487.577 274.913V277.743C488.206 278.057 488.835 278.371 489.464 278.057V275.227C488.835 275.541 488.206 275.227 487.577 274.913Z" fill="#3E0DCB"/>
<path d="M489.778 275.539V278.369C490.721 278.369 491.979 278.054 492.922 277.426C493.237 277.111 493.551 277.111 493.866 276.797V273.967C493.551 274.281 493.237 274.281 492.922 274.596C491.665 275.224 490.721 275.539 489.778 275.539Z" fill="#3E0DCB"/>
<path d="M473.427 263.278C471.541 264.221 471.226 265.479 472.798 266.108L487.891 274.912C489.149 275.541 491.35 275.541 492.922 274.598C493.237 274.284 493.551 274.284 493.866 273.969L496.696 271.768C497.639 271.139 497.953 270.51 498.268 269.567C499.211 268.309 498.582 267.052 497.01 266.108L487.891 260.763C486.319 259.819 483.804 259.505 481.917 260.134C480.659 260.134 479.402 260.763 478.144 261.077L474.371 262.649C474.056 262.964 473.742 262.964 473.427 263.278Z" fill="#8824EA"/>
<path d="M496.067 279.62V282.45C496.381 283.079 497.01 283.393 497.954 283.708V280.878C496.696 280.249 496.381 279.935 496.067 279.62Z" fill="#3E0DCB"/>
<path d="M497.953 280.568V283.712L512.732 288.114V284.97L497.953 280.568Z" fill="#3E0DCB"/>
<path d="M512.732 284.974V287.804C513.989 288.118 515.247 288.433 516.505 288.433V285.603C515.247 285.603 513.989 285.603 512.732 284.974Z" fill="#3E0DCB"/>
<path d="M516.504 285.606V288.436C518.391 288.436 520.278 288.121 521.221 287.492C522.164 286.864 522.479 286.235 522.479 285.606V282.776C522.479 283.405 522.164 284.348 521.221 284.663C520.278 285.291 518.391 285.606 516.504 285.606Z" fill="#3E0DCB"/>
<path d="M497.639 277.427C495.438 278.684 495.437 280.257 497.953 280.885L512.732 285.288C515.562 286.231 519.335 285.917 521.221 284.659C523.108 283.401 523.108 281.514 520.907 280.257L511.788 274.911C509.587 273.653 505.185 273.653 502.041 275.226L498.267 276.798C498.267 276.798 497.953 277.112 497.639 277.427Z" fill="#8824EA"/>
<path d="M437.267 264.218V267.048C437.267 267.363 437.267 267.677 437.582 268.306V265.476C437.267 265.162 437.267 264.533 437.267 264.218Z" fill="#3E0DCB"/>
<path d="M437.582 265.478V268.307C437.582 268.622 437.896 268.936 438.211 269.251V266.421C437.896 266.106 437.582 265.792 437.582 265.478Z" fill="#3E0DCB"/>
<path d="M455.19 272.392V275.222C456.448 274.279 457.077 273.021 457.077 272.077V269.248C457.077 270.191 456.448 271.449 455.19 272.392Z" fill="#3E0DCB"/>
<path d="M452.36 274.594V277.424L455.19 275.223V272.393L452.36 274.594Z" fill="#3E0DCB"/>
<path d="M437.896 266.417V269.247L445.757 277.737V274.907L437.896 266.417Z" fill="#3E0DCB"/>
<path d="M445.757 274.904V277.734C446.386 278.363 447.329 278.677 448.587 278.677V275.847C447.329 276.162 446.386 275.533 445.757 274.904Z" fill="#3E0DCB"/>
<path d="M448.272 276.163V278.993C449.216 278.993 450.474 278.679 451.417 278.05C451.731 277.735 452.046 277.735 452.36 277.421V274.591C452.046 274.905 451.731 274.905 451.417 275.22C450.474 275.849 449.53 276.163 448.272 276.163Z" fill="#3E0DCB"/>
<path d="M439.154 261.385C437.267 262.643 436.638 264.844 438.211 266.416L445.757 275.221C447.015 276.478 449.53 276.793 451.731 275.535C452.046 275.221 452.36 275.221 452.675 274.906L455.505 272.705C457.706 270.818 458.02 268.303 455.819 267.045L446.7 261.7C444.499 260.128 441.04 260.128 439.154 261.385Z" fill="#8824EA"/>
<path d="M454.876 280.249V283.079C454.876 283.393 455.19 283.708 455.504 283.708V280.878C455.19 280.563 454.876 280.249 454.876 280.249Z" fill="#3E0DCB"/>
<path d="M480.974 284.346V287.176C481.289 286.862 481.289 286.547 481.289 285.918V283.088C481.603 283.403 481.289 284.032 480.974 284.346Z" fill="#3E0DCB"/>
<path d="M479.402 286.539V289.369C480.345 288.74 480.66 288.111 480.974 287.168V284.338C480.66 284.967 480.345 285.596 479.402 286.539Z" fill="#3E0DCB"/>
<path d="M476.572 288.747V291.577L479.402 289.376V286.546L476.572 288.747Z" fill="#3E0DCB"/>
<path d="M455.505 280.882V283.712L470.598 292.516V289.686L455.505 280.882Z" fill="#3E0DCB"/>
<path d="M470.597 289.691V292.521C471.226 292.835 471.855 293.15 472.484 292.835V290.005C471.855 290.005 471.226 290.005 470.597 289.691Z" fill="#3E0DCB"/>
<path d="M472.484 290.004V292.834C473.427 292.834 474.685 292.519 475.628 291.89C475.942 291.576 476.257 291.576 476.571 291.262V288.432C476.257 288.746 475.942 288.746 475.628 289.061C474.685 289.689 473.741 290.004 472.484 290.004Z" fill="#3E0DCB"/>
<path d="M456.133 277.741C454.246 278.684 453.932 279.942 455.504 280.571L470.597 289.375C471.855 290.004 474.056 290.004 475.628 289.06C475.943 288.746 476.257 288.746 476.572 288.431L479.401 286.23C480.345 285.602 480.659 284.973 480.974 284.029C481.917 282.772 481.288 281.514 479.716 280.571L470.597 275.225C469.025 274.282 466.51 273.967 464.623 274.596C463.365 274.596 462.107 274.911 460.85 275.54L457.076 277.112C456.762 277.426 456.448 277.741 456.133 277.741Z" fill="#8824EA"/>
<path d="M478.773 293.78V296.61V296.925V294.095C479.087 294.095 478.773 294.095 478.773 293.78Z" fill="#3E0DCB"/>
<path d="M479.087 294.093V296.923C479.401 297.552 480.03 297.866 480.973 298.181V295.351C479.716 295.037 479.087 294.722 479.087 294.093Z" fill="#3E0DCB"/>
<path d="M480.658 295.352V298.182L495.751 302.584V299.754L480.658 295.352Z" fill="#3E0DCB"/>
<path d="M495.752 299.749V302.579C497.01 302.893 498.267 303.208 499.525 303.208V300.378C498.267 300.378 496.695 300.063 495.752 299.749Z" fill="#3E0DCB"/>
<path d="M499.525 300.381V303.211C501.411 303.211 503.298 302.896 504.241 302.267C505.185 301.638 505.499 301.01 505.499 300.381V297.551C505.499 298.18 505.185 299.123 504.241 299.437C502.984 299.752 501.411 300.381 499.525 300.381Z" fill="#3E0DCB"/>
<path d="M480.344 291.889C478.143 293.147 478.143 294.719 480.659 295.348L495.437 299.75C498.267 300.693 502.04 300.379 503.927 299.121C505.814 297.863 505.814 295.977 503.613 294.719L494.494 289.374C492.293 288.116 487.891 288.116 484.746 289.688L480.973 291.26C481.288 291.575 480.659 291.889 480.344 291.889Z" fill="#8824EA"/>
<path d="M418.086 280.881V283.711C418.086 284.026 418.086 284.34 418.4 284.969V282.139C418.086 281.825 418.086 281.51 418.086 280.881Z" fill="#09A452"/>
<path d="M418.4 282.141V284.971C418.4 285.285 418.715 285.599 419.029 285.914V283.084C418.715 282.77 418.4 282.455 418.4 282.141Z" fill="#09A452"/>
<path d="M436.009 289.055V291.884C437.267 290.941 437.896 289.683 437.896 288.74V285.91C437.896 286.853 437.267 288.111 436.009 289.055Z" fill="#09A452"/>
<path d="M433.179 291.256L433.493 294.086L436.009 291.885V289.055L433.179 291.256Z" fill="#09A452"/>
<path d="M419.029 283.089V285.919L426.575 294.723V291.893L419.029 283.089Z" fill="#09A452"/>
<path d="M426.575 291.889V294.719C427.204 295.347 428.147 295.662 429.405 295.662V292.832C428.147 292.832 427.204 292.518 426.575 291.889Z" fill="#09A452"/>
<path d="M429.405 292.835V295.665C430.348 295.665 431.606 295.35 432.55 294.721C432.864 294.407 433.178 294.407 433.493 294.093V291.263C433.178 291.577 432.864 291.577 432.55 291.892C431.292 292.52 430.348 292.835 429.405 292.835Z" fill="#09A452"/>
<path d="M419.972 278.055C418.086 279.313 417.457 281.514 419.029 283.086L426.576 291.89C427.833 293.148 430.349 293.463 432.55 292.205C432.864 291.89 433.179 291.89 433.493 291.576L436.323 289.375C438.524 287.488 438.839 284.973 436.638 283.715L427.519 278.37C425.318 277.112 421.859 277.112 419.972 278.055Z" fill="#16B862"/>
<path d="M435.694 296.918V299.748C435.694 300.063 436.009 300.377 436.323 300.377V297.547C436.009 297.547 435.694 297.233 435.694 296.918Z" fill="#FF8A00"/>
<path d="M462.108 301.008V303.838C462.422 303.523 462.422 303.209 462.422 302.58V299.75C462.422 300.379 462.108 300.693 462.108 301.008Z" fill="#FF8A00"/>
<path d="M460.221 303.209V306.039C461.164 305.41 461.478 304.782 461.793 303.838V301.008C461.793 301.952 461.164 302.581 460.221 303.209Z" fill="#FF8A00"/>
<path d="M457.705 305.413V308.243L460.221 306.042V303.212L457.705 305.413Z" fill="#FF8A00"/>
<path d="M436.323 297.55V300.38L451.416 309.184V306.354L436.323 297.55Z" fill="#FF8A00"/>
<path d="M451.417 306.356V309.186C452.046 309.501 452.675 309.815 453.303 309.501V306.671C452.675 306.985 452.046 306.671 451.417 306.356Z" fill="#FF8A00"/>
<path d="M453.618 306.983V309.813C454.561 309.813 455.819 309.498 456.762 308.869C457.076 308.555 457.391 308.555 457.705 308.241V305.411C457.391 305.725 457.076 305.725 456.762 306.039C455.504 306.668 454.561 306.983 453.618 306.983Z" fill="#FF8A00"/>
<path d="M437.267 294.72C435.381 295.663 435.066 296.921 436.638 297.55L451.731 306.354C452.989 306.983 455.19 306.983 456.762 306.039C457.077 305.725 457.391 305.725 457.706 305.411L460.535 303.209C461.479 302.581 461.793 301.952 462.108 301.008C463.051 299.751 462.422 298.493 460.85 297.55L451.731 292.204C450.159 291.261 447.644 290.946 445.757 291.575C444.499 291.575 443.241 292.204 441.984 292.519L438.21 294.091C437.896 294.405 437.582 294.405 437.267 294.72Z" fill="#FFAB00"/>
<path d="M459.906 311.072V313.902C460.22 314.531 460.849 314.845 461.793 315.159V312.33C460.849 312.015 460.22 311.386 459.906 311.072Z" fill="#D3223F"/>
<path d="M461.793 312.011V315.155L476.571 319.557V316.727L461.793 312.011Z" fill="#D3223F"/>
<path d="M476.571 316.734V319.564C477.829 319.878 479.086 320.193 480.344 320.193V317.363C479.086 317.048 477.829 317.048 476.571 316.734Z" fill="#D3223F"/>
<path d="M480.344 317.046V319.876C482.231 319.876 484.117 319.561 485.061 318.932C486.004 318.304 486.318 317.675 486.318 317.046V314.216C486.318 314.845 486.004 315.788 485.061 316.102C484.117 316.731 482.231 317.046 480.344 317.046Z" fill="#D3223F"/>
<path d="M461.478 308.868C459.277 310.126 459.277 311.698 461.793 312.327L476.571 316.729C479.401 317.672 483.175 317.358 485.061 316.1C486.948 314.842 486.948 312.956 484.747 311.698L475.628 306.353C473.427 305.095 469.025 305.095 465.88 306.667L462.107 308.239C462.107 308.554 461.793 308.554 461.478 308.868Z" fill="#F54562"/>
<path d="M587.882 233.089L518.077 192.527L485.061 220.197L555.18 260.76L587.882 233.089Z" fill="#F5F7FA"/>
<path d="M547.634 178.063L602.346 210.136L595.743 215.796L541.66 183.409L547.634 178.063Z" fill="#E1D5ED"/>
<path d="M221.183 289.66L345 217.893L309.511 68.0508L185.694 140.212L221.183 289.66Z" fill="#A957FA"/>
<g filter="url(#filter1_bddd_1644_139)">
<path d="M185.694 140.211L309.511 68.0505L218.817 16L95 87.7666L185.694 140.211Z" fill="url(#paint2_linear_1644_139)"/>
</g>
<g filter="url(#filter2_bddd_1644_139)">
<path d="M220.788 450.543L344.605 378.777L345 217.894L221.183 289.66L220.788 450.543Z" fill="url(#paint3_linear_1644_139)"/>
</g>
<path d="M271.178 295.856L271.168 295.863C267.82 298.029 266.77 302.882 268.823 306.703L297.256 359.637C299.308 363.458 303.685 364.799 307.033 362.633L307.043 362.626C310.391 360.46 311.441 355.606 309.388 351.786L280.955 298.852C278.903 295.031 274.526 293.69 271.178 295.856Z" fill="url(#paint4_linear_1644_139)"/>
<path d="M276.536 294.965L276.524 294.962C272.685 293.89 268.903 296.473 268.075 300.732L256.678 359.389C255.851 363.648 258.291 367.97 262.13 369.043L262.142 369.046C265.98 370.118 269.762 367.534 270.59 363.275L281.987 304.618C282.815 300.359 280.374 296.037 276.536 294.965Z" fill="#FF00AA"/>
<path d="M312.489 307.882L312.476 307.878C308.638 306.806 304.856 309.39 304.028 313.649L296.229 353.789C295.401 358.048 297.842 362.37 301.68 363.442L301.692 363.446C305.531 364.518 309.313 361.934 310.141 357.675L317.94 317.535C318.767 313.276 316.327 308.954 312.489 307.882Z" fill="#5D2DE1"/>
<g filter="url(#filter3_bddd_1644_139)">
<path d="M95 87.7676L96.9716 218.288L96.5773 379.171L220.789 450.544L221.183 289.66L185.694 140.212L95 87.7676Z" fill="url(#paint5_linear_1644_139)"/>
</g>
<path d="M311.089 93.2856L337.903 206.85L304.78 189.894L285.458 108.664L311.089 93.2856Z" fill="#9C42F5"/>
<path d="M304.779 189.895L337.902 206.85L226.309 271.913L218.817 239.973L304.779 189.895Z" fill="#C48DFB"/>
<path d="M305.962 222.228L326.073 210.399L302.414 197.78L281.514 209.61L305.962 222.228Z" fill="#E6E6E6"/>
<path d="M304.779 189.896L285.457 108.666L199.101 158.745L218.817 239.975L304.779 189.896Z" fill="#8310F5"/>
<path d="M296.499 178.064L281.909 116.944L205.41 161.502L220 222.228L296.499 178.064Z" fill="white"/>
<path d="M209.354 163.474L279.543 122.858L292.556 176.092L222.366 216.707L209.354 163.474Z" fill="#FF00AA"/>
<path d="M250.362 226.959V228.142C250.362 228.142 250.362 228.536 250.756 228.536V227.353C250.756 226.959 250.362 226.959 250.362 226.959Z" fill="#BFBFBF"/>
<path d="M261.797 227.353V228.536C262.191 228.536 262.191 228.142 262.191 228.142V226.959C262.191 226.959 262.191 227.353 261.797 227.353Z" fill="#BFBFBF"/>
<path d="M257.066 230.115V231.298L261.797 228.537V227.354L257.066 230.115Z" fill="#B9B9B9"/>
<path d="M250.757 227.354V228.537L255.489 231.298V230.115L250.757 227.354Z" fill="#979797"/>
<path d="M255.489 230.115V231.298C255.883 231.692 256.672 231.692 257.066 231.298V230.115C256.672 230.115 255.883 230.115 255.489 230.115Z" fill="#BFBFBF"/>
<path d="M250.756 226.171C250.362 226.566 250.362 226.96 250.756 227.354L255.488 230.114C255.882 230.509 256.671 230.509 257.065 230.114L261.797 227.354C262.191 226.96 262.191 226.566 261.797 226.171L257.065 223.411C256.671 223.017 255.882 223.017 255.488 223.411L250.756 226.171Z" fill="#E6E6E6"/>
<path d="M242.476 231.297V232.48C242.476 232.48 242.476 232.875 242.871 232.875V231.692C242.871 231.692 242.476 231.692 242.476 231.297Z" fill="#BFBFBF"/>
<path d="M253.911 232.086V233.269C254.305 233.269 254.305 232.874 254.305 232.874V231.691C254.305 231.691 253.911 231.691 253.911 232.086Z" fill="#BFBFBF"/>
<path d="M242.871 231.691V232.874L247.603 235.634V234.451L242.871 231.691Z" fill="#979797"/>
<path d="M249.179 234.452V235.635L253.911 233.269V232.086L249.179 234.452Z" fill="#B9B9B9"/>
<path d="M247.602 234.451V235.634C247.996 236.028 248.785 236.028 249.179 235.634V234.451C248.785 234.845 247.996 234.845 247.602 234.451Z" fill="#BFBFBF"/>
<path d="M242.87 230.902C242.476 231.297 242.476 231.691 242.87 232.085L247.602 234.845C247.996 235.24 248.785 235.24 249.179 234.845L253.911 232.085C254.305 231.691 254.305 231.297 253.911 230.902L249.179 228.142C248.785 227.748 247.996 227.748 247.602 228.142L242.87 230.902Z" fill="#E6E6E6"/>
<path d="M234.589 236.03V237.213C234.589 237.213 234.589 237.607 234.984 237.607V236.424C234.589 236.424 234.589 236.03 234.589 236.03Z" fill="#BFBFBF"/>
<path d="M246.025 236.424V237.607C246.419 237.607 246.419 237.213 246.419 237.213V236.03C246.025 236.03 246.025 236.424 246.025 236.424Z" fill="#BFBFBF"/>
<path d="M234.984 236.423V237.606L239.716 240.366V239.183L234.984 236.423Z" fill="#979797"/>
<path d="M241.293 239.183V240.366L246.025 237.606V236.423L241.293 239.183Z" fill="#B9B9B9"/>
<path d="M239.716 239.184V240.367C240.11 240.761 240.899 240.761 241.293 240.367V239.184C240.899 239.578 240.11 239.578 239.716 239.184Z" fill="#BFBFBF"/>
<path d="M234.983 235.635C234.589 236.029 234.589 236.424 234.983 236.818L239.715 239.578C240.11 239.973 240.898 239.973 241.293 239.578L246.024 236.818C246.419 236.424 246.419 236.029 246.024 235.635L241.293 232.875C240.898 232.481 240.11 232.481 239.715 232.875L234.983 235.635Z" fill="#E6E6E6"/>
<path d="M277.964 218.284V219.467C278.359 219.467 278.359 219.073 278.359 219.073V217.89C278.359 217.89 277.964 217.89 277.964 218.284Z" fill="#BFBFBF"/>
<path d="M260.615 221.045V222.228C260.615 222.228 260.615 222.622 261.009 222.622V221.439L260.615 221.045Z" fill="#BFBFBF"/>
<path d="M261.01 221.44V222.623L265.742 225.384V224.201L261.01 221.44Z" fill="#979797"/>
<path d="M267.318 224.201V225.384L277.965 219.469V218.286L267.318 224.201Z" fill="#B9B9B9"/>
<path d="M265.742 224.201V225.384C266.136 225.778 266.925 225.778 267.319 225.384V224.201C266.925 224.201 266.136 224.201 265.742 224.201Z" fill="#BFBFBF"/>
<path d="M261.009 220.256C260.615 220.651 260.615 221.045 261.009 221.439L265.741 224.2C266.135 224.594 266.924 224.594 267.318 224.2L277.57 218.285C277.965 217.891 277.965 217.496 277.57 217.102L272.839 214.342C272.444 213.947 271.656 213.947 271.261 214.342L261.009 220.256Z" fill="#E6E6E6"/>
<path d="M258.644 231.297V232.48C258.644 232.48 258.644 232.875 259.038 232.875V231.692C258.644 231.692 258.644 231.692 258.644 231.297Z" fill="#BFBFBF"/>
<path d="M269.685 232.086V233.269C270.079 233.269 270.079 232.874 270.079 232.874V231.691C270.079 231.691 270.079 231.691 269.685 232.086Z" fill="#BFBFBF"/>
<path d="M265.347 234.452V235.635L269.684 233.269V232.086L265.347 234.452Z" fill="#B9B9B9"/>
<path d="M259.038 232.086V233.269L263.376 235.635V234.452L259.038 232.086Z" fill="#979797"/>
<path d="M263.375 234.451V235.634C263.77 236.028 264.558 236.028 264.953 235.634V234.451C264.558 234.845 263.77 234.845 263.375 234.451Z" fill="#BFBFBF"/>
<path d="M259.038 230.902C258.643 231.297 258.643 231.691 259.038 232.085L263.77 234.845C264.164 235.24 264.953 235.24 265.347 234.845L270.079 232.085C270.473 231.691 270.473 231.297 270.079 230.902L265.347 228.142C264.953 227.748 264.164 227.748 263.77 228.142L259.038 230.902Z" fill="#E6E6E6"/>
<path d="M250.362 236.03V237.213C250.362 237.213 250.362 237.607 250.756 237.607V236.424L250.362 236.03Z" fill="#BFBFBF"/>
<path d="M261.797 236.423V237.606C262.192 237.606 262.192 237.211 262.192 237.211V236.028C262.192 236.423 262.192 236.423 261.797 236.423Z" fill="#BFBFBF"/>
<path d="M250.757 236.423V237.606L255.489 240.366V239.183L250.757 236.423Z" fill="#979797"/>
<path d="M257.46 239.183V240.366L261.798 237.606V236.423L257.46 239.183Z" fill="#B9B9B9"/>
<path d="M255.489 239.184V240.367C255.883 240.761 256.672 240.761 257.066 240.367V239.184C256.672 239.578 255.883 239.578 255.489 239.184Z" fill="#BFBFBF"/>
<path d="M250.756 235.635C250.362 236.029 250.362 236.424 250.756 236.818L255.488 239.578C255.883 239.973 256.671 239.973 257.066 239.578L261.797 236.818C262.192 236.424 262.192 236.029 261.797 235.635L257.066 232.875C256.671 232.481 255.883 232.481 255.488 232.875L250.756 235.635Z" fill="#E6E6E6"/>
<path d="M242.476 240.761V241.944C242.476 241.944 242.476 242.338 242.871 242.338V241.155L242.476 240.761Z" fill="#BFBFBF"/>
<path d="M253.911 241.155V242.338C254.305 242.338 254.305 241.944 254.305 241.944V240.761C254.305 240.761 253.911 241.155 253.911 241.155Z" fill="#BFBFBF"/>
<path d="M242.871 241.156V242.339L247.603 245.099V243.916L242.871 241.156Z" fill="#979797"/>
<path d="M249.179 243.916V245.099L253.911 242.339V241.156L249.179 243.916Z" fill="#B9B9B9"/>
<path d="M247.602 243.917V245.1C247.996 245.494 248.785 245.494 249.179 245.1V243.917C248.785 243.917 247.996 243.917 247.602 243.917Z" fill="#BFBFBF"/>
<path d="M242.87 239.972C242.476 240.366 242.476 240.76 242.87 241.154L247.602 243.915C247.996 244.309 248.785 244.309 249.179 243.915L253.911 241.154C254.305 240.76 254.305 240.366 253.911 239.972L249.179 237.211C248.785 236.817 247.996 236.817 247.602 237.211L242.87 239.972Z" fill="#E6E6E6"/>
<path d="M285.851 222.624V223.807C286.246 223.807 286.246 223.413 286.246 223.413V222.23C286.246 222.624 286.246 222.624 285.851 222.624Z" fill="#BFBFBF"/>
<path d="M268.895 225.384V226.567C268.895 226.567 268.895 226.962 269.29 226.962V225.779C268.895 225.779 268.895 225.779 268.895 225.384Z" fill="#BFBFBF"/>
<path d="M269.29 226.172V227.355L273.627 230.116V228.933L269.29 226.172Z" fill="#979797"/>
<path d="M275.598 228.931V230.114L285.851 223.805V222.622L275.598 228.931Z" fill="#B9B9B9"/>
<path d="M273.627 228.934V230.117C274.021 230.511 274.81 230.511 275.204 230.117V228.934C274.81 228.934 274.021 228.934 273.627 228.934Z" fill="#BFBFBF"/>
<path d="M268.895 224.989C268.501 225.384 268.501 225.778 268.895 226.172L273.627 228.933C274.021 229.327 274.81 229.327 275.205 228.933L285.457 223.018C285.851 222.623 285.851 222.229 285.457 221.835L280.725 219.075C280.331 218.68 279.542 218.68 279.148 219.075L268.895 224.989Z" fill="#E6E6E6"/>
<path d="M266.53 236.03V237.213C266.53 237.213 266.53 237.607 266.924 237.607V236.424C266.53 236.424 266.53 236.424 266.53 236.03Z" fill="#BFBFBF"/>
<path d="M277.965 236.816V237.999C278.359 237.999 278.359 237.605 278.359 237.605V236.422C278.359 236.422 277.965 236.422 277.965 236.816Z" fill="#BFBFBF"/>
<path d="M273.233 239.185V240.368L277.965 238.002V236.819L273.233 239.185Z" fill="#B9B9B9"/>
<path d="M266.925 236.423V237.606L271.657 240.366V239.183L266.925 236.423Z" fill="#979797"/>
<path d="M271.656 239.184V240.367C272.05 240.761 272.839 240.761 273.233 240.367V239.184C272.839 239.578 272.05 239.578 271.656 239.184Z" fill="#BFBFBF"/>
<path d="M266.924 235.635C266.53 236.029 266.53 236.424 266.924 236.818L271.656 239.578C272.05 239.973 272.839 239.973 273.233 239.578L277.965 236.818C278.359 236.424 278.359 236.029 277.965 235.635L273.233 232.875C272.839 232.481 272.05 232.481 271.656 232.875L266.924 235.635Z" fill="#E6E6E6"/>
<path d="M258.644 240.762V241.945C258.644 241.945 258.644 242.339 259.038 242.339V241.156C258.644 241.156 258.644 240.762 258.644 240.762Z" fill="#BFBFBF"/>
<path d="M269.685 241.157V242.34C270.079 242.34 270.079 241.946 270.079 241.946V240.763C270.079 240.763 270.079 241.157 269.685 241.157Z" fill="#BFBFBF"/>
<path d="M259.038 241.156V242.339L263.376 245.099V243.916L259.038 241.156Z" fill="#979797"/>
<path d="M265.347 243.916V245.099L269.684 242.339V241.156L265.347 243.916Z" fill="#B9B9B9"/>
<path d="M263.375 243.917V245.1C263.77 245.495 264.558 245.495 264.953 245.1V243.917C264.953 244.312 264.164 244.312 263.375 243.917Z" fill="#BFBFBF"/>
<path d="M259.038 240.368C258.643 240.762 258.643 241.157 259.038 241.551L263.77 244.311C264.164 244.706 264.953 244.706 265.347 244.311L270.079 241.551C270.473 241.157 270.473 240.762 270.079 240.368L265.347 237.608C264.953 237.213 264.164 237.213 263.77 237.608L259.038 240.368Z" fill="#E6E6E6"/>
<path d="M250.757 245.098V246.281C250.757 246.281 250.758 246.675 251.152 246.675V245.492C250.758 245.492 250.757 245.492 250.757 245.098Z" fill="#BFBFBF"/>
<path d="M261.799 245.887V247.069C262.193 247.069 262.193 246.675 262.193 246.675V245.492C262.193 245.492 262.193 245.887 261.799 245.887Z" fill="#BFBFBF"/>
<path d="M251.152 245.889V247.072L255.49 249.832V248.649L251.152 245.889Z" fill="#979797"/>
<path d="M257.461 248.649V249.832L261.798 247.072V245.889L257.461 248.649Z" fill="#B9B9B9"/>
<path d="M255.489 248.647V249.83C255.883 250.225 256.672 250.225 257.066 249.83V248.647C256.672 248.647 255.883 248.647 255.489 248.647Z" fill="#BFBFBF"/>
<path d="M251.151 244.704C250.757 245.099 250.757 245.493 251.151 245.887L255.883 248.648C256.277 249.042 257.066 249.042 257.46 248.648L262.192 245.887C262.586 245.493 262.586 245.099 262.192 244.704L257.46 241.944C257.066 241.55 256.277 241.55 255.883 241.944L251.151 244.704Z" fill="#E6E6E6"/>
<path d="M293.738 227.356V228.539C294.132 228.539 294.132 228.145 294.132 228.145V226.962C294.132 226.962 294.132 227.356 293.738 227.356Z" fill="#BFBFBF"/>
<path d="M276.781 230.115V231.298C276.781 231.298 276.781 231.692 277.176 231.692V230.509C276.781 230.509 276.781 230.509 276.781 230.115Z" fill="#BFBFBF"/>
<path d="M277.176 230.905V232.088L281.514 234.454V233.271L277.176 230.905Z" fill="#979797"/>
<path d="M283.485 233.269V234.452L293.737 228.537V227.354L283.485 233.269Z" fill="#B9B9B9"/>
<path d="M281.513 233.271V234.453C281.908 234.848 282.697 234.848 283.091 234.453V233.271C283.091 233.665 282.302 233.665 281.513 233.271Z" fill="#BFBFBF"/>
<path d="M277.176 229.722C276.781 230.117 276.781 230.511 277.176 230.905L281.908 233.666C282.302 234.06 283.091 234.06 283.485 233.666L293.737 227.751C294.132 227.356 294.132 226.962 293.737 226.568L289.005 223.807C288.611 223.413 287.822 223.413 287.428 223.807L277.176 229.722Z" fill="#E6E6E6"/>
<path d="M228.675 228.933L258.25 211.978L257.067 206.457L227.492 223.413L228.675 228.933Z" fill="white"/>
<path d="M281.514 199.361L298.076 189.897L296.893 184.376L280.331 193.84L281.514 199.361Z" fill="white"/>
<path d="M143.108 152.042C124.969 141.396 109.984 150.071 109.984 170.97C109.984 191.869 124.969 217.5 143.108 228.146C161.246 238.793 176.231 230.118 176.231 209.219C175.836 187.926 161.246 162.295 143.108 152.042ZM158.092 212.374C159.275 209.219 159.669 205.67 160.063 201.727L173.076 209.219C172.682 216.317 170.71 221.443 166.767 224.992C164.007 220.26 161.246 216.317 158.092 212.374ZM119.448 197.389C115.899 189.897 113.533 182.011 113.139 174.519L126.546 182.405C126.546 186.348 126.94 190.686 128.123 195.023C124.969 195.023 121.814 195.812 119.448 197.389ZM128.123 169.393C127.335 172.153 126.94 175.307 126.546 178.856L113.139 170.97C113.533 164.266 115.505 159.14 118.66 155.986C121.42 160.717 124.574 165.449 128.123 169.393ZM144.685 183.194C148.628 185.165 152.177 186.348 155.726 186.743C156.514 189.897 156.514 193.446 156.909 196.601L145.079 189.897V183.194H144.685ZM144.685 179.251V158.352C149.417 166.238 152.571 174.519 154.543 182.405C151.783 182.011 148.234 181.222 144.685 179.251ZM141.53 157.957V177.673C137.981 175.702 134.827 172.941 131.672 169.787C134.038 164.266 137.193 160.323 141.53 157.957ZM141.53 181.222V187.531L129.7 180.828C129.7 178.068 130.095 175.307 130.884 172.547C134.432 176.096 137.981 178.856 141.53 181.222ZM129.7 184.377L141.53 191.08V198.967C137.981 196.995 134.432 195.812 130.884 195.418C130.489 191.475 129.7 187.926 129.7 184.377ZM141.53 202.516V222.232C137.193 214.74 133.644 206.853 131.672 199.361C135.221 199.755 138.376 200.544 141.53 202.516ZM144.685 222.626V204.487C147.839 206.459 150.994 209.219 154.148 212.374C152.177 216.711 149.022 220.654 144.685 222.626ZM144.685 200.544V192.657L156.514 199.361C156.514 202.91 155.726 206.064 154.937 208.825C151.783 206.064 148.234 202.91 144.685 200.544ZM160.063 198.178C160.063 194.629 159.669 190.686 158.88 186.743C162.035 186.743 164.795 185.56 167.555 183.982C170.71 191.08 172.682 198.572 173.076 205.67L160.063 198.178ZM165.189 179.645C162.823 181.222 160.458 182.011 157.697 182.405C155.726 174.519 152.571 166.632 148.234 159.14C154.937 164.266 160.852 171.758 165.189 179.645ZM139.559 154.014C134.827 156.38 131.278 160.717 128.912 166.632C125.757 163.083 122.997 158.746 120.631 154.408C125.757 150.859 132.066 150.465 139.559 154.014ZM121.42 201.333C123.786 199.755 126.152 198.967 129.306 198.967C131.278 206.459 134.432 213.951 138.376 221.443C131.672 216.317 125.757 209.219 121.42 201.333ZM147.051 226.569C151.388 224.203 154.937 220.26 156.909 215.134C159.669 218.288 162.429 222.232 164.401 226.175C160.063 229.329 153.754 229.329 147.051 226.569Z" fill="white"/>
<rect y="320" width="132" height="132" rx="66" fill="url(#paint6_linear_1644_139)"/>
<defs>
<filter id="filter0_dddd_1644_139" x="240" y="245" width="422" height="422" filterUnits="userSpaceOnUse" color-interpolation-filters="sRGB">
<feFlood flood-opacity="0" result="BackgroundImageFix"/>
<feColorMatrix in="SourceAlpha" type="matrix" values="0 0 0 0 0 0 0 0 0 0 0 0 0 0 0 0 0 0 127 0" result="hardAlpha"/>
<feMorphology radius="4" operator="erode" in="SourceAlpha" result="effect1_dropShadow_1644_139"/>
<feOffset dy="8"/>
<feGaussianBlur stdDeviation="4"/>
<feColorMatrix type="matrix" values="0 0 0 0 0.611765 0 0 0 0 0.258824 0 0 0 0 0.960784 0 0 0 0.12 0"/>
<feBlend mode="normal" in2="BackgroundImageFix" result="effect1_dropShadow_1644_139"/>
<feColorMatrix in="SourceAlpha" type="matrix" values="0 0 0 0 0 0 0 0 0 0 0 0 0 0 0 0 0 0 127 0" result="hardAlpha"/>
<feOffset dy="16"/>
<feGaussianBlur stdDeviation="12"/>
<feColorMatrix type="matrix" values="0 0 0 0 0.611765 0 0 0 0 0.258824 0 0 0 0 0.960784 0 0 0 0.24 0"/>
<feBlend mode="normal" in2="effect1_dropShadow_1644_139" result="effect2_dropShadow_1644_139"/>
<feColorMatrix in="SourceAlpha" type="matrix" values="0 0 0 0 0 0 0 0 0 0 0 0 0 0 0 0 0 0 127 0" result="hardAlpha"/>
<feMorphology radius="1" operator="erode" in="SourceAlpha" result="effect3_dropShadow_1644_139"/>
<feOffset dy="2"/>
<feGaussianBlur stdDeviation="2"/>
<feColorMatrix type="matrix" values="0 0 0 0 0.105882 0 0 0 0 0.0392157 0 0 0 0 0.321569 0 0 0 0.12 0"/>
<feBlend mode="normal" in2="effect2_dropShadow_1644_139" result="effect3_dropShadow_1644_139"/>
<feColorMatrix in="SourceAlpha" type="matrix" values="0 0 0 0 0 0 0 0 0 0 0 0 0 0 0 0 0 0 127 0" result="hardAlpha"/>
<feOffset/>
<feGaussianBlur stdDeviation="0.5"/>
<feColorMatrix type="matrix" values="0 0 0 0 0.611765 0 0 0 0 0.258824 0 0 0 0 0.960784 0 0 0 0.24 0"/>
<feBlend mode="normal" in2="effect3_dropShadow_1644_139" result="effect4_dropShadow_1644_139"/>
<feBlend mode="normal" in="SourceGraphic" in2="effect4_dropShadow_1644_139" result="shape"/>
</filter>
<filter id="filter1_bddd_1644_139" x="-13.7313" y="-92.7313" width="431.974" height="341.674" filterUnits="userSpaceOnUse" color-interpolation-filters="sRGB">
<feFlood flood-opacity="0" result="BackgroundImageFix"/>
<feGaussianBlur in="BackgroundImage" stdDeviation="54.3656"/>
<feComposite in2="SourceAlpha" operator="in" result="effect1_backgroundBlur_1644_139"/>
<feColorMatrix in="SourceAlpha" type="matrix" values="0 0 0 0 0 0 0 0 0 0 0 0 0 0 0 0 0 0 127 0" result="hardAlpha"/>
<feOffset dx="8" dy="8"/>
<feGaussianBlur stdDeviation="12"/>
<feColorMatrix type="matrix" values="0 0 0 0 0.0352941 0 0 0 0 0.0509804 0 0 0 0 0.0784314 0 0 0 0.06 0"/>
<feBlend mode="normal" in2="effect1_backgroundBlur_1644_139" result="effect2_dropShadow_1644_139"/>
<feColorMatrix in="SourceAlpha" type="matrix" values="0 0 0 0 0 0 0 0 0 0 0 0 0 0 0 0 0 0 127 0" result="hardAlpha"/>
<feOffset dx="-4" dy="-4"/>
<feGaussianBlur stdDeviation="4"/>
<feColorMatrix type="matrix" values="0 0 0 0 1 0 0 0 0 1 0 0 0 0 1 0 0 0 0.4 0"/>
<feBlend mode="normal" in2="effect2_dropShadow_1644_139" result="effect3_dropShadow_1644_139"/>
<feColorMatrix in="SourceAlpha" type="matrix" values="0 0 0 0 0 0 0 0 0 0 0 0 0 0 0 0 0 0 127 0" result="hardAlpha"/>
<feOffset dy="1"/>
<feGaussianBlur stdDeviation="0.5"/>
<feColorMatrix type="matrix" values="0 0 0 0 0.0352941 0 0 0 0 0.0509804 0 0 0 0 0.0784314 0 0 0 0.06 0"/>
<feBlend mode="normal" in2="effect3_dropShadow_1644_139" result="effect4_dropShadow_1644_139"/>
<feBlend mode="normal" in="SourceGraphic" in2="effect4_dropShadow_1644_139" result="shape"/>
</filter>
<filter id="filter2_bddd_1644_139" x="112.057" y="109.162" width="341.674" height="450.112" filterUnits="userSpaceOnUse" color-interpolation-filters="sRGB">
<feFlood flood-opacity="0" result="BackgroundImageFix"/>
<feGaussianBlur in="BackgroundImage" stdDeviation="54.3656"/>
<feComposite in2="SourceAlpha" operator="in" result="effect1_backgroundBlur_1644_139"/>
<feColorMatrix in="SourceAlpha" type="matrix" values="0 0 0 0 0 0 0 0 0 0 0 0 0 0 0 0 0 0 127 0" result="hardAlpha"/>
<feOffset dx="8" dy="8"/>
<feGaussianBlur stdDeviation="12"/>
<feColorMatrix type="matrix" values="0 0 0 0 0.0352941 0 0 0 0 0.0509804 0 0 0 0 0.0784314 0 0 0 0.06 0"/>
<feBlend mode="normal" in2="effect1_backgroundBlur_1644_139" result="effect2_dropShadow_1644_139"/>
<feColorMatrix in="SourceAlpha" type="matrix" values="0 0 0 0 0 0 0 0 0 0 0 0 0 0 0 0 0 0 127 0" result="hardAlpha"/>
<feOffset dx="-4" dy="-4"/>
<feGaussianBlur stdDeviation="4"/>
<feColorMatrix type="matrix" values="0 0 0 0 1 0 0 0 0 1 0 0 0 0 1 0 0 0 0.4 0"/>
<feBlend mode="normal" in2="effect2_dropShadow_1644_139" result="effect3_dropShadow_1644_139"/>
<feColorMatrix in="SourceAlpha" type="matrix" values="0 0 0 0 0 0 0 0 0 0 0 0 0 0 0 0 0 0 127 0" result="hardAlpha"/>
<feOffset dy="1"/>
<feGaussianBlur stdDeviation="0.5"/>
<feColorMatrix type="matrix" values="0 0 0 0 0.0352941 0 0 0 0 0.0509804 0 0 0 0 0.0784314 0 0 0 0.06 0"/>
<feBlend mode="normal" in2="effect3_dropShadow_1644_139" result="effect4_dropShadow_1644_139"/>
<feBlend mode="normal" in="SourceGraphic" in2="effect4_dropShadow_1644_139" result="shape"/>
</filter>
<filter id="filter3_bddd_1644_139" x="-13.7313" y="-20.9637" width="343.646" height="580.238" filterUnits="userSpaceOnUse" color-interpolation-filters="sRGB">
<feFlood flood-opacity="0" result="BackgroundImageFix"/>
<feGaussianBlur in="BackgroundImage" stdDeviation="54.3656"/>
<feComposite in2="SourceAlpha" operator="in" result="effect1_backgroundBlur_1644_139"/>
<feColorMatrix in="SourceAlpha" type="matrix" values="0 0 0 0 0 0 0 0 0 0 0 0 0 0 0 0 0 0 127 0" result="hardAlpha"/>
<feOffset dx="8" dy="8"/>
<feGaussianBlur stdDeviation="12"/>
<feColorMatrix type="matrix" values="0 0 0 0 0.0352941 0 0 0 0 0.0509804 0 0 0 0 0.0784314 0 0 0 0.06 0"/>
<feBlend mode="normal" in2="effect1_backgroundBlur_1644_139" result="effect2_dropShadow_1644_139"/>
<feColorMatrix in="SourceAlpha" type="matrix" values="0 0 0 0 0 0 0 0 0 0 0 0 0 0 0 0 0 0 127 0" result="hardAlpha"/>
<feOffset dx="-4" dy="-4"/>
<feGaussianBlur stdDeviation="4"/>
<feColorMatrix type="matrix" values="0 0 0 0 1 0 0 0 0 1 0 0 0 0 1 0 0 0 0.4 0"/>
<feBlend mode="normal" in2="effect2_dropShadow_1644_139" result="effect3_dropShadow_1644_139"/>
<feColorMatrix in="SourceAlpha" type="matrix" values="0 0 0 0 0 0 0 0 0 0 0 0 0 0 0 0 0 0 127 0" result="hardAlpha"/>
<feOffset dy="1"/>
<feGaussianBlur stdDeviation="0.5"/>
<feColorMatrix type="matrix" values="0 0 0 0 0.0352941 0 0 0 0 0.0509804 0 0 0 0 0.0784314 0 0 0 0.06 0"/>
<feBlend mode="normal" in2="effect3_dropShadow_1644_139" result="effect4_dropShadow_1644_139"/>
<feBlend mode="normal" in="SourceGraphic" in2="effect4_dropShadow_1644_139" result="shape"/>
</filter>
<linearGradient id="paint0_linear_1644_139" x1="-102.5" y1="108.5" x2="102.5" y2="313.5" gradientUnits="userSpaceOnUse">
<stop stop-color="#00BBFF"/>
<stop offset="0.529825" stop-color="#9C42F5"/>
<stop offset="1" stop-color="#5D2DE1"/>
</linearGradient>
<linearGradient id="paint1_linear_1644_139" x1="77" y1="440" x2="451" y2="814" gradientUnits="userSpaceOnUse">
<stop stop-color="#FF00AA"/>
<stop offset="0.501768" stop-color="#9C42F5"/>
<stop offset="1" stop-color="#5D2DE1"/>
</linearGradient>
<linearGradient id="paint2_linear_1644_139" x1="-12.2555" y1="78.1057" x2="95.472" y2="264.149" gradientUnits="userSpaceOnUse">
<stop stop-color="white" stop-opacity="0.8"/>
<stop offset="0.51822" stop-color="#FAFBFC" stop-opacity="0.6"/>
<stop offset="1" stop-color="#F5F7FA" stop-opacity="0.4"/>
</linearGradient>
<linearGradient id="paint3_linear_1644_139" x1="158.682" y1="334.218" x2="352" y2="437.431" gradientUnits="userSpaceOnUse">
<stop stop-color="white" stop-opacity="0.8"/>
<stop offset="0.51822" stop-color="#FAFBFC" stop-opacity="0.6"/>
<stop offset="1" stop-color="#F5F7FA" stop-opacity="0.4"/>
</linearGradient>
<linearGradient id="paint4_linear_1644_139" x1="294.87" y1="364.887" x2="284.54" y2="293.413" gradientUnits="userSpaceOnUse">
<stop offset="0.15" stop-color="#5D2DE1"/>
<stop offset="0.85" stop-color="#FF00AA"/>
</linearGradient>
<linearGradient id="paint5_linear_1644_139" x1="31.9085" y1="269.156" x2="257.038" y2="347.461" gradientUnits="userSpaceOnUse">
<stop stop-color="white" stop-opacity="0.8"/>
<stop offset="0.51822" stop-color="#FAFBFC" stop-opacity="0.6"/>
<stop offset="1" stop-color="#F5F7FA" stop-opacity="0.4"/>
</linearGradient>
<linearGradient id="paint6_linear_1644_139" x1="-66" y1="386" x2="66" y2="518" gradientUnits="userSpaceOnUse">
<stop stop-color="#00BBFF"/>
<stop offset="0.529825" stop-color="#9C42F5"/>
<stop offset="1" stop-color="#5D2DE1"/>
</linearGradient>
</defs>
</svg>
