<svg width="662" height="661" fill="none" xmlns="http://www.w3.org/2000/svg"><rect width="205" height="205" rx="102.5" fill="url(#a)"/><g filter="url(#b)"><rect x="264" y="247" width="374" height="374" rx="187" fill="url(#c)"/></g><path d="m602.346 246.581 21.067 16.665 13.836-40.248-13.207-9.119-21.696 32.702Z" fill="#E1D5ED"/><path d="M580.336 252.56v-2.83s0-.314.314-.314v-.315c0-.314.315-.314.315-.629 0-.314.314-.314.314-.628v-.315c0-.314.315-.314.315-.314l.314-.315.314-.314.629-.629.629-.629c.315-.314.629-.314.943-.629l16.037-9.119c.314 0 .314-.314.629-.314.314 0 .314-.314.629-.314h2.201s.314 0 .314.314l18.552 11.005s-.315 0-.315-.314h-2.515c-.315 0-.315 0-.629.314-.314 0-.314.315-.629.315l-16.036 9.118c-.315.315-.629.315-.943.629h-.315l-.629.629-.629.629-.314.315-.315.314-.314.314-.314.315v.314c0 .315-.315.315-.315.629 0 .315-.314.315-.314.629v.314s0 .315-.315.315v3.773l1.258 13.835v.315c0 .314 0 .629.314.629 0 .314.315.314.315.629 0 .314.314.314.314.628.315.315.315.315.629.315l-18.552-11.005c-.314 0-.314-.315-.628-.315-.315 0-.315-.314-.315-.629 0-.314-.314-.314-.314-.629 0-.314 0-.628-.315-.628v-.315l-1.258-13.835c.944-.629.944-.943.944-1.258 0 .315 0 0 0 0Z" fill="#7E54A8"/><path d="M603.918 255.393c-2.83 1.572-5.031 5.66-4.716 8.804l1.257 13.836c.315 3.144 2.83 4.402 5.975 2.83 0 0 8.804-7.547 11.634-10.062 2.515-2.201 5.66-5.975 5.66-9.434l1.258-11.634c.314-3.459-1.887-5.031-4.717-3.459l-16.351 9.119Z" fill="#E1D5ED"/><path d="m491.036 187.783-2.83-1.573-54.398 45.908 2.516 1.572 54.712-45.907Z" fill="#E4E4E4"/><path d="m436.323 233.69-2.515-1.572v29.243l2.83 1.572-.315-29.243Z" fill="#C5C5C5"/><path d="m491.036 187.783-54.712 45.908.314 29.242 54.398-46.222v-28.928ZM634.104 208.224l-88.042-51.253c-.629-.315-1.572-.629-2.516-.944l88.043 51.254c.943.314 1.886.629 2.515.943ZM631.589 207.281l-88.043-51.253c-1.258-.315-2.83 0-4.716.629l88.042 51.253c1.887-.315 3.144-.629 4.717-.629Z" fill="#E1D5ED"/><path d="m626.872 207.911-88.042-51.254c-.629.315-1.573.629-2.201.944l88.042 51.253c.943 0 1.572-.629 2.201-.943ZM624.671 209.168l-88.042-51.253a61.846 61.846 0 0 0-3.145 2.201l88.043 51.253c1.257-.943 2.201-1.572 3.144-2.201Z" fill="#fff"/><path d="m621.527 211.366-87.728-51.254-134.58 114.141 88.043 51.253 134.265-114.14Z" fill="#FDFDFD"/><path d="m524.051 173.323 81.125 47.166-48.738 41.191-81.125-46.851 48.738-41.506Z" fill="#E1D5ED"/><path d="m487.262 325.507-88.043-51.254c-3.144 2.83-5.974 6.289-7.546 10.377l88.042 51.253c1.573-4.088 4.402-7.861 7.547-10.376Z" fill="#fff"/><path d="m479.401 335.886-88.043-51.253c-.943 2.201-1.572 4.087-2.201 6.289l88.043 51.253c.629-2.201 1.258-4.402 2.201-6.289Z" fill="#F2E6FD"/><path d="m477.514 342.174-88.042-51.253c-.629 2.515-.629 5.345 0 7.546.629 2.516 1.886 4.403 3.459 5.346l88.042 51.253c-1.572-.943-2.83-2.83-3.459-5.345a15.328 15.328 0 0 1 0-7.547Z" fill="#E1D5ED"/><path d="M624.671 209.168a61.87 61.87 0 0 0-3.144 2.201l-134.579 114.14c-7.233 5.975-11.635 16.98-9.748 24.212 1.572 6.289 6.918 7.861 12.892 4.402.943-.629 1.887-1.258 3.144-2.201l134.579-114.141c7.233-5.974 11.635-16.979 9.748-24.211-1.258-6.289-6.918-7.861-12.892-4.402Z" fill="#E1D5ED"/><path d="m624.043 225.832-38.047 27.67 14.778 25.784 26.727-32.702-3.458-20.752Z" fill="#E1D5ED"/><path d="M470.912 229.289v2.83c0 .314 0 .629.315 1.258v-2.83c0-.629-.315-.944-.315-1.258Z" fill="#3E0DCB"/><path d="M471.226 230.235v2.83c0 .314.315.629.629.943v-2.83c-.314-.314-.314-.629-.629-.943ZM489.149 237.15v2.83c1.258-.943 1.887-2.201 1.887-3.144v-2.83c-.315 1.258-.943 2.201-1.887 3.144ZM486.319 239.35v3.144l2.83-2.201v-3.145l-2.83 2.202ZM471.856 231.179v2.83l7.546 8.804v-2.83l-7.546-8.804Z" fill="#3E0DCB"/><path d="M479.401 239.979v2.83c.629.629 1.573.943 2.83.943v-2.83c-1.257 0-2.201-.314-2.83-.943ZM482.232 240.925v2.83c.943 0 2.201-.315 3.144-.944.314-.314.629-.314.943-.629v-2.829c-.314.314-.629.314-.943.628-.943.629-2.201.944-3.144.944Z" fill="#3E0DCB"/><path d="M472.799 226.146c-1.886 1.257-2.515 3.458-.943 5.031l7.546 8.804c1.258 1.258 3.774 1.572 5.975.314.314-.314.629-.314.943-.629l2.83-2.201c2.201-1.886 2.516-4.402.314-5.66l-9.118-5.345c-2.201-1.258-5.346-1.258-7.547-.314Z" fill="#8824EA"/><path d="M488.52 245.011v2.83c0 .314.315.629.629.629v-2.83c-.314 0-.314-.315-.629-.629ZM514.933 249.1v2.83c.314-.315.314-.629.314-1.258v-2.83c0 .629 0 .943-.314 1.258Z" fill="#3E0DCB"/><path d="M513.361 251.301v2.83c.944-.629 1.258-1.258 1.573-2.201v-2.83c-.315.943-.944 1.572-1.573 2.201ZM510.532 253.505v2.83l2.829-2.201v-2.83l-2.829 2.201ZM489.464 245.956v2.83l15.093 8.804v-2.83l-15.093-8.804ZM504.557 254.762v2.83c.629.314 1.257.629 1.886.314v-2.83c-.629 0-1.572 0-1.886-.314Z" fill="#3E0DCB"/><path d="M506.443 255.075v2.83c.944 0 2.201-.315 3.145-.944.314-.314.629-.314.943-.629v-2.83c-.314.315-.629.315-.943.629-.944.629-2.201.944-3.145.944Z" fill="#3E0DCB"/><path d="M490.093 242.814c-1.887.944-2.201 2.201-.629 2.83l15.093 8.804c1.258.629 3.459.629 5.031-.314.314-.314.629-.314.943-.629l2.83-2.201c.943-.629 1.258-1.258 1.572-2.201.944-1.258.315-2.515-1.257-3.459l-9.119-5.345c-1.572-.944-4.088-1.258-5.974-.629-1.258 0-2.516.629-3.774.943l-3.773 1.572c-.314.315-.629.629-.943.629Z" fill="#8824EA"/><path d="M512.732 259.163v2.83c.314.629.943.943 1.887 1.258v-2.83c-.944-.315-1.573-.629-1.887-1.258Z" fill="#3E0DCB"/><path d="M514.618 260.424v2.83l14.779 4.402v-2.829l-14.779-4.403ZM529.397 264.827v2.83c1.258.315 2.516.629 3.773.315v-2.83c-1.257 0-2.515 0-3.773-.315Z" fill="#3E0DCB"/><path d="M533.17 265.139v2.83c1.887 0 3.773-.314 4.716-.943.944-.629 1.258-1.258 1.258-1.887v-2.83c0 .629-.314 1.572-1.258 1.887-.943.629-2.829.943-4.716.943Z" fill="#3E0DCB"/><path d="M514.304 256.964c-2.201 1.258-2.201 2.83.314 3.459l14.779 4.402c2.83.943 6.603.629 8.49-.629 1.886-1.258 1.886-3.144-.315-4.402l-9.118-5.346c-2.201-1.257-6.604-1.257-9.748.315l-3.773 1.572c0 .314-.315.314-.629.629Z" fill="#8824EA"/><path d="M454.246 243.438v2.83c0 .314 0 .629.315 1.258v-2.83c-.315-.315-.315-.629-.315-1.258ZM454.561 244.697v2.83c0 .315.314.629.629.944v-2.83c-.315-.315-.629-.629-.629-.944ZM472.169 251.611v2.83c1.258-.943 1.887-2.201 1.887-3.144v-2.83c0 .943-.629 2.201-1.887 3.144ZM469.339 253.812v2.83l2.83-2.201v-2.83l-2.83 2.201Z" fill="#3E0DCB"/><path d="M455.189 245.642v2.83l7.546 8.804v-3.145l-7.546-8.489ZM462.735 254.128v2.83c.629.629 1.573.944 2.83.944v-2.83c-1.257.314-2.201 0-2.83-.944ZM465.565 255.388v2.83c.944 0 2.201-.315 3.145-.944.314-.314.629-.314.943-.629v-2.83c-.314.315-.629.315-.943.629-1.258.629-2.201.944-3.145.944Z" fill="#3E0DCB"/><path d="M456.132 240.608c-1.886 1.258-2.515 3.459-.943 5.031l7.546 8.804c1.258 1.258 3.774 1.572 5.975.314.314-.314.629-.314.943-.628l2.83-2.201c2.201-1.887 2.516-4.403.314-5.66l-9.118-5.346c-2.201-1.257-5.66-1.572-7.547-.314Z" fill="#8824EA"/><path d="M471.855 259.473v2.83c0 .314.315.629.629.629v-2.83c-.314 0-.629-.314-.629-.629ZM498.268 263.562v2.83c.314-.314.314-.629.314-1.258v-2.83c0 .629-.314.943-.314 1.258ZM496.382 265.764v2.83c.943-.629 1.257-1.258 1.572-2.201v-2.831c0 .629-.629 1.573-1.572 2.202ZM493.551 267.969v2.83l2.83-2.201v-2.83l-2.83 2.201Z" fill="#3E0DCB"/><path d="M472.483 260.107v2.83l15.093 8.804v-2.83l-15.093-8.804ZM487.577 268.913v2.83c.629.314 1.258.628 1.887.314v-2.83c-.629.314-1.258 0-1.887-.314ZM489.778 269.539v2.83c.943 0 2.201-.315 3.144-.943.315-.315.629-.315.944-.629v-2.83c-.315.314-.629.314-.944.629-1.257.628-2.201.943-3.144.943Z" fill="#3E0DCB"/><path d="M473.427 257.278c-1.886.943-2.201 2.201-.629 2.83l15.093 8.804c1.258.629 3.459.629 5.031-.314.315-.314.629-.314.944-.629l2.83-2.201c.943-.629 1.257-1.258 1.572-2.201.943-1.258.314-2.515-1.258-3.459l-9.119-5.345c-1.572-.944-4.087-1.258-5.974-.629-1.258 0-2.515.629-3.773.943l-3.773 1.572c-.315.315-.629.315-.944.629Z" fill="#8824EA"/><path d="M496.067 273.62v2.83c.314.629.943.943 1.887 1.258v-2.83c-1.258-.629-1.573-.943-1.887-1.258Z" fill="#3E0DCB"/><path d="M497.953 274.568v3.144l14.779 4.402v-3.144l-14.779-4.402ZM512.732 278.974v2.83c1.257.314 2.515.629 3.773.629v-2.83c-1.258 0-2.516 0-3.773-.629Z" fill="#3E0DCB"/><path d="M516.504 279.606v2.83c1.887 0 3.774-.315 4.717-.944.943-.628 1.258-1.257 1.258-1.886v-2.83c0 .629-.315 1.572-1.258 1.887-.943.628-2.83.943-4.717.943Z" fill="#3E0DCB"/><path d="M497.639 271.427c-2.201 1.257-2.202 2.83.314 3.458l14.779 4.403c2.83.943 6.603.629 8.489-.629 1.887-1.258 1.887-3.145-.314-4.402l-9.119-5.346c-2.201-1.258-6.603-1.258-9.747.315l-3.774 1.572-.628.629Z" fill="#8824EA"/><path d="M437.267 258.218v2.83c0 .315 0 .629.315 1.258v-2.83c-.315-.314-.315-.943-.315-1.258ZM437.582 259.478v2.829c0 .315.314.629.629.944v-2.83c-.315-.315-.629-.629-.629-.943ZM455.19 266.392v2.83c1.258-.943 1.887-2.201 1.887-3.145v-2.829c0 .943-.629 2.201-1.887 3.144ZM452.36 268.594v2.83l2.83-2.201v-2.83l-2.83 2.201Z" fill="#3E0DCB"/><path d="M437.896 260.417v2.83l7.861 8.49v-2.83l-7.861-8.49ZM445.757 268.904v2.83c.629.629 1.572.943 2.83.943v-2.83c-1.258.315-2.201-.314-2.83-.943Z" fill="#3E0DCB"/><path d="M448.272 270.163v2.83c.944 0 2.202-.314 3.145-.943.314-.315.629-.315.943-.629v-2.83c-.314.314-.629.314-.943.629-.943.629-1.887.943-3.145.943Z" fill="#3E0DCB"/><path d="M439.154 255.385c-1.887 1.258-2.516 3.459-.943 5.031l7.546 8.805c1.258 1.257 3.773 1.572 5.974.314.315-.314.629-.314.944-.629l2.83-2.201c2.201-1.887 2.515-4.402.314-5.66L446.7 255.7c-2.201-1.572-5.66-1.572-7.546-.315Z" fill="#8824EA"/><path d="M454.876 274.249v2.83c0 .314.314.629.628.629v-2.83l-.628-.629ZM480.974 278.346v2.83c.315-.314.315-.629.315-1.258v-2.83c.314.315 0 .944-.315 1.258ZM479.402 280.539v2.83c.943-.629 1.258-1.258 1.572-2.201v-2.83c-.314.629-.629 1.258-1.572 2.201ZM476.572 282.747v2.83l2.83-2.201v-2.83l-2.83 2.201ZM455.505 274.882v2.83l15.093 8.804v-2.83l-15.093-8.804Z" fill="#3E0DCB"/><path d="M470.597 283.691v2.83c.629.314 1.258.629 1.887.314v-2.83c-.629 0-1.258 0-1.887-.314ZM472.484 284.004v2.83c.943 0 2.201-.315 3.144-.944.314-.314.629-.314.943-.628v-2.83c-.314.314-.629.314-.943.629-.943.628-1.887.943-3.144.943Z" fill="#3E0DCB"/><path d="M456.133 271.741c-1.887.943-2.201 2.201-.629 2.83l15.093 8.804c1.258.629 3.459.629 5.031-.315.315-.314.629-.314.944-.629l2.829-2.201c.944-.628 1.258-1.257 1.573-2.201.943-1.257.314-2.515-1.258-3.458l-9.119-5.346c-1.572-.943-4.087-1.258-5.974-.629-1.258 0-2.516.315-3.773.944l-3.774 1.572c-.314.314-.628.629-.943.629Z" fill="#8824EA"/><path d="M478.773 287.78v3.145-2.83c.314 0 0 0 0-.315ZM479.087 288.093v2.83c.314.629.943.943 1.886 1.258v-2.83c-1.257-.314-1.886-.629-1.886-1.258Z" fill="#3E0DCB"/><path d="M480.658 289.352v2.83l15.093 4.402v-2.83l-15.093-4.402ZM495.752 293.749v2.83c1.258.314 2.515.629 3.773.629v-2.83c-1.258 0-2.83-.315-3.773-.629Z" fill="#3E0DCB"/><path d="M499.525 294.381v2.83c1.886 0 3.773-.315 4.716-.944.944-.629 1.258-1.257 1.258-1.886v-2.83c0 .629-.314 1.572-1.258 1.886-1.257.315-2.83.944-4.716.944Z" fill="#3E0DCB"/><path d="M480.344 285.889c-2.201 1.258-2.201 2.83.315 3.459l14.778 4.402c2.83.943 6.603.629 8.49-.629 1.887-1.258 1.887-3.144-.314-4.402l-9.119-5.345c-2.201-1.258-6.603-1.258-9.748.314l-3.773 1.572c.315.315-.314.629-.629.629Z" fill="#8824EA"/><path d="M418.086 274.881v2.83c0 .315 0 .629.314 1.258v-2.83c-.314-.314-.314-.629-.314-1.258Z" fill="#09A452"/><path d="M418.4 276.141v2.83c0 .314.315.628.629.943v-2.83c-.314-.314-.629-.629-.629-.943ZM436.009 283.055v2.829c1.258-.943 1.887-2.201 1.887-3.144v-2.83c0 .943-.629 2.201-1.887 3.145ZM433.179 285.256l.314 2.83 2.516-2.201v-2.83l-2.83 2.201ZM419.029 277.089v2.83l7.546 8.804v-2.83l-7.546-8.804ZM426.575 285.889v2.83c.629.628 1.572.943 2.83.943v-2.83c-1.258 0-2.201-.314-2.83-.943Z" fill="#09A452"/><path d="M429.405 286.835v2.83c.943 0 2.201-.315 3.145-.944.314-.314.628-.314.943-.628v-2.83c-.315.314-.629.314-.943.629-1.258.628-2.202.943-3.145.943Z" fill="#09A452"/><path d="M419.972 272.055c-1.886 1.258-2.515 3.459-.943 5.031l7.547 8.804c1.257 1.258 3.773 1.573 5.974.315.314-.315.629-.315.943-.629l2.83-2.201c2.201-1.887 2.516-4.402.315-5.66l-9.119-5.345c-2.201-1.258-5.66-1.258-7.547-.315Z" fill="#16B862"/><path d="M435.694 290.918v2.83c0 .315.315.629.629.629v-2.83c-.314 0-.629-.314-.629-.629ZM462.108 295.008v2.83c.314-.315.314-.629.314-1.258v-2.83c0 .629-.314.943-.314 1.258ZM460.221 297.209v2.83c.943-.629 1.257-1.257 1.572-2.201v-2.83c0 .944-.629 1.573-1.572 2.201ZM457.705 299.413v2.83l2.516-2.201v-2.83l-2.516 2.201Z" fill="#FF8A00"/><path d="M436.323 291.55v2.83l15.093 8.804v-2.83l-15.093-8.804ZM451.417 300.356v2.83c.629.315 1.258.629 1.886.315v-2.83c-.628.314-1.257 0-1.886-.315ZM453.618 300.983v2.83c.943 0 2.201-.315 3.144-.944.314-.314.629-.314.943-.628v-2.83c-.314.314-.629.314-.943.628-1.258.629-2.201.944-3.144.944Z" fill="#FF8A00"/><path d="M437.267 288.72c-1.886.943-2.201 2.201-.629 2.83l15.093 8.804c1.258.629 3.459.629 5.031-.315.315-.314.629-.314.944-.628l2.829-2.202c.944-.628 1.258-1.257 1.573-2.201.943-1.257.314-2.515-1.258-3.458l-9.119-5.346c-1.572-.943-4.087-1.258-5.974-.629-1.258 0-2.516.629-3.773.944l-3.774 1.572c-.314.314-.628.314-.943.629Z" fill="#FFAB00"/><path d="M459.906 305.072v2.83c.314.629.943.943 1.887 1.257v-2.829c-.944-.315-1.573-.944-1.887-1.258ZM461.793 306.011v3.144l14.778 4.402v-2.83l-14.778-4.716ZM476.571 310.734v2.83c1.258.314 2.515.629 3.773.629v-2.83c-1.258-.315-2.515-.315-3.773-.629Z" fill="#D3223F"/><path d="M480.344 311.046v2.83c1.887 0 3.773-.315 4.717-.944.943-.628 1.257-1.257 1.257-1.886v-2.83c0 .629-.314 1.572-1.257 1.886-.944.629-2.83.944-4.717.944Z" fill="#D3223F"/><path d="M461.478 302.868c-2.201 1.258-2.201 2.83.315 3.459l14.778 4.402c2.83.943 6.604.629 8.49-.629 1.887-1.258 1.887-3.144-.314-4.402l-9.119-5.345c-2.201-1.258-6.603-1.258-9.748.314l-3.773 1.572c0 .315-.314.315-.629.629Z" fill="#F54562"/><path d="m587.882 227.089-69.805-40.562-33.016 27.67 70.119 40.563 32.702-27.671Z" fill="#F5F7FA"/><path d="m547.634 172.063 54.712 32.073-6.603 5.66-54.083-32.387 5.974-5.346Z" fill="#E1D5ED"/><path d="M221.183 283.66 345 211.893 309.511 62.051l-123.817 72.161 35.489 149.448Z" fill="#A957FA"/><path d="m185.694 134.211 123.817-72.16L218.817 10 95 81.767l90.694 52.444ZM220.788 444.543l123.817-71.766.395-160.883-123.817 71.766-.395 160.883Z" fill="#FDFDFD"/><path d="m271.178 289.856-.01.007c-3.348 2.166-4.398 7.019-2.345 10.84l28.433 52.934c2.052 3.821 6.429 5.162 9.777 2.996l.01-.007c3.348-2.166 4.398-7.02 2.345-10.84l-28.433-52.934c-2.052-3.821-6.429-5.162-9.777-2.996Z" fill="url(#d)"/><path d="m276.536 288.965-.012-.003c-3.839-1.072-7.621 1.511-8.449 5.77l-11.397 58.657c-.827 4.259 1.613 8.581 5.452 9.654l.012.003c3.838 1.072 7.62-1.512 8.448-5.771l11.397-58.657c.828-4.259-1.613-8.581-5.451-9.653Z" fill="#F0A"/><path d="m312.489 301.882-.013-.004c-3.838-1.072-7.62 1.512-8.448 5.771l-7.799 40.14c-.828 4.259 1.613 8.581 5.451 9.653l.012.004c3.839 1.072 7.621-1.512 8.449-5.771l7.799-40.14c.827-4.259-1.613-8.581-5.451-9.653Z" fill="#5D2DE1"/><path d="m95 81.768 1.972 130.52-.395 160.883 124.212 71.373.394-160.884-35.489-149.448L95 81.768Z" fill="#E1D5ED"/><path d="m311.089 87.286 26.814 113.564-33.123-16.956-19.322-81.23 25.631-15.378Z" fill="#9C42F5"/><path d="m304.779 183.895 33.123 16.955-111.593 65.063-7.492-31.94 85.962-50.078Z" fill="#C48DFB"/><path d="m305.962 216.228 20.111-11.829-23.659-12.619-20.9 11.83 24.448 12.618Z" fill="#E6E6E6"/><path d="m304.779 183.896-19.322-81.23-86.356 50.079 19.716 81.23 85.962-50.079Z" fill="#8310F5"/><path d="m296.499 172.064-14.59-61.12-76.499 44.558L220 216.228l76.499-44.164Z" fill="#fff"/><path d="m209.354 157.474 70.189-40.616 13.013 53.234-70.19 40.615-13.012-53.233Z" fill="#F0A"/><path d="M250.362 220.959v1.183s0 .394.394.394v-1.183c0-.394-.394-.394-.394-.394ZM261.797 221.353v1.183c.394 0 .394-.394.394-.394v-1.183s0 .394-.394.394Z" fill="#BFBFBF"/><path d="M257.066 224.115v1.183l4.731-2.761v-1.183l-4.731 2.761Z" fill="#B9B9B9"/><path d="M250.757 221.354v1.183l4.732 2.761v-1.183l-4.732-2.761Z" fill="#979797"/><path d="M255.489 224.115v1.183c.394.394 1.183.394 1.577 0v-1.183h-1.577Z" fill="#BFBFBF"/><path d="M250.756 220.171c-.394.395-.394.789 0 1.183l4.732 2.76c.394.395 1.183.395 1.577 0l4.732-2.76c.394-.394.394-.788 0-1.183l-4.732-2.76c-.394-.394-1.183-.394-1.577 0l-4.732 2.76Z" fill="#E6E6E6"/><path d="M242.476 225.297v1.183s0 .395.395.395v-1.183s-.395 0-.395-.395ZM253.911 226.086v1.183c.394 0 .394-.395.394-.395v-1.183s-.394 0-.394.395Z" fill="#BFBFBF"/><path d="M242.871 225.691v1.183l4.732 2.76v-1.183l-4.732-2.76Z" fill="#979797"/><path d="M249.179 228.452v1.183l4.732-2.366v-1.183l-4.732 2.366Z" fill="#B9B9B9"/><path d="M247.602 228.451v1.183c.394.394 1.183.394 1.577 0v-1.183c-.394.394-1.183.394-1.577 0Z" fill="#BFBFBF"/><path d="M242.87 224.902c-.394.395-.394.789 0 1.183l4.732 2.76c.394.395 1.183.395 1.577 0l4.732-2.76c.394-.394.394-.788 0-1.183l-4.732-2.76c-.394-.394-1.183-.394-1.577 0l-4.732 2.76Z" fill="#E6E6E6"/><path d="M234.589 230.03v1.183s0 .394.395.394v-1.183c-.395 0-.395-.394-.395-.394ZM246.025 230.424v1.183c.394 0 .394-.394.394-.394v-1.183c-.394 0-.394.394-.394.394Z" fill="#BFBFBF"/><path d="M234.984 230.423v1.183l4.732 2.76v-1.183l-4.732-2.76Z" fill="#979797"/><path d="M241.293 233.183v1.183l4.732-2.76v-1.183l-4.732 2.76Z" fill="#B9B9B9"/><path d="M239.716 233.184v1.183c.394.394 1.183.394 1.577 0v-1.183c-.394.394-1.183.394-1.577 0Z" fill="#BFBFBF"/><path d="M234.983 229.635c-.394.394-.394.789 0 1.183l4.732 2.76c.395.395 1.183.395 1.578 0l4.731-2.76c.395-.394.395-.789 0-1.183l-4.731-2.76c-.395-.394-1.183-.394-1.578 0l-4.732 2.76Z" fill="#E6E6E6"/><path d="M277.964 212.284v1.183c.395 0 .395-.394.395-.394v-1.183s-.395 0-.395.394ZM260.615 215.045v1.183s0 .394.394.394v-1.183l-.394-.394Z" fill="#BFBFBF"/><path d="M261.01 215.44v1.183l4.732 2.761v-1.183l-4.732-2.761Z" fill="#979797"/><path d="M267.318 218.201v1.183l10.647-5.915v-1.183l-10.647 5.915Z" fill="#B9B9B9"/><path d="M265.742 218.201v1.183c.394.394 1.183.394 1.577 0v-1.183h-1.577Z" fill="#BFBFBF"/><path d="M261.009 214.256c-.394.395-.394.789 0 1.183l4.732 2.761c.394.394 1.183.394 1.577 0l10.252-5.915c.395-.394.395-.789 0-1.183l-4.731-2.76c-.395-.395-1.183-.395-1.578 0l-10.252 5.914Z" fill="#E6E6E6"/><path d="M258.644 225.297v1.183s0 .395.394.395v-1.183c-.394 0-.394 0-.394-.395ZM269.685 226.086v1.183c.394 0 .394-.395.394-.395v-1.183l-.394.395Z" fill="#BFBFBF"/><path d="M265.347 228.452v1.183l4.337-2.366v-1.183l-4.337 2.366Z" fill="#B9B9B9"/><path d="M259.038 226.086v1.183l4.338 2.366v-1.183l-4.338-2.366Z" fill="#979797"/><path d="M263.375 228.451v1.183c.395.394 1.183.394 1.578 0v-1.183c-.395.394-1.183.394-1.578 0Z" fill="#BFBFBF"/><path d="M259.038 224.902c-.395.395-.395.789 0 1.183l4.732 2.76c.394.395 1.183.395 1.577 0l4.732-2.76c.394-.394.394-.788 0-1.183l-4.732-2.76c-.394-.394-1.183-.394-1.577 0l-4.732 2.76Z" fill="#E6E6E6"/><path d="M250.362 230.03v1.183s0 .394.394.394v-1.183l-.394-.394ZM261.797 230.423v1.183c.395 0 .395-.395.395-.395v-1.183c0 .395 0 .395-.395.395Z" fill="#BFBFBF"/><path d="M250.757 230.423v1.183l4.732 2.76v-1.183l-4.732-2.76Z" fill="#979797"/><path d="M257.46 233.183v1.183l4.338-2.76v-1.183l-4.338 2.76Z" fill="#B9B9B9"/><path d="M255.489 233.184v1.183c.394.394 1.183.394 1.577 0v-1.183c-.394.394-1.183.394-1.577 0Z" fill="#BFBFBF"/><path d="M250.756 229.635c-.394.394-.394.789 0 1.183l4.732 2.76c.395.395 1.183.395 1.578 0l4.731-2.76c.395-.394.395-.789 0-1.183l-4.731-2.76c-.395-.394-1.183-.394-1.578 0l-4.732 2.76Z" fill="#E6E6E6"/><path d="M242.476 234.761v1.183s0 .394.395.394v-1.183l-.395-.394ZM253.911 235.155v1.183c.394 0 .394-.394.394-.394v-1.183l-.394.394Z" fill="#BFBFBF"/><path d="M242.871 235.156v1.183l4.732 2.76v-1.183l-4.732-2.76Z" fill="#979797"/><path d="M249.179 237.916v1.183l4.732-2.76v-1.183l-4.732 2.76Z" fill="#B9B9B9"/><path d="M247.602 237.917v1.183c.394.394 1.183.394 1.577 0v-1.183h-1.577Z" fill="#BFBFBF"/><path d="M242.87 233.972c-.394.394-.394.788 0 1.182l4.732 2.761c.394.394 1.183.394 1.577 0l4.732-2.761c.394-.394.394-.788 0-1.182l-4.732-2.761c-.394-.394-1.183-.394-1.577 0l-4.732 2.761Z" fill="#E6E6E6"/><path d="M285.851 216.624v1.183c.395 0 .395-.394.395-.394v-1.183c0 .394 0 .394-.395.394ZM268.895 219.384v1.183s0 .395.395.395v-1.183c-.395 0-.395 0-.395-.395Z" fill="#BFBFBF"/><path d="M269.29 220.172v1.183l4.337 2.761v-1.183l-4.337-2.761Z" fill="#979797"/><path d="M275.598 222.931v1.183l10.253-6.309v-1.183l-10.253 6.309Z" fill="#B9B9B9"/><path d="M273.627 222.934v1.183c.394.394 1.183.394 1.577 0v-1.183h-1.577Z" fill="#BFBFBF"/><path d="M268.895 218.989c-.394.395-.394.789 0 1.183l4.732 2.761c.394.394 1.183.394 1.578 0l10.252-5.915c.394-.395.394-.789 0-1.183l-4.732-2.76c-.394-.395-1.183-.395-1.577 0l-10.253 5.914Z" fill="#E6E6E6"/><path d="M266.53 230.03v1.183s0 .394.394.394v-1.183c-.394 0-.394 0-.394-.394ZM277.965 230.816v1.183c.394 0 .394-.394.394-.394v-1.183s-.394 0-.394.394Z" fill="#BFBFBF"/><path d="M273.233 233.185v1.183l4.732-2.366v-1.183l-4.732 2.366Z" fill="#B9B9B9"/><path d="M266.925 230.423v1.183l4.732 2.76v-1.183l-4.732-2.76Z" fill="#979797"/><path d="M271.656 233.184v1.183c.394.394 1.183.394 1.577 0v-1.183c-.394.394-1.183.394-1.577 0Z" fill="#BFBFBF"/><path d="M266.924 229.635c-.394.394-.394.789 0 1.183l4.732 2.76c.394.395 1.183.395 1.577 0l4.732-2.76c.394-.394.394-.789 0-1.183l-4.732-2.76c-.394-.394-1.183-.394-1.577 0l-4.732 2.76Z" fill="#E6E6E6"/><path d="M258.644 234.762v1.183s0 .394.394.394v-1.183c-.394 0-.394-.394-.394-.394ZM269.685 235.157v1.183c.394 0 .394-.394.394-.394v-1.183s0 .394-.394.394Z" fill="#BFBFBF"/><path d="M259.038 235.156v1.183l4.338 2.76v-1.183l-4.338-2.76Z" fill="#979797"/><path d="M265.347 237.916v1.183l4.337-2.76v-1.183l-4.337 2.76Z" fill="#B9B9B9"/><path d="M263.375 237.917v1.183c.395.395 1.183.395 1.578 0v-1.183c0 .395-.789.395-1.578 0Z" fill="#BFBFBF"/><path d="M259.038 234.368c-.395.394-.395.789 0 1.183l4.732 2.76c.394.395 1.183.395 1.577 0l4.732-2.76c.394-.394.394-.789 0-1.183l-4.732-2.76c-.394-.395-1.183-.395-1.577 0l-4.732 2.76Z" fill="#E6E6E6"/><path d="M250.757 239.098v1.183s.001.394.395.394v-1.183c-.394 0-.395 0-.395-.394ZM261.799 239.887v1.182c.394 0 .394-.394.394-.394v-1.183s0 .395-.394.395Z" fill="#BFBFBF"/><path d="M251.152 239.889v1.183l4.338 2.76v-1.183l-4.338-2.76Z" fill="#979797"/><path d="M257.461 242.649v1.183l4.337-2.76v-1.183l-4.337 2.76Z" fill="#B9B9B9"/><path d="M255.489 242.647v1.183c.394.395 1.183.395 1.577 0v-1.183h-1.577Z" fill="#BFBFBF"/><path d="M251.151 238.704c-.394.395-.394.789 0 1.183l4.732 2.761c.394.394 1.183.394 1.577 0l4.732-2.761c.394-.394.394-.788 0-1.183l-4.732-2.76c-.394-.394-1.183-.394-1.577 0l-4.732 2.76Z" fill="#E6E6E6"/><path d="M293.738 221.356v1.183c.394 0 .394-.394.394-.394v-1.183s0 .394-.394.394ZM276.781 224.115v1.183s0 .394.395.394v-1.183c-.395 0-.395 0-.395-.394Z" fill="#BFBFBF"/><path d="M277.176 224.905v1.183l4.338 2.366v-1.183l-4.338-2.366Z" fill="#979797"/><path d="M283.485 227.269v1.183l10.252-5.915v-1.183l-10.252 5.915Z" fill="#B9B9B9"/><path d="M281.513 227.271v1.182c.395.395 1.184.395 1.578 0v-1.182c0 .394-.789.394-1.578 0Z" fill="#BFBFBF"/><path d="M277.176 223.722c-.395.395-.395.789 0 1.183l4.732 2.761c.394.394 1.183.394 1.577 0l10.252-5.915c.395-.395.395-.789 0-1.183l-4.732-2.761c-.394-.394-1.183-.394-1.577 0l-10.252 5.915Z" fill="#E6E6E6"/><path d="m228.675 222.933 29.575-16.955-1.183-5.521-29.575 16.956 1.183 5.52ZM281.514 193.361l16.562-9.464-1.183-5.521-16.562 9.464 1.183 5.521ZM143.108 146.042c-18.139-10.646-33.124-1.971-33.124 18.928s14.985 46.53 33.124 57.176c18.138 10.647 33.123 1.972 33.123-18.927-.395-21.293-14.985-46.924-33.123-57.177Zm14.984 60.332c1.183-3.155 1.577-6.704 1.971-10.647l13.013 7.492c-.394 7.098-2.366 12.224-6.309 15.773-2.76-4.732-5.521-8.675-8.675-12.618Zm-38.644-14.985c-3.549-7.492-5.915-15.378-6.309-22.87l13.407 7.886c0 3.943.394 8.281 1.577 12.618-3.154 0-6.309.789-8.675 2.366Zm8.675-27.996c-.788 2.76-1.183 5.914-1.577 9.463l-13.407-7.886c.394-6.704 2.366-11.83 5.521-14.984 2.76 4.731 5.914 9.463 9.463 13.407Zm16.562 13.801c3.943 1.971 7.492 3.154 11.041 3.549.788 3.154.788 6.703 1.183 9.858l-11.83-6.704v-6.703h-.394Zm0-3.943v-20.899c4.732 7.886 7.886 16.167 9.858 24.053-2.76-.394-6.309-1.183-9.858-3.154Zm-3.155-21.294v19.716c-3.549-1.971-6.703-4.732-9.858-7.886 2.366-5.521 5.521-9.464 9.858-11.83Zm0 23.265v6.309l-11.83-6.703c0-2.76.395-5.521 1.184-8.281 3.548 3.549 7.097 6.309 10.646 8.675Zm-11.83 3.155 11.83 6.703v7.887c-3.549-1.972-7.098-3.155-10.646-3.549-.395-3.943-1.184-7.492-1.184-11.041Zm11.83 18.139v19.716c-4.337-7.492-7.886-15.379-9.858-22.871 3.549.394 6.704 1.183 9.858 3.155Zm3.155 20.11v-18.139c3.154 1.972 6.309 4.732 9.463 7.887-1.971 4.337-5.126 8.28-9.463 10.252Zm0-22.082v-7.887l11.829 6.704c0 3.549-.788 6.703-1.577 9.464-3.154-2.761-6.703-5.915-10.252-8.281Zm15.378-2.366c0-3.549-.394-7.492-1.183-11.435 3.155 0 5.915-1.183 8.675-2.761 3.155 7.098 5.127 14.59 5.521 21.688l-13.013-7.492Zm5.126-18.533c-2.366 1.577-4.731 2.366-7.492 2.76-1.971-7.886-5.126-15.773-9.463-23.265 6.703 5.126 12.618 12.618 16.955 20.505Zm-25.63-25.631c-4.732 2.366-8.281 6.703-10.647 12.618-3.155-3.549-5.915-7.886-8.281-12.224 5.126-3.549 11.435-3.943 18.928-.394Zm-18.139 47.319c2.366-1.578 4.732-2.366 7.886-2.366 1.972 7.492 5.126 14.984 9.07 22.476-6.704-5.126-12.619-12.224-16.956-20.11Zm25.631 25.236c4.337-2.366 7.886-6.309 9.858-11.435 2.76 3.154 5.52 7.098 7.492 11.041-4.338 3.154-10.647 3.154-17.35.394Z" fill="#fff"/><rect y="314" width="132" height="132" rx="66" fill="url(#e)"/><defs><linearGradient id="a" x1="-102.5" y1="102.5" x2="102.5" y2="307.5" gradientUnits="userSpaceOnUse"><stop stop-color="#0BF"/><stop offset=".53" stop-color="#9C42F5"/><stop offset="1" stop-color="#5D2DE1"/></linearGradient><linearGradient id="c" x1="77" y1="434" x2="451" y2="808" gradientUnits="userSpaceOnUse"><stop stop-color="#F0A"/><stop offset=".502" stop-color="#9C42F5"/><stop offset="1" stop-color="#5D2DE1"/></linearGradient><linearGradient id="d" x1="294.87" y1="358.887" x2="284.54" y2="287.413" gradientUnits="userSpaceOnUse"><stop offset=".15" stop-color="#5D2DE1"/><stop offset=".85" stop-color="#F0A"/></linearGradient><linearGradient id="e" x1="-66" y1="380" x2="66" y2="512" gradientUnits="userSpaceOnUse"><stop stop-color="#0BF"/><stop offset=".53" stop-color="#9C42F5"/><stop offset="1" stop-color="#5D2DE1"/></linearGradient><filter id="b" x="240" y="239" width="422" height="422" filterUnits="userSpaceOnUse" color-interpolation-filters="sRGB"><feFlood flood-opacity="0" result="BackgroundImageFix"/><feColorMatrix in="SourceAlpha" values="0 0 0 0 0 0 0 0 0 0 0 0 0 0 0 0 0 0 127 0" result="hardAlpha"/><feMorphology radius="4" in="SourceAlpha" result="effect1_dropShadow_1589_133"/><feOffset dy="8"/><feGaussianBlur stdDeviation="4"/><feColorMatrix values="0 0 0 0 0.611765 0 0 0 0 0.258824 0 0 0 0 0.960784 0 0 0 0.12 0"/><feBlend in2="BackgroundImageFix" result="effect1_dropShadow_1589_133"/><feColorMatrix in="SourceAlpha" values="0 0 0 0 0 0 0 0 0 0 0 0 0 0 0 0 0 0 127 0" result="hardAlpha"/><feOffset dy="16"/><feGaussianBlur stdDeviation="12"/><feColorMatrix values="0 0 0 0 0.611765 0 0 0 0 0.258824 0 0 0 0 0.960784 0 0 0 0.24 0"/><feBlend in2="effect1_dropShadow_1589_133" result="effect2_dropShadow_1589_133"/><feColorMatrix in="SourceAlpha" values="0 0 0 0 0 0 0 0 0 0 0 0 0 0 0 0 0 0 127 0" result="hardAlpha"/><feMorphology radius="1" in="SourceAlpha" result="effect3_dropShadow_1589_133"/><feOffset dy="2"/><feGaussianBlur stdDeviation="2"/><feColorMatrix values="0 0 0 0 0.105882 0 0 0 0 0.0392157 0 0 0 0 0.321569 0 0 0 0.12 0"/><feBlend in2="effect2_dropShadow_1589_133" result="effect3_dropShadow_1589_133"/><feColorMatrix in="SourceAlpha" values="0 0 0 0 0 0 0 0 0 0 0 0 0 0 0 0 0 0 127 0" result="hardAlpha"/><feOffset/><feGaussianBlur stdDeviation=".5"/><feColorMatrix values="0 0 0 0 0.611765 0 0 0 0 0.258824 0 0 0 0 0.960784 0 0 0 0.24 0"/><feBlend in2="effect3_dropShadow_1589_133" result="effect4_dropShadow_1589_133"/><feBlend in="SourceGraphic" in2="effect4_dropShadow_1589_133" result="shape"/></filter></defs></svg>