<svg width="24" height="24" fill="none" xmlns="http://www.w3.org/2000/svg"><path fill-rule="evenodd" clip-rule="evenodd" d="M21.29 17.11c0 1.718-.923 2.648-2.665 2.648H5.375c-1.734 0-2.664-.922-2.664-2.649V7.625c0-1.719.93-2.64 2.664-2.64h13.25c1.742 0 2.664.921 2.664 2.64v9.484ZM4.5 8.921h15V7.82c0-.71-.367-1.047-1.04-1.047H5.54c-.68 0-1.04.336-1.04 1.047v1.102Zm13.96 9.047H5.54c-.68 0-1.04-.344-1.04-1.055v-6.117h15v6.117c0 .711-.367 1.055-1.04 1.055Zm-8.983-2.274c0 .438-.313.75-.774.75H6.79c-.453 0-.766-.312-.766-.75V14.25c0-.445.313-.75.766-.75h1.914c.461 0 .774.305.774.75v1.445Z" fill="#000" fill-opacity=".4"/></svg>