<svg width="24" height="24" viewBox="0 0 24 24" fill="none" xmlns="http://www.w3.org/2000/svg">
<path d="M10.3945 18.8828C10.8633 18.8828 11.2305 18.6953 11.4883 18.3125L18.8008 7.03125C18.9883 6.75 19.0664 6.49219 19.0664 6.25C19.0664 5.60938 18.5977 5.14844 17.9414 5.14844C17.4883 5.14844 17.2148 5.30469 16.9414 5.74219L10.3633 16.1484L7.00391 11.9141C6.73828 11.5938 6.46484 11.4453 6.07422 11.4453C5.41016 11.4453 4.93359 11.9141 4.93359 12.5625C4.93359 12.8438 5.02734 13.1094 5.26953 13.3906L9.30859 18.3516C9.61328 18.7188 9.94922 18.8828 10.3945 18.8828Z" fill="white"/>
</svg>
