<svg width="24" height="24" fill="none" xmlns="http://www.w3.org/2000/svg"><path fill-rule="evenodd" clip-rule="evenodd" d="M13.672 22.39c1.726 0 2.648-.93 2.648-2.663v-1.438h1.29c1.726 0 2.648-.937 2.648-2.672V9.57c0-1.086-.235-1.78-.875-2.445l-3.86-3.93c-.617-.625-1.351-.875-2.312-.875h-2.89c-1.72 0-2.641.93-2.641 2.664V6.43H6.39c-1.726 0-2.648.93-2.648 2.664v10.633c0 1.742.922 2.664 2.649 2.664h7.28Zm3.742-5.89H16.32v-2.703c0-1.086-.148-1.625-.828-2.313l-4.18-4.234c-.562-.578-1.07-.773-1.843-.813V5.149c0-.671.336-1.039 1.047-1.039h3.101v3.485c0 1.023.578 1.593 1.594 1.593h3.258v6.274c0 .672-.344 1.039-1.055 1.039Zm-2.008-8.727H18l-2.969-3.007v2.632c0 .258.11.375.375.375Zm-1.93 12.836H6.579c-.71 0-1.047-.367-1.047-1.047V9.258c0-.672.336-1.04 1.047-1.04h2.25v4.032c0 1.25.61 1.844 1.844 1.844h3.86v5.469c0 .68-.345 1.046-1.055 1.046Zm-2.656-8.023h3.524l-4-4.063v3.579c0 .335.148.484.476.484Z" fill="#000" fill-opacity=".4"/></svg>