<svg width="48" height="48" fill="none" xmlns="http://www.w3.org/2000/svg"><path fill-rule="evenodd" clip-rule="evenodd" d="M26.227 26c-.875.5-1.532.766-2.22.766-.702 0-1.359-.266-2.234-.766L9.695 19c-1.375-.813-2.015-1.516-2.015-2.61 0-1.093.64-1.796 2.015-2.609l12.078-7c.875-.5 1.532-.75 2.235-.75.687 0 1.344.25 2.219.75l12.093 7c1.36.813 2 1.516 2 2.61 0 1.093-.64 1.797-2 2.609l-12.093 7Zm-2.829-3.094c.235.125.407.188.61.188.187 0 .36-.063.594-.188l11.203-6.36c.062-.046.093-.077.093-.155 0-.063-.03-.11-.093-.141L24.602 9.89c-.235-.14-.407-.203-.594-.203-.203 0-.375.063-.61.204L12.195 16.25c-.062.031-.093.078-.093.14 0 .079.03.11.093.157l11.203 6.36Zm.61 11.625c.64 0 1.219-.297 2.015-.765l12.938-7.61c.89-.515 1.375-1.203 1.375-2.031 0-.828-.516-1.484-1.14-1.875l-14.094 8.172c-.438.265-.766.422-1.094.422-.344 0-.672-.157-1.11-.422L8.805 22.25c-.61.39-1.125 1.047-1.125 1.875 0 .828.484 1.516 1.36 2.031l12.937 7.61c.796.468 1.375.765 2.03.765Zm2.015 6.594c-.796.469-1.375.766-2.015.766-.656 0-1.235-.297-2.031-.766L9.039 33.531c-.875-.515-1.36-1.218-1.36-2.047 0-.828.516-1.484 1.126-1.875l14.093 8.188c.438.25.766.406 1.11.406.328 0 .656-.156 1.094-.406l14.093-8.188c.625.391 1.14 1.047 1.14 1.875 0 .828-.5 1.532-1.374 2.047l-12.938 7.594Z" fill="#fff"/></svg>