<svg width="48" height="48" fill="none" xmlns="http://www.w3.org/2000/svg"><path fill-rule="evenodd" clip-rule="evenodd" d="M23.992 40.078c.297 0 .735-.125 1.14-.344 9.079-4.812 12.25-7.187 12.25-12.875V15.187c0-2.062-.734-2.859-2.5-3.609-1.64-.687-7.374-2.656-8.952-3.172a6.382 6.382 0 0 0-1.938-.328c-.61 0-1.328.156-1.937.328-1.578.438-7.313 2.5-8.953 3.172-1.766.75-2.5 1.547-2.5 3.61v11.671c0 5.688 3.187 8.047 12.25 12.875.406.22.843.344 1.14.344Zm0-3.703c-.203 0-.39-.063-.828-.344l-.981-.599c-6.295-3.84-8.222-5.015-8.222-9.15V15.686c0-.578.125-.812.562-.984 1.302-.524 3.32-1.232 5.145-1.871 1.329-.466 2.554-.895 3.324-1.191.453-.157.735-.22 1-.22.281 0 .563.063 1.016.22 1.148.445 3.325 1.223 5.343 1.944 1.167.417 2.28.815 3.11 1.118.453.156.578.406.578.985V26.28c0 4.241-2.128 5.515-8.445 9.296h-.001c-.246.148-.498.3-.757.454-.438.266-.64.344-.844.344Zm-.172-6.594c-.343.532-.875.844-1.468.844-.625 0-1.11-.281-1.563-.828l-3.578-4.328c-.297-.375-.453-.735-.453-1.14 0-.845.672-1.5 1.515-1.5.5 0 .891.171 1.266.655l2.766 3.438 6-9.563c.36-.578.812-.875 1.343-.875.813 0 1.563.594 1.563 1.438 0 .36-.172.75-.406 1.094L23.82 29.78Z" fill="#fff"/></svg>