<svg width="36" height="36" fill="none" xmlns="http://www.w3.org/2000/svg"><rect x="3" y="3" width="30" height="30" rx="15" fill="#0FA"/><mask id="a" style="mask-type:alpha" maskUnits="userSpaceOnUse" x="3" y="3" width="30" height="30"><rect x="3" y="3" width="30" height="30" rx="15" fill="#fff"/></mask><g mask="url(#a)"><path d="M19.436 10.32c1.36.28 2.41.84 3.15 1.68.74.84 1.11 1.84 1.11 3v.42h-3.42V15c0-.24-.07-.47-.21-.69-.12-.24-.33-.44-.63-.6v2.7c3.08.42 4.62 1.89 4.62 4.41V21c0 1.34-.41 2.43-1.23 3.27-.8.84-1.93 1.35-3.39 1.53v1.86h-2.88v-1.95c-.82-.14-1.52-.37-2.1-.69-.58-.34-1.06-.74-1.44-1.2-.36-.46-.63-.97-.81-1.53a5.94 5.94 0 0 1-.27-1.77v-.6h3.42v.42c0 .46.09.86.27 1.2.18.34.49.61.93.81v-3.24c-1.38-.24-2.47-.69-3.27-1.35-.78-.66-1.17-1.62-1.17-2.88v-.18c0-.68.12-1.27.36-1.77.24-.52.56-.96.96-1.32.4-.38.87-.68 1.41-.9.54-.22 1.11-.38 1.71-.48V8.34h2.88v1.98Zm1.2 10.74c0-.3-.07-.57-.21-.81-.14-.26-.47-.47-.99-.63v2.85c.46-.14.77-.34.93-.6.18-.26.27-.53.27-.81Zm-5.1-6.36c0 .28.06.52.18.72.12.18.4.35.84.51v-2.37c-.36.12-.62.29-.78.51-.16.2-.24.41-.24.63Z" fill="#fff"/></g></svg>