<svg width="24" height="24" fill="none" xmlns="http://www.w3.org/2000/svg"><path fill-rule="evenodd" clip-rule="evenodd" d="M14.297 18.344c3.258 0 5.984-2.727 5.984-5.985 0-3.265-2.726-5.984-5.992-5.984a5.5 5.5 0 0 0-2.258.484 5.869 5.869 0 0 0-2.336-.484c-3.265 0-5.976 2.719-5.976 5.984 0 3.258 2.719 5.985 5.984 5.985.828 0 1.617-.18 2.336-.492a5.477 5.477 0 0 0 2.258.492Zm0-1.79c-.117 0-.235-.007-.344-.015 1.063-1.086 1.735-2.57 1.735-4.18 0-1.617-.672-3.093-1.743-4.18.117-.015.227-.015.344-.015 2.29 0 4.203 1.922 4.203 4.195 0 2.274-1.914 4.196-4.195 4.196Zm-8.79-4.195c0 2.274 1.923 4.196 4.196 4.196 2.274 0 4.195-1.922 4.195-4.196 0-2.273-1.921-4.195-4.203-4.195-2.273 0-4.187 1.922-4.187 4.195Z" fill="#E0E0FF" fill-opacity=".8"/></svg>