<svg width="20" height="20" fill="none" xmlns="http://www.w3.org/2000/svg"><path fill-rule="evenodd" clip-rule="evenodd" d="M7.923 13.047v1.484H5.15c-2.194 0-3.574-1.452-3.574-3.255 0-1.595.924-2.858 2.428-3.138.091-1.842 1.901-3.04 3.51-2.663.846-1.217 2.174-2.07 3.886-2.07 2.78 0 4.928 2.142 4.928 5.124 1.309.507 2.097 1.653 2.097 3.08 0 1.711-1.296 2.922-3.36 2.922h-3.072v-1.484h3.02c1.276 0 1.895-.632 1.895-1.543 0-1.055-.736-1.712-1.934-1.914-.09-.013-.13-.065-.117-.156.033-.326.059-.723.04-1.107-.098-1.869-1.53-3.431-3.51-3.431-1.569 0-2.533.833-3.151 1.973-.04.078-.098.09-.182.071-1.452-.417-2.8.26-2.722 2.149.007.097-.039.15-.136.15-1.29 0-2.103.794-2.103 1.998 0 .996.742 1.81 2.064 1.81h2.766Zm2.566 5.325c-.183.17-.352.235-.534.235-.176 0-.345-.065-.528-.235l-2.174-2.05a.539.539 0 0 1-.189-.423c0-.333.274-.573.593-.573.169 0 .332.071.455.195l.847.86.403.494-.084-.957v-5.58a.68.68 0 0 1 1.36 0v5.58l-.084.957.403-.495.847-.86a.621.621 0 0 1 .449-.194c.319 0 .592.24.592.572a.534.534 0 0 1-.182.424l-2.174 2.05Z" fill="#fff"/></svg>