<svg width="36" height="36" fill="none" xmlns="http://www.w3.org/2000/svg"><rect x="3" y="3" width="30" height="30" rx="15" fill="#0BF"/><mask id="a" style="mask-type:alpha" maskUnits="userSpaceOnUse" x="3" y="3" width="30" height="30"><rect x="3" y="3" width="30" height="30" rx="15" fill="#fff"/></mask><g mask="url(#a)"><path d="M9.776 14.73h2.01c.3-.72.69-1.36 1.17-1.92.48-.58 1.03-1.06 1.65-1.44.64-.4 1.32-.7 2.04-.9.74-.22 1.51-.33 2.31-.33.96 0 1.85.14 2.67.42.82.28 1.54.67 2.16 1.17.64.5 1.16 1.1 1.56 1.8.4.7.67 1.47.81 2.31l-3.36.78c-.08-.44-.21-.85-.39-1.23-.18-.4-.42-.75-.72-1.05-.3-.3-.68-.53-1.14-.69-.44-.18-.97-.27-1.59-.27-.64 0-1.23.12-1.77.36-.52.24-.98.57-1.38.99h3.21v2.88h-4.38v.9h4.38v2.88h-3.18c.82.82 1.88 1.23 3.18 1.23.62 0 1.15-.09 1.59-.27.44-.2.81-.45 1.11-.75.3-.3.54-.64.72-1.02.18-.4.32-.8.42-1.2l3.36.78c-.16.84-.45 1.61-.87 2.31-.4.7-.92 1.3-1.56 1.8-.62.5-1.35.89-2.19 1.17-.82.28-1.72.42-2.7.42-1.6 0-3.04-.38-4.32-1.14-1.28-.78-2.21-1.89-2.79-3.33h-2.01v-2.88h1.44v-.9h-1.44v-2.88Z" fill="#fff"/></g></svg>