<svg width="24" height="24" fill="none" xmlns="http://www.w3.org/2000/svg"><path fill-rule="evenodd" clip-rule="evenodd" d="M14.188 19.867c-.157.656-.704 1.086-1.399 1.086h-1.586c-.687 0-1.234-.43-1.39-1.086l-.305-1.305-.164-.062-1.14.703c-.579.36-1.274.266-1.75-.226l-1.102-1.094c-.493-.5-.579-1.18-.22-1.75L5.837 15l-.055-.156-1.304-.313c-.649-.156-1.079-.703-1.079-1.39v-1.532c0-.68.422-1.226 1.079-1.39l1.289-.32.07-.165-.711-1.132c-.36-.563-.273-1.243.219-1.75L6.445 5.75c.477-.484 1.164-.578 1.75-.219l1.133.696.18-.07.305-1.305c.156-.657.703-1.086 1.39-1.086h1.586c.695 0 1.242.43 1.399 1.086l.296 1.304.18.07 1.14-.695c.579-.36 1.266-.265 1.75.219l1.094 1.102c.493.507.586 1.187.22 1.75l-.704 1.132.063.164 1.289.32c.656.157 1.086.712 1.086 1.391v1.532c0 .687-.43 1.226-1.086 1.39l-1.297.313-.063.156.711 1.133c.36.57.274 1.25-.219 1.75l-1.101 1.094c-.485.492-1.172.585-1.75.226l-1.14-.703-.173.063-.296 1.304Zm-2.727-.515h1.078c.133 0 .188-.055.211-.172l.46-1.907c.548-.125 1-.32 1.43-.593l1.672 1.023c.094.063.188.055.282-.031l.742-.75c.094-.086.094-.18.031-.274l-1.031-1.671a4.63 4.63 0 0 0 .57-1.415l1.922-.453c.117-.023.172-.086.172-.21v-1.047c0-.141-.055-.196-.172-.22l-1.914-.46a5.457 5.457 0 0 0-.562-1.422l1.023-1.664c.063-.102.063-.195-.023-.281l-.75-.742c-.102-.086-.18-.094-.29-.032l-1.664 1.016a4.916 4.916 0 0 0-1.437-.586l-.461-1.922c-.023-.117-.078-.172-.21-.172h-1.08c-.132 0-.194.055-.21.172l-.46 1.906c-.524.133-1.08.36-1.446.602L7.68 7.023c-.11-.062-.196-.054-.29.04l-.75.734c-.093.086-.085.18-.023.289L7.648 9.75c-.226.39-.453.898-.57 1.43l-1.906.453c-.125.023-.18.078-.18.219v1.046c0 .125.063.188.18.211l1.914.454c.11.507.328 1 .57 1.414l-1.031 1.671c-.063.102-.063.196.023.282l.75.75c.094.086.188.093.282.03l1.672-1.03c.421.273.921.476 1.437.593l.461 1.907c.016.117.078.172.21.172ZM12 15.32c1.617 0 2.945-1.336 2.945-2.96A2.95 2.95 0 0 0 12 9.421c-1.625 0-2.96 1.32-2.96 2.937A2.974 2.974 0 0 0 12 15.32Zm-1.492-2.96c0 .828.672 1.5 1.492 1.5.805 0 1.477-.68 1.477-1.5 0-.805-.672-1.485-1.477-1.485a1.5 1.5 0 0 0-1.492 1.484Z" fill="#000" fill-opacity=".4"/></svg>