<svg width="24" height="24" fill="none" xmlns="http://www.w3.org/2000/svg"><path fill-rule="evenodd" clip-rule="evenodd" d="M12.879 19.648c-.305.196-.649.383-.883.383-.226 0-.578-.187-.875-.383-4.328-2.812-7.14-6.125-7.14-9.476 0-2.969 2.062-5.008 4.648-5.008 1.516 0 2.687.688 3.367 1.695.695-1.015 1.852-1.695 3.375-1.695 2.578 0 4.649 2.04 4.649 5.008 0 3.351-2.813 6.664-7.141 9.476Zm-1.016-1.671c.063.039.11.062.133.062.031 0 .078-.023.14-.062 3.313-2.211 6.009-5.188 6.009-7.813 0-1.89-1.266-3.18-2.954-3.18-1.351 0-2.078.805-2.593 1.516-.227.313-.375.438-.602.438-.219 0-.383-.126-.601-.438-.485-.719-1.235-1.516-2.586-1.516-1.688 0-2.954 1.29-2.954 3.18 0 2.625 2.696 5.602 6.008 7.813Z" fill="#141029" fill-opacity=".6"/></svg>