<svg width="24" height="24" fill="none" xmlns="http://www.w3.org/2000/svg"><path fill-rule="evenodd" clip-rule="evenodd" d="M19.254 19c0 1.21-.735 1.938-1.985 1.938H6.692c-1.25 0-1.984-.727-1.984-1.938v-7.117l-.789.664c-.219.18-.469.312-.727.312-.57 0-.921-.382-.921-.859 0-.258.125-.523.359-.727l8.14-6.828c.758-.633 1.727-.633 2.477 0l3.57 3v-1.36c0-.35.243-.585.594-.585h1.266c.351 0 .578.234.578.586v3.406l2.117 1.781c.235.196.36.446.36.743 0 .515-.391.843-.915.843-.265 0-.515-.132-.734-.312l-.828-.695V19Zm-12.024.148h2.532v-5.03c0-.368.242-.602.617-.602h3.258c.367 0 .601.234.601.601v5.031h2.492c.477 0 .743-.265.743-.75v-8.054l-5.078-4.258c-.25-.211-.532-.211-.774 0l-5.133 4.297v8.015c0 .485.266.75.742.75Z" fill="#141029" fill-opacity=".6"/></svg>