<svg width="24" height="24" viewBox="0 0 24 24" fill="none" xmlns="http://www.w3.org/2000/svg">
<path fill-rule="evenodd" clip-rule="evenodd" d="M12 2C9.28416 2 8.94362 2.01151 7.87701 2.06018C6.81263 2.10872 6.08569 2.27779 5.44962 2.52501C4.79203 2.78052 4.23436 3.12246 3.67839 3.67839C3.12246 4.23436 2.78052 4.79203 2.52501 5.44962C2.27779 6.08569 2.10872 6.81263 2.06018 7.87701C2.01151 8.94362 2 9.28416 2 12C2 14.7158 2.01151 15.0564 2.06018 16.123C2.10872 17.1874 2.27779 17.9143 2.52501 18.5504C2.78052 19.208 3.12246 19.7656 3.67839 20.3216C4.23436 20.8775 4.79203 21.2195 5.44962 21.475C6.08569 21.7222 6.81263 21.8913 7.87701 21.9398C8.94362 21.9885 9.28416 22 12 22C14.7158 22 15.0564 21.9885 16.123 21.9398C17.1874 21.8913 17.9143 21.7222 18.5504 21.475C19.208 21.2195 19.7656 20.8775 20.3216 20.3216C20.8775 19.7656 21.2195 19.208 21.475 18.5504C21.7222 17.9143 21.8913 17.1874 21.9398 16.123C21.9885 15.0564 22 14.7158 22 12C22 9.28416 21.9885 8.94362 21.9398 7.87701C21.8913 6.81263 21.7222 6.08569 21.475 5.44962C21.2195 4.79203 20.8775 4.23436 20.3216 3.67839C19.7656 3.12246 19.208 2.78052 18.5504 2.52501C17.9143 2.27779 17.1874 2.10872 16.123 2.06018C15.0564 2.01151 14.7158 2 12 2ZM12 3.80176C14.6701 3.80176 14.9864 3.81196 16.0409 3.86007C17.0159 3.90453 17.5454 4.06744 17.8977 4.20438C18.3645 4.38579 18.6976 4.60249 19.0475 4.95244C19.3975 5.30235 19.6142 5.63547 19.7956 6.10225C19.9325 6.45462 20.0955 6.98411 20.1399 7.9591C20.188 9.01356 20.1982 9.32985 20.1982 12C20.1982 14.6701 20.188 14.9864 20.1399 16.0408C20.0955 17.0158 19.9325 17.5453 19.7956 17.8977C19.6142 18.3644 19.3975 18.6976 19.0475 19.0475C18.6976 19.3974 18.3645 19.6141 17.8977 19.7955C17.5454 19.9325 17.0159 20.0954 16.0409 20.1398C14.9866 20.188 14.6703 20.1982 12 20.1982C9.32971 20.1982 9.0135 20.188 7.95916 20.1398C6.98417 20.0954 6.45468 19.9325 6.10231 19.7955C5.63553 19.6141 5.30241 19.3974 4.9525 19.0475C4.60259 18.6976 4.38585 18.3644 4.20445 17.8977C4.0675 17.5453 3.90459 17.0158 3.86013 16.0408C3.81202 14.9864 3.80182 14.6701 3.80182 12C3.80182 9.32985 3.81202 9.01356 3.86013 7.9591C3.90459 6.98411 4.0675 6.45462 4.20445 6.10225C4.38585 5.63547 4.60255 5.30235 4.9525 4.95244C5.30241 4.60249 5.63553 4.38579 6.10231 4.20438C6.45468 4.06744 6.98417 3.90453 7.95916 3.86007C9.01362 3.81196 9.32991 3.80176 12 3.80176ZM11.9999 15.3332C10.1589 15.3332 8.66656 13.8408 8.66656 11.9999C8.66656 10.1589 10.1589 8.6665 11.9999 8.6665C13.8409 8.6665 15.3332 10.1589 15.3332 11.9999C15.3332 13.8408 13.8409 15.3332 11.9999 15.3332ZM11.9999 6.86475C9.16381 6.86475 6.86475 9.16381 6.86475 11.9999C6.86475 14.836 9.16381 17.135 11.9999 17.135C14.836 17.135 17.135 14.836 17.135 11.9999C17.135 9.16381 14.836 6.86475 11.9999 6.86475ZM17.3382 7.86192C18.0009 7.86192 18.5382 7.32468 18.5382 6.66194C18.5382 5.99919 18.0009 5.46191 17.3382 5.46191C16.6755 5.46191 16.1382 5.99919 16.1382 6.66194C16.1382 7.32468 16.6755 7.86192 17.3382 7.86192Z" fill="#141029" fill-opacity="0.6"/>
</svg>
