<svg width="24" height="24" fill="none" xmlns="http://www.w3.org/2000/svg"><path d="M12.164 2C17.713 2 22.21 6.477 22.21 12s-4.497 10-10.046 10C6.616 22 2.12 17.523 2.12 12S6.616 2 12.164 2Z" fill="#5741D9"/><path d="M11.956 6.182a6.076 6.076 0 0 1 3.285.7c1.496.78 2.688 2.18 3.241 3.833.25.735.38 1.504.38 2.284v2.881c0 .115 0 .241-.022.356a1.01 1.01 0 0 1-.52.677.914.914 0 0 1-.575.07c-.412-.081-.737-.494-.737-.942v-2.686c.01-.252.01-.528-.12-.746-.205-.413-.726-.608-1.127-.436-.347.126-.596.505-.607.895v2.72c0 .173.011.345-.043.506a.96.96 0 0 1-.64.665.907.907 0 0 1-1.051-.459c-.141-.23-.13-.516-.12-.78v-2.71c-.01-.458-.368-.871-.79-.929a.908.908 0 0 0-.781.264 1.01 1.01 0 0 0-.282.712v2.628c0 .218.022.448-.054.654-.12.38-.477.655-.857.643-.39.023-.77-.264-.889-.643-.065-.195-.054-.39-.054-.596v-2.72c0-.448-.336-.861-.748-.942a.922.922 0 0 0-.986.482 1.1 1.1 0 0 0-.12.494v2.95c0 .287-.119.573-.325.757-.314.287-.824.31-1.149.046a.965.965 0 0 1-.38-.78v-2.985c0-1.124.272-2.25.781-3.248a6.74 6.74 0 0 1 1.67-2.112 6.03 6.03 0 0 1 3.62-1.503Z" fill="#fff"/></svg>