<svg width="24" height="24" fill="none" xmlns="http://www.w3.org/2000/svg"><path fill-rule="evenodd" clip-rule="evenodd" d="M13.117 13.5c-.437.25-.765.383-1.117.383s-.68-.133-1.125-.383L4.844 10c-.688-.406-1.016-.766-1.016-1.32 0-.563.328-.922 1.016-1.328l6.031-3.5c.445-.25.773-.383 1.125-.383s.68.133 1.117.383l6.04 3.5c.687.406 1.015.765 1.015 1.328 0 .554-.328.914-1.016 1.32l-6.039 3.5Zm-1.406-1.594c.11.063.195.094.289.094.094 0 .18-.031.29-.094l5.57-3.156c.03-.016.046-.04.046-.07 0-.04-.015-.063-.047-.078l-5.57-3.157A.57.57 0 0 0 12 5.352a.57.57 0 0 0-.29.093L6.14 8.602c-.03.015-.054.039-.054.078 0 .03.023.054.055.07l5.57 3.156ZM12 17.773c.328 0 .617-.148 1.023-.39l6.446-3.781c.46-.274.71-.618.71-1.047 0-.43-.257-.766-.577-.97l-7.024 4.08c-.226.132-.406.218-.578.218-.18 0-.352-.086-.586-.219l-7.016-4.078c-.32.203-.578.539-.578.969 0 .43.258.78.711 1.047l6.446 3.78c.406.243.695.391 1.023.391Zm1.023 3.305c-.406.242-.695.39-1.023.39-.328 0-.617-.148-1.023-.39L4.53 17.297c-.453-.266-.71-.617-.71-1.055 0-.422.257-.758.577-.96l7.016 4.077c.234.133.406.22.586.22.172 0 .352-.087.578-.22l7.024-4.078c.32.203.578.54.578.961 0 .438-.258.79-.711 1.055l-6.446 3.781Z" fill="#141029" fill-opacity=".6"/></svg>