<svg width="96" height="96" fill="none" xmlns="http://www.w3.org/2000/svg"><rect width="96" height="96" rx="48" fill="url(#a)"/><g clip-path="url(#b)"><path d="M34.05 23.326 62.489 39.66v16.659L19 31.329l13.937-8.003a1.177 1.177 0 0 1 1.114 0Z" fill="#fff" fill-opacity=".8"/><path d="m62.488 23-14.5 8.33 14.5 8.329V23Z" fill="#fff" fill-opacity=".6"/><path d="m62.488 23 13.95 8.003a1.17 1.17 0 0 1 .562.968v32.665l-14.512-8.318V23Z" fill="#fff" fill-opacity=".4"/><path d="M76.988 64.647 63.051 72.65a1.176 1.176 0 0 1-1.172 0L33.453 56.318V39.636l43.535 25.011Z" fill="#fff" fill-opacity=".6"/><path d="M19 31.33v32.664a1.162 1.162 0 0 0 .563 1.003L33.5 73V39.636L19 31.33Z" fill="#fff"/><path d="m33.5 72.977 14.488-8.33-14.488-8.33v16.66Z" fill="#3CA9E5"/></g><rect width="96" height="96" rx="48" fill="url(#c)"/><rect x=".5" y=".5" width="95" height="95" rx="47.5" stroke="#F5F7FA" stroke-opacity=".06"/><defs><linearGradient id="a" x1="-47.929" y1="47.929" x2="47.929" y2="143.787" gradientUnits="userSpaceOnUse"><stop stop-color="#60BEFF"/><stop offset=".531" stop-color="#3CA9E5"/><stop offset="1" stop-color="#2853C3"/></linearGradient><linearGradient id="c" x1="-48" y1="48" x2="48" y2="144" gradientUnits="userSpaceOnUse"><stop stop-color="#F5F7FA" stop-opacity=".4"/><stop offset=".521" stop-color="#F5F7FA" stop-opacity=".06"/><stop offset="1" stop-color="#F5F7FA" stop-opacity=".01"/></linearGradient><clipPath id="b"><path fill="#fff" transform="translate(19 23)" d="M0 0h58v50H0z"/></clipPath></defs></svg>