<svg width="96" height="96" fill="none" xmlns="http://www.w3.org/2000/svg"><rect width="96" height="96" rx="48" fill="#fff"/><path d="m39.229 15.683-.011.004a6.794 6.794 0 0 0-3.754 8.845l19.473 48.197a6.794 6.794 0 0 0 8.844 3.754l.01-.004a6.794 6.794 0 0 0 3.755-8.844L48.073 19.437a6.794 6.794 0 0 0-8.844-3.754Z" fill="url(#a)"/><path d="m44.433 15.605-.01-.004a6.794 6.794 0 0 0-8.824 3.803L16.51 67.422a6.794 6.794 0 0 0 3.804 8.823l.011.004a6.794 6.794 0 0 0 8.823-3.803l19.09-48.018a6.794 6.794 0 0 0-3.804-8.823Z" fill="#F0A"/><path d="m76.687 31.012-.011-.005a6.794 6.794 0 0 0-8.823 3.804L54.79 67.67a6.794 6.794 0 0 0 3.803 8.822l.011.005a6.794 6.794 0 0 0 8.823-3.804l13.063-32.86a6.794 6.794 0 0 0-3.803-8.822Z" fill="#5D2DE1"/><rect width="96" height="96" rx="48" fill="url(#b)"/><rect x=".5" y=".5" width="95" height="95" rx="47.5" stroke="#F5F7FA" stroke-opacity=".06"/><defs><linearGradient id="a" x1="51.934" y1="76.856" x2="52.176" y2="15.302" gradientUnits="userSpaceOnUse"><stop offset=".15" stop-color="#5D2DE1"/><stop offset=".85" stop-color="#F0A"/></linearGradient><linearGradient id="b" x1="-48" y1="48" x2="48" y2="144" gradientUnits="userSpaceOnUse"><stop stop-color="#F5F7FA" stop-opacity=".4"/><stop offset=".521" stop-color="#F5F7FA" stop-opacity=".06"/><stop offset="1" stop-color="#F5F7FA" stop-opacity=".01"/></linearGradient></defs></svg>