<svg width="96" height="96" viewBox="0 0 96 96" fill="none" xmlns="http://www.w3.org/2000/svg">
<rect width="96" height="96" rx="48" fill="url(#paint0_linear_364_112)"/>
<g clip-path="url(#clip0_364_112)">
<path d="M34.0509 23.3265L62.4883 39.6588V56.3177L19 31.3293L32.9373 23.3265C33.1084 23.2346 33.2997 23.1865 33.4941 23.1865C33.6885 23.1865 33.8799 23.2346 34.0509 23.3265Z" fill="white" fill-opacity="0.8"/>
<path d="M62.4883 23L47.9883 31.3294L62.4883 39.6589V23Z" fill="white" fill-opacity="0.6"/>
<path d="M62.4883 23L76.4374 31.0028C76.6051 31.1044 76.7446 31.2463 76.8429 31.4154C76.9412 31.5846 76.9952 31.7757 77 31.9711V64.6356L62.4883 56.3178V23Z" fill="white" fill-opacity="0.4"/>
<path d="M76.9883 64.6474L63.0509 72.6502C62.8727 72.7526 62.6706 72.8065 62.4648 72.8065C62.2591 72.8065 62.0569 72.7526 61.8787 72.6502L33.4531 56.318V39.6357L76.9883 64.6474Z" fill="white" fill-opacity="0.6"/>
<path d="M19 31.3296V63.9941C18.9988 64.1954 19.05 64.3936 19.1486 64.5694C19.2472 64.7452 19.3898 64.8927 19.5626 64.9973L33.5 73.0001V39.6357L19 31.3296Z" fill="white"/>
<path d="M33.5 72.9768L47.9883 64.6473L33.5 56.3179V72.9768Z" fill="#3CA9E5"/>
</g>
<rect width="96" height="96" rx="48" fill="url(#paint1_linear_364_112)"/>
<rect x="0.5" y="0.5" width="95" height="95" rx="47.5" stroke="#F5F7FA" stroke-opacity="0.06"/>
<defs>
<linearGradient id="paint0_linear_364_112" x1="-47.9291" y1="47.9291" x2="47.9291" y2="143.787" gradientUnits="userSpaceOnUse">
<stop stop-color="#60BEFF"/>
<stop offset="0.530854" stop-color="#3CA9E5"/>
<stop offset="0.999815" stop-color="#2853C3"/>
</linearGradient>
<linearGradient id="paint1_linear_364_112" x1="-48" y1="48" x2="48" y2="144" gradientUnits="userSpaceOnUse">
<stop stop-color="#F5F7FA" stop-opacity="0.4"/>
<stop offset="0.521392" stop-color="#F5F7FA" stop-opacity="0.06"/>
<stop offset="1" stop-color="#F5F7FA" stop-opacity="0.01"/>
</linearGradient>
<clipPath id="clip0_364_112">
<rect width="58" height="50" fill="white" transform="translate(19 23)"/>
</clipPath>
</defs>
</svg>
