<svg width="20" height="20" fill="none" xmlns="http://www.w3.org/2000/svg"><path fill-rule="evenodd" clip-rule="evenodd" d="M11.289 16.148c-.315.677-.684 1.272-1.333 1.272-.773 0-1.04-.738-1.04-1.634l-.013-4.806c0-.109-.041-.15-.15-.15l-4.806-.014c-.923 0-1.64-.28-1.64-1.045 0-.657.621-1.033 1.277-1.334l11.164-5.133c.341-.158.649-.246.916-.246a.997.997 0 0 1 1.011 1.011c0 .267-.089.575-.246.91l-5.14 11.17Zm-.957-6.036-.035 4.6c0 .07.076.083.11.015l4.464-9.755c.04-.096-.007-.158-.11-.11L5.006 9.32c-.075.035-.054.11.007.11L9.607 9.4c.52-.006.725.205.725.711Z" fill="#E0E0FF" fill-opacity=".4"/></svg>