<svg width="117" height="32" fill="none" xmlns="http://www.w3.org/2000/svg"><g clip-path="url(#a)"><path d="M39.62 20.283h-7.094l-1.357 3.186h-3.62L34.36 8.6h3.492l6.831 14.87h-3.71l-1.352-3.187Zm-1.113-2.615-2.425-5.691-2.425 5.691h4.85Zm18.576-5.625-4.977 11.444h-3.51L43.66 12.043h3.515l3.253 7.773 3.361-7.773h3.294Zm12.505 6.646h-8.886c.33 1.426 1.575 2.307 3.366 2.307a4.077 4.077 0 0 0 1.59-.263 3.99 3.99 0 0 0 1.35-.855l1.81 1.91c-1.09 1.21-2.714 1.849-4.845 1.849-4.072 0-6.7-2.483-6.7-5.881s2.683-5.885 6.266-5.885c3.447 0 6.112 2.254 6.112 5.925.005.255-.04.616-.063.893Zm-8.913-1.932h5.782a2.835 2.835 0 0 0-.998-1.704 2.981 2.981 0 0 0-1.893-.675c-.693 0-1.364.24-1.893.675a2.836 2.836 0 0 0-.998 1.704Zm23.267.167v6.545H80.54v-6.034c0-1.849-.873-2.699-2.38-2.699-1.637 0-2.818.978-2.818 3.082v5.651h-3.406V12.025h3.252v1.32a5.16 5.16 0 0 1 1.779-1.156 5.28 5.28 0 0 1 2.108-.353c2.76.035 4.854 1.606 4.854 5.088h.013Zm2.335.832c0-3.442 2.714-5.885 6.55-5.885 2.466 0 4.412 1.043 5.262 2.91l-2.655 1.373a2.88 2.88 0 0 0-1.09-1.147 2.989 2.989 0 0 0-1.548-.416c-1.724 0-3.076 1.167-3.076 3.165s1.357 3.165 3.076 3.165a2.952 2.952 0 0 0 1.556-.415c.468-.279.845-.681 1.086-1.161l2.642 1.404c-.855 1.827-2.8 2.888-5.284 2.888-3.8 0-6.533-2.443-6.533-5.881h.014ZM99.637 8.6c0-1.038.85-1.848 2.117-1.848s2.117.766 2.117 1.787c0 1.1-.85 1.91-2.117 1.91s-2.131-.81-2.131-1.849h.014Zm.416 3.443h3.406v11.444h-3.424l.018-11.444ZM117 16.946v6.523h-3.189v-1.426c-.629 1.044-1.855 1.594-3.579 1.594-2.751 0-4.388-1.488-4.388-3.46s1.465-3.42 5.044-3.42h2.714c0-1.422-.873-2.254-2.714-2.254a5.741 5.741 0 0 0-3.384 1.065l-1.222-2.315a9.194 9.194 0 0 1 5.063-1.382c3.578 0 5.655 1.615 5.655 5.075Zm-3.393 2.91v-1.167h-2.335c-1.592 0-2.094.572-2.094 1.32 0 .749.719 1.378 1.918 1.378a2.56 2.56 0 0 0 1.513-.366c.452-.275.801-.684.998-1.165Z" fill="#fff"/><path d="m8.92 1.066-.005.002c-1.323.52-1.962 1.985-1.427 3.272l7.36 17.724c.534 1.287 2.04 1.909 3.363 1.389l.004-.002c1.323-.52 1.962-1.985 1.427-3.271l-7.36-17.725c-.534-1.287-2.04-1.909-3.363-1.389Z" fill="url(#b)"/><path d="m10.853.93-.004-.002C9.523.416 8.02 1.046 7.494 2.336L.235 20.1c-.527 1.29.12 2.751 1.447 3.264l.004.002c1.326.512 2.828-.118 3.355-1.407l7.258-17.765c.527-1.29-.12-2.751-1.446-3.264Z" fill="#F0A"/><path d="m23.117 6.63-.004-.002c-1.326-.513-2.828.117-3.355 1.407L14.79 20.192c-.527 1.29.12 2.751 1.446 3.264l.004.001c1.326.513 2.828-.117 3.355-1.407l4.967-12.156c.527-1.29-.12-2.751-1.446-3.264Z" fill="#5D2DE1"/></g><defs><linearGradient id="b" x1="13.709" y1="23.597" x2="13.759" y2=".918" gradientUnits="userSpaceOnUse"><stop offset=".15" stop-color="#5D2DE1"/><stop offset=".85" stop-color="#F0A"/></linearGradient><clipPath id="a"><path fill="#fff" d="M0 0h117v32H0z"/></clipPath></defs></svg>