<svg width="20" height="20" fill="none" xmlns="http://www.w3.org/2000/svg"><path fill-rule="evenodd" clip-rule="evenodd" d="M16.08 7.962a.68.68 0 0 0 .671-.683.672.672 0 0 0-.67-.684H3.919a.677.677 0 0 0-.67.684c0 .364.3.683.67.683h12.162Zm0 3.028a.68.68 0 0 0 .671-.684.673.673 0 0 0-.67-.684H3.919a.677.677 0 0 0-.67.684c0 .365.3.684.67.684h12.162Zm.671 2.343c0 .371-.3.69-.67.69H3.919c-.37 0-.67-.325-.67-.69 0-.37.293-.683.67-.683h12.162c.377 0 .67.306.67.683Z" fill="#141029" fill-opacity=".4"/></svg>