<svg width="20" height="20" fill="none" xmlns="http://www.w3.org/2000/svg"><path fill-rule="evenodd" clip-rule="evenodd" d="M9.56 15.684c-1.491 1.066-3.44 1.975-4.403 1.975-.91 0-1.279-.84-.786-1.497.294-.383.765-1.114 1.045-1.627-2.119-1.08-3.486-3.103-3.486-5.346 0-3.609 3.589-6.514 8.067-6.514 4.484 0 8.073 2.905 8.073 6.514 0 3.72-3.637 6.55-8.51 6.495Zm-2.49-1.3c-.273.5-.772 1.15-1.086 1.546-.075.095-.034.15.075.11.595-.24 1.832-1.033 2.646-1.642.28-.225.499-.307.793-.3a15.111 15.111 0 0 1 .499.006c3.602 0 6.473-2.207 6.473-4.915 0-2.713-2.87-4.921-6.473-4.921-3.596 0-6.467 2.208-6.467 4.921 0 1.75 1.19 3.288 3.22 4.252.437.205.533.547.32.944Z" fill="#141029" fill-opacity=".4"/></svg>