<svg width="24" height="24" fill="none" xmlns="http://www.w3.org/2000/svg"><path fill-rule="evenodd" clip-rule="evenodd" d="M11.496 18.781C9.793 20 7.566 21.04 6.465 21.04c-1.04 0-1.461-.96-.899-1.71.336-.438.875-1.274 1.196-1.86-2.422-1.235-3.985-3.547-3.985-6.11 0-4.125 4.102-7.445 9.22-7.445 5.124 0 9.226 3.32 9.226 7.445 0 4.25-4.157 7.485-9.727 7.422Zm-2.844-1.484c-.312.57-.882 1.312-1.242 1.765-.086.11-.039.172.086.125.68-.273 2.094-1.18 3.024-1.875.32-.257.57-.351.906-.343.139 0 .263.002.368.005l.202.003c4.117 0 7.399-2.524 7.399-5.618 0-3.101-3.282-5.625-7.399-5.625-4.11 0-7.39 2.524-7.39 5.625 0 2 1.359 3.758 3.68 4.86.5.234.609.625.366 1.078Z" fill="#fff"/></svg>