<svg width="24" height="24" fill="none" xmlns="http://www.w3.org/2000/svg"><path fill-rule="evenodd" clip-rule="evenodd" d="M19.785 15.516c-1.289 2.953-4.125 4.796-7.5 4.796-4.765 0-8.234-3.484-8.234-8.25 0-3.32 2.039-6.382 5.015-7.585.266-.102.47-.141.594-.141.469 0 .774.367.774.766 0 .21-.055.406-.204.68-.28.554-.468 1.546-.468 2.632 0 3.875 2.492 6.274 6.5 6.274.867 0 1.765-.157 2.328-.399.265-.125.453-.164.648-.164.383 0 .711.29.711.734 0 .157-.039.383-.164.657ZM5.816 12.03c0 3.766 2.75 6.516 6.508 6.516 2.07 0 4-.922 5.094-2.485-.453.157-.93.22-1.484.22-4.852 0-7.79-2.884-7.79-7.626 0-.664.094-1.265.266-1.82C6.793 8.008 5.816 10 5.816 12.03Z" fill="#9C42F5"/></svg>