<svg width="24" height="24" fill="none" xmlns="http://www.w3.org/2000/svg"><path fill-rule="evenodd" clip-rule="evenodd" d="M13.523 6.063c-.023.109-.093.18-.203.18-.11 0-.18-.071-.195-.18l-.009-.05c-.217-1.224-.22-1.235-1.553-1.505-.11-.024-.18-.086-.18-.203 0-.11.07-.18.18-.196 1.315-.235 1.32-.264 1.543-1.454l.019-.1c.016-.11.086-.18.195-.18.11 0 .18.07.203.18l.018.094c.216 1.172.22 1.194 1.537 1.46.11.016.18.086.18.196 0 .117-.07.18-.188.203-1.325.248-1.328.265-1.541 1.524l-.006.03Zm4.243 9.343c-1.149 2.633-3.68 4.242-6.688 4.242-4.281 0-7.32-3.125-7.32-7.257 0-3.07 1.781-5.774 4.43-6.844.484-.195.882-.14 1.101.11.211.241.234.6.031 1.054-.258.562-.453 1.484-.453 2.406 0 3.383 2.203 5.5 5.656 5.5.852 0 1.586-.14 2.172-.39.407-.172.782-.133.992.078.227.218.297.601.079 1.101Zm-.68-3.687c.18 0 .305-.117.328-.305.25-2.062.336-2.117 2.438-2.445.203-.031.32-.149.32-.328 0-.172-.117-.29-.281-.32l-.129-.026c-2.008-.396-2.103-.415-2.348-2.428-.023-.18-.148-.304-.328-.304-.172 0-.297.125-.32.296-.266 2.102-.328 2.164-2.477 2.461a.316.316 0 0 0-.289.32c0 .172.125.29.29.329l.077.015c2.08.407 2.128.416 2.399 2.446.023.172.148.289.32.289Zm-11.594.61c0 3.179 2.32 5.577 5.594 5.577 1.695 0 3.266-.68 4.219-1.828-.242.078-.696.14-1.18.14-4.14 0-6.867-2.663-6.867-6.71 0-.563.078-1.149.21-1.563-1.226 1.063-1.976 2.672-1.976 4.383Z" fill="#E0E0FF" fill-opacity=".8"/></svg>