<svg width="122" height="114" fill="none" xmlns="http://www.w3.org/2000/svg"><path d="m44.72 4.943-.02.008c-6.135 2.411-9.1 9.205-6.62 15.174l34.136 82.206c2.479 5.969 9.462 8.853 15.597 6.441l.02-.008c6.134-2.411 9.098-9.205 6.62-15.174L60.316 11.384c-2.479-5.969-9.462-8.853-15.597-6.441Z" fill="#fff" fill-opacity=".6"/><path d="m53.688 4.314-.02-.008c-6.149-2.378-13.115.544-15.56 6.526L4.445 93.222c-2.444 5.982.559 12.76 6.708 15.138l.02.008c6.148 2.378 13.114-.544 15.559-6.526l33.664-82.39c2.444-5.982-.559-12.76-6.708-15.138ZM110.567 30.75l-.019-.008c-6.149-2.379-13.115.543-15.56 6.526l-23.037 56.38c-2.444 5.983.559 12.761 6.708 15.139l.019.008c6.149 2.378 13.115-.544 15.56-6.526l23.036-56.381c2.445-5.983-.558-12.76-6.707-15.139Z" fill="#fff"/></svg>