<svg width="15" height="15" fill="none" xmlns="http://www.w3.org/2000/svg"><path d="m5.484 1.172-.002.001a1.477 1.477 0 0 0-.816 1.923l4.233 10.477a1.477 1.477 0 0 0 1.923.817l.002-.001a1.477 1.477 0 0 0 .816-1.923L7.407 1.988a1.477 1.477 0 0 0-1.923-.816Z" fill="#fff" fill-opacity=".5"/><path d="m6.616 1.156-.003-.001a1.477 1.477 0 0 0-1.918.827L.545 12.42a1.477 1.477 0 0 0 .827 1.918l.003.001a1.477 1.477 0 0 0 1.918-.827l4.15-10.438a1.477 1.477 0 0 0-.827-1.918ZM13.627 4.506h-.002a1.477 1.477 0 0 0-1.918.826l-2.84 7.143a1.477 1.477 0 0 0 .827 1.918l.002.001a1.477 1.477 0 0 0 1.918-.827l2.84-7.143a1.477 1.477 0 0 0-.827-1.918Z" fill="#fff" fill-opacity=".8"/></svg>