<svg width="122" height="114" viewBox="0 0 122 114" fill="none" xmlns="http://www.w3.org/2000/svg">
<path d="M44.7194 4.94301L44.6999 4.95065C38.5648 7.36233 35.6008 14.1563 38.0795 20.1254L72.2161 102.331C74.6949 108.3 81.6777 111.184 87.8128 108.772L87.8323 108.764C93.9674 106.353 96.9314 99.5588 94.4527 93.5897L60.3161 11.3843C57.8373 5.4152 50.8545 2.53133 44.7194 4.94301Z" fill="#141029" fill-opacity="0.6"/>
<path d="M53.6875 4.31384L53.668 4.3063C47.5192 1.92799 40.553 4.84976 38.1086 10.8323L4.44439 93.2218C1.99996 99.2043 5.00297 105.982 11.1518 108.36L11.1713 108.368C17.3201 110.746 24.2863 107.824 26.7308 101.842L60.3949 19.4524C62.8394 13.4699 59.8364 6.69214 53.6875 4.31384Z" fill="#141029" fill-opacity="0.8"/>
<path d="M110.567 30.7494L110.548 30.7418C104.399 28.3635 97.4326 31.2853 94.9881 37.2678L71.951 93.6486C69.5066 99.6311 72.5096 106.409 78.6585 108.787L78.678 108.795C84.8268 111.173 91.793 108.251 94.2374 102.269L117.274 45.8879C119.719 39.9054 116.716 33.1277 110.567 30.7494Z" fill="#141029" fill-opacity="0.8"/>
</svg>
