<svg width="24" height="24" fill="none" xmlns="http://www.w3.org/2000/svg"><path fill-rule="evenodd" clip-rule="evenodd" d="M12.004 20.563c1.89 0 3.148-1.399 3.21-2.899h3.15c.866 0 1.413-.492 1.413-1.242 0-.875-.726-1.594-1.46-2.266-.593-.538-.711-1.59-.852-2.846v-.005c-.156-2.836-1.07-4.797-3.07-5.516-.329-1.062-1.22-1.828-2.391-1.828-1.18 0-2.07.766-2.39 1.828-2.009.719-2.923 2.68-3.079 5.516-.133 1.258-.258 2.312-.851 2.851-.727.672-1.461 1.39-1.461 2.266 0 .75.547 1.242 1.422 1.242h3.148c.039 1.469 1.305 2.898 3.21 2.898ZM17.55 16H6.418v-.086a9.612 9.612 0 0 0 1.062-1.031c.516-.61.75-1.86.844-3.305.117-2.922 1.047-3.953 2.235-4.273.187-.047.296-.133.32-.36.047-.773.469-1.273 1.125-1.273.648 0 1.07.5 1.117 1.273.024.227.133.313.32.36 1.188.32 2.118 1.351 2.235 4.273.094 1.445.336 2.695.844 3.305.367.43.773.812 1.03 1.031V16Zm-7.047 1.664c.055.906.664 1.508 1.5 1.508.844 0 1.453-.61 1.492-1.508h-2.992Z" fill="#000" fill-opacity=".4"/></svg>