<svg width="20" height="20" fill="none" xmlns="http://www.w3.org/2000/svg"><path d="M15.215 4.88a.79.79 0 0 0-.8-.808H5.982a.791.791 0 0 0-.807.808c0 .462.345.813.807.813h4.043a.88.88 0 0 0-.45.248L5.554 9.873a.819.819 0 0 0-.267.599c0 .482.339.82.795.82a.84.84 0 0 0 .605-.26l1.23-1.211 1.524-1.68-.085 1.348v5.58c0 .514.339.859.84.859.495 0 .834-.345.834-.86v-5.58l-.079-1.353 1.517 1.686 1.23 1.21a.84.84 0 0 0 .606.261c.456 0 .795-.338.795-.82a.819.819 0 0 0-.267-.599l-4.017-3.932a.874.874 0 0 0-.456-.248h4.056c.456 0 .8-.351.8-.813Z" fill="#fff"/></svg>