<svg width="72" height="72" fill="none" xmlns="http://www.w3.org/2000/svg"><path fill-rule="evenodd" clip-rule="evenodd" d="M12.946 11.25C11.811 5.4 16.353 0 22.26 0c5.224 0 9.54 4.275 9.54 9.45v11.7c1.362 0 2.725-.225 4.087-.225 1.363 0 2.499 0 3.862.225V9.45c0-5.175 4.315-9.45 9.54-9.45 5.904 0 10.447 5.4 9.539 11.25l-2.499 13.725C65.186 28.8 72 35.55 72 43.875v5.175c0 6.975-4.543 12.825-11.13 16.65-6.586 4.05-15.217 6.3-24.984 6.3-9.766 0-18.397-2.25-24.984-6.3C4.542 61.875 0 56.025 0 49.05v-5.175c0-8.325 6.587-15.075 15.445-18.9L12.946 11.25Zm39.975 15.525 2.953-16.2c.681-4.05-2.272-7.875-6.587-7.875-3.634 0-6.587 2.925-6.587 6.525v14.85c-.908-.225-2.044-.225-2.952-.225-1.363 0-2.499-.225-3.862-.225-1.362 0-2.725 0-4.088.225-.908 0-2.044.225-2.953.225V9.45c0-3.6-2.952-6.525-6.586-6.525-4.089 0-7.268 3.825-6.36 7.875L18.852 27c-9.54 3.6-15.9 9.9-15.9 17.1v5.175C2.953 60.3 17.717 69.3 35.887 69.3c18.17 0 32.934-9 32.934-20.025V44.1c.227-7.425-6.132-13.725-15.899-17.325Z" fill="#633001"/><path d="M69.047 49.05c0 11.025-14.763 20.025-32.933 20.025S3.18 60.075 3.18 49.05v-5.175h66.095v5.175h-.228Z" fill="#FEDC90"/><path fill-rule="evenodd" clip-rule="evenodd" d="M15.9 10.8c-.91-4.05 2.27-7.875 6.359-7.875 3.634 0 6.586 2.925 6.586 6.525V24.3c2.272-.225 4.543-.45 7.041-.45 2.272 0 4.543.225 6.814.45V9.45c0-3.6 2.953-6.525 6.587-6.525 4.088 0 7.268 3.825 6.587 7.875L52.92 27c9.54 3.6 16.126 9.9 16.126 17.1 0 11.025-14.763 20.025-32.933 20.025S3.18 55.125 3.18 44.1c0-7.2 6.36-13.5 15.899-17.1l-3.18-16.2Z" fill="#D1884F"/><path d="M26.801 42.525c0 2.925-1.59 5.4-3.634 5.4-2.044 0-3.634-2.475-3.634-5.4 0-2.925 1.59-5.4 3.634-5.4 2.044 0 3.634 2.475 3.634 5.4ZM52.013 42.525c0 2.925-1.59 5.4-3.634 5.4-2.045 0-3.634-2.475-3.634-5.4 0-2.925 1.59-5.4 3.634-5.4 2.044 0 3.634 2.475 3.634 5.4Z" fill="#633001"/></svg>