<svg width="72" height="72" viewBox="0 0 72 72" fill="none" xmlns="http://www.w3.org/2000/svg">
<path fill-rule="evenodd" clip-rule="evenodd" d="M36 2C17.2223 2 2 17.2223 2 36C2 54.7777 17.2223 70 36 70C54.7777 70 70 54.7777 70 36C70 27.217 66.6697 19.2119 61.2031 13.1785L55.914 15.0821L53.5835 15.9064L51.5637 16.6276L47.9384 17.9155L37.1143 21.7791L35.4571 22.3458L35.3017 22.3973L32.5568 14.67L35.3535 13.6912L38.5127 12.5579L42.138 11.27L44.0542 10.6003L53.8888 7.081C48.6924 3.85974 42.5634 2 36 2ZM31.9354 36.77C31.8318 35.3276 32.7122 33.9882 34.0587 33.5245L34.2659 33.473L35.6642 33.0094L42.0344 30.7427C43.6917 30.1245 45.5043 31.0003 46.1258 32.7003L46.6955 34.2458C47.3169 35.8942 46.3847 37.7488 44.7274 38.367L39.0306 40.376L36.8036 41.2003C35.1463 41.8185 33.3337 40.9427 32.7122 39.2427L32.1425 37.6973C32.0389 37.3882 31.9354 37.0791 31.9354 36.77ZM40.0746 50.8173C40.1422 50.7875 40.2087 50.7582 40.2735 50.7306L41.2575 50.2154L41.8272 51.8124L43.9506 57.8397L43.0702 58.2518C42.8285 58.3205 42.5408 58.435 42.253 58.5494C42.1092 58.6067 41.9653 58.6639 41.8272 58.7154C40.895 59.076 40.0146 59.3336 39.0824 59.5397C35.6642 60.3639 31.9872 60.2609 28.569 59.2821C28.1029 59.1791 27.6368 59.0245 27.1707 58.8185C26.929 58.7154 26.6873 58.6181 26.4456 58.5208C25.9623 58.3262 25.4789 58.1316 24.9955 57.8912C22.7686 56.8094 20.697 55.4185 18.9361 53.6669C16.6056 51.3488 14.7929 48.567 13.6536 45.2185C13.6018 45.0897 13.5629 44.9738 13.5241 44.8579C13.4853 44.742 13.4464 44.626 13.3946 44.4973C11.6338 38.9851 12.0481 33.5245 14.534 28.2185C15.6734 25.7973 17.2271 23.6336 19.0915 21.7791C19.2469 21.6761 19.4022 21.5215 19.5576 21.367C21.681 19.4609 24.1669 18.0185 27.1189 16.9367C27.3261 16.8594 27.5332 16.795 27.7404 16.7306C27.9476 16.6662 28.1547 16.6018 28.3619 16.5246L29.2941 16.2155L32.0389 23.8912L31.0031 24.2003C30.6406 24.3033 30.1745 24.4579 29.812 24.6124C28.569 25.1276 27.3261 25.7458 26.2385 26.5185C24.3741 27.8579 22.9239 29.6094 21.8881 31.8245C21.4738 32.6488 21.1631 33.473 20.9041 34.3488C20.1791 37.0276 20.2309 39.7579 21.2667 42.5397C21.5774 43.467 22.0435 44.3942 22.5096 45.2185C23.0275 45.9397 23.5454 46.6609 24.1151 47.2791C24.6848 47.9488 25.3581 48.5154 26.0313 49.0306C26.8082 49.5973 27.6368 50.1124 28.5172 50.5245C31.9872 52.2245 35.4571 52.3791 39.1341 51.1427C39.4318 51.1004 39.7644 50.9539 40.0746 50.8173Z" fill="url(#paint0_linear_116_23371)"/>
<defs>
<linearGradient id="paint0_linear_116_23371" x1="75.7278" y1="79.2657" x2="-4.27223" y2="-0.728858" gradientUnits="userSpaceOnUse">
<stop offset="0.1594" stop-color="#003CDA"/>
<stop offset="1" stop-color="#33DFCC"/>
</linearGradient>
</defs>
</svg>
