<svg width="72" height="72" viewBox="0 0 72 72" fill="none" xmlns="http://www.w3.org/2000/svg">
<path d="M70.8496 12.7499C70.0996 9.89995 67.6996 7.04997 63.4996 3.89998C60.0497 1.49999 56.4497 0 53.5997 0C52.9997 0 52.5497 0 51.9497 0.149999C50.5997 0.449998 49.5497 1.34999 48.7997 2.84999C47.8997 4.49998 47.7497 6.89997 48.3497 8.24996C48.4997 8.69996 48.7997 9.14996 49.0997 9.74996C46.3997 11.3999 44.7497 11.9999 44.5997 11.9999C51.7997 14.3999 57.7997 19.4999 61.5497 26.2499V25.6499C61.6997 23.8499 62.2997 21.8999 62.8996 19.7999C63.6496 19.9499 64.3996 20.0999 65.1496 20.0999C67.0996 20.0999 68.7496 19.3499 69.7996 17.8499C70.8496 16.1999 71.2996 14.3999 70.8496 12.7499Z" fill="#5E12A0"/>
<path d="M63.1996 17.9997C67.9996 19.3496 69.9496 15.5997 69.1996 13.0497C68.4496 10.4997 66.3496 7.9497 62.4496 5.09971C58.5496 2.24972 54.6497 1.04973 52.0997 1.64972C49.5497 2.24972 48.7997 5.9997 49.5497 7.4997C49.8497 8.0997 50.4497 8.99969 51.1997 9.89969C50.1497 10.6497 49.2497 11.0997 48.4997 11.5497C53.2997 13.7997 57.4997 17.0997 60.6496 21.4496C60.9496 19.9496 61.5496 18.7496 61.9996 17.5497C62.4496 17.8497 62.8996 17.8497 63.1996 17.9997Z" fill="url(#paint0_radial_364_4990)"/>
<path d="M36.0499 70.2001C52.2498 70.2001 65.2997 56.8502 65.2997 40.5003C65.2997 24.1503 52.0998 10.6504 36.0499 10.6504C19.8499 10.6504 6.79999 24.0003 6.79999 40.5003C6.79999 57.0002 19.8499 70.2001 36.0499 70.2001Z" fill="url(#paint1_radial_364_4990)"/>
<path opacity="0.6" d="M66.9497 10.6503C62.8997 6.45037 59.5997 5.25037 55.5497 4.35038C52.3997 3.60038 53.2997 1.80039 57.0497 2.10039C55.2497 1.50039 53.4497 1.35039 52.2497 1.50039C49.6997 2.10039 48.9497 5.85037 49.6997 7.35036C49.9997 7.95036 50.5997 8.85036 51.3497 9.75035C49.9997 10.6503 48.7998 11.4003 47.7498 12.0003C48.1998 12.1503 48.7998 12.4503 49.5497 12.9003C51.3497 13.8003 53.2997 15.4503 53.2997 15.4503C50.2997 12.9003 51.0497 11.7003 55.0997 8.85036C56.2997 7.95036 58.6997 8.10036 60.7997 9.15036C62.8997 10.2004 65.4497 13.0503 65.4497 13.0503L62.7497 18.0003C62.8997 18.0003 63.0497 18.1503 63.1997 18.1503C64.6997 18.6003 65.8997 18.4503 66.7997 18.1503C67.9997 17.4003 70.8496 15.0003 66.9497 10.6503Z" fill="#A98698"/>
<path d="M55.5497 7.04946C56.5997 7.49946 57.9497 8.24946 59.5997 9.29945C61.5497 10.6494 63.3497 12.1494 64.3997 13.3494C62.5997 15.7494 61.3997 19.1994 60.6497 21.4494C60.9497 22.0494 61.3997 22.4994 61.8497 23.0994C62.1497 21.7494 62.8997 19.7994 63.6497 17.8494C63.7997 17.8494 64.0997 17.8494 64.3997 17.8494C64.9997 17.8494 65.7497 17.6994 66.3497 17.2494C66.7997 16.9494 67.2497 16.3494 67.2497 15.2994C67.2497 14.2494 66.4997 13.0494 64.8497 11.3994C63.6497 10.3494 61.9997 8.99945 60.4997 7.94946C55.9997 4.94947 52.8497 4.04948 51.4997 5.54947C50.5997 6.44947 50.5997 7.64946 51.0497 8.54946C49.3997 9.59945 47.8998 10.4994 46.9998 10.9494C47.5998 11.0994 48.1998 11.3994 48.7997 11.6994C50.2997 10.7994 52.6997 9.14945 55.5497 7.04946ZM65.4497 14.5494C65.5997 14.8494 65.5997 15.1494 65.5997 15.2994C65.5997 15.7494 65.4497 15.8994 65.2997 16.0494C65.1497 16.1994 64.6997 16.3494 64.2497 16.3494C64.6997 15.5994 64.9997 15.1494 65.4497 14.5494ZM52.5497 6.59947C52.6997 6.44947 53.1497 6.29947 53.7497 6.44947C53.2997 6.89946 52.6997 7.19946 52.2497 7.64946C52.0997 7.34946 52.0997 6.89946 52.5497 6.59947Z" fill="#5E12A0"/>
<path d="M36.0499 9C18.7999 9 5 23.0999 5 40.4999C5 57.8998 18.7999 71.9997 36.0499 71.9997C53.1498 71.9997 67.0997 57.8998 67.0997 40.4999C67.0997 23.0999 52.9998 9 36.0499 9ZM36.0499 70.1997C19.8499 70.1997 6.79999 56.9998 6.79999 40.4999C6.79999 23.9999 19.8499 10.65 36.0499 10.65C52.0998 10.65 65.2997 23.9999 65.2997 40.4999C65.2997 56.9998 52.0998 70.1997 36.0499 70.1997Z" fill="#5E12A0"/>
<path opacity="0.6" d="M36.0499 70.2001C52.2498 70.2001 65.2997 56.8502 65.2997 40.5003C65.2997 24.1503 52.0998 10.6504 36.0499 10.6504C19.8499 10.6504 6.79999 24.0003 6.79999 40.5003C6.79999 57.0002 19.8499 70.2001 36.0499 70.2001Z" fill="url(#paint2_linear_364_4990)"/>
<path opacity="0.6" d="M35.7496 66.5994C19.8497 64.0494 9.04975 48.7495 11.5997 32.5495C12.7997 25.3496 16.2497 19.1996 21.3497 14.8496C13.9997 19.1996 8.59975 26.6996 7.09976 35.8495C4.54977 52.0494 15.3497 67.3494 31.2497 70.0494C40.0996 71.5494 48.7996 68.6994 55.0995 63.1494C49.5496 66.2994 42.6496 67.7994 35.7496 66.5994Z" fill="#A98698"/>
<path opacity="0.6" d="M40.6996 11.1001C33.3496 9.90012 26.1496 11.5501 20.2996 15.3001C20.1496 15.4501 20.1496 15.4501 20.1496 15.4501C22.3996 14.1001 25.6996 12.9001 25.6996 12.9001C17.1497 17.8501 14.5997 23.5501 14.5997 23.5501C17.7497 17.2501 27.4996 12.6001 34.9996 12.3001C42.6495 12.0001 47.5995 14.2501 53.5995 19.2001C59.5995 24.1501 63.3494 34.5 62.8994 42.6C62.5994 50.6999 58.3995 57.2999 58.3995 57.2999C61.2495 53.5499 63.0494 50.6999 64.0994 47.9999C64.2494 47.1 64.5494 46.35 64.5494 45.45C67.3994 28.95 56.5995 13.8001 40.6996 11.1001Z" fill="url(#paint3_linear_364_4990)"/>
<path d="M63.7998 40.1992C63.7998 55.7991 51.3498 68.5491 36.0499 68.5491C20.75 68.5491 8.15002 55.7991 8.15002 40.1992H63.7998Z" fill="url(#paint4_linear_364_4990)"/>
<g opacity="0.6">
<path opacity="0.6" d="M61.5495 40.1992C61.5495 55.4991 49.6995 67.9491 34.8496 68.5491C35.1496 68.5491 35.5996 68.5491 35.8996 68.5491C51.1995 68.5491 63.6495 55.9491 63.6495 40.1992H61.5495Z" fill="url(#paint5_linear_364_4990)"/>
</g>
<g opacity="0.7">
<path opacity="0.7" d="M12.0501 40.1992H8.15015C8.15015 55.7991 20.6001 68.5491 35.9 68.5491C36.65 68.5491 37.25 68.5491 37.85 68.5491C23.4501 67.3491 12.0501 55.0492 12.0501 40.1992Z" fill="url(#paint6_linear_364_4990)"/>
</g>
<path d="M63.7998 40.5004C63.7998 37.2004 58.2498 35.4004 50.8998 34.8004C45.4999 34.3504 40.0999 34.9504 33.9499 36.7504C28.5499 38.4004 23.75 38.1004 20.3 37.6504C12.5 36.7504 8.15002 36.6004 8.15002 40.5004C8.15002 46.0504 19.25 52.9503 35.8999 50.5504C44.2999 49.3504 48.6498 46.8004 53.5998 45.1504C58.9998 43.3504 63.7998 43.3504 63.7998 40.5004Z" fill="url(#paint7_linear_364_4990)"/>
<path d="M45.0499 27.0003C47.5999 27.0003 49.6999 24.9004 49.6999 22.2004C49.6999 19.5004 47.5999 17.4004 45.0499 17.4004C42.4999 17.4004 40.3999 19.5004 40.3999 22.2004C40.3999 24.9004 42.4999 27.0003 45.0499 27.0003Z" fill="white"/>
<path d="M52.85 30.5992C53.9 30.5992 54.8 29.6992 54.8 28.6492C54.8 27.5992 53.9 26.6992 52.85 26.6992C51.8 26.6992 50.9 27.5992 50.9 28.6492C50.9 29.6992 51.65 30.5992 52.85 30.5992Z" fill="white"/>
<g opacity="0.6">
<path opacity="0.6" d="M59.8998 18.4504C59.8998 18.4504 59.7498 18.4504 59.8998 18.4504C59.4498 18.4504 59.2998 18.1504 59.2998 17.7004C59.7498 15.3004 61.6998 12.9004 61.8498 12.7504C61.9998 12.4504 62.4498 12.4504 62.7498 12.7504C63.0498 12.9004 63.0498 13.3504 62.7498 13.6504C62.7498 13.6504 60.7998 15.9004 60.4998 18.0004C60.4998 18.3004 60.1998 18.4504 59.8998 18.4504Z" fill="url(#paint8_linear_364_4990)"/>
</g>
<path opacity="0.2" d="M34.0997 62.6992C34.8497 62.6992 35.5997 62.0992 35.5997 61.1992C35.5997 60.2992 34.9997 59.6992 34.0997 59.6992C33.1997 59.6992 32.5997 60.2992 32.5997 61.1992C32.5997 62.0992 33.1997 62.6992 34.0997 62.6992Z" fill="white"/>
<g opacity="0.4">
<path opacity="0.6" d="M33.1997 62.0992C32.5997 61.4992 32.5997 60.5992 33.1997 59.9992C33.3497 59.8492 33.3497 59.8492 33.4997 59.6992C33.3497 59.6992 33.1997 59.8492 33.0497 59.9992C32.4497 60.5992 32.4497 61.4992 33.0497 62.0992C33.4997 62.5492 34.2497 62.6992 34.8497 62.3992C34.2497 62.6992 33.6497 62.5492 33.1997 62.0992Z" fill="url(#paint9_linear_364_4990)"/>
</g>
<path opacity="0.3" d="M34.5498 60.7494C34.6998 60.7494 34.8498 60.5994 34.8498 60.4494C34.8498 60.2994 34.6998 60.1494 34.5498 60.1494C34.3998 60.1494 34.2498 60.2994 34.2498 60.4494C34.2498 60.5994 34.3998 60.7494 34.5498 60.7494Z" fill="white"/>
<path opacity="0.2" d="M41.7497 61.9492C42.4997 61.9492 43.2497 61.3492 43.2497 60.4492C43.2497 59.6992 42.6497 58.9492 41.7497 58.9492C40.9998 58.9492 40.2498 59.5492 40.2498 60.4492C40.2498 61.1992 40.8498 61.9492 41.7497 61.9492Z" fill="white"/>
<g opacity="0.4">
<path opacity="0.6" d="M40.8498 61.3492C40.2498 60.7492 40.2498 59.8492 40.8498 59.2492C40.9998 59.0992 40.9998 59.0992 41.1498 58.9492C40.9998 58.9492 40.8498 59.0992 40.6998 59.2492C40.0998 59.8492 40.0998 60.7492 40.6998 61.3492C41.1498 61.7992 41.8998 61.9492 42.4998 61.6492C41.8998 61.9492 41.2998 61.7992 40.8498 61.3492Z" fill="url(#paint10_linear_364_4990)"/>
</g>
<path opacity="0.3" d="M42.1998 60.0004C42.3498 60.0004 42.4998 59.8504 42.4998 59.7004C42.4998 59.5504 42.3498 59.4004 42.1998 59.4004C42.0498 59.4004 41.8998 59.5504 41.8998 59.7004C41.8998 59.8504 42.0498 60.0004 42.1998 60.0004Z" fill="white"/>
<path opacity="0.2" d="M37.9999 65.3998C38.5999 65.3998 39.0499 64.9498 39.0499 64.3498C39.0499 63.7498 38.5999 63.2998 37.9999 63.2998C37.3999 63.2998 36.9499 63.7498 36.9499 64.3498C36.9499 64.9498 37.2499 65.3998 37.9999 65.3998Z" fill="white"/>
<g opacity="0.4">
<path opacity="0.6" d="M37.2499 64.9504C36.8 64.5004 36.8 63.7504 37.2499 63.3004L37.3999 63.1504C37.25 63.1504 37.0999 63.3004 37.0999 63.4504C36.65 63.9004 36.65 64.6504 37.0999 65.1004C37.3999 65.4004 37.9999 65.5504 38.4499 65.2504C38.1499 65.4004 37.5499 65.2504 37.2499 64.9504Z" fill="url(#paint11_linear_364_4990)"/>
</g>
<path opacity="0.3" d="M38.3 63.8996C38.45 63.8996 38.45 63.7496 38.45 63.7496C38.45 63.5996 38.3 63.5996 38.3 63.5996C38.15 63.5996 38.15 63.7496 38.15 63.7496C38.15 63.7496 38.15 63.8996 38.3 63.8996Z" fill="white"/>
<path opacity="0.2" d="M44.7497 64.6498C45.3497 64.6498 45.7997 64.1998 45.7997 63.5998C45.7997 62.9998 45.3497 62.5498 44.7497 62.5498C44.1497 62.5498 43.6997 62.9998 43.6997 63.5998C43.5497 64.0498 44.1497 64.6498 44.7497 64.6498Z" fill="white"/>
<g opacity="0.4">
<path opacity="0.6" d="M43.9999 64.2004C43.5499 63.7504 43.5499 63.0004 43.9999 62.5504L44.1499 62.4004C43.9999 62.4004 43.8499 62.5504 43.8499 62.7004C43.3999 63.1504 43.3999 63.9004 43.8499 64.3504C44.1499 64.6504 44.7499 64.8004 45.1999 64.5004C44.8999 64.6504 44.2999 64.5004 43.9999 64.2004Z" fill="url(#paint12_linear_364_4990)"/>
</g>
<path opacity="0.3" d="M45.05 63.1496C45.2 63.1496 45.2 62.9996 45.2 62.9996C45.2 62.8496 45.05 62.8496 45.05 62.8496C44.9 62.8496 44.9 62.9996 44.9 62.9996C44.9 62.9996 44.9 63.1496 45.05 63.1496Z" fill="white"/>
<path opacity="0.2" d="M27.8 62.0998C29.15 62.0998 30.2 61.0498 30.2 59.6998C30.2 58.3498 29.15 57.2998 27.8 57.2998C26.45 57.2998 25.4 58.3498 25.4 59.6998C25.4 61.0498 26.45 62.0998 27.8 62.0998Z" fill="white"/>
<g opacity="0.4">
<path opacity="0.6" d="M26.45 61.1992C25.55 60.2992 25.55 58.6492 26.45 57.7492C26.6 57.5992 26.75 57.4492 26.9 57.4492C26.6 57.5992 26.3 57.7492 26 58.0492C25.1 58.9492 25.1 60.5992 26 61.4992C26.75 62.2492 27.95 62.3992 29 61.7992C28.25 62.0992 27.2 61.9492 26.45 61.1992Z" fill="url(#paint13_linear_364_4990)"/>
</g>
<path opacity="0.3" d="M28.6998 58.95C28.9998 58.95 29.1498 58.65 29.1498 58.35C29.1498 58.05 28.8498 57.75 28.6998 57.75C28.3998 57.75 28.2498 58.05 28.2498 58.35C28.2498 58.65 28.3998 58.95 28.6998 58.95Z" fill="white"/>
<path opacity="0.2" d="M49.3997 56.0998C50.7497 56.0998 51.7997 55.0498 51.7997 53.6998C51.7997 52.3498 50.7497 51.2998 49.3997 51.2998C48.0498 51.2998 46.9998 52.3498 46.9998 53.6998C46.9998 55.0498 48.0498 56.0998 49.3997 56.0998Z" fill="white"/>
<g opacity="0.4">
<path opacity="0.6" d="M47.9 55.1992C47 54.2992 47 52.6492 47.9 51.7492C48.05 51.5992 48.2 51.4492 48.35 51.4492C48.05 51.5992 47.75 51.7492 47.45 52.0492C46.55 52.9492 46.55 54.5992 47.45 55.4992C48.2 56.2492 49.4 56.3992 50.4499 55.7992C49.7 56.0992 48.65 55.9492 47.9 55.1992Z" fill="url(#paint14_linear_364_4990)"/>
</g>
<path opacity="0.3" d="M50.1498 52.95C50.4498 52.95 50.5998 52.65 50.5998 52.35C50.5998 52.05 50.2998 51.75 50.1498 51.75C49.8498 51.75 49.6998 52.05 49.6998 52.35C49.6998 52.65 49.8498 52.95 50.1498 52.95Z" fill="white"/>
<defs>
<radialGradient id="paint0_radial_364_4990" cx="0" cy="0" r="1" gradientUnits="userSpaceOnUse" gradientTransform="translate(68.387 9.79841) scale(23.3987 23.8016)">
<stop stop-color="#FFEAFF" stop-opacity="0.6"/>
<stop offset="0.6807" stop-color="#A087C9"/>
<stop offset="1" stop-color="#10002F"/>
</radialGradient>
<radialGradient id="paint1_radial_364_4990" cx="0" cy="0" r="1" gradientUnits="userSpaceOnUse" gradientTransform="translate(55.3683 19.9471) scale(57.2483 58.2341)">
<stop stop-color="#FFEAFF" stop-opacity="0.6"/>
<stop offset="0.6807" stop-color="#A087C9"/>
<stop offset="1" stop-color="#10002F"/>
</radialGradient>
<linearGradient id="paint2_linear_364_4990" x1="31.1512" y1="69.8377" x2="40.8344" y2="11.11" gradientUnits="userSpaceOnUse">
<stop stop-color="#81FFFF"/>
<stop offset="0.6202" stop-color="white" stop-opacity="0"/>
</linearGradient>
<linearGradient id="paint3_linear_364_4990" x1="56.8674" y1="20.5337" x2="32.2906" y2="42.7018" gradientUnits="userSpaceOnUse">
<stop offset="0.2888" stop-color="white"/>
<stop offset="0.7796" stop-color="white" stop-opacity="0"/>
</linearGradient>
<linearGradient id="paint4_linear_364_4990" x1="8.14117" y1="54.3454" x2="63.7923" y2="54.3454" gradientUnits="userSpaceOnUse">
<stop stop-color="#0002E9"/>
<stop offset="0.9952" stop-color="#FF00C7"/>
</linearGradient>
<linearGradient id="paint5_linear_364_4990" x1="66.5578" y1="42.8454" x2="35.8003" y2="71.4211" gradientUnits="userSpaceOnUse">
<stop offset="0.2888" stop-color="white"/>
<stop offset="0.7796" stop-color="white" stop-opacity="0"/>
</linearGradient>
<linearGradient id="paint6_linear_364_4990" x1="8.1413" y1="54.3454" x2="37.8778" y2="54.3454" gradientUnits="userSpaceOnUse">
<stop stop-color="#000292"/>
<stop offset="0.9952" stop-color="#7D00C7"/>
</linearGradient>
<linearGradient id="paint7_linear_364_4990" x1="8.20207" y1="42.8056" x2="63.7414" y2="42.8056" gradientUnits="userSpaceOnUse">
<stop stop-color="#000292"/>
<stop offset="0.9952" stop-color="#BE00C7"/>
</linearGradient>
<linearGradient id="paint8_linear_364_4990" x1="62.8996" y1="12.5657" x2="58.8084" y2="19.1017" gradientUnits="userSpaceOnUse">
<stop offset="0.2888" stop-color="white"/>
<stop offset="0.7796" stop-color="white" stop-opacity="0"/>
</linearGradient>
<linearGradient id="paint9_linear_364_4990" x1="32.5768" y1="61.2016" x2="34.7917" y2="61.2016" gradientUnits="userSpaceOnUse">
<stop offset="0.2888" stop-color="white"/>
<stop offset="0.7796" stop-color="white" stop-opacity="0"/>
</linearGradient>
<linearGradient id="paint10_linear_364_4990" x1="40.2135" y1="60.4554" x2="42.4286" y2="60.4554" gradientUnits="userSpaceOnUse">
<stop offset="0.2888" stop-color="white"/>
<stop offset="0.7796" stop-color="white" stop-opacity="0"/>
</linearGradient>
<linearGradient id="paint11_linear_364_4990" x1="36.8238" y1="64.31" x2="38.4867" y2="64.31" gradientUnits="userSpaceOnUse">
<stop offset="0.2888" stop-color="white"/>
<stop offset="0.7796" stop-color="white" stop-opacity="0"/>
</linearGradient>
<linearGradient id="paint12_linear_364_4990" x1="43.5545" y1="63.511" x2="45.2174" y2="63.511" gradientUnits="userSpaceOnUse">
<stop offset="0.2888" stop-color="white"/>
<stop offset="0.7796" stop-color="white" stop-opacity="0"/>
</linearGradient>
<linearGradient id="paint13_linear_364_4990" x1="25.4212" y1="59.7666" x2="29.0384" y2="59.7666" gradientUnits="userSpaceOnUse">
<stop offset="0.2888" stop-color="white"/>
<stop offset="0.7796" stop-color="white" stop-opacity="0"/>
</linearGradient>
<linearGradient id="paint14_linear_364_4990" x1="46.9046" y1="53.749" x2="50.5219" y2="53.749" gradientUnits="userSpaceOnUse">
<stop offset="0.2888" stop-color="white"/>
<stop offset="0.7796" stop-color="white" stop-opacity="0"/>
</linearGradient>
</defs>
</svg>
