<svg width="72" height="72" viewBox="0 0 72 72" fill="none" xmlns="http://www.w3.org/2000/svg">
<path fill-rule="evenodd" clip-rule="evenodd" d="M57.5498 45.8197L42.9946 55.5029V37.0889L57.5498 45.8197Z" fill="url(#paint0_linear_116_23389)"/>
<path fill-rule="evenodd" clip-rule="evenodd" d="M42.9946 37.0883L57.5498 45.8191L58.6183 27.7207L42.9946 37.0883Z" fill="url(#paint1_linear_116_23389)"/>
<path fill-rule="evenodd" clip-rule="evenodd" d="M57.55 18.4758L68.4623 13.0889V39.2704L57.55 45.82V18.4758Z" fill="#40C4FF"/>
<path fill-rule="evenodd" clip-rule="evenodd" d="M35.7309 71.9999L35.0444 59.3216L57.5498 45.8184V58.9064L35.7309 71.9999Z" fill="#40C4FF"/>
<path fill-rule="evenodd" clip-rule="evenodd" d="M51.067 14.7997L35.7312 24.0011V6.54492L51.067 14.7997Z" fill="url(#paint2_linear_116_23389)"/>
<path fill-rule="evenodd" clip-rule="evenodd" d="M28.4676 37.0878L13.9125 45.8186L13.4087 28.0635L28.4676 37.0878Z" fill="url(#paint3_linear_116_23389)"/>
<path fill-rule="evenodd" clip-rule="evenodd" d="M20.3792 14.7941L35.7315 24.0011V6.54492L20.3792 14.7941Z" fill="url(#paint4_linear_116_23389)"/>
<path fill-rule="evenodd" clip-rule="evenodd" d="M13.9121 45.8197L28.4673 55.5029V37.0889L13.9121 45.8197Z" fill="url(#paint5_linear_116_23389)"/>
<path fill-rule="evenodd" clip-rule="evenodd" d="M13.9122 18.7304L3 13.0889V39.2704L13.9122 45.82V18.7304Z" fill="#304FFE"/>
<path fill-rule="evenodd" clip-rule="evenodd" d="M57.5501 19.632L68.4623 13.088L46.6434 0L35.7312 6.544L57.5501 19.632Z" fill="#80D8FF"/>
<path fill-rule="evenodd" clip-rule="evenodd" d="M35.731 71.9999V58.9064L13.9121 45.8184V58.9064L35.731 71.9999Z" fill="#304FFE"/>
<path fill-rule="evenodd" clip-rule="evenodd" d="M13.9122 19.632L3 13.088L24.8189 0L35.7311 6.544L13.9122 19.632Z" fill="#80D8FF"/>
<defs>
<linearGradient id="paint0_linear_116_23389" x1="50.2417" y1="37.0889" x2="50.2417" y2="55.5139" gradientUnits="userSpaceOnUse">
<stop stop-color="#2979FF"/>
<stop offset="1" stop-color="#304FFE"/>
</linearGradient>
<linearGradient id="paint1_linear_116_23389" x1="59.0674" y1="39.5686" x2="47.7762" y2="32.8001" gradientUnits="userSpaceOnUse">
<stop stop-color="#2979FF"/>
<stop offset="1" stop-color="#40C4FF"/>
</linearGradient>
<linearGradient id="paint2_linear_116_23389" x1="43.415" y1="23.979" x2="43.415" y2="6.52831" gradientUnits="userSpaceOnUse">
<stop stop-color="#40C4FF"/>
<stop offset="1" stop-color="#2979FF"/>
</linearGradient>
<linearGradient id="paint3_linear_116_23389" x1="12.5464" y1="39.8338" x2="23.8376" y2="33.0653" gradientUnits="userSpaceOnUse">
<stop stop-color="#40C4FF"/>
<stop offset="1" stop-color="#80D8FF"/>
</linearGradient>
<linearGradient id="paint4_linear_116_23389" x1="28.0146" y1="23.979" x2="28.0146" y2="6.52831" gradientUnits="userSpaceOnUse">
<stop stop-color="#2979FF"/>
<stop offset="1" stop-color="#304FFE"/>
</linearGradient>
<linearGradient id="paint5_linear_116_23389" x1="21.1871" y1="55.5139" x2="21.1871" y2="37.0889" gradientUnits="userSpaceOnUse">
<stop stop-color="#2979FF"/>
<stop offset="1" stop-color="#40C4FF"/>
</linearGradient>
</defs>
</svg>
