<svg width="72" height="72" viewBox="0 0 72 72" fill="none" xmlns="http://www.w3.org/2000/svg">
<g clip-path="url(#clip0_115_20004)">
<path d="M67.3771 18.0633V36.0421L51.8039 27.0527L36.2307 18.0211L51.8461 9.07387L67.4193 0.0844727L67.3771 18.0633Z" fill="#072B38"/>
<path d="M36.1884 36.0003V53.9791L20.6152 44.9897L5.04199 35.9581L20.6152 27.0109L36.1884 18.0215V36.0003Z" fill="#144556"/>
<path d="M5.04199 17.9788V0L20.6152 8.9894L36.1884 17.9788L20.6152 27.0104L5.04199 35.9576V17.9788Z" fill="#41D9BF"/>
<path d="M5 53.9378L5.04221 35.959L20.6154 44.9906L36.1886 53.98L20.6154 62.9694L5 71.9166V53.9378Z" fill="#072B38"/>
<path d="M51.8039 27.0531L36.2307 18.0215V36.0003V53.9791L51.7617 63.0107L67.3349 72.0001V54.0213L67.3771 36.0425L51.8039 27.0531Z" fill="#41D9BF"/>
</g>
<defs>
<clipPath id="clip0_115_20004">
<rect width="72" height="72" fill="white"/>
</clipPath>
</defs>
</svg>
