<svg width="72" height="72" viewBox="0 0 72 72" fill="none" xmlns="http://www.w3.org/2000/svg">
<path fill-rule="evenodd" clip-rule="evenodd" d="M36 0C55.9 0 72 16.1 72 36C72 55.7 56.2 71.7 36.6 72H36V41.7L31.4 46.3L30.8 57.7L35.6 72C32.8 72 30.1 71.6 27.4 70.9L26.7 70.7L24.4 63.8L17.9 67.1C15.5 65.7 13.3 64.1 11.3 62.2L10.8 61.7L22.9 55.6L23.3 48.7L16.4 49.1L10.3 61.2C8.4 59.2 6.7 57 5.3 54.7L4.9 54.1L8.2 47.6L1.3 45.3C0.6 42.6 0.2 39.9 0.1 37.2V36.5L14.5 41.3L25.9 40.7L30.5 36.1L25.9 31.5L14.5 30.9L0 35.6C0 32.8 0.4 30 1 27.4L1.2 26.7L8.1 24.4L4.8 17.9C6.2 15.5 7.8 13.3 9.7 11.3L10.2 10.8L16.3 22.9L23.2 23.3L22.8 16.4L10.7 10.3C12.7 8.4 14.9 6.7 17.2 5.3L17.8 4.9L24.3 8.2L26.6 1.3C29.3 0.6 32 0.2 34.7 0.1H35.4L30.6 14.4L31.2 25.8L35.8 30.4C36 30.3 36 0 36 0ZM44 9.2V62.9C55.5 59.4 64 48.7 64 36C64 23.5 55.7 12.9 44.4 9.3L44 9.2Z" fill="#FF00AF"/>
</svg>
