<svg width="72" height="72" viewBox="0 0 72 72" fill="none" xmlns="http://www.w3.org/2000/svg">
<path d="M36 72C55.8828 72 72 55.8828 72 36C72 16.1172 55.8828 0 36 0C16.1172 0 0 16.1172 0 36C0 55.8828 16.1172 72 36 72Z" fill="#070A0E"/>
<path fill-rule="evenodd" clip-rule="evenodd" d="M20.7972 48.0712C19.7208 47.4124 19.062 46.2424 19.062 44.9824V37.948C19.062 37.1128 19.7424 36.436 20.5776 36.4396C20.844 36.4396 21.1068 36.5116 21.3372 36.6448L37.2096 45.9004C38.1384 46.4404 38.7108 47.434 38.7108 48.5104V55.7968C38.7144 56.7976 37.9044 57.6112 36.9036 57.6112C36.5688 57.6112 36.2376 57.5176 35.9532 57.3448L20.7972 48.0712ZM44.4564 34.7188C45.3852 35.2588 45.954 36.256 45.9576 37.3288V52.1176C45.9576 52.5532 45.7236 52.9564 45.342 53.1688L41.868 55.1236C41.8248 55.1488 41.778 55.1668 41.7276 55.1812V46.9696C41.7276 45.9076 41.1696 44.9212 40.2552 44.374L26.316 36.0364V26.7664C26.316 25.9312 26.9964 25.2544 27.8316 25.258C28.098 25.258 28.3608 25.33 28.5912 25.4632L44.4564 34.7188ZM51.4044 23.7964C52.3368 24.3364 52.9092 25.3336 52.9092 26.41V48.01C52.9056 48.4528 52.6608 48.8596 52.272 49.072L48.978 50.8504V35.8132C48.978 34.7512 48.42 33.7684 47.5128 33.2212L33.264 24.6748V15.8836C33.264 15.6172 33.336 15.3544 33.4656 15.124C33.8868 14.404 34.812 14.1592 35.532 14.5768L51.4044 23.7964Z" fill="#00D395"/>
</svg>
