<svg width="72" height="72" viewBox="0 0 72 72" fill="none" xmlns="http://www.w3.org/2000/svg">
<rect width="72" height="72" rx="36" fill="white"/>
<path fill-rule="evenodd" clip-rule="evenodd" d="M13.1963 28.0286C12.6417 28.0828 12.2519 28.2103 11.5475 28.5678C11.2844 28.7014 10.6181 29.3613 10.4468 29.6581C10.0666 30.3165 9.94183 31.2904 10.1508 31.9688C10.3886 32.7409 11.0339 33.479 12.0085 34.0938C12.2942 34.274 12.598 34.4667 12.6836 34.522C12.7691 34.5772 12.9326 34.6729 13.0468 34.7345C13.1609 34.7962 13.3459 34.8966 13.4578 34.9575C13.5697 35.0185 13.7461 35.1144 13.8501 35.1707C14.2603 35.3931 14.7543 35.711 15.1174 35.9864C15.4193 36.2152 15.54 36.3544 15.6973 36.6555C16.0423 37.3153 16.0029 38.1271 15.6003 38.6505C15.2107 39.1572 14.8161 39.3808 14.0587 39.5241C13.5754 39.6155 13.5349 39.6149 12.819 39.5039C12.0681 39.3875 11.2408 39.1532 10.4826 38.842C10.2526 38.7477 10.05 38.6705 10.0323 38.6705C10.0145 38.6705 10 39.0403 10 39.4923V40.3141L10.4213 40.4088C10.6531 40.4609 11.0257 40.5379 11.2495 40.58C11.4732 40.6221 11.6955 40.6708 11.7434 40.6882C11.9389 40.7593 13.2676 40.8126 13.8733 40.7737C14.5213 40.7321 14.615 40.7125 15.3755 40.4601C16.4005 40.12 17.2783 39.2888 17.5888 38.3644C17.6758 38.1055 17.7001 37.8697 17.7001 37.285C17.7001 36.5844 17.6894 36.5124 17.5309 36.1501C17.2691 35.5513 16.9554 35.1745 16.3034 34.6755C15.7425 34.2463 15.5251 34.1114 14.2258 33.3873C12.4425 32.3934 11.9767 31.9913 11.7812 31.2774C11.7009 30.9841 11.7009 30.9183 11.7819 30.6167C11.8315 30.4325 11.9326 30.1902 12.0066 30.0783C12.2813 29.6634 12.9373 29.3267 13.6768 29.2209C14.0679 29.165 15.4434 29.4132 16.0148 29.6428C16.3502 29.7775 16.7824 29.9146 16.872 29.9146C16.9637 29.9146 16.9737 29.8427 16.9737 29.1797V28.4447L16.6105 28.3464C15.5994 28.0728 14.1367 27.9366 13.1963 28.0286ZM18.8333 28.8888V29.5254L21.1143 29.5399L23.3953 29.5544L23.4101 35.0545L23.4249 40.5546H24.2963H25.1678V35.0407V29.5267H27.4342H29.7007V28.8894V28.2521H24.267H18.8333V28.8888ZM34.9675 28.7175C34.8515 28.975 34.7566 29.2129 34.7566 29.2461C34.7566 29.2794 34.7311 29.3499 34.6999 29.4028C34.6688 29.4557 34.5761 29.6611 34.4939 29.8592C34.4118 30.0573 34.3203 30.2693 34.2907 30.3303C34.2611 30.3912 34.1162 30.7403 33.9686 31.1061C33.5432 32.1607 33.4124 32.4755 33.2962 32.724C33.2364 32.8518 33.1875 32.9937 33.1875 33.0394C33.1875 33.085 33.1643 33.1359 33.1358 33.1527C33.1074 33.1695 33.0663 33.2511 33.0444 33.3342C33.0226 33.4172 32.9578 33.5858 32.9005 33.7087C32.8432 33.8317 32.7481 34.057 32.6891 34.2094C32.6301 34.3618 32.5482 34.5488 32.5073 34.625C32.4662 34.7012 32.4326 34.7848 32.4324 34.8106C32.4322 34.8365 32.3944 34.9363 32.3484 35.0323C32.3024 35.1283 32.1177 35.5685 31.938 36.0105C31.7582 36.4524 31.5881 36.8639 31.5598 36.9248C31.5315 36.9858 31.4571 37.1604 31.3943 37.3127C31.3316 37.4651 31.1829 37.8267 31.0638 38.1163C30.9446 38.4058 30.8137 38.7176 30.7727 38.809C30.7317 38.9004 30.6017 39.2122 30.4837 39.5017C30.3658 39.7913 30.2202 40.1466 30.1602 40.2914L30.051 40.5546H30.8566H31.6622L31.7887 40.2637C31.8583 40.1037 31.9389 39.9229 31.9677 39.8619C31.9967 39.801 32.2195 39.2648 32.4629 38.6705C33.0755 37.1751 33.1043 37.119 33.2604 37.1176C33.3322 37.1169 34.5526 37.1159 35.9725 37.1153C38.0089 37.1145 38.5686 37.1293 38.6225 37.1858C38.6601 37.2251 38.7514 37.4194 38.8253 37.6175C38.8992 37.8157 38.9777 38.0027 38.9997 38.0332C39.0217 38.0636 39.1144 38.2881 39.2057 38.5319C39.297 38.7757 39.4054 39.0376 39.4465 39.1138C39.4876 39.19 39.5214 39.2918 39.5216 39.3401C39.5218 39.3883 39.5399 39.445 39.5619 39.4659C39.5839 39.4869 39.6967 39.7342 39.8126 40.0155L40.0234 40.5269L40.964 40.5422C41.9739 40.5585 41.9797 40.5567 41.8292 40.2775C41.7881 40.2013 41.6797 39.9395 41.5884 39.6957C41.4971 39.4518 41.4044 39.2274 41.3823 39.1969C41.3604 39.1664 41.282 38.9794 41.2082 38.7813C41.1344 38.5832 41.041 38.3463 41.0008 38.2548C40.9605 38.1634 40.8172 37.8143 40.6824 37.479C40.5475 37.1437 40.415 36.8195 40.3881 36.7586C40.361 36.6976 40.1922 36.2862 40.0128 35.8442C39.8334 35.4023 39.6534 34.9659 39.6128 34.8744C39.5721 34.783 39.4785 34.5461 39.4047 34.348C39.3309 34.1498 39.2531 33.9628 39.2317 33.9323C39.2103 33.9019 39.1331 33.7148 39.06 33.5167C38.9869 33.3186 38.8825 33.0568 38.828 32.9348C38.6912 32.6288 38.5669 32.3328 38.3977 31.9096C38.3184 31.7115 38.1572 31.3125 38.0394 31.023C37.9216 30.7334 37.7094 30.2097 37.5678 29.8592C37.4262 29.5087 37.2851 29.172 37.2544 29.1111C37.2236 29.0501 37.1356 28.8382 37.0588 28.64L36.9191 28.2798L36.0487 28.2646L35.1784 28.2493L34.9675 28.7175ZM43.8805 34.4034V40.5546H44.6941H45.5077V37.4513C45.5077 35.3993 45.5276 34.348 45.5664 34.348C45.5986 34.348 45.6706 34.4015 45.7262 34.4669C45.7818 34.5323 46.0496 34.8289 46.3213 35.126C46.593 35.423 47.1029 35.9854 47.4545 36.3757C47.8061 36.7659 48.2986 37.311 48.549 37.5869C48.7994 37.8628 49.1132 38.2106 49.2464 38.3597C49.3795 38.5089 49.6739 38.8331 49.9006 39.0802C50.1273 39.3273 50.3627 39.5887 50.4237 39.6611C50.4846 39.7335 50.6906 39.9642 50.8814 40.1737L51.2283 40.5546H52.2907C53.0544 40.5546 53.3531 40.5367 53.3531 40.4907C53.3531 40.4555 53.2288 40.2977 53.077 40.1399C52.9252 39.9821 52.461 39.4826 52.0455 39.0301C51.63 38.5775 51.0676 37.9685 50.7956 37.6768C50.5237 37.3852 50.1326 36.9595 49.9263 36.7309C49.7201 36.5023 49.4195 36.1781 49.2584 36.0105C49.0973 35.8428 48.8216 35.546 48.6458 35.3507C48.47 35.1555 48.1497 34.8065 47.9339 34.5751C47.7182 34.3436 47.5417 34.1379 47.5417 34.1179C47.5417 34.0978 47.6266 33.9823 47.7305 33.8613C47.8344 33.7403 48.0109 33.5332 48.1228 33.4012C48.2347 33.2691 48.4177 33.057 48.5296 32.9299C48.6415 32.8027 48.8115 32.6048 48.9073 32.49C49.0032 32.3752 49.2386 32.1 49.4304 31.8785C49.6222 31.657 49.9752 31.2471 50.2149 30.9675C50.4546 30.688 50.8077 30.2781 50.9995 30.0566C51.1912 29.8351 51.4266 29.5599 51.5225 29.4451C51.6184 29.3304 51.8734 29.0383 52.0891 28.7962C52.3048 28.554 52.4814 28.3326 52.4814 28.304C52.4814 28.2742 52.1255 28.2521 51.6438 28.2521H50.8061L50.5044 28.5985C50.3385 28.789 50.1163 29.0446 50.0108 29.1665C49.9052 29.2884 49.6529 29.5779 49.4502 29.8099C49.2475 30.0418 48.8856 30.4635 48.6458 30.7469C48.4061 31.0304 48.0531 31.4425 47.8613 31.6629C47.6695 31.8831 47.2511 32.3684 46.9315 32.7411C46.0492 33.77 45.6215 34.2371 45.5618 34.2371C45.5291 34.2371 45.5077 33.0549 45.5077 31.2446V28.2521H44.6941H43.8805V34.4034ZM55.5176 34.3895L55.5323 40.5269L59.2662 40.5412L63 40.5555V39.9183V39.2811L60.1379 39.2667L57.2758 39.2523V37.0357V34.819L59.4977 34.8045L61.7196 34.79L61.7522 34.6659C61.7701 34.5977 61.777 34.3175 61.7676 34.0432L61.7506 33.5444L59.5132 33.5167L57.2758 33.489V31.5217V29.5544L59.9635 29.54L62.6513 29.5256V28.8889V28.2521H59.0771H55.5028L55.5176 34.3895ZM36.1379 31.2031C36.3556 31.7208 36.8071 32.8118 37.6857 34.9429C37.8646 35.3768 38.011 35.7571 38.011 35.788C38.011 35.825 37.2737 35.8442 35.8545 35.8442H33.6979L33.7378 35.6918C33.7598 35.608 33.8657 35.3399 33.9733 35.0961C34.0809 34.8523 34.4465 33.9794 34.7859 33.1565C35.7342 30.8571 35.8292 30.6352 35.8654 30.6351C35.8839 30.6351 36.0066 30.8907 36.1379 31.2031ZM24.7321 46.1354C24.4445 46.1803 24.1961 46.2354 24.18 46.2577C24.164 46.28 24.105 46.3145 24.049 46.3341C23.8394 46.4078 23.4458 46.7345 23.2878 46.9659C23.1263 47.2023 23.036 47.4075 22.9027 47.8419C22.8266 48.0898 22.8506 49.0904 22.9414 49.4518C23.0922 50.0527 23.6194 50.6403 24.2118 50.8679C24.5103 50.9825 24.653 51.0005 25.2549 51C25.7705 50.9995 26.0281 50.9739 26.2429 50.9017C26.7683 50.7253 26.795 50.703 26.795 50.4388C26.795 50.1754 26.8084 50.1777 26.3587 50.3668C26.0056 50.5153 25.3281 50.589 24.9423 50.521C24.4635 50.4366 24.1533 50.2387 23.8868 49.8475C23.6023 49.4302 23.5689 49.2812 23.5727 48.4515C23.5755 47.8558 23.5914 47.7547 23.7258 47.4817C23.9019 47.124 24.0684 46.9422 24.4185 46.7254C24.6583 46.5769 24.7108 46.5674 25.284 46.568C25.699 46.5684 25.9778 46.5974 26.1557 46.6585C26.2995 46.708 26.5022 46.7658 26.6061 46.7869L26.795 46.8255V46.55C26.795 46.2291 26.8275 46.245 25.9814 46.151C25.6777 46.1172 25.3901 46.0815 25.3421 46.0716C25.2942 46.0618 25.0197 46.0904 24.7321 46.1354ZM29.2074 46.4078C29.1591 46.5182 29.1195 46.6194 29.1195 46.6325C29.1195 46.6457 29.071 46.7612 29.0117 46.889C28.9524 47.0169 28.8439 47.2711 28.7706 47.454C28.6973 47.6369 28.6049 47.8613 28.5654 47.9527C28.5259 48.0442 28.3981 48.3559 28.2814 48.6454C28.1647 48.935 28.0454 49.2218 28.0163 49.2827C27.9645 49.3914 27.8717 49.6137 27.6 50.2802C27.5254 50.4631 27.4318 50.6751 27.3919 50.7513C27.3237 50.8818 27.3301 50.8925 27.5021 50.9352C27.8004 51.0093 27.9173 50.9481 28.0353 50.6562C28.2762 50.0603 28.3735 49.8306 28.4358 49.7111C28.5007 49.5861 28.5093 49.5853 29.5701 49.6002L30.6389 49.6152L30.7447 49.8646C30.803 50.0018 30.9071 50.2511 30.9761 50.4188C31.1934 50.9465 31.1949 50.9482 31.4618 50.9591C31.8821 50.9764 31.9026 50.93 31.6926 50.4357C31.5915 50.1978 31.3922 49.7164 31.2496 49.3659C31.1071 49.0154 30.8941 48.4917 30.7764 48.2021C30.5792 47.7173 30.4975 47.5156 30.1485 46.6504C29.9751 46.2205 29.9587 46.2071 29.6072 46.2071C29.3038 46.2071 29.293 46.2125 29.2074 46.4078ZM32.691 46.2764C32.6757 46.3145 32.67 47.3806 32.6784 48.6455L32.6935 50.9452L32.955 50.9455C33.0989 50.9456 33.2493 50.9238 33.2892 50.8971C33.3423 50.8617 33.3618 50.6051 33.3618 49.9457V49.0428L33.8122 49.0095C34.2651 48.976 34.8312 48.8381 34.9559 48.7308C34.9928 48.6991 35.0742 48.6459 35.1368 48.6126C35.4806 48.4295 35.7363 47.7071 35.6522 47.156C35.5793 46.6773 35.4138 46.4862 34.9246 46.3157C34.6627 46.2245 34.4618 46.2071 33.666 46.2071C32.9617 46.2071 32.7118 46.2249 32.691 46.2764ZM36.5 48.5903V50.9735L36.8051 50.9544L37.1102 50.9354L37.1254 48.5712L37.1405 46.2071H36.8203H36.5V48.5903ZM37.8947 46.4273V46.6476L38.781 46.6629L39.6672 46.6782L39.6824 48.7812C39.6988 51.031 39.6901 50.9704 39.9966 50.9721C40.356 50.9741 40.3355 51.1063 40.3355 48.7796V46.6534L41.1927 46.6381L42.0499 46.6227L42.0679 46.4149L42.086 46.2071H39.9903H37.8947V46.4273ZM44.2115 46.2764C44.1949 46.3145 44.0874 46.5701 43.9726 46.8444C43.8578 47.1187 43.7378 47.3864 43.7059 47.4394C43.6741 47.4923 43.648 47.5623 43.648 47.5948C43.648 47.6274 43.5989 47.7587 43.5389 47.8865C43.4789 48.0144 43.3342 48.3559 43.2172 48.6454C43.1002 48.935 42.981 49.2218 42.9523 49.2827C42.7905 49.6261 42.6601 49.9409 42.6601 49.988C42.6601 50.0176 42.623 50.1204 42.5777 50.2165C42.335 50.7307 42.2654 50.9181 42.308 50.9432C42.3589 50.9732 42.828 50.9455 42.8554 50.9109C42.8926 50.864 43.0669 50.4826 43.0669 50.4481C43.0669 50.4278 43.1478 50.2258 43.2466 49.9993L43.4264 49.5875H44.4946H45.5629L45.6731 49.8231C45.7337 49.9526 45.8364 50.1957 45.9012 50.3634C46.1258 50.9443 46.1319 50.9517 46.3984 50.963C46.7954 50.98 46.8263 50.9295 46.6696 50.521C46.5955 50.3276 46.5173 50.1445 46.496 50.114C46.4746 50.0835 46.3835 49.8591 46.2933 49.6152C46.2032 49.3714 46.1116 49.147 46.0896 49.1165C46.0676 49.086 45.9893 48.899 45.9155 48.7009C45.8417 48.5027 45.7486 48.2658 45.7085 48.1744C45.6309 47.9969 45.2847 47.1534 45.083 46.6504C44.9111 46.2217 44.8936 46.2071 44.5479 46.2071C44.3577 46.2071 44.2302 46.2334 44.2115 46.2764ZM47.6276 46.2735C47.6115 46.3132 47.6053 47.3797 47.6137 48.6435L47.6288 50.9411L48.866 50.9628C49.5464 50.9747 50.1936 50.9683 50.3043 50.9485C50.4935 50.9146 50.5055 50.8995 50.5055 50.6934V50.4742H49.402H48.2985L48.2833 48.3545L48.2681 46.2348L47.9624 46.218C47.7513 46.2065 47.6476 46.2237 47.6276 46.2735ZM34.5505 46.7843C35.0915 46.9999 35.1255 47.8196 34.6112 48.2502C34.3964 48.43 33.928 48.557 33.5943 48.5259L33.3909 48.5069L33.3749 47.6064L33.3589 46.7059H33.8562C34.1538 46.7059 34.4326 46.7374 34.5505 46.7843ZM29.6631 47.2739C29.6812 47.3424 29.852 47.7719 30.0425 48.2283C30.2331 48.6846 30.3763 49.0774 30.361 49.1011C30.3251 49.1564 28.7864 49.1579 28.7514 49.1026C28.737 49.0797 28.8785 48.6995 29.0659 48.2575C29.2534 47.8156 29.4323 47.3854 29.4635 47.3016C29.5323 47.1169 29.6182 47.105 29.6631 47.2739ZM44.7201 47.5793C44.8144 47.8152 44.9887 48.2446 45.1076 48.5335C45.2264 48.8224 45.3112 49.0781 45.296 49.1015C45.2637 49.1514 43.7423 49.1602 43.6905 49.1108C43.6713 49.0925 43.6924 48.999 43.7374 48.903C43.81 48.748 44.3269 47.4958 44.4213 47.2462C44.4859 47.0753 44.545 47.1411 44.7201 47.5793Z" fill="black"/>
</svg>
