<svg width="72" height="72" viewBox="0 0 72 72" fill="none" xmlns="http://www.w3.org/2000/svg">
<path d="M36 72C55.8823 72 72 55.8823 72 36C72 16.1177 55.8823 0 36 0C16.1177 0 0 16.1177 0 36C0 55.8823 16.1177 72 36 72Z" fill="#000D2B"/>
<path d="M35.82 13.2305L25.6545 19.1862L35.82 25.1442L46.1768 19.1862L35.82 13.2305ZM37.4918 45.032V56.9457L51.3 49.0685V37.1525L37.4918 45.032ZM47.8485 22.9325V34.8485L37.4895 40.8065V28.8905L47.8485 22.9325ZM22.914 34.8485L33.273 40.8065V28.8905L22.914 22.9325V34.8485ZM22.914 50.99L33.273 56.9457V45.032L22.914 39.0762V50.9877V50.99Z" fill="white"/>
</svg>
