<svg width="72" height="72" viewBox="0 0 72 72" fill="none" xmlns="http://www.w3.org/2000/svg">
<g clip-path="url(#clip0_364_5162)">
<path d="M36.5 59.3194C25.6821 59.3194 16.8972 50.4431 16.8972 39.5125C16.8972 28.8862 34.6426 10.119 35.3956 9.33283L36.3243 8.34375L37.2781 9.30747C38.0562 10.0937 56.1028 28.8608 56.1028 39.4871C56.1028 50.4431 47.3179 59.3194 36.5 59.3194ZM36.3494 12.1733C34.7932 13.8725 31.5303 17.5498 28.2924 21.8612C22.5446 29.5202 19.5076 35.6069 19.5076 39.4871C19.5076 48.9468 27.1379 56.6565 36.5 56.6565C45.8622 56.6565 53.4924 48.9468 53.4924 39.4871C53.4924 35.6069 50.4052 29.5202 44.557 21.8612C41.2689 17.5752 37.9307 13.8725 36.3494 12.1733Z" fill="url(#paint0_linear_364_5162)"/>
<path d="M36.5 65.6593C22.2183 65.6593 10.6223 53.9171 10.6223 39.5121C10.6223 25.4113 30.0996 5.73114 30.9279 4.91959C31.4299 4.41237 32.2833 4.41237 32.7853 4.91959C33.2873 5.42681 33.2873 6.28909 32.7853 6.79631C32.5845 6.99919 13.2578 26.5272 13.2578 39.5121C13.2578 52.4715 23.6992 63.0217 36.5251 63.0217C49.351 63.0217 59.7924 52.4715 59.7924 39.5121C59.7924 34.1862 56.3789 26.8315 49.9032 18.1834C44.9335 11.5642 39.9387 6.5427 39.8885 6.49197C39.3614 5.98475 39.3614 5.14784 39.8885 4.61526C40.3904 4.08267 41.2187 4.08267 41.7458 4.61526C42.5992 5.45217 62.4279 25.386 62.4279 39.5121C62.3777 53.9171 50.7817 65.6593 36.5 65.6593Z" fill="url(#paint1_linear_364_5162)"/>
<path d="M36.5 71.9998C19.1311 71.9998 5 57.7216 5 40.1717C5 32.9185 8.61434 23.9914 15.7175 13.6694C20.9633 6.06111 26.1088 0.633844 26.3347 0.405594C26.8367 -0.126988 27.6649 -0.126988 28.192 0.380233C28.7191 0.887454 28.7191 1.72437 28.2171 2.25695C28.1669 2.30767 22.9713 7.78566 17.851 15.2164C11.1494 24.9297 7.61036 33.5525 7.61036 40.1717C7.61036 56.2506 20.5618 69.3623 36.5 69.3623C52.4382 69.3623 65.3896 56.276 65.3896 40.1717C65.3896 33.5525 61.8255 24.9297 55.0737 15.2164C49.9032 7.78566 44.6574 2.30767 44.6072 2.25695C44.1052 1.72437 44.1052 0.887454 44.6323 0.380233C45.1594 -0.126988 45.9877 -0.126988 46.4896 0.405594C47.3681 1.31859 68 22.9769 68 40.1717C68 57.7216 53.8689 71.9998 36.5 71.9998Z" fill="url(#paint2_linear_364_5162)"/>
</g>
<defs>
<linearGradient id="paint0_linear_364_5162" x1="36.5" y1="59.3163" x2="36.5" y2="8.34063" gradientUnits="userSpaceOnUse">
<stop stop-color="#05AAC5"/>
<stop offset="1" stop-color="#71E0EC"/>
</linearGradient>
<linearGradient id="paint1_linear_364_5162" x1="36.5251" y1="65.6562" x2="36.5251" y2="4.21273" gradientUnits="userSpaceOnUse">
<stop stop-color="#05AAC5"/>
<stop offset="1" stop-color="#71E0EC"/>
</linearGradient>
<linearGradient id="paint2_linear_364_5162" x1="36.5" y1="71.9967" x2="36.5" y2="-0.000181542" gradientUnits="userSpaceOnUse">
<stop stop-color="#05AAC5"/>
<stop offset="1" stop-color="#71E0EC"/>
</linearGradient>
<clipPath id="clip0_364_5162">
<rect width="63" height="72" fill="white" transform="translate(5)"/>
</clipPath>
</defs>
</svg>
