<svg width="72" height="72" viewBox="0 0 72 72" fill="none" xmlns="http://www.w3.org/2000/svg">
<g clip-path="url(#clip0_364_5126)">
<path d="M0 36C0 43.1201 2.11136 50.0803 6.0671 56.0005C10.0228 61.9207 15.6453 66.535 22.2234 69.2597C28.8016 71.9845 36.0398 72.6973 43.0231 71.3083C50.0065 69.9192 56.4212 66.4904 61.4558 61.4558C66.4904 56.4212 69.9192 50.0065 71.3083 43.0231C72.6973 36.0398 71.9845 28.8016 69.2597 22.2234C66.535 15.6453 61.9207 10.0228 56.0005 6.0671C50.0803 2.11136 43.1201 0 36 0C26.4521 0 17.2955 3.79285 10.5442 10.5442C3.79285 17.2955 0 26.4521 0 36Z" fill="#121122"/>
<path fill-rule="evenodd" clip-rule="evenodd" d="M10.8619 26.8782C10.4219 29.71 10.9399 32.624 11.4779 35.4241C11.6853 35.8714 12.1395 36.1727 12.6994 36.3655C11.5511 38.7897 10.9198 41.433 10.9198 44.2C10.9198 55.918 22.2638 65.4261 36.2558 65.4261C50.2479 65.4261 61.5998 55.9401 61.5998 44.2C61.5998 41.4039 60.9559 38.7348 59.7854 36.2908C60.2537 36.0978 60.6271 35.8174 60.8101 35.4241C61.348 32.624 61.864 29.71 61.4241 26.8782C61.0121 23.0781 59.708 21.9181 55.7921 22.8921C53.8 23.3547 51.1742 24.5305 49.1551 25.9136C45.3757 24.0382 40.9653 22.962 36.2558 22.962C31.4923 22.962 27.0358 24.0641 23.229 25.9806C21.1979 24.5685 18.5186 23.3621 16.4959 22.8921C12.5779 21.9181 11.2759 23.0781 10.8619 26.8782ZM25.6138 43.6321C22.6438 42.3222 17.5678 42.654 17.5678 42.654C17.5678 42.654 17.8058 47.4321 20.7198 49.0542C24.1758 50.9761 30.6018 50.0241 30.6018 50.0241C30.6018 50.0241 30.0557 45.5802 25.6138 43.6222V43.6321ZM42.1157 50.032C42.1157 50.032 48.5417 50.9842 51.9977 49.062C54.9117 47.44 55.1497 42.6621 55.1497 42.6621C55.1497 42.6621 50.0737 42.33 47.1037 43.6402C42.6618 45.5802 42.1157 50.014 42.1157 50.014V50.032ZM34.9877 53.4C34.9877 53.7522 35.6418 54.0381 36.4477 54.0381C37.2537 54.0381 37.9078 53.7522 37.9078 53.4C37.9078 53.0481 37.2537 52.7642 36.4477 52.7642C35.6418 52.7642 34.9877 53.038 34.9877 53.4Z" fill="#F2F4F8"/>
<path fill-rule="evenodd" clip-rule="evenodd" d="M65.1301 50.4577C62.7586 49.5419 60.2399 49.0676 57.6979 49.0577H57.7019C57.058 49.0577 57.058 48.0576 57.7019 48.0576C60.3342 48.0662 62.9431 48.5549 65.4001 49.4996C65.5243 49.5377 65.6293 49.622 65.6937 49.735C65.758 49.8479 65.7767 49.9814 65.7459 50.1076C65.7099 50.2354 65.6251 50.3436 65.5099 50.4091C65.3944 50.4746 65.2581 50.4921 65.1301 50.4577ZM7.27805 49.5217C9.73577 48.5771 12.3451 48.0884 14.978 48.0797V48.0855C15.6221 48.0855 15.6201 49.0856 14.978 49.0856C12.4354 49.0946 9.91581 49.5692 7.54404 50.4856C7.41626 50.5193 7.28027 50.5018 7.16543 50.4363C7.05057 50.3708 6.96604 50.2628 6.93006 50.1355C6.89822 50.0081 6.91658 49.8734 6.98136 49.7591C7.04614 49.6448 7.15236 49.5597 7.27805 49.5217ZM12.3761 52.3875C13.606 51.996 14.8854 51.7814 16.1757 51.7496C16.8161 51.7532 16.8149 52.7495 16.1721 52.7495C14.9952 52.7804 13.8285 52.9763 12.7061 53.3316C11.6621 53.6376 10.4681 54.0696 9.70613 54.7757C9.23413 55.2135 8.52612 54.5077 9.00013 54.0696C9.92612 53.2137 11.2001 52.7417 12.3761 52.3875ZM16.1757 51.7496H16.1761H16.1721H16.1757ZM17.316 54.2476C16.3131 54.6769 15.3489 55.1915 14.434 55.7857C13.5099 56.3552 12.6968 57.0878 12.034 57.9475C11.9675 58.062 11.9489 58.1981 11.9823 58.3262C12.0156 58.4544 12.0982 58.564 12.212 58.6315C12.3274 58.6956 12.4629 58.7129 12.5906 58.6796C12.7183 58.6465 12.8284 58.5656 12.898 58.4535C13.46 57.6775 14.266 57.0756 15.064 56.5615C15.9399 56.0057 16.8589 55.5209 17.812 55.1116C17.9258 55.0441 18.0085 54.9345 18.0422 54.8065C18.0758 54.6785 18.0578 54.5423 17.992 54.4276C17.9227 54.3158 17.8132 54.2348 17.6859 54.2012C17.5587 54.1677 17.4234 54.1844 17.308 54.2476H17.316ZM56.5002 52.7295C57.6772 52.759 58.844 52.9541 59.9661 53.3096C60.5461 53.4745 61.1125 53.6837 61.6601 53.9355C62.1328 54.1423 62.5716 54.4186 62.9622 54.7556C63.4342 55.1917 64.1421 54.4877 63.6703 54.0476C62.7502 53.1937 61.4842 52.7196 60.3002 52.3657C59.0701 51.974 57.7906 51.76 56.5002 51.7296C55.8562 51.7296 55.8542 52.7295 56.5002 52.7295ZM57.6043 56.5316C56.7391 55.9967 55.8346 55.5287 54.8982 55.1316V55.1217C54.7848 55.0538 54.7024 54.9442 54.6689 54.8164C54.6352 54.6886 54.6529 54.5525 54.7182 54.4377C54.7886 54.3263 54.8986 54.246 55.026 54.2129C55.1533 54.1799 55.2886 54.1965 55.4042 54.2597C57.3523 55.1096 59.4022 56.2017 60.6762 57.9596C60.7421 58.0742 60.7606 58.2101 60.7273 58.3381C60.694 58.4661 60.6116 58.5757 60.4982 58.6436C60.383 58.7073 60.2476 58.7242 60.1202 58.6907C59.9926 58.6571 59.8831 58.5759 59.8142 58.4636C59.2382 57.6696 58.4242 57.0536 57.6043 56.5316Z" fill="#F2F4F8"/>
<path d="M3.47799 37.9716C3.93999 37.2516 7.99998 35.0857 13.024 33.7996C14.1083 30.7203 15.4463 27.7359 17.024 24.8777C17.004 24.8777 21.042 17.6297 21.024 17.6257C19.866 17.0987 18.7542 16.4759 17.7 15.7637C17.5215 15.6264 17.3597 15.4687 17.218 15.2937C17.111 15.1171 17.0556 14.9141 17.058 14.7077C17.058 14.5397 17.296 14.2397 17.402 14.1077C17.6725 13.7896 17.971 13.4964 18.294 13.2317C19.0639 12.6013 19.8728 12.0201 20.716 11.4917C21.116 11.2277 21.532 10.9697 21.942 10.7097C24.822 8.87569 26.3999 7.4957 29.0381 5.9797C31.5581 4.53571 32.7821 3.6457 35.7039 3.79571C39.3759 3.79571 48.5039 15.4237 52.6201 21.4157C55.0879 25.0156 58.3999 31.4977 59.6201 33.9358C59.9119 34.0098 60.176 34.0798 60.4199 34.1518C64.1639 35.2756 67.8359 36.9238 68.7339 37.9716C69.534 38.9038 66.038 39.3198 62.5919 39.9196C59.146 40.5197 47.4559 40.8176 36.2221 40.8937C24.9881 40.9697 11.876 40.5937 9.02199 40.1437C6.16798 39.6937 2.904 38.8698 3.47799 37.9716Z" fill="#6665DD"/>
<path d="M56.4878 27.9282C56.4878 27.9282 49.0878 26.0742 36.05 26.0742C22.0499 26.0742 15.3079 28.2342 15.3079 28.2342C15.3079 28.2342 14.5079 29.7541 14.1599 30.6341C13.8119 31.514 13.0239 33.8 13.0239 33.8C13.0239 33.8 23.2099 31.9762 36.2459 31.9762C44.0955 32.0086 51.93 32.6708 59.6738 33.9562C59.6738 33.9562 58.4919 31.19 57.7838 30.0101C57.0757 28.83 56.4878 27.9282 56.4878 27.9282Z" fill="#FF99A5"/>
<path d="M12.446 12.2856C13.294 12.1616 14.446 14.7576 14.446 14.7576C14.446 14.7576 17.114 14.0396 17.53 14.7576C17.946 15.4756 15.654 17.1996 15.654 17.1996C15.654 17.1996 17.038 19.6336 16.6 20.1396C16.162 20.6456 13.694 19.1096 13.694 19.1096C13.694 19.1096 11.812 21.2296 11.198 20.9096C10.584 20.5896 11.28 17.8276 11.28 17.8276C11.28 17.8276 8.61797 16.6956 8.79997 16.0236C8.98195 15.3516 11.756 15.1476 11.756 15.1476C11.756 15.1476 11.6 12.4096 12.446 12.2856Z" fill="#FFE600"/>
</g>
<defs>
<clipPath id="clip0_364_5126">
<rect width="72" height="72" fill="white"/>
</clipPath>
</defs>
</svg>
