<svg width="72" height="72" viewBox="0 0 72 72" fill="none" xmlns="http://www.w3.org/2000/svg">
<path d="M67.6263 25.4512C73.4285 31.256 73.4725 40.623 67.6703 46.4718L67.6263 46.5158L46.5714 67.6243C40.7692 73.4292 31.4066 73.4731 25.5605 67.6683L25.5165 67.6243L4.37368 46.5597C-1.42851 40.7549 -1.47246 31.388 4.32972 25.5391L4.37368 25.4952L25.4286 4.38662C31.2747 -1.46221 40.6813 -1.46221 46.5275 4.38662L67.6263 25.4512ZM51.8461 41.2826C54.7472 38.3802 54.7472 33.6308 51.8461 30.7283L41.2967 20.1741C38.3956 17.2716 33.6484 17.2716 30.7473 20.1741L20.1978 30.7283C17.2967 33.6308 17.2967 38.3802 20.1978 41.2826L30.7473 51.8369C33.6484 54.7393 38.3956 54.7393 41.2967 51.8369L51.8461 41.2826Z" fill="#004BEF"/>
</svg>
