<svg width="72" height="72" viewBox="0 0 72 72" fill="none" xmlns="http://www.w3.org/2000/svg">
<g clip-path="url(#clip0_116_23361)">
<path d="M54.0311 29.823C54.996 29.823 55.7781 29.0409 55.7781 28.0761C55.7781 27.1112 54.996 26.3291 54.0311 26.3291C53.0663 26.3291 52.2842 27.1112 52.2842 28.0761C52.2842 29.0409 53.0663 29.823 54.0311 29.823Z" fill="#262761"/>
<path d="M36.0624 0C16.0971 0 0 16.0971 0 36.0624C0 56.0277 16.0971 72.1248 36.0624 72.1248C56.0277 72.1248 72.1248 56.0277 72.1248 36.0624C72.1248 16.0971 55.9029 0 36.0624 0ZM52.409 51.0364C48.1664 55.7782 42.052 58.3986 35.8128 58.3986C29.4489 58.3986 23.3345 55.6534 19.0919 50.9116C14.7244 46.0451 12.8527 39.9307 13.4766 33.4419C14.5997 23.0849 22.8354 14.8492 33.1924 13.6014C34.0659 13.4766 34.9393 13.4766 35.8128 13.4766C40.8042 13.4766 45.5459 15.0988 49.539 18.2184C49.7886 18.3432 49.9133 18.7175 49.9133 18.9671C49.9133 19.3414 49.7886 19.591 49.539 19.8406L47.1681 21.9619C46.9185 22.2114 46.5442 22.3362 46.1698 22.3362C45.9203 22.3362 45.5459 22.2114 45.4211 22.0867C42.5511 20.0901 39.182 19.0919 35.8128 19.0919C30.9463 19.0919 26.3293 21.2132 23.2097 24.8319C19.9653 28.4506 18.4679 33.1924 19.0919 38.0589C19.9653 45.7955 26.2045 52.0347 33.9411 52.9081C34.565 53.0329 35.1889 53.0329 35.9376 53.0329C40.4298 53.0329 44.6724 51.286 47.9168 48.0416C48.1664 47.792 48.5407 47.6672 48.9151 47.6672C49.1646 47.6672 49.4142 47.792 49.6638 47.9168L52.2842 49.6638C52.5338 49.7886 52.6586 50.0381 52.7834 50.4125C52.6586 50.5373 52.5338 50.7868 52.409 51.0364ZM54.0312 33.5667C51.0364 33.5667 48.5407 31.0711 48.5407 28.0763C48.5407 25.0815 51.0364 22.5858 54.0312 22.5858C57.026 22.5858 59.5217 25.0815 59.5217 28.0763C59.5217 31.0711 57.026 33.5667 54.0312 33.5667Z" fill="#262761"/>
</g>
<defs>
<clipPath id="clip0_116_23361">
<rect width="72" height="72" fill="white"/>
</clipPath>
</defs>
</svg>
