<svg width="72" height="72" viewBox="0 0 72 72" fill="none" xmlns="http://www.w3.org/2000/svg">
<path d="M68.2876 3.14062L40.3032 23.925L45.4782 11.6625L68.2876 3.14062Z" fill="#E2761B"/>
<path fill-rule="evenodd" clip-rule="evenodd" d="M68.4112 3.07345C68.4446 3.13499 68.4277 3.21177 68.3715 3.25354L40.3871 24.0379C40.3362 24.0757 40.2663 24.0748 40.2164 24.0356C40.1665 23.9965 40.149 23.9288 40.1737 23.8704L45.3487 11.6078C45.3637 11.5722 45.3928 11.5443 45.429 11.5308L68.2384 3.00891C68.304 2.9844 68.3777 3.01192 68.4112 3.07345ZM45.5842 11.773L40.6332 23.5048L67.4063 3.62003L45.5842 11.773Z" fill="#E2761B"/>
<path d="M3.68433 3.14062L31.4437 24.1219L26.5218 11.6625L3.68433 3.14062Z" fill="#E4761B"/>
<path fill-rule="evenodd" clip-rule="evenodd" d="M3.56132 3.07296C3.59492 3.01176 3.66834 2.98449 3.73374 3.00889L26.5713 11.5308C26.6086 11.5447 26.6382 11.5738 26.6529 11.6109L31.5748 24.0702C31.5979 24.1289 31.5792 24.1957 31.5291 24.2339C31.4789 24.272 31.4095 24.2721 31.3592 24.2341L3.59979 3.25283C3.54409 3.21074 3.52771 3.13415 3.56132 3.07296ZM4.53745 3.60899L31.1291 23.7077L26.4143 11.7724L4.53745 3.60899Z" fill="#E4761B"/>
<path d="M58.2188 51.3184L50.7656 62.7371L66.7125 67.1246L71.2969 51.5715L58.2188 51.3184Z" fill="#E4761B"/>
<path fill-rule="evenodd" clip-rule="evenodd" d="M58.101 51.2415C58.1275 51.2009 58.173 51.1768 58.2215 51.1778L71.2996 51.4309C71.3434 51.4317 71.3844 51.453 71.4103 51.4884C71.4362 51.5237 71.4442 51.5692 71.4318 51.6112L66.8474 67.1644C66.8257 67.2379 66.7491 67.2805 66.6752 67.2602L50.7283 62.8727C50.685 62.8608 50.65 62.8289 50.6341 62.7869C50.6182 62.7449 50.6233 62.6979 50.6479 62.6602L58.101 51.2415ZM58.2939 51.4605L50.9887 62.6526L66.6167 66.9524L71.1099 51.7085L58.2939 51.4605Z" fill="#E4761B"/>
<path d="M0.731445 51.5715L5.2877 67.1246L21.2346 62.7371L13.7815 51.3184L0.731445 51.5715Z" fill="#E4761B"/>
<path fill-rule="evenodd" clip-rule="evenodd" d="M13.7782 51.1778C13.8267 51.1768 13.8722 51.2009 13.8987 51.2415L21.3519 62.6602C21.3764 62.6979 21.3815 62.7449 21.3656 62.7869C21.3497 62.8289 21.3147 62.8608 21.2714 62.8727L5.32451 67.2602C5.2505 67.2806 5.17384 67.2378 5.15226 67.1642L0.596005 51.611C0.583688 51.569 0.591671 51.5236 0.617596 51.4883C0.643522 51.453 0.684427 51.4317 0.728231 51.4309L13.7782 51.1778ZM0.917636 51.7085L5.38328 66.9523L21.011 62.6526L13.7058 51.4605L0.917636 51.7085Z" fill="#E4761B"/>
<path d="M20.3344 32.0242L15.8906 38.7461L31.725 39.4492L31.1625 22.4336L20.3344 32.0242Z" fill="#E4761B"/>
<path fill-rule="evenodd" clip-rule="evenodd" d="M31.2181 22.3044C31.2682 22.326 31.3013 22.3745 31.3031 22.429L31.8656 39.4446C31.8669 39.4838 31.8517 39.5217 31.8239 39.5492C31.796 39.5768 31.7579 39.5915 31.7188 39.5897L15.8844 38.8866C15.8338 38.8843 15.7883 38.8551 15.7653 38.8099C15.7423 38.7648 15.7454 38.7108 15.7733 38.6686L20.2171 31.9467C20.2238 31.9364 20.2319 31.9271 20.2411 31.919L31.0693 22.3283C31.1101 22.2922 31.1681 22.2829 31.2181 22.3044ZM20.4415 32.1172L16.1448 38.6166L31.5794 39.302L31.0318 22.7372L20.4415 32.1172Z" fill="#E4761B"/>
<path d="M51.6376 32.0248L40.6688 22.2373L40.3032 39.4498L56.1095 38.7467L51.6376 32.0248Z" fill="#E4761B"/>
<path fill-rule="evenodd" clip-rule="evenodd" d="M40.6127 22.1084C40.663 22.0865 40.7215 22.0958 40.7625 22.1324L51.7312 31.9199C51.7402 31.9279 51.748 31.9369 51.7547 31.9469L56.2266 38.6688C56.2547 38.711 56.2578 38.7651 56.2349 38.8103C56.2119 38.8556 56.1664 38.8849 56.1157 38.8872L40.3095 39.5903C40.2706 39.592 40.2328 39.5776 40.2049 39.5504C40.1771 39.5232 40.1618 39.4857 40.1626 39.4468L40.5283 22.2343C40.5294 22.1794 40.5624 22.1303 40.6127 22.1084ZM40.803 22.5454L40.447 39.3027L55.8545 38.6173L51.5305 32.1177L40.803 22.5454Z" fill="#E4761B"/>
<path d="M21.2341 62.7367L30.7404 58.0961L22.5279 51.6836L21.2341 62.7367Z" fill="#E4761B"/>
<path fill-rule="evenodd" clip-rule="evenodd" d="M22.4739 51.5548C22.5208 51.5352 22.5746 51.5425 22.6147 51.5737L30.8272 57.9862C30.8654 58.0161 30.8855 58.0635 30.8805 58.1117C30.8754 58.16 30.8459 58.2022 30.8023 58.2234L21.2961 62.8641C21.2499 62.8866 21.195 62.8822 21.1531 62.8524C21.1111 62.8227 21.0887 62.7724 21.0947 62.7214L22.3885 51.6682C22.3944 51.6178 22.427 51.5744 22.4739 51.5548ZM22.6387 51.9493L21.404 62.4984L30.4767 58.0694L22.6387 51.9493Z" fill="#E4761B"/>
<path d="M41.231 58.0961L50.7653 62.7367L49.4435 51.6836L41.231 58.0961Z" fill="#E4761B"/>
<path fill-rule="evenodd" clip-rule="evenodd" d="M49.4977 51.5547C49.5446 51.5742 49.5773 51.6175 49.5833 51.6679L50.9052 62.721C50.9113 62.7721 50.889 62.8224 50.8471 62.8523C50.8052 62.8821 50.7503 62.8867 50.704 62.8641L41.1697 58.2235C41.126 58.2023 41.0964 58.1601 41.0914 58.1118C41.0863 58.0636 41.1064 58.0161 41.1447 57.9862L49.3572 51.5737C49.3972 51.5425 49.4509 51.5352 49.4977 51.5547ZM41.4953 58.0692L50.5953 62.4984L49.3337 51.9489L41.4953 58.0692Z" fill="#E4761B"/>
<path d="M50.7656 62.7373L41.2312 58.0967L41.9906 64.3123L41.9062 66.9279L50.7656 62.7373Z" fill="#D7C1B3"/>
<path fill-rule="evenodd" clip-rule="evenodd" d="M41.1495 57.9822C41.1915 57.9523 41.2464 57.9477 41.2927 57.9702L50.8271 62.6109C50.8758 62.6345 50.9065 62.684 50.9062 62.7381C50.9059 62.7922 50.8746 62.8413 50.8257 62.8644L41.9663 67.0551C41.922 67.076 41.87 67.0724 41.8291 67.0455C41.7881 67.0186 41.7641 66.9724 41.7657 66.9234L41.8497 64.3186L41.0916 58.1137C41.0854 58.0626 41.1076 58.0121 41.1495 57.9822ZM41.4021 58.3363L42.1302 64.2953C42.131 64.3024 42.1314 64.3096 42.1311 64.3168L42.0542 66.7024L50.4405 62.7355L41.4021 58.3363Z" fill="#D7C1B3"/>
<path d="M21.2341 62.7373L30.0935 66.9279L30.0373 64.3123L30.7404 58.0967L21.2341 62.7373Z" fill="#D7C1B3"/>
<path fill-rule="evenodd" clip-rule="evenodd" d="M30.8217 57.9818C30.8637 58.0114 30.8861 58.0615 30.8804 58.1125L30.1783 64.3187L30.2343 66.9249C30.2354 66.9736 30.2111 67.0194 30.1703 67.0459C30.1294 67.0724 30.0777 67.0759 30.0336 67.0551L21.1742 62.8644C21.1254 62.8413 21.0941 62.7922 21.0938 62.7382C21.0934 62.6841 21.1241 62.6347 21.1727 62.6109L30.6789 57.9703C30.7251 57.9478 30.7798 57.9522 30.8217 57.9818ZM21.559 62.7353L29.9483 66.7036L29.8969 64.3153C29.8968 64.309 29.8971 64.3028 29.8978 64.2965L30.5721 58.3354L21.559 62.7353Z" fill="#D7C1B3"/>
<path d="M30.2342 47.5783L22.303 45.2439L27.8999 42.6846L30.2342 47.5783Z" fill="#233447"/>
<path fill-rule="evenodd" clip-rule="evenodd" d="M27.8416 42.5567C27.9114 42.5248 27.994 42.5548 28.027 42.6241L30.3614 47.5178C30.3853 47.5679 30.3775 47.6274 30.3415 47.6696C30.3055 47.7118 30.248 47.7289 30.1948 47.7133L22.2635 45.3789C22.2072 45.3623 22.1671 45.3125 22.163 45.254C22.1588 45.1955 22.1914 45.1405 22.2447 45.1161L27.8416 42.5567ZM22.704 45.2153L29.9719 47.3545L27.8328 42.87L22.704 45.2153Z" fill="#233447"/>
<path d="M41.7375 47.5783L44.0719 42.6846L49.6969 45.2439L41.7375 47.5783Z" fill="#233447"/>
<path fill-rule="evenodd" clip-rule="evenodd" d="M43.945 42.6241C43.978 42.5549 44.0604 42.5248 44.1302 42.5566L49.7552 45.116C49.8087 45.1403 49.8414 45.1953 49.8372 45.2539C49.833 45.3125 49.7929 45.3624 49.7365 45.3789L41.7771 47.7133C41.7239 47.7289 41.6665 47.7118 41.6305 47.6695C41.5945 47.6273 41.5867 47.5679 41.6106 47.5178L43.945 42.6241ZM44.1394 42.8698L42 47.3548L49.2946 45.2154L44.1394 42.8698Z" fill="#233447"/>
<path d="M21.2346 62.7371L22.5846 51.3184L13.7815 51.5715L21.2346 62.7371Z" fill="#CD6116"/>
<path fill-rule="evenodd" clip-rule="evenodd" d="M22.6879 51.2234C22.7155 51.2536 22.7286 51.2943 22.7238 51.3349L21.3738 62.7536C21.3669 62.8121 21.3242 62.8601 21.2669 62.8739C21.2097 62.8876 21.1499 62.8642 21.1172 62.8152L13.664 51.6496C13.6356 51.607 13.6326 51.5524 13.6561 51.507C13.6795 51.4615 13.7258 51.4324 13.777 51.4309L22.5801 51.1778C22.621 51.1766 22.6603 51.1933 22.6879 51.2234ZM14.039 51.7047L21.1393 62.3417L22.4254 51.4636L14.039 51.7047Z" fill="#CD6116"/>
<path d="M49.4158 51.3184L50.7658 62.7371L58.2189 51.5715L49.4158 51.3184Z" fill="#CD6116"/>
<path fill-rule="evenodd" clip-rule="evenodd" d="M49.3118 51.2234C49.3394 51.1933 49.3787 51.1766 49.4196 51.1778L58.2227 51.4309C58.2738 51.4324 58.3201 51.4615 58.3436 51.507C58.3671 51.5524 58.364 51.607 58.3356 51.6496L50.8825 62.8152C50.8498 62.8642 50.79 62.8876 50.7327 62.8739C50.6754 62.8601 50.6328 62.8121 50.6259 62.7536L49.2759 51.3349C49.2711 51.2943 49.2842 51.2536 49.3118 51.2234ZM49.5743 51.4636L50.8604 62.3417L57.9606 51.7047L49.5743 51.4636Z" fill="#CD6116"/>
<path d="M56.1095 38.7471L40.3032 39.4502L41.7657 47.5783L44.1001 42.6846L49.7251 45.2439L56.1095 38.7471Z" fill="#CD6116"/>
<path fill-rule="evenodd" clip-rule="evenodd" d="M56.2379 38.6898C56.2615 38.7426 56.2503 38.8044 56.2098 38.8456L49.8254 45.3425C49.784 45.3847 49.7206 45.3964 49.6669 45.3719L44.1676 42.8698L41.8926 47.6389C41.8664 47.694 41.8075 47.7258 41.747 47.7177C41.6865 47.7096 41.6381 47.6633 41.6273 47.6032L40.1648 39.4751C40.1576 39.4352 40.168 39.3941 40.1934 39.3624C40.2187 39.3307 40.2565 39.3115 40.297 39.3097L56.1032 38.6066C56.161 38.604 56.2144 38.637 56.2379 38.6898ZM40.4701 39.5835L41.8268 47.1237L43.9732 42.624C44.0062 42.5548 44.0886 42.5248 44.1583 42.5566L49.6938 45.0752L55.7587 38.9034L40.4701 39.5835Z" fill="#CD6116"/>
<path d="M22.3031 45.2439L27.9281 42.6846L30.2344 47.5783L31.725 39.4502L15.8906 38.7471L22.3031 45.2439Z" fill="#CD6116"/>
<path fill-rule="evenodd" clip-rule="evenodd" d="M15.7624 38.69C15.7859 38.6371 15.8393 38.604 15.8971 38.6066L31.7315 39.3097C31.7721 39.3115 31.8099 39.3308 31.8353 39.3626C31.8606 39.3944 31.8709 39.4356 31.8636 39.4756L30.3729 47.6037C30.3619 47.6638 30.3134 47.7099 30.2528 47.7178C30.1922 47.7257 30.1335 47.6935 30.1074 47.6383L27.8603 42.87L22.3616 45.3719C22.3079 45.3964 22.2447 45.3847 22.2033 45.3427L15.7908 38.8459C15.7502 38.8047 15.7389 38.7428 15.7624 38.69ZM16.2428 38.9035L22.3345 45.0753L27.8701 42.5566C27.9402 42.5247 28.0228 42.555 28.0556 42.6246L30.1753 47.1225L31.5578 39.5835L16.2428 38.9035Z" fill="#CD6116"/>
<path d="M15.8906 38.7471L22.5281 51.6846L22.3031 45.2439L15.8906 38.7471Z" fill="#E4751F"/>
<path fill-rule="evenodd" clip-rule="evenodd" d="M15.8084 38.6331C15.8647 38.5925 15.9422 38.5989 15.991 38.6483L22.4035 45.1452C22.4283 45.1703 22.4427 45.2038 22.4439 45.239L22.6689 51.6797C22.6712 51.7455 22.6275 51.8041 22.5638 51.8207C22.5 51.8373 22.4333 51.8074 22.4033 51.7488L15.7658 38.8113C15.7341 38.7495 15.7522 38.6738 15.8084 38.6331ZM16.4339 39.4974L22.3658 51.0597L22.1648 45.3037L16.4339 39.4974Z" fill="#E4751F"/>
<path d="M49.7251 45.2439L49.4438 51.6846L56.1095 38.7471L49.7251 45.2439Z" fill="#E4751F"/>
<path fill-rule="evenodd" clip-rule="evenodd" d="M56.1919 38.6331C56.2482 38.6739 56.2663 38.7497 56.2345 38.8115L49.5689 51.749C49.5386 51.8077 49.4716 51.8374 49.4077 51.8205C49.3439 51.8035 49.3005 51.7444 49.3034 51.6784L49.5846 45.2378C49.5861 45.2031 49.6004 45.1702 49.6248 45.1454L56.0092 38.6485C56.0579 38.5989 56.1356 38.5924 56.1919 38.6331ZM49.8632 45.304L49.6123 51.0506L55.5596 39.5072L49.8632 45.304Z" fill="#E4751F"/>
<path d="M31.725 39.4502L30.2344 47.5783L32.0906 57.169L32.5125 44.5408L31.725 39.4502Z" fill="#E4751F"/>
<path fill-rule="evenodd" clip-rule="evenodd" d="M31.7272 39.3096C31.7958 39.3105 31.8537 39.3609 31.8642 39.4287L32.6517 44.5193C32.6531 44.528 32.6536 44.5368 32.6533 44.5455L32.2314 57.1736C32.229 57.2452 32.1733 57.3035 32.102 57.3091C32.0306 57.3148 31.9664 57.2659 31.9528 57.1957L30.0966 47.605C30.0932 47.5878 30.0931 47.5702 30.0963 47.553L31.5869 39.4248C31.5993 39.3573 31.6586 39.3086 31.7272 39.3096ZM30.3777 47.5776L31.992 55.9179L32.3718 44.5493L31.7135 40.294L30.3777 47.5776Z" fill="#E4751F"/>
<path d="M40.3031 39.4502L39.5437 44.5127L39.8812 57.169L41.7656 47.5783L40.3031 39.4502Z" fill="#E4751F"/>
<path fill-rule="evenodd" clip-rule="evenodd" d="M40.3013 39.3096C40.3701 39.3086 40.4295 39.3575 40.4417 39.4253L41.9042 47.5534C41.9073 47.5706 41.9072 47.5883 41.9038 47.6054L40.0194 57.1961C40.0056 57.2664 39.9411 57.3151 39.8697 57.3091C39.7983 57.3031 39.7428 57.2444 39.7409 57.1727L39.4034 44.5164C39.4032 44.5082 39.4037 44.5 39.4049 44.4918L40.1643 39.4293C40.1745 39.3613 40.2325 39.3106 40.3013 39.3096ZM40.3159 40.3143L39.6849 44.5213L39.9882 55.8963L41.6227 47.5772L40.3159 40.3143Z" fill="#E4751F"/>
<path d="M41.7657 47.5785L39.8813 57.1691L41.2313 58.0973L49.4439 51.6848L49.7251 45.2441L41.7657 47.5785Z" fill="#F6851B"/>
<path fill-rule="evenodd" clip-rule="evenodd" d="M49.8118 45.1325C49.8476 45.1605 49.8676 45.204 49.8656 45.2493L49.5843 51.6899C49.5826 51.731 49.5628 51.7693 49.5304 51.7946L41.3179 58.2071C41.2695 58.2449 41.2023 58.2469 41.1517 58.2122L39.8017 57.2841C39.7555 57.2523 39.7326 57.1961 39.7434 57.1411L41.6277 47.5504C41.6379 47.4989 41.6758 47.4574 41.7262 47.4426L49.6855 45.1082C49.7291 45.0955 49.7761 45.1045 49.8118 45.1325ZM41.8873 47.6885L40.0372 57.1046L41.2261 57.922L49.3062 51.6129L49.576 45.4334L41.8873 47.6885Z" fill="#F6851B"/>
<path d="M22.303 45.2441L22.528 51.6848L30.7405 58.0973L32.0905 57.1691L30.2342 47.5785L22.303 45.2441Z" fill="#F6851B"/>
<path fill-rule="evenodd" clip-rule="evenodd" d="M22.217 45.1321C22.2527 45.1044 22.2996 45.0955 22.3429 45.1083L30.2742 47.4426C30.3246 47.4575 30.3626 47.4992 30.3725 47.5508L32.2288 57.1415C32.2394 57.1964 32.2165 57.2524 32.1704 57.2841L30.8204 58.2122C30.7698 58.2469 30.7026 58.2449 30.6542 58.2071L22.4417 51.7946C22.4089 51.769 22.3891 51.7303 22.3877 51.6887L22.1627 45.2481C22.1611 45.2029 22.1813 45.1597 22.217 45.1321ZM22.4506 45.4331L22.6665 51.6133L30.746 57.922L31.9352 57.1045L30.1127 47.6883L22.4506 45.4331Z" fill="#F6851B"/>
<path d="M41.906 66.9279L41.9904 64.3123L41.2873 63.6936H30.6841L30.0373 64.3123L30.0935 66.9279L21.2341 62.7373L24.3279 65.2686L30.5998 69.6279H41.3716L47.6716 65.2686L50.7654 62.7373L41.906 66.9279Z" fill="#C0AD9E"/>
<path fill-rule="evenodd" clip-rule="evenodd" d="M21.1155 62.6622C21.1535 62.6021 21.2303 62.5798 21.2945 62.6102L29.9483 66.7036L29.8969 64.3153C29.8961 64.2759 29.9118 64.238 29.9403 64.2107L30.5872 63.592C30.6134 63.5669 30.6482 63.553 30.6844 63.553H41.2875C41.3217 63.553 41.3547 63.5654 41.3804 63.588L42.0835 64.2068C42.1151 64.2345 42.1326 64.2749 42.1312 64.3169L42.0542 66.7024L50.7055 62.6102C50.7697 62.5798 50.8465 62.6021 50.8845 62.6622C50.9225 62.7222 50.9097 62.8012 50.8547 62.8462L47.7609 65.3774C47.758 65.3798 47.755 65.3821 47.7519 65.3842L41.4519 69.7436C41.4284 69.7599 41.4005 69.7686 41.3719 69.7686H30.6C30.5713 69.7686 30.5433 69.7598 30.5198 69.7434L24.2479 65.384C24.2449 65.382 24.2419 65.3797 24.2391 65.3774L21.1453 62.8462C21.0903 62.8012 21.0776 62.7222 21.1155 62.6622ZM22.2115 63.3551L24.4129 65.1562L30.6441 69.4873H41.328L47.5872 65.1562L49.7886 63.3551L41.9664 67.0551C41.9221 67.076 41.8701 67.0724 41.8291 67.0455C41.7882 67.0187 41.7641 66.9724 41.7657 66.9234L41.848 64.3741L41.2345 63.8342H30.7408L30.1794 64.3712L30.2344 66.9249C30.2354 66.9736 30.2112 67.0194 30.1703 67.0459C30.1294 67.0725 30.0777 67.0759 30.0336 67.0551L22.2115 63.3551Z" fill="#C0AD9E"/>
<path d="M41.2311 58.0971L39.8811 57.1689H32.0905L30.7405 58.0971L30.0374 64.3127L30.6842 63.6939H41.2874L41.9905 64.3127L41.2311 58.0971Z" fill="#161616"/>
<path fill-rule="evenodd" clip-rule="evenodd" d="M32.0111 57.0531C32.0345 57.0369 32.0623 57.0283 32.0907 57.0283H39.8814C39.9098 57.0283 39.9376 57.0369 39.961 57.0531L41.311 57.9812C41.3442 58.004 41.3661 58.04 41.3709 58.08L42.1303 64.2956C42.1374 64.3536 42.108 64.4099 42.0563 64.4371C42.0047 64.4643 41.9416 64.4568 41.8978 64.4183L41.2345 63.8346H30.7409L30.1348 64.4143C30.092 64.4552 30.0282 64.465 29.9752 64.4387C29.9221 64.4124 29.8912 64.3557 29.8979 64.2969L30.601 58.0813C30.6056 58.0408 30.6275 58.0043 30.6611 57.9812L32.0111 57.0531ZM32.1344 57.3096L30.8733 58.1766L30.221 63.9427L30.5873 63.5923C30.6134 63.5673 30.6483 63.5533 30.6845 63.5533H41.2876C41.3218 63.5533 41.3548 63.5658 41.3805 63.5884L41.8064 63.9631L41.0995 58.177L39.8377 57.3096H32.1344Z" fill="#161616"/>
<path d="M69.4687 25.275L71.8593 13.8L68.2875 3.14062L41.2312 23.2219L51.6375 32.025L66.3468 36.3281L69.6093 32.5313L68.2031 31.5188L70.4531 29.4656L68.7093 28.1156L70.9593 26.4L69.4687 25.275Z" fill="#763D16"/>
<path fill-rule="evenodd" clip-rule="evenodd" d="M68.3296 3.00647C68.3726 3.01997 68.4065 3.05324 68.4208 3.09595L71.9927 13.7553C72.0006 13.779 72.0021 13.8043 71.997 13.8287L69.6246 25.2165L71.0441 26.2878C71.0792 26.3143 71.0999 26.3557 71.1 26.3997C71.1001 26.4437 71.0796 26.4852 71.0446 26.5118L68.9402 28.1165L70.5392 29.3545C70.572 29.3799 70.5919 29.4185 70.5936 29.46C70.5953 29.5014 70.5785 29.5415 70.5479 29.5695L68.4259 31.5059L69.6915 32.4171C69.7235 32.4402 69.7443 32.4755 69.749 32.5147C69.7536 32.5538 69.7417 32.593 69.716 32.6229L66.4535 36.4198C66.4175 36.4617 66.3604 36.4786 66.3074 36.4631L51.598 32.16C51.5791 32.1545 51.5616 32.1451 51.5466 32.1324L41.1404 23.3293C41.1076 23.3015 41.0893 23.2603 41.0906 23.2174C41.092 23.1745 41.1129 23.1346 41.1474 23.109L68.2037 3.02771C68.2398 3.00086 68.2867 2.99297 68.3296 3.00647ZM41.4575 23.2291L51.7055 31.8984L66.2993 36.1677L69.4028 32.5559L68.1209 31.6329C68.0865 31.6081 68.0652 31.5692 68.0627 31.5269C68.0603 31.4846 68.077 31.4434 68.1083 31.4149L70.2348 29.4745L68.6233 28.2268C68.5887 28.2001 68.5686 28.1588 68.5687 28.1151C68.5689 28.0714 68.5893 28.0303 68.6241 28.0038L70.7267 26.4006L69.384 25.3873C69.3406 25.3545 69.32 25.2996 69.331 25.2463L71.7139 13.8086L68.2157 3.36902L41.4575 23.2291Z" fill="#763D16"/>
<path d="M0.140381 13.8L2.53101 25.275L1.01226 26.4L3.26226 28.1156L1.54663 29.4656L3.79663 31.5188L2.39038 32.5313L5.62476 36.3281L20.3341 32.025L30.7404 23.2219L3.68413 3.14062L0.140381 13.8Z" fill="#763D16"/>
<path fill-rule="evenodd" clip-rule="evenodd" d="M3.64206 3.00652C3.68507 2.99295 3.73197 3.00083 3.76819 3.02771L30.8245 23.109C30.8589 23.1346 30.8798 23.1745 30.8812 23.2174C30.8826 23.2603 30.8642 23.3015 30.8315 23.3293L20.4252 32.1324C20.4102 32.1451 20.3927 32.1545 20.3739 32.16L5.66449 36.4631C5.61128 36.4787 5.5539 36.4615 5.51795 36.4193L2.28358 32.6225C2.2581 32.5926 2.2463 32.5534 2.25102 32.5144C2.25575 32.4753 2.27658 32.4401 2.30846 32.4171L3.57412 31.5059L1.45209 29.5695C1.42157 29.5417 1.40484 29.5018 1.40634 29.4605C1.40785 29.4192 1.42744 29.3807 1.45991 29.3551L3.03287 28.1174L0.927234 26.5118C0.892076 26.485 0.871572 26.4433 0.87188 26.399C0.872187 26.3548 0.893269 26.3133 0.928797 26.287L2.37523 25.2156L0.0029559 13.8287C-0.00210549 13.8044 -0.000647688 13.7792 0.00718127 13.7556L3.55093 3.09626C3.56516 3.05347 3.59905 3.02009 3.64206 3.00652ZM3.75654 3.36931L0.286022 13.8084L2.66892 25.2463C2.68011 25.3 2.65904 25.3554 2.61496 25.388L1.24656 26.4016L3.34777 28.0038C3.38235 28.0302 3.40279 28.0711 3.40312 28.1146C3.40345 28.1581 3.38364 28.1993 3.34946 28.2262L1.7642 29.4736L3.89167 31.4149C3.92296 31.4434 3.93972 31.4846 3.93727 31.5269C3.93482 31.5692 3.91343 31.6081 3.87905 31.6329L2.59662 32.5562L5.67297 36.1676L20.2663 31.8984L30.5144 23.2291L3.75654 3.36931Z" fill="#763D16"/>
<path d="M66.347 36.3285L51.6376 32.0254L56.1095 38.7473L49.4438 51.6848L58.2189 51.5723H71.297L66.347 36.3285Z" fill="#F6851B"/>
<path fill-rule="evenodd" clip-rule="evenodd" d="M51.5243 31.9421C51.5593 31.8945 51.6204 31.8738 51.6771 31.8904L66.3865 36.1936C66.4311 36.2066 66.4664 36.2409 66.4807 36.2851L71.4307 51.5289C71.4446 51.5717 71.4372 51.6185 71.4107 51.655C71.3843 51.6914 71.342 51.7129 71.297 51.7129H58.2189L49.4457 51.8254C49.3963 51.826 49.3502 51.8007 49.3243 51.7588C49.2983 51.7168 49.2962 51.6643 49.3188 51.6204L55.9466 38.7564L51.5205 32.1033C51.4878 32.0541 51.4893 31.9897 51.5243 31.9421ZM51.9683 32.2687L56.2266 38.6694C56.2548 38.7119 56.2579 38.7663 56.2345 38.8117L49.676 51.5412L58.2189 51.4316L71.1035 51.4317L66.2362 36.4426L51.9683 32.2687Z" fill="#F6851B"/>
<path d="M20.3346 32.0254L5.6252 36.3285L0.731445 51.5723H13.7815L22.5283 51.6848L15.8908 38.7473L20.3346 32.0254Z" fill="#F6851B"/>
<path fill-rule="evenodd" clip-rule="evenodd" d="M20.4473 31.9419C20.4823 31.9894 20.4839 32.0537 20.4514 32.103L16.053 38.7562L22.653 51.6206C22.6755 51.6645 22.6734 51.7169 22.6474 51.7589C22.6214 51.8008 22.5754 51.826 22.526 51.8254L13.781 51.7129H0.730958C0.686031 51.7129 0.643807 51.6914 0.617336 51.6551C0.590864 51.6188 0.583331 51.5721 0.597064 51.5293L5.49082 36.2855C5.50508 36.2411 5.54045 36.2067 5.58523 36.1936L20.2946 31.8904C20.3513 31.8739 20.4122 31.8944 20.4473 31.9419ZM5.7358 36.4425L0.923797 51.4317H13.7828L22.2961 51.5412L15.7652 38.8115C15.742 38.7663 15.745 38.7121 15.773 38.6697L20.005 32.2682L5.7358 36.4425Z" fill="#F6851B"/>
<path d="M40.3032 39.4496L41.2314 23.2215L45.5064 11.6621H26.522L30.7407 23.2215L31.7251 39.4496L32.0626 44.5684L32.0907 57.1684H39.8814L39.9376 44.5684L40.3032 39.4496Z" fill="#F6851B"/>
<path fill-rule="evenodd" clip-rule="evenodd" d="M26.4067 11.5815C26.4331 11.5439 26.4761 11.5215 26.522 11.5215H45.5064C45.5524 11.5215 45.5955 11.544 45.6218 11.5817C45.6481 11.6195 45.6542 11.6677 45.6383 11.7109L41.3705 23.2505L40.4436 39.4577L40.4435 39.4596L40.0782 44.5737L40.022 57.169C40.0216 57.2464 39.9588 57.309 39.8814 57.309H32.0907C32.0132 57.309 31.9503 57.2462 31.9501 57.1687L31.922 44.5732L31.5848 39.4589L31.5847 39.4581L30.6016 23.2505L26.3899 11.7103C26.3741 11.6672 26.3804 11.6191 26.4067 11.5815ZM26.723 11.8027L30.8728 23.1733C30.8775 23.186 30.8803 23.1994 30.8811 23.213L31.8654 39.4404L31.8655 39.4411L32.2029 44.5591C32.2031 44.5621 32.2032 44.5651 32.2032 44.5681L32.231 57.0278H39.7414L39.797 44.5677C39.797 44.5646 39.7971 44.5615 39.7973 44.5584L40.1628 39.4416L40.163 39.4396L41.091 23.2135C41.0918 23.1995 41.0946 23.1858 41.0995 23.1727L45.3044 11.8027H26.723Z" fill="#F6851B"/>
</svg>
