<svg width="72" height="72" viewBox="0 0 72 72" fill="none" xmlns="http://www.w3.org/2000/svg">
<g clip-path="url(#clip0_116_23616)">
<path d="M14.62 32.3584L14.0439 33.2421C7.54745 43.2077 8.99842 56.2591 17.532 64.6207C22.5526 69.5397 29.1322 71.9996 35.7123 72.0001C35.7123 72.0001 35.7123 72.0001 14.62 32.3584Z" fill="#00A3FF"/>
<path opacity="0.6" d="M35.7127 44.4065L14.6201 32.3584C35.7127 72.0001 35.7127 72.0001 35.7127 72.0001C35.7127 63.3666 35.7127 53.4736 35.7127 44.4065Z" fill="#00A3FF"/>
<path opacity="0.6" d="M56.826 32.3584L57.4021 33.2421C63.8985 43.2077 62.4475 56.2591 53.9139 64.6207C48.8936 69.5397 42.3137 71.9996 35.7336 72.0001C35.7336 72.0001 35.7336 72.0001 56.826 32.3584Z" fill="#00A3FF"/>
<path opacity="0.2" d="M35.7334 44.4065L56.8257 32.3584C35.7334 72.0001 35.7334 72.0001 35.7334 72.0001C35.7334 63.3666 35.7334 53.4736 35.7334 44.4065Z" fill="#00A3FF"/>
<path opacity="0.2" d="M35.7378 17.4941V38.2737L53.9065 27.8907L35.7378 17.4941Z" fill="#00A3FF"/>
<path opacity="0.6" d="M35.7376 17.4941L17.5559 27.8904L35.7376 38.2737V17.4941Z" fill="#00A3FF"/>
<path d="M35.7376 0.0136719L17.5559 27.8923L35.7376 17.4667V0.0136719Z" fill="#00A3FF"/>
<path opacity="0.6" d="M35.7378 17.4666L53.9203 27.8927L35.7378 0V17.4666Z" fill="#00A3FF"/>
</g>
<defs>
<clipPath id="clip0_116_23616">
<rect width="72" height="72" fill="white"/>
</clipPath>
</defs>
</svg>
