<svg width="72" height="72" viewBox="0 0 72 72" fill="none" xmlns="http://www.w3.org/2000/svg">
<path d="M50.0694 56.3346C49.0612 57.2874 47.8801 58.0204 46.5957 58.4902C45.3113 58.96 43.9495 59.1572 42.5907 59.0702H27.8082V39.2241H42.7232C45.4066 39.1954 48.0117 40.1655 50.0694 41.9596C50.9794 42.8859 51.6947 43.999 52.17 45.2284C52.6452 46.4577 52.8701 47.7765 52.8302 49.1011C52.9502 50.4482 52.7627 51.8057 52.2829 53.0628C51.8031 54.3199 51.0446 55.4411 50.0694 56.3346ZM27.8135 12.4223H41.1706C43.6801 12.3225 46.126 13.2587 47.9763 15.0273C48.9335 15.8343 49.7003 16.8593 50.2175 18.0234C50.7347 19.1875 50.9886 20.4596 50.9596 21.742C51.0083 22.9645 50.7983 24.1833 50.3444 25.3119C49.8905 26.4405 49.2038 27.4513 48.3331 28.2727C46.4477 29.9731 44.0145 30.8675 41.5221 30.7765H27.8082L27.8135 12.4223ZM62.0911 40.4751C60.2243 37.6704 57.5855 35.5205 54.5223 34.3086C57.0503 33.1502 59.1988 31.2488 60.7045 28.8375C62.301 26.273 63.123 23.269 63.0643 20.2132C63.029 17.8294 62.4816 15.4841 61.4623 13.3495C60.5418 11.2204 59.1539 9.34627 57.4103 7.87841C55.6072 6.20333 53.5071 4.91159 51.2281 4.07587C48.6704 3.29741 46.0122 2.93745 43.3485 3.00888H10V11.7269C11.2162 11.7392 12.4181 12.0008 13.5372 12.4969C14.6563 12.993 15.6706 13.7138 16.5222 14.6182C17.3738 15.5226 18.046 16.5928 18.5005 17.7677C18.9549 18.9427 19.1827 20.1994 19.1708 21.466C19.1827 22.7264 18.9561 23.9769 18.504 25.146C18.0518 26.3152 17.383 27.3801 16.5356 28.28C15.6883 29.18 14.6791 29.8972 13.5656 30.3909C12.452 30.8846 11.2561 31.145 10.0459 31.1573H10V39.0861C12.4559 39.1109 14.8017 40.1507 16.5216 41.9767C18.2414 43.8028 19.1944 46.2656 19.1708 48.8234V50.4478C19.1598 52.9817 18.1914 55.4092 16.4752 57.2053C14.759 59.0013 12.4329 60.0215 10 60.0452V68.995H44.8163C47.5906 69.0542 50.3517 68.5828 52.9626 67.6043C55.3241 66.8444 57.5077 65.5807 59.3744 63.8937C61.1314 62.2722 62.5161 60.2604 63.4264 58.0069C64.4779 55.6883 65.0106 53.1516 64.9843 50.5876C65.1359 47.0026 64.1841 43.4609 62.2677 40.4787L62.0911 40.4751Z" fill="#159E49"/>
</svg>
