<svg width="72" height="72" viewBox="0 0 72 72" fill="none" xmlns="http://www.w3.org/2000/svg">
<g clip-path="url(#clip0_364_5089)">
<path d="M36 72C55.9262 72 72 55.9262 72 36C72 16.0738 55.7934 0 36 0C16.0738 0 0 16.0738 0 36C0 55.7934 16.0738 72 36 72Z" fill="white"/>
<path d="M63.7638 13.5498C61.2399 14.0812 58.8487 14.7454 56.9889 15.1439C52.4723 16.2067 48.3543 19.5277 47.4244 25.7712C46.6273 31.3506 48.4871 33.7417 47.69 40.2509C46.2288 51.6753 35.3358 55.5277 30.2878 57.9188C27.3653 59.2472 20.1919 62.4354 14.7454 64.8266C20.7233 69.2103 28.0295 71.8672 36.1328 71.8672C56.059 71.8672 72.1328 55.7934 72.1328 35.8672C72.1328 27.3653 69.2103 19.6605 64.2952 13.417C64.0295 13.5498 63.8967 13.5498 63.7638 13.5498Z" fill="url(#paint0_linear_364_5089)"/>
<path d="M31.8819 30.6863C34.6716 24.7085 33.6089 24.7085 35.7343 18.9963C38.3911 11.8229 46.6273 13.9483 48.8856 14.214C52.6052 14.7454 53.6679 13.417 61.5055 12.0886C61.9041 12.0886 62.3026 11.9557 62.7011 11.9557C56.059 4.64945 46.4945 0 35.8672 0C21.6531 0 9.29889 8.369 3.45387 20.4576C15.4096 23.3801 28.1624 29.7565 31.8819 30.6863ZM24.0443 6.24354C25.107 6.37638 30.155 12.7528 31.0849 28.9594C31.0849 28.9594 24.5756 27.3653 23.1144 24.0443C22.0517 21.2546 23.5129 17.5351 24.0443 6.24354ZM64.0295 13.5498C64.0295 13.5498 63.8967 13.5498 63.7638 13.5498C63.8967 13.5498 64.0295 13.5498 64.0295 13.5498ZM0 36C0 33.0775 0.398524 30.2878 0.929889 27.631C2.2583 28.6937 3.58672 29.8893 5.04797 31.3506C14.4797 39.9852 29.6236 46.893 35.203 40.5166C34.1402 41.845 30.2878 46.0959 22.9816 44.7675L11.4244 62.1697C4.38376 55.6605 0 46.3616 0 36Z" fill="url(#paint1_linear_364_5089)"/>
</g>
<defs>
<linearGradient id="paint0_linear_364_5089" x1="48.8598" y1="21.3723" x2="40.3739" y2="68.1218" gradientUnits="userSpaceOnUse">
<stop stop-color="#FF496A"/>
<stop offset="1" stop-color="#E42648"/>
</linearGradient>
<linearGradient id="paint1_linear_364_5089" x1="20.6594" y1="54.1528" x2="39.4216" y2="1.16781" gradientUnits="userSpaceOnUse">
<stop offset="0.00181229" stop-color="#1158F1"/>
<stop offset="1" stop-color="#119BED"/>
</linearGradient>
<clipPath id="clip0_364_5089">
<rect width="72" height="72" fill="white"/>
</clipPath>
</defs>
</svg>
