<svg width="72" height="72" viewBox="0 0 72 72" fill="none" xmlns="http://www.w3.org/2000/svg">
<path d="M30.8682 66.6324C47.8875 66.6324 61.6844 52.8355 61.6844 35.8162C61.6844 18.7969 47.8875 5 30.8682 5C13.8489 5 0.052002 18.7969 0.052002 35.8162C0.052002 52.8355 13.8489 66.6324 30.8682 66.6324Z" fill="#2EB6EA"/>
<path d="M30.7005 66.6327C0.0516452 66.6327 -12.0445 26.3124 15.0276 9.32031C11.8081 43.0197 28.9346 43.7652 44.8274 43.0197C71.4582 41.7707 71.4761 66.6327 71.4761 66.6327H30.7005Z" fill="#1542CD"/>
<path fill-rule="evenodd" clip-rule="evenodd" d="M59.997 45.8965C55.3607 57.7792 43.9596 66.2763 30.5271 66.6546C30.8428 66.6633 31.1606 66.6678 31.4804 66.6678H71.9999C71.9999 66.6678 71.9894 52.0957 59.997 45.8965Z" fill="#745DDF"/>
</svg>
