<svg width="72" height="72" viewBox="0 0 72 72" fill="none" xmlns="http://www.w3.org/2000/svg">
<g clip-path="url(#clip0_364_5038)">
<path d="M15 6.89941L70.8 44.9994L57 65.3994L1.20001 26.9994L15 6.89941Z" fill="url(#paint0_linear_364_5038)"/>
<path d="M70.8 44.9997C66 51.8997 49.8 49.1997 34.5 38.3997C18.9 27.8997 10.5 13.7997 15 6.89968C19.8 -0.000318766 36 2.69968 51.3 13.4997C66.9 23.6997 75.3 38.0997 70.8 44.9997Z" fill="url(#paint1_linear_364_5038)"/>
<path d="M57 65.0995C52.2 71.9995 36 69.2995 20.7 58.4995C5.40002 47.6995 -3.29998 33.8995 1.50002 26.6995C6.30002 19.7995 22.5 22.4995 37.8 33.2995C53.1 44.0995 61.5 58.1995 57 65.0995Z" fill="url(#paint2_linear_364_5038)"/>
<path d="M70.8001 44.9997L57 65.3997C52.2001 72.2997 36.0001 69.2997 20.7001 58.7997C17.7 56.6997 15 54.5997 12.3 52.1997C14.4 51.8997 17.1 50.6997 19.8 47.6997C24.6 42.5997 27 41.3997 29.1 41.6997C31.2001 41.6997 33.6 43.7997 37.5 48.8997C41.4 53.9997 46.8001 55.4997 50.1001 52.7997C50.4001 52.4997 50.7001 52.4997 51 52.1997C53.7001 50.0997 54.6 49.1997 59.7001 39.5997C60.9001 37.1997 65.1001 33.2997 70.8001 35.0997C72.3001 38.9997 72.3001 42.2997 70.8001 44.9997Z" fill="#0E0F23"/>
<path fill-rule="evenodd" clip-rule="evenodd" d="M68.7 43.8001C64.5 49.8001 49.8 46.8001 35.7 36.9001C21.3 27.0001 12.9 14.4001 17.1 8.40009C21.3 2.40009 36 5.40009 50.1 15.3001C64.2 25.2001 72.6 37.8001 68.7 43.8001ZM55.5 34.8001C53.4 37.8001 46.2 36.3001 39 31.5001C32.1 26.7001 27.9 20.4001 30 17.4001C32.1 14.4001 39.3 15.9001 46.5 20.7001C53.4 25.5001 57.6 31.8001 55.5 34.8001Z" fill="white"/>
<path d="M13.8 13.7993C13.8 13.4993 13.5 13.1993 13.2 13.4993C12.9 13.7993 12.6 13.7993 12.6 14.0993C12.9 14.9993 13.2 15.5993 13.2 16.1993C13.2 16.4993 13.5 16.7993 13.8 16.4993C14.1 16.4993 14.4 16.1993 14.1 15.8993C14.1 15.2993 14.1 14.6993 13.8 13.7993Z" fill="white"/>
<path d="M15.3 18.6C15.3 18.3 15 18 14.7 18.3C14.4 18.6 14.4 18.6 14.4 18.9C17.7 26.4 24.6 34.5 33.6 40.5C33.9 40.8 34.2 40.5 34.5 40.5C34.8 40.2 34.5 39.9 34.5 39.6C25.2 33.6 18.6 25.8 15.3 18.6Z" fill="white"/>
<path d="M51.6 48C51.3 48 51 48 51 48.3C51 48.6 51 48.9 51.3 48.9C52.2 49.2 53.4 49.5 54.3 49.8C54.6 49.8 54.9 49.8 54.9 49.5C54.9 49.2 54.9 48.9 54.6 48.9C53.7 48.6 52.5 48.3 51.6 48Z" fill="white"/>
<path d="M57 49.1992C56.7 49.1992 56.4 49.4992 56.4 49.7992C56.4 50.0992 56.7 50.3992 57 50.3992C59.4 50.6992 62.1 50.9992 64.2 50.6992C64.5 50.6992 64.8 50.3992 64.8 50.0992C64.8 49.7992 64.5 49.4992 64.2 49.4992C61.8 49.7992 59.4 49.4992 57 49.1992Z" fill="white"/>
</g>
<defs>
<linearGradient id="paint0_linear_364_5038" x1="25.9326" y1="1.48231" x2="36.9984" y2="39.4809" gradientUnits="userSpaceOnUse">
<stop stop-color="#03B8FF"/>
<stop offset="1" stop-color="#FA52A0"/>
</linearGradient>
<linearGradient id="paint1_linear_364_5038" x1="35.0454" y1="-1.17152" x2="46.1115" y2="36.8274" gradientUnits="userSpaceOnUse">
<stop stop-color="#03B8FF"/>
<stop offset="1" stop-color="#FA52A0"/>
</linearGradient>
<linearGradient id="paint2_linear_364_5038" x1="16.848" y1="4.12779" x2="27.9141" y2="42.1267" gradientUnits="userSpaceOnUse">
<stop stop-color="#03B8FF"/>
<stop offset="1" stop-color="#FA52A0"/>
</linearGradient>
<clipPath id="clip0_364_5038">
<rect width="72" height="72" fill="white"/>
</clipPath>
</defs>
</svg>
