<svg width="72" height="72" viewBox="0 0 72 72" fill="none" xmlns="http://www.w3.org/2000/svg">
<path d="M36 0C55.8844 0 72 16.1156 72 36C72 55.8844 55.8844 72 36 72C16.1156 72 0 55.8844 0 36C0 16.1156 16.1156 0 36 0Z" fill="#0052FF"/>
<path d="M36.007 48.6562C29.018 48.6562 23.3508 42.9961 23.3508 36C23.3508 29.0039 29.018 23.3438 36.007 23.3438C42.2719 23.3438 47.475 27.9141 48.4734 33.8906H61.2211C60.1453 20.8969 49.268 10.6875 36 10.6875C22.0219 10.6875 10.6875 22.0219 10.6875 36C10.6875 49.9781 22.0219 61.3125 36 61.3125C49.268 61.3125 60.1453 51.1031 61.2211 38.1094H48.4664C47.4609 44.0859 42.2719 48.6562 36.007 48.6562Z" fill="white"/>
</svg>
