<svg width="72" height="72" fill="none" xmlns="http://www.w3.org/2000/svg"><g clip-path="url(#a)" fill="#FF007A"><path d="M29.314 16.384c-.774-.111-.81-.148-.442-.185.7-.112 2.32.037 3.462.297 2.653.631 5.047 2.266 7.59 5.127l.662.78.958-.149c4.09-.668 8.289-.148 11.789 1.486.958.446 2.468 1.338 2.652 1.56.074.075.184.558.258 1.041.258 1.746.147 3.046-.405 4.05-.295.557-.295.705-.11 1.188.147.372.589.632.994.632.884 0 1.805-1.412 2.247-3.38l.184-.781.332.372c1.879 2.117 3.352 5.052 3.573 7.133l.074.557-.332-.483c-.552-.855-1.068-1.412-1.768-1.895-1.252-.854-2.579-1.114-6.078-1.3-3.169-.186-4.974-.446-6.742-1.04-3.02-1.003-4.568-2.304-8.141-7.096-1.584-2.118-2.579-3.27-3.574-4.236-2.173-2.117-4.347-3.232-7.183-3.678Z"/><path d="M56.759 21.102c.073-1.412.258-2.34.663-3.195.147-.334.295-.632.331-.632.037 0-.036.26-.147.558-.295.817-.331 1.969-.147 3.269.258 1.672.368 1.895 2.136 3.715.81.855 1.769 1.932 2.137 2.378l.626.817-.626-.594c-.774-.743-2.542-2.155-2.947-2.34-.258-.15-.295-.15-.479.036-.147.149-.184.372-.184 1.45-.037 1.671-.258 2.711-.81 3.789-.295.557-.332.446-.074-.186.184-.483.22-.706.22-2.303 0-3.233-.368-4.013-2.615-5.313-.552-.334-1.51-.817-2.063-1.077-.59-.26-1.031-.483-.995-.483.074-.075 2.248.557 3.095.928 1.29.52 1.51.558 1.658.52.11-.111.184-.408.22-1.337ZM30.824 26.638c-1.547-2.155-2.542-5.498-2.32-7.988l.073-.78.368.074c.663.112 1.805.558 2.358.892 1.474.892 2.137 2.118 2.763 5.164.184.892.442 1.932.552 2.266.185.558.885 1.858 1.474 2.675.405.595.147.892-.773.818-1.4-.149-3.28-1.45-4.495-3.121ZM54.88 42.799c-7.294-2.972-9.873-5.536-9.873-9.883 0-.631.037-1.151.037-1.151.037 0 .295.223.626.483 1.474 1.189 3.132 1.709 7.736 2.377 2.69.409 4.237.706 5.637 1.19 4.457 1.485 7.22 4.532 7.883 8.656.184 1.188.074 3.455-.22 4.644-.259.928-.995 2.637-1.18 2.674-.036 0-.11-.185-.11-.483-.074-1.56-.847-3.046-2.137-4.198-1.547-1.337-3.536-2.34-8.399-4.31ZM49.722 44.025a8.866 8.866 0 0 0-.368-1.56l-.184-.558.331.409c.48.557.848 1.226 1.18 2.155.257.706.257.929.257 2.08 0 1.115-.037 1.375-.258 2.006-.368 1.003-.81 1.71-1.547 2.49-1.326 1.374-3.058 2.117-5.526 2.452-.442.037-1.694.148-2.8.222-2.762.15-4.604.446-6.262 1.04-.221.075-.442.15-.479.112-.074-.074 1.068-.743 1.99-1.189 1.289-.631 2.615-.966 5.525-1.486 1.437-.223 2.91-.52 3.279-.669 3.647-1.151 5.452-4.012 4.862-7.504Z"/><path d="M53.075 50.006c-.958-2.117-1.179-4.123-.663-6.018.073-.186.147-.372.22-.372.075 0 .296.112.517.26.442.297 1.363.818 3.72 2.118 2.984 1.635 4.679 2.898 5.858 4.347 1.031 1.263 1.657 2.712 1.952 4.495.184 1.003.074 3.418-.184 4.421-.81 3.158-2.653 5.684-5.342 7.133-.405.223-.736.372-.773.372-.037 0 .11-.372.331-.818.884-1.894.995-3.715.332-5.758-.405-1.263-1.253-2.786-2.947-5.35-2.026-2.972-2.505-3.752-3.021-4.83ZM25.63 61.375c2.726-2.304 6.078-3.938 9.173-4.459 1.326-.222 3.536-.148 4.752.186 1.952.52 3.72 1.635 4.642 3.01.884 1.337 1.289 2.489 1.694 5.052.148 1.003.332 2.043.369 2.266.294 1.338.884 2.378 1.62 2.935 1.143.855 3.132.892 5.084.149.332-.111.627-.223.627-.186.073.075-.921.743-1.584 1.078-.921.483-1.658.631-2.653.631-1.768 0-3.279-.929-4.494-2.786-.258-.372-.774-1.45-1.216-2.452-1.29-3.01-1.952-3.901-3.463-4.904-1.326-.855-3.02-1.04-4.31-.409-1.695.818-2.137 3.01-.958 4.347.48.557 1.363 1.003 2.1 1.114 1.363.186 2.542-.891 2.542-2.266 0-.892-.332-1.412-1.216-1.82-1.179-.52-2.468.074-2.431 1.226 0 .483.22.78.7 1.003.295.148.295.148.074.111-1.069-.223-1.327-1.56-.48-2.414 1.032-1.04 3.206-.595 3.942.854.295.594.332 1.783.074 2.526-.626 1.635-2.395 2.49-4.2 2.006-1.215-.334-1.731-.668-3.205-2.192-2.578-2.674-3.573-3.194-7.257-3.752l-.7-.111.774-.743Z"/><path fill-rule="evenodd" clip-rule="evenodd" d="M6.253 1.598c8.583 10.514 21.808 26.86 22.471 27.752.553.743.332 1.449-.59 1.969-.515.297-1.583.594-2.099.594-.59 0-1.29-.297-1.768-.78-.332-.334-1.768-2.452-5.01-7.542-2.469-3.9-4.568-7.133-4.605-7.17-.147-.074-.147-.074 4.347 8.025 2.837 5.09 3.757 6.91 3.757 7.133 0 .483-.147.743-.736 1.412-.995 1.114-1.437 2.377-1.769 5.015-.368 2.935-1.363 5.016-4.2 8.545-1.657 2.08-1.915 2.452-2.32 3.307-.516 1.04-.663 1.634-.737 2.972-.074 1.412.074 2.303.479 3.64.368 1.19.774 1.97 1.768 3.493.848 1.337 1.363 2.34 1.363 2.712 0 .297.074.297 1.4 0 3.168-.743 5.784-2.006 7.22-3.567.885-.966 1.106-1.486 1.106-2.823 0-.855-.037-1.04-.258-1.56-.368-.818-1.068-1.487-2.579-2.527-1.99-1.374-2.836-2.489-3.057-3.975-.185-1.263.036-2.118 1.142-4.458 1.142-2.415 1.436-3.418 1.62-5.87.111-1.56.295-2.192.737-2.675.48-.52.884-.706 2.026-.855 1.88-.26 3.095-.743 4.053-1.672.847-.78 1.215-1.56 1.252-2.712l.037-.854-.479-.52C29.093 26.6 5.111 0 5 0c-.037 0 .553.706 1.253 1.598Zm11.31 52.83a1.541 1.541 0 0 0-.48-2.044c-.626-.409-1.584-.223-1.584.334 0 .149.074.297.295.372.331.185.368.371.11.78-.258.409-.258.78.074 1.04.516.409 1.216.186 1.584-.483ZM32.482 34.886c-.884.26-1.732 1.226-1.99 2.192-.147.594-.073 1.671.185 2.006.405.52.773.669 1.805.669 2.026 0 3.758-.892 3.942-1.97.184-.891-.59-2.117-1.658-2.674-.553-.298-1.695-.409-2.284-.223Zm2.358 1.857c.294-.446.184-.928-.369-1.263-.994-.631-2.505-.111-2.505.855 0 .483.774 1.003 1.51 1.003.48 0 1.142-.297 1.364-.595Z"/></g><defs><clipPath id="a"><path fill="#fff" transform="translate(5)" d="M0 0h62v72H0z"/></clipPath></defs></svg>