<svg width="72" height="72" viewBox="0 0 72 72" fill="none" xmlns="http://www.w3.org/2000/svg">
<path d="M64.1891 27.029V52.1398L36.2247 68.2603L8.24084 52.1398V19.8794L36.2247 3.73949L57.7268 16.1399L60.9677 14.2798L36.2247 0L5 17.9999V53.9998L36.2247 71.9998L67.4493 53.9998V25.1495L64.1891 27.029Z" fill="url(#paint0_linear_364_5153)"/>
<path d="M28.3846 52.1397H23.7077V36.4648H39.3103C40.7852 36.4455 42.2018 35.8448 43.2304 34.7985C44.2783 33.7522 44.8605 32.3378 44.8605 30.8653C44.8605 30.129 44.7247 29.4121 44.453 28.734C44.1619 28.0558 43.7543 27.4552 43.2304 26.9514C42.7258 26.4283 42.1048 26.0214 41.445 25.7307C40.7658 25.4401 40.0477 25.3045 39.3103 25.3045H23.7077V20.5381H39.3297C42.066 20.5575 44.6858 21.6425 46.6071 23.5801C48.5477 25.5176 49.6344 28.1333 49.6539 30.8459C49.6733 32.9385 49.0328 34.9729 47.8297 36.678C46.7235 38.3055 45.1516 39.5843 43.3274 40.3593C41.5226 40.9406 39.6402 41.2119 37.7384 41.1925H28.3846V52.1397Z" fill="url(#paint1_linear_364_5153)"/>
<path d="M49.5566 51.7524H44.1035L39.8923 44.4091C41.5612 44.3122 43.2108 43.9634 44.7827 43.4209L49.5566 51.7524Z" fill="url(#paint2_linear_364_5153)"/>
<path d="M60.9289 21.7976L64.1698 23.5996L67.3912 21.817V18.0388L64.1698 16.1787L60.9483 18.0388V21.7976H60.9289Z" fill="url(#paint3_linear_364_5153)"/>
<defs>
<linearGradient id="paint0_linear_364_5153" x1="69.3122" y1="22.7891" x2="3.10972" y2="49.3052" gradientUnits="userSpaceOnUse">
<stop stop-color="#7D4695"/>
<stop offset="0.4897" stop-color="#4267B0"/>
<stop offset="0.4898" stop-color="#4368B0"/>
<stop offset="1" stop-color="#60BFBB"/>
</linearGradient>
<linearGradient id="paint1_linear_364_5153" x1="68.0336" y1="19.5967" x2="1.8311" y2="46.1128" gradientUnits="userSpaceOnUse">
<stop stop-color="#7D4695"/>
<stop offset="0.4897" stop-color="#4267B0"/>
<stop offset="0.4898" stop-color="#4368B0"/>
<stop offset="1" stop-color="#60BFBB"/>
</linearGradient>
<linearGradient id="paint2_linear_364_5153" x1="74.656" y1="36.1315" x2="8.4535" y2="62.6476" gradientUnits="userSpaceOnUse">
<stop stop-color="#7D4695"/>
<stop offset="0.4897" stop-color="#4267B0"/>
<stop offset="0.4898" stop-color="#4368B0"/>
<stop offset="1" stop-color="#60BFBB"/>
</linearGradient>
<linearGradient id="paint3_linear_364_5153" x1="67.5904" y1="18.5035" x2="1.38785" y2="45.0196" gradientUnits="userSpaceOnUse">
<stop stop-color="#7D4695"/>
<stop offset="0.4897" stop-color="#4267B0"/>
<stop offset="0.4898" stop-color="#4368B0"/>
<stop offset="1" stop-color="#60BFBB"/>
</linearGradient>
</defs>
</svg>
