<svg width="72" height="72" viewBox="0 0 72 72" fill="none" xmlns="http://www.w3.org/2000/svg">
<path fill-rule="evenodd" clip-rule="evenodd" d="M36 0C55.8792 0 72 16.1208 72 36C72 55.8792 55.8792 72 36 72C16.1208 72 0 55.8792 0 36C0 16.1208 16.1208 0 36 0Z" fill="#1E1E1E"/>
<path d="M36.54 51.0476C25.0272 51.0476 15.696 47.7212 15.696 43.2644C15.696 40.9388 18.2376 38.8436 22.3056 37.3676C25.4808 39.4052 30.8088 40.4492 36.8496 40.4492C42.7464 40.4492 47.9592 39.1748 51.1632 37.2236C55.0008 38.6852 57.384 40.7228 57.384 42.9692C57.384 47.4332 48.0528 51.0476 36.54 51.0476Z" fill="white"/>
<path d="M36.6624 39.4483C27.936 39.4483 20.8584 36.7123 20.8584 33.3355C20.8584 31.4635 23.04 29.7859 26.46 28.6699C28.9008 29.9443 32.5584 30.7579 36.6624 30.7579C40.7664 30.7579 44.424 29.9443 46.8648 28.6699C50.292 29.7931 52.4664 31.4635 52.4664 33.3355C52.4736 36.7123 45.396 39.4483 36.6624 39.4483Z" fill="white"/>
<path d="M36.6048 29.7431C29.8584 29.7431 24.3864 27.4823 24.3864 24.7031C24.3864 21.9239 29.8584 19.6631 36.6048 19.6631C43.3512 19.6631 48.8232 21.9239 48.8232 24.7031C48.8232 27.4823 43.3512 29.7431 36.6048 29.7431Z" fill="white"/>
</svg>
