<svg width="72" height="72" viewBox="0 0 72 72" fill="none" xmlns="http://www.w3.org/2000/svg">
<path d="M36.5394 0C26.7729 0 18.8691 7.99336 18.8691 17.8704V24.5681C15.4395 25.196 12 26.0332 12 27.1196V62.0731C12 62.0731 12 63.0399 13.0742 63.4983C16.967 65.093 32.282 70.5748 35.8003 71.8306C36.2536 72 36.3817 72 36.5 72C36.6675 72 36.7464 72 37.1997 71.8306C40.718 70.5748 56.0724 65.093 59.9652 63.4983C60.9606 63.0797 61 62.113 61 62.113V27.1196C61 26.0332 57.6098 25.1561 54.1704 24.5681V17.8704C54.2196 7.99336 46.2665 0 36.5394 0ZM36.5394 8.54153C42.2949 8.54153 45.7737 12.0598 45.7737 17.8804V23.701C39.3186 23.2425 33.8095 23.2425 27.315 23.701V17.8804C27.315 12.0498 30.7938 8.54153 36.5394 8.54153ZM36.5 32.2724C44.532 32.2724 51.2729 32.9003 51.2729 34.0266V55.8339C51.2729 56.1728 51.2335 56.2126 50.9379 56.3322C50.6521 56.4618 37.2391 61.3555 37.2391 61.3555C37.2391 61.3555 36.6971 61.5249 36.5394 61.5249C36.3719 61.5249 35.8397 61.3156 35.8397 61.3156C35.8397 61.3156 22.4268 56.4219 22.141 56.2924C21.8552 56.1628 21.8059 56.1229 21.8059 55.794V33.9867C21.7271 32.8605 28.468 32.2724 36.5 32.2724Z" fill="black"/>
</svg>
