<svg width="72" height="72" viewBox="0 0 72 72" fill="none" xmlns="http://www.w3.org/2000/svg">
<g clip-path="url(#clip0_116_23540)">
<path d="M36.0001 72.0002C55.8824 72.0002 72.0002 55.8824 72.0002 36.0001C72.0002 16.1178 55.8824 0 36.0001 0C16.1178 0 0 16.1178 0 36.0001C0 55.8824 16.1178 72.0002 36.0001 72.0002Z" fill="url(#paint0_linear_116_23540)"/>
<path d="M51.7547 50.3443L39.5815 20.9133C38.8949 19.3917 37.8743 18.6494 36.5289 18.6494H35.4526C34.1073 18.6494 33.0866 19.3917 32.4001 20.9133L27.1021 33.7361H23.0938C21.8969 33.7453 20.9227 34.7103 20.9134 35.9165V35.9443C20.9227 37.1412 21.8969 38.1154 23.0938 38.1247H25.2464L20.1897 50.3443C20.0969 50.6134 20.0413 50.8918 20.0413 51.1794C20.0413 51.866 20.2547 52.4041 20.6351 52.8217C21.0155 53.2392 21.5629 53.4433 22.2495 53.4433C22.7042 53.434 23.1402 53.2949 23.5021 53.0258C23.8918 52.7567 24.1609 52.367 24.3743 51.9217L29.9413 38.1154H33.8011C34.998 38.1062 35.9722 37.1412 35.9815 35.935V35.8794C35.9722 34.6824 34.998 33.7082 33.8011 33.6989H31.7413L35.9908 23.1123L47.5702 51.9124C47.7836 52.3577 48.0527 52.7474 48.4423 53.0165C48.8042 53.2856 49.2496 53.4248 49.6949 53.434C50.3815 53.434 50.9197 53.2299 51.3094 52.8124C51.6991 52.3949 51.9032 51.8567 51.9032 51.1701C51.9125 50.8918 51.8661 50.6041 51.7547 50.3443Z" fill="white"/>
</g>
<defs>
<linearGradient id="paint0_linear_116_23540" x1="62.8412" y1="13.4153" x2="9.2731" y2="58.4874" gradientUnits="userSpaceOnUse">
<stop stop-color="#B6509E"/>
<stop offset="1" stop-color="#2EBAC6"/>
</linearGradient>
<clipPath id="clip0_116_23540">
<rect width="72" height="72" fill="white"/>
</clipPath>
</defs>
</svg>
