<svg width="72" height="72" viewBox="0 0 72 72" fill="none" xmlns="http://www.w3.org/2000/svg">
<path d="M36 72C55.8823 72 72 55.8823 72 36C72 16.1177 55.8823 0 36 0C16.1177 0 0 16.1177 0 36C0 55.8823 16.1177 72 36 72Z" fill="#0093DD"/>
<path fill-rule="evenodd" clip-rule="evenodd" d="M30.3749 36.0002L42.0749 47.9252L49.4999 40.5002C50.8499 39.1502 52.8749 39.1502 53.9999 40.5002C55.3499 41.8502 55.3499 44.1002 53.9999 45.4502L44.3249 55.3502C42.9749 56.7002 40.9499 56.7002 39.5999 55.3502L25.6499 40.9502V49.5002C25.6499 51.3002 24.0749 52.8752 22.2749 52.8752C20.4749 52.8752 18.8999 51.3002 18.8999 49.5002V22.5002C18.8999 20.7002 20.4749 19.1252 22.2749 19.1252C24.0749 19.1252 25.6499 20.7002 25.6499 22.5002V31.0502L39.5999 16.6502C40.9499 15.3002 42.9749 15.3002 44.3249 16.6502L53.9999 26.5502C55.3499 27.9002 55.3499 30.1502 53.9999 31.5002C52.6499 32.8502 50.6249 32.8502 49.4999 31.5002L42.0749 23.8502L30.3749 36.0002ZM42.0749 32.6252C43.8749 32.6252 45.4499 34.2002 45.4499 36.0002C45.4499 37.8002 43.8749 39.3752 42.0749 39.3752C40.2749 39.3752 38.6999 37.8002 38.6999 36.0002C38.6999 34.2002 40.2749 32.6252 42.0749 32.6252Z" fill="white"/>
</svg>
