<svg width="72" height="72" viewBox="0 0 72 72" fill="none" xmlns="http://www.w3.org/2000/svg">
<path fill-rule="evenodd" clip-rule="evenodd" d="M15.5944 5.99707H20.3169V20.2887H6.02523V15.5662C6.02523 10.3218 10.35 5.99707 15.5944 5.99707ZM28.8666 5.99707H56.2817H56.3314C61.5758 5.99707 65.9006 10.3218 65.9006 15.5662V42.9813H28.8666V5.99707ZM6 28.8389H20.2916V43.1305H6V28.8389ZM56.4309 65.8741H51.7084V51.7067H66.0001V56.28V56.3049C66.0001 61.5493 61.6753 65.8741 56.4309 65.8741ZM28.8666 51.6807H43.1583V65.9723H28.8666V51.6807ZM6 56.4031V51.6807H20.2916V65.9723H15.5692C10.3248 65.9723 6 61.6475 6 56.4031Z" fill="#142533"/>
</svg>
