<svg width="72" height="72" viewBox="0 0 72 72" fill="none" xmlns="http://www.w3.org/2000/svg">
<path d="M26.0466 17.5708L22.6629 30.3204L0 33.2284L26.0466 17.5708Z" fill="#57BAE5"/>
<path d="M32.2002 68.9999L37.8488 45.8433L30.5083 42.8545L32.2002 68.9999Z" fill="#005472"/>
<path d="M22.6629 30.3071L16.6868 42.424L0 33.2286L22.6629 30.3071Z" fill="#34AFE4"/>
<path d="M32.2001 68.9999L30.5219 42.8545L16.6868 42.3833L32.2001 68.9999Z" fill="#0076A7"/>
<path d="M22.6629 30.3071L30.5219 42.8413L16.6868 42.3836L22.6629 30.3071Z" fill="#009DE2"/>
<path d="M26.0466 17.5708L44.8618 19.8999L22.6628 30.3204L26.0466 17.5708Z" fill="#7ACDF2"/>
<path d="M65.4917 11.7681L53.6077 25.3389L54.44 12.7913L65.4917 11.7681Z" fill="#7ACDF2"/>
<path d="M71.9999 4L65.4917 11.7682L70.6219 12.3875L71.9999 4Z" fill="#7ACDF2"/>
<path d="M59.0654 18.8093L70.5674 12.3739L65.4918 11.7681L59.0654 18.8093Z" fill="#00ABE7"/>
<path d="M37.8488 45.8434L38.4082 30.2666L30.5083 42.8546L37.8488 45.8434Z" fill="#0076A7"/>
<path d="M38.4082 30.2666L30.5082 42.8546L22.6628 30.3205L38.4082 30.2666Z" fill="#008DBE"/>
<path d="M44.8618 19.8999L38.3945 30.2665H22.6628L44.8618 19.8999Z" fill="#57BAE5"/>
<path d="M38.3946 30.2666L37.8489 45.8434L52.2844 60.4106L38.3946 30.2666Z" fill="#00698D"/>
<path d="M59.8295 52.2651L52.2024 33.6187L52.2843 60.4237L59.8295 52.2651Z" fill="#09A1CB"/>
<path d="M53.6077 25.3389L52.2433 33.6052L38.3945 30.2664L53.6077 25.3389Z" fill="#09A1CB"/>
<path d="M60.5935 36.5673L52.2024 33.6189L53.5668 25.3525L60.5935 36.5673Z" fill="#8BDAFF"/>
<path d="M63.5952 51.7538L54.4536 37.2944H59.6793L63.5952 51.7538Z" fill="#7ACDF2"/>
<path d="M46.5811 16.817L53.6078 25.3391L54.4401 12.7915L46.5811 16.817Z" fill="#57BAE5"/>
<path d="M52.2024 33.6189L38.3945 30.2666L52.2842 60.4106L52.2024 33.6189Z" fill="#008DBE"/>
<path d="M59.8294 52.2651L62.8721 53.948L52.3115 60.4103L59.8294 52.2651Z" fill="#0076A7"/>
<path d="M63.5952 51.5785L52.2024 33.6187L59.8295 52.2786L63.5952 51.5785Z" fill="#57BAE5"/>
<path d="M46.581 16.8169L38.3945 30.28L53.6077 25.3525L46.581 16.8169Z" fill="#7ACDF2"/>
</svg>
