<svg width="72" height="72" viewBox="0 0 72 72" fill="none" xmlns="http://www.w3.org/2000/svg">
<path fill-rule="evenodd" clip-rule="evenodd" d="M36 0C55.8844 0 72 16.1156 72 36C72 55.8844 55.8844 72 36 72C16.1156 72 0 55.8844 0 36C0 16.1156 16.1156 0 36 0Z" fill="url(#paint0_radial_115_19843)"/>
<path d="M22.8796 27.8012C30.1218 20.7277 41.8781 20.7277 49.1203 27.8012L49.9921 28.659C50.3578 29.0105 50.3578 29.5871 49.9921 29.9387L47.0109 32.8496C46.8281 33.0324 46.5328 33.0324 46.35 32.8496L45.1546 31.6824C40.0921 26.7465 31.9078 26.7465 26.8453 31.6824L25.5656 32.934C25.3828 33.1168 25.0875 33.1168 24.9046 32.934L21.9234 30.023C21.5578 29.6715 21.5578 29.0949 21.9234 28.7434L22.8796 27.8012ZM55.2937 33.8199L57.9515 36.4074C58.3171 36.759 58.3171 37.3355 57.9515 37.6871L45.9843 49.373C45.6187 49.7246 45.0281 49.7246 44.6765 49.373L36.1828 41.0762C36.0984 40.9918 35.9437 40.9918 35.8593 41.0762L27.3656 49.373C27 49.7246 26.4093 49.7246 26.0578 49.373L14.0484 37.6871C13.6828 37.3355 13.6828 36.759 14.0484 36.4074L16.7062 33.8199C17.0718 33.4684 17.6625 33.4684 18.014 33.8199L26.5078 42.1168C26.5921 42.2012 26.7468 42.2012 26.8312 42.1168L35.325 33.8199C35.6906 33.4684 36.2812 33.4684 36.6328 33.8199L45.1265 42.1168C45.2109 42.2012 45.3656 42.2012 45.45 42.1168L53.9437 33.8199C54.3375 33.4684 54.9281 33.4684 55.2937 33.8199Z" fill="white"/>
<defs>
<radialGradient id="paint0_radial_115_19843" cx="0" cy="0" r="1" gradientUnits="userSpaceOnUse" gradientTransform="translate(0.00022316 36.0011) scale(72)">
<stop stop-color="#5D9DF6"/>
<stop offset="1" stop-color="#006FFF"/>
</radialGradient>
</defs>
</svg>
