<svg width="72" height="72" viewBox="0 0 72 72" fill="none" xmlns="http://www.w3.org/2000/svg">
<g clip-path="url(#clip0_115_19997)">
<path d="M2.72487 61.2094C6.04476 64.7251 24.2798 81.5757 52.9018 62.0193C73.5984 45.9014 73.0814 10.9571 71.0932 0.404612C70.4005 1.94036 46.3607 54.5842 2.72487 61.2094ZM71.0904 0.39568C70.8369 0.290957 44.2096 -3.33931 17.8865 13.6148C1.54068 24.1428 -0.620037 39.5516 0.125759 49.8192C38.3918 45.537 70.2223 1.60295 71.0904 0.39568Z" fill="#97C554"/>
<path d="M71.0904 0.39568C70.8369 0.290957 44.2096 -3.33931 17.8865 13.6148C1.54068 24.1428 -0.620037 39.5516 0.125759 49.8192C38.3918 45.537 70.2223 1.60295 71.0904 0.39568Z" fill="#709B30"/>
</g>
<defs>
<clipPath id="clip0_115_19997">
<rect width="72" height="72" fill="white"/>
</clipPath>
</defs>
</svg>
