<svg width="72" height="72" viewBox="0 0 72 72" fill="none" xmlns="http://www.w3.org/2000/svg">
<path fill-rule="evenodd" clip-rule="evenodd" d="M24.5881 7.41396C19.6812 8.25036 13.509 11.42 9.34367 15.2418C-2.95761 26.5285 -3.13694 45.8061 8.95009 57.6019C14.846 63.3563 21.3893 65.9723 29.9549 65.9999C41.1418 66.0356 51.387 59.7533 56.3401 49.8215L58.5026 45.4853H61.6476H64.792L65.1809 42.5807L65.5697 39.6762L68.604 39.5014L71.639 39.3267L71.8195 36.5406L72 33.7546H68.8201H65.6407L65.0886 30.6753L64.537 27.596L61.4523 27.4194L58.3671 27.2429L56.5602 23.607C50.762 11.9402 37.4842 5.21564 24.5881 7.41396ZM39.4876 15.1075C41.3347 15.9504 44.1021 17.7856 45.6373 19.1851C48.3698 21.6779 51.2207 25.5167 51.2207 26.7045C51.2207 27.0335 49.8766 27.3027 48.2331 27.3027C45.4444 27.3027 45.0526 27.1109 42.3378 24.4205C34.9198 17.0695 23.3559 17.4478 16.4096 25.2686C8.86902 33.7581 11.7063 47.3012 22.0788 52.3307C28.973 55.6733 37.2315 54.0862 42.6136 48.3845C45.1479 45.6988 45.4799 45.5345 48.7012 45.368L52.1084 45.192L52.7476 42.5526L53.3868 39.9132L56.4466 39.7361L59.5064 39.5583V36.6568V33.7546H56.5472H53.588V36.6873V39.6199H47.3892H41.1897L40.2155 41.5262C37.8541 46.1457 34.3836 48.0631 28.9985 47.7235C24.9083 47.4654 21.8675 45.6941 19.8387 42.3872C15.7236 35.6814 20.0819 26.7643 28.2131 25.2522C32.7123 24.4158 38.1382 27.3285 40.2339 31.7052L41.2151 33.7546H47.0068C50.1927 33.7546 52.9565 33.5986 53.1489 33.4079C53.3412 33.2167 53.1223 31.8313 52.6624 30.3286C52.202 28.8254 51.8226 27.5303 51.819 27.4494C51.8155 27.3684 53.2584 27.3027 55.025 27.3027H58.2381L58.966 30.5287L59.6946 33.7546H62.491C65.0033 33.7546 65.3152 33.9036 65.5697 35.2209C65.7254 36.0274 65.7254 37.3471 65.5697 38.1536C65.3146 39.4751 65.0063 39.6199 62.4436 39.6199C59.71 39.6199 59.5857 39.6932 59.2134 41.5262C58.3955 45.5545 58.4671 45.4853 55.0842 45.4853H51.9256L50.1625 48.581C47.8691 52.6081 44.3246 55.7296 39.4568 58.0101C35.9111 59.6717 35.0009 59.8454 29.9146 59.8325C25.4552 59.8213 23.5844 59.5386 20.8685 58.467C16.0829 56.579 10.9316 51.7166 8.4713 46.7651C6.65851 43.1174 6.53719 42.4869 6.53719 36.7013C6.53719 30.9838 6.67567 30.2389 8.41567 26.5983C11.3677 20.4233 16.2042 16.2812 23.1086 14.0154C27.0762 12.7133 35.4667 13.2728 39.4876 15.1075ZM26.4666 33.3522C23.8797 36.0814 25.3765 40.4305 29.1512 41.1531C30.7515 41.4593 31.3451 41.2247 32.9194 39.6651C34.4931 38.1049 34.7298 37.5166 34.4209 35.9306C33.6799 32.1299 29.0488 30.629 26.4666 33.3522Z" fill="#015EE7"/>
</svg>
