<svg width="72" height="72" viewBox="0 0 72 72" fill="none" xmlns="http://www.w3.org/2000/svg">
<path fill-rule="evenodd" clip-rule="evenodd" d="M15.6379 5.16595C8.77432 6.21358 3.19826 10.7155 0.87706 17.0837C0.131168 19.1299 0.130196 19.1591 0.0356648 39.2921C-0.0685788 61.4863 -0.0724635 61.4369 1.90331 64.1393C2.44298 64.8774 3.47732 65.9068 4.20185 66.4267C5.6755 67.4843 8.52245 68.2461 9.80769 67.9263L10.6517 67.7165L10.6588 44.5472C10.6669 18.3565 10.5167 19.9142 13.2574 17.5896C15.5638 15.6336 18.5833 15.1996 20.9323 16.4862C21.6571 16.8833 26.8548 21.3939 32.4823 26.5101C40.6275 33.915 42.8785 36.136 43.5175 37.3989C45.3376 40.9957 43.7603 44.8603 39.7101 46.7287C34.6303 49.0719 29.1342 45.6676 29.1119 40.1639C29.1025 37.8868 30.0167 36.0392 32.2113 33.899L33.9252 32.2278L29.8153 28.4716L25.7055 24.7154L23.5873 26.9351C19.8351 30.8674 18.278 34.639 18.2666 39.822C18.2579 43.9717 19.0993 46.8224 21.3354 50.2161C25.0321 55.827 30.5868 58.6725 37.1982 58.3415C43.9112 58.0053 49.7861 54.2757 52.7421 48.4737C55.6273 42.8109 55.4554 35.217 52.3417 30.7686C51.758 29.9353 49.6783 27.8304 47.7197 26.0915C45.761 24.3523 40.7334 19.6935 36.5471 15.7384C32.3609 11.7831 28.209 8.08943 27.3206 7.52969C24.1807 5.55152 19.4217 4.58857 15.6379 5.16595ZM48.9408 5.96082C45.0427 6.89682 40.1805 10.2697 38.7369 13.0401L38.2341 14.0044L41.7405 17.1299C43.6691 18.8489 45.3434 20.2552 45.4613 20.2552C45.5791 20.2552 46.5506 19.4703 47.6206 18.5108C48.6906 17.5517 50.205 16.4692 50.9862 16.1051C54.6855 14.3822 59.2836 16.2648 61.1231 20.2552C61.5818 21.2508 61.6404 23.9937 61.6404 44.4731V67.5683L63.4533 67.5343C64.7884 67.5093 65.7133 67.2594 66.9604 66.5868C68.9837 65.4959 70.0407 64.3254 71.144 61.9549L71.9654 60.1907L71.9828 39.5012L72 18.8117L71.2703 16.9131C69.1715 11.453 64.5951 7.56433 58.416 5.99129C56.1116 5.40428 51.3222 5.38889 48.9408 5.96082Z" fill="black"/>
</svg>
