<svg width="72" height="72" viewBox="0 0 72 72" fill="none" xmlns="http://www.w3.org/2000/svg">
<g clip-path="url(#clip0_115_19635)">
<path d="M47.0533 0C34.3867 0 23.6333 9.74222 22.2778 22.2778C9.74222 23.6333 0 34.3911 0 47.0533C0.0047089 53.6682 2.63452 60.0107 7.31191 64.6881C11.9893 69.3655 18.3318 71.9953 24.9467 72C37.6133 72 48.4089 62.2578 49.7222 49.7222C62.2578 48.3667 72 37.6089 72 24.9467C71.9953 18.3318 69.3655 11.9893 64.6881 7.31191C60.0107 2.63452 53.6682 0.0047089 47.0533 0V0ZM66.1644 27.7422C65.5391 31.8328 63.6229 35.6166 60.6954 38.5413C57.7679 41.466 53.9823 43.3786 49.8911 44V27.7422H66.1644ZM5.84444 44.2578C6.46013 40.16 8.37101 36.3667 11.2975 33.433C14.224 30.4993 18.0126 28.5791 22.1089 27.9533V44.2222H5.84444V44.2578ZM44.0467 49.8911C43.3658 54.4703 41.0625 58.6524 37.5565 61.6757C34.0505 64.6989 29.575 66.3621 24.9456 66.3621C20.3161 66.3621 15.8406 64.6989 12.3346 61.6757C8.82859 58.6524 6.52532 54.4703 5.84444 49.8911H44.0467ZM44.2578 27.7422V44.2222H27.7422V27.7422H44.2578ZM66.1556 22.1089H27.9533C28.6342 17.5297 30.9375 13.3476 34.4435 10.3243C37.9495 7.30107 42.4249 5.63795 47.0544 5.63795C51.6839 5.63795 56.1594 7.30107 59.6654 10.3243C63.1714 13.3476 65.4747 17.5297 66.1556 22.1089Z" fill="#00DCFA"/>
</g>
<defs>
<clipPath id="clip0_115_19635">
<rect width="72" height="72" fill="white"/>
</clipPath>
</defs>
</svg>
