<svg width="72" height="72" viewBox="0 0 72 72" fill="none" xmlns="http://www.w3.org/2000/svg">
<path fill-rule="evenodd" clip-rule="evenodd" d="M35.9999 3.13889C17.8513 3.13889 3.13889 17.8513 3.13889 35.9999C3.13889 54.1485 17.8513 68.8609 35.9999 68.8609C54.1485 68.8609 68.8609 54.1485 68.8609 35.9999C68.8609 17.8513 54.1485 3.13889 35.9999 3.13889ZM0 35.9999C0 16.1177 16.1177 0 35.9999 0C55.8821 0 71.9998 16.1177 71.9998 35.9999C71.9998 55.8821 55.8821 71.9998 35.9999 71.9998C16.1177 71.9998 0 55.8821 0 35.9999Z" fill="#F5C09A"/>
<path fill-rule="evenodd" clip-rule="evenodd" d="M35.9999 44.3799C36.8666 44.3799 37.5693 45.0825 37.5693 45.9493V70.4301C37.5693 71.2969 36.8666 71.9996 35.9999 71.9996C35.1331 71.9996 34.4304 71.2969 34.4304 70.4301V45.9493C34.4304 45.0825 35.1331 44.3799 35.9999 44.3799Z" fill="#F5C09A"/>
<path fill-rule="evenodd" clip-rule="evenodd" d="M35.9999 0C36.8666 0 37.5693 0.702664 37.5693 1.56944V8.81187C37.5693 9.67865 36.8666 10.3813 35.9999 10.3813C35.1331 10.3813 34.4304 9.67865 34.4304 8.81187V1.56944C34.4304 0.702664 35.1331 0 35.9999 0Z" fill="#F5C09A"/>
<path fill-rule="evenodd" clip-rule="evenodd" d="M35.0253 7.58224C35.5962 7.13014 36.4031 7.13014 36.974 7.58224L60.4367 26.1626C60.8128 26.4605 61.032 26.914 61.0318 27.3938C61.0315 27.8736 60.8119 28.3269 60.4355 28.6244L49.9536 36.908C49.2736 37.4455 48.2866 37.3299 47.7491 36.6498C47.2117 35.9697 47.3273 34.9828 48.0074 34.4453L56.9327 27.3918L35.9997 10.8146L15.0659 27.3923L36.9733 44.7193C37.6531 45.257 37.7683 46.244 37.2306 46.9239C36.6929 47.6037 35.7059 47.7189 35.0261 47.1812L11.5634 28.624C11.1872 28.3264 10.9677 27.8732 10.9675 27.3935C10.9674 26.9138 11.1866 26.4604 11.5626 26.1626L35.0253 7.58224Z" fill="#F5C09A"/>
<path fill-rule="evenodd" clip-rule="evenodd" d="M59.4624 25.8232C60.3291 25.8232 61.0318 26.5259 61.0318 27.3927V44.7236C61.0318 45.2021 60.8135 45.6545 60.4389 45.9522L56.8293 48.8214C56.1507 49.3608 55.1635 49.2479 54.6241 48.5694C54.0848 47.8909 54.1976 46.9036 54.8761 46.3642L57.8929 43.9663V27.3927C57.8929 26.5259 58.5956 25.8232 59.4624 25.8232Z" fill="#F5C09A"/>
<path fill-rule="evenodd" clip-rule="evenodd" d="M12.537 25.8232C13.4038 25.8232 14.1064 26.5259 14.1064 27.3927V43.9645L36.0006 61.3028L45.624 53.6965C46.304 53.159 47.291 53.2746 47.8285 53.9546C48.366 54.6346 48.2504 55.6216 47.5704 56.1591L36.9729 64.5353C36.402 64.9865 35.5958 64.9861 35.0253 64.5344L11.5626 45.954C11.1867 45.6563 10.9675 45.2031 10.9675 44.7236V27.3927C10.9675 26.5259 11.6702 25.8232 12.537 25.8232Z" fill="#F5C09A"/>
<path fill-rule="evenodd" clip-rule="evenodd" d="M17.4395 46.6242C18.1904 47.0572 18.448 48.0169 18.015 48.7678L15.3692 53.3559H25.425C26.2918 53.3559 26.9945 54.0586 26.9945 54.9254C26.9945 55.7922 26.2918 56.4948 25.425 56.4948H12.6525C12.0919 56.4948 11.5739 56.1959 11.2935 55.7105C11.0131 55.2251 11.0128 54.627 11.2929 54.1414L15.2959 47.1997C15.7289 46.4489 16.6886 46.1912 17.4395 46.6242Z" fill="#F5C09A"/>
<path fill-rule="evenodd" clip-rule="evenodd" d="M35.9988 12.9092C36.5597 12.909 37.078 13.2082 37.3584 13.694L60.7054 54.1405C60.9857 54.6261 60.9857 55.2244 60.7053 55.7099C60.4249 56.1955 59.9068 56.4946 59.3462 56.4946H35.9992C35.1324 56.4946 34.4297 55.7919 34.4297 54.9251C34.4297 54.0584 35.1324 53.3557 35.9992 53.3557H56.6281L35.9999 17.6193L25.1647 36.4114C24.7317 37.1623 23.772 37.42 23.0211 36.9871C22.2702 36.5541 22.0125 35.5944 22.4454 34.8435L34.6395 13.6947C34.9197 13.2088 35.4379 12.9093 35.9988 12.9092Z" fill="#F5C09A"/>
</svg>
