<svg width="72" height="72" viewBox="0 0 72 72" fill="none" xmlns="http://www.w3.org/2000/svg">
<g clip-path="url(#clip0_116_23421)">
<path d="M18.6839 5.41176L53.9854 25.9904V46.9806L0 15.4953L17.3015 5.41176C17.5139 5.29597 17.7514 5.23535 17.9927 5.23535C18.234 5.23535 18.4716 5.29597 18.6839 5.41176Z" fill="#3CA9E5"/>
<path d="M53.9854 5L35.9854 15.4951L53.9854 25.9902V5Z" fill="#2853C3"/>
<path d="M53.9854 5L71.3014 15.0835C71.5097 15.2115 71.6828 15.3903 71.8049 15.6035C71.9269 15.8166 71.994 16.0574 71.9999 16.3035V57.4608L53.9854 46.9804V5Z" fill="#1A4199"/>
<path d="M71.9855 57.4756L54.684 67.5592C54.4628 67.6882 54.2119 67.7561 53.9565 67.7561C53.701 67.7561 53.4501 67.6882 53.2289 67.5592L17.9419 46.9805V25.9609L71.9855 57.4756Z" fill="#2853C3"/>
<path d="M2.46799e-05 15.4951V56.6524C-0.00143779 56.9061 0.0621194 57.1558 0.184514 57.3773C0.306909 57.5988 0.483975 57.7846 0.698489 57.9165L18 68V25.9608L2.46799e-05 15.4951Z" fill="#60BEFF"/>
<path d="M18 67.9707L35.9854 57.4756L18 46.9805V67.9707Z" fill="#3CA9E5"/>
</g>
<defs>
<clipPath id="clip0_116_23421">
<rect width="72" height="63" fill="white" transform="translate(0 5)"/>
</clipPath>
</defs>
</svg>
