<svg width="72" height="72" viewBox="0 0 72 72" fill="none" xmlns="http://www.w3.org/2000/svg">
<path fill-rule="evenodd" clip-rule="evenodd" d="M36 0C55.8792 0 72 16.1208 72 36C72 55.8792 55.8792 72 36 72C16.1208 72 0 55.8792 0 36C0 16.1208 16.1208 0 36 0Z" fill="#B41514"/>
<path d="M35.7119 59.4C34.7578 59.4 33.8252 59.117 33.0319 58.587C32.2386 58.0569 31.6203 57.3035 31.2551 56.422C30.89 55.5405 30.7945 54.5706 30.9806 53.6348C31.1668 52.6991 31.6262 51.8395 32.3009 51.1649C32.9755 50.4902 33.8351 50.0308 34.7708 49.8446C35.7066 49.6585 36.6765 49.754 37.558 50.1192C38.4395 50.4843 39.1929 51.1026 39.723 51.8959C40.253 52.6892 40.5359 53.6219 40.5359 54.576C40.5359 55.8554 40.0277 57.0824 39.123 57.987C38.2184 58.8917 36.9913 59.4 35.7119 59.4Z" fill="white"/>
<path d="M35.7119 26.1363C34.7578 26.1363 33.8252 25.8534 33.0319 25.3233C32.2386 24.7932 31.6203 24.0398 31.2551 23.1583C30.89 22.2769 30.7945 21.3069 30.9806 20.3712C31.1668 19.4354 31.6262 18.5758 32.3009 17.9012C32.9755 17.2266 33.8351 16.7671 34.7708 16.581C35.7066 16.3948 36.6765 16.4904 37.558 16.8555C38.4395 17.2206 39.1929 17.8389 39.723 18.6322C40.253 19.4255 40.5359 20.3582 40.5359 21.3123C40.5359 22.5917 40.0277 23.8187 39.123 24.7234C38.2184 25.628 36.9913 26.1363 35.7119 26.1363Z" fill="white"/>
<path d="M15.9839 46.5124V39.8164H55.4399V46.5124H15.9839Z" fill="white"/>
<path d="M35.712 36.504C24.4585 36.504 15.3001 27.576 14.9185 16.416H22.0537C22.4281 23.6376 28.4041 29.376 35.712 29.376C43.02 29.376 48.996 23.6376 49.3704 16.416H56.5056C56.124 27.576 46.9656 36.504 35.712 36.504Z" fill="white"/>
</svg>
