<svg width="24" height="24" viewBox="0 0 24 24" fill="none" xmlns="http://www.w3.org/2000/svg">
<path fill-rule="evenodd" clip-rule="evenodd" d="M21.668 12.3672L19.6992 15.1094C19.3867 15.5391 18.9023 15.5391 18.5976 15.1094L16.6211 12.3672C16.2383 11.8359 16.4258 11.3359 17.0508 11.3359H18.2695C17.8008 8.375 15.2226 6.03125 12.0039 6.03125C10.2617 6.03125 8.68358 6.75781 7.56639 7.90625C7.0742 8.32812 6.54295 8.26562 6.21483 7.90625C5.89451 7.57031 5.89451 7.00781 6.33983 6.60156C7.7617 5.14062 9.78514 4.19531 12.0039 4.19531C16.1914 4.19531 19.6367 7.39062 20.1211 11.3359H21.2383C21.8789 11.3359 22.0586 11.8359 21.668 12.3672ZM17.6836 18.125C16.2617 19.5859 14.2383 20.5312 12.0039 20.5312C7.8242 20.5312 4.37889 17.3359 3.89451 13.3906H2.7617C2.12108 13.3906 1.9492 12.8906 2.33201 12.3594L4.30858 9.61719C4.61326 9.1875 5.09764 9.1875 5.41014 9.61719L7.37889 12.3672C7.7617 12.8906 7.58201 13.3906 6.9492 13.3906H5.74608C6.21483 16.3594 8.79295 18.6953 12.0039 18.6953C13.7617 18.6953 15.3398 17.9688 16.4492 16.8203C16.9492 16.3984 17.4726 16.4531 17.8086 16.8125C18.1211 17.1484 18.1211 17.7109 17.6836 18.125Z" fill="white"/>
</svg>
