<svg width="24" height="24" viewBox="0 0 24 24" fill="none" xmlns="http://www.w3.org/2000/svg">
<path fill-rule="evenodd" clip-rule="evenodd" d="M19.0391 18.9141C18.1641 19.8516 17.2188 20.2656 15.8438 20.2656C13.3828 20.2656 10.7266 18.9766 8.07031 16.3594C5.40625 13.7266 4.10938 11.0078 4.10938 8.64064C4.10938 7.17189 4.53125 6.24221 5.5 5.34377C5.54688 5.29689 5.60938 5.24221 5.67188 5.18752C6.1875 4.75002 6.71875 4.53127 7.23438 4.53908C7.83594 4.54689 8.41406 4.85939 8.86719 5.50783L10.5781 7.94533C11.1094 8.70314 11.1406 9.57033 10.4766 10.2266L9.91406 10.7891C9.6875 11.0156 9.67969 11.2344 9.88281 11.5156C10.1875 11.9766 10.7266 12.586 11.2422 13.1016C11.7656 13.625 12.5234 14.2813 12.9453 14.586C13.2266 14.7891 13.4453 14.7735 13.6719 14.5469L14.2344 13.9844C14.8906 13.3203 15.7578 13.3516 16.5156 13.8828L18.8906 15.5313C19.5859 16.0156 19.8906 16.5547 19.8906 17.1563C19.8906 17.6563 19.6562 18.2188 19.2109 18.7266C19.1836 18.7578 19.1543 18.7891 19.125 18.8203C19.0957 18.8516 19.0664 18.8828 19.0391 18.9141ZM9.13281 15.3203C11.4219 17.5781 13.8438 18.8985 15.8359 18.875C16.6562 18.8672 17.3828 18.5703 17.8906 17.9922C17.9141 17.961 17.9375 17.9317 17.9609 17.9024C17.9844 17.8731 18.0078 17.8438 18.0312 17.8125C18.2109 17.6016 18.3047 17.375 18.3047 17.1641C18.3047 16.9453 18.2188 16.7422 17.9766 16.586L15.9062 15.2188C15.6172 15.0235 15.2812 15.0156 15 15.3125L14.4375 15.8828C13.8281 16.5156 13.1406 16.461 12.6016 16.0938C12.0703 15.7188 11.0859 14.8438 10.2891 14.0625C9.57031 13.3516 8.76562 12.4375 8.36719 11.8594C8 11.3203 7.94531 10.6328 8.57812 10.0235L9.15625 9.46096C9.44531 9.17971 9.44531 8.85158 9.25 8.55471L7.8125 6.42189C7.65625 6.18752 7.45312 6.09377 7.22656 6.09377C7.02344 6.09377 6.79688 6.18752 6.58594 6.35939C6.52344 6.41408 6.46875 6.46096 6.40625 6.50783C5.82812 7.00783 5.53125 7.73439 5.52344 8.56252C5.5 10.5469 6.84375 13.0547 9.13281 15.3203Z" fill="black" fill-opacity="0.4"/>
</svg>
