<svg width="20" height="20" viewBox="0 0 20 20" fill="none" xmlns="http://www.w3.org/2000/svg">
<path d="M9.99677 15.892C10.472 15.892 10.8627 15.4883 10.8627 15.0456V11.1719H14.6582C15.114 11.1719 15.5111 10.7813 15.5111 10.306C15.5111 9.83728 15.114 9.44014 14.6582 9.44014H10.8627V5.56645C10.8627 5.11072 10.472 4.72009 9.99677 4.72009C9.52802 4.72009 9.13739 5.11072 9.13739 5.56645V9.44014H5.34182C4.89911 9.44014 4.48895 9.83728 4.48895 10.306C4.48895 10.7813 4.89911 11.1719 5.34182 11.1719H9.13739V15.0456C9.13739 15.4883 9.52802 15.892 9.99677 15.892Z" fill="black" fill-opacity="0.4"/>
</svg>
