<svg width="309" height="468" viewBox="0 0 309 468" fill="none" xmlns="http://www.w3.org/2000/svg">
<path d="M170.267 28C212.098 28 245.678 38.7364 271.007 60.2091C296.336 81.6819 309 112.357 309 152.235C309 187.129 297.295 214.736 273.885 235.059C250.859 255.381 220.349 265.926 182.355 266.693L179.477 308.68H79.8885L76.4346 194.222H117.882C143.978 194.222 163.934 191.346 177.75 185.595C191.566 179.46 198.474 168.723 198.474 153.386C198.474 143.033 195.596 134.98 189.839 129.229C184.466 123.094 176.983 120.026 167.388 120.026C156.643 120.026 148.392 123.285 142.635 129.804C137.262 135.939 134.576 144.375 134.576 155.111H28.0794C27.3119 131.721 32.109 110.44 42.4708 91.268C53.2164 71.7124 69.3348 56.3747 90.826 45.2549C112.317 33.7516 138.797 28 170.267 28ZM130.546 468C110.59 468 94.4718 462.632 82.1912 451.895C70.2942 440.776 64.3458 426.78 64.3458 409.909C64.3458 393.037 70.2942 379.041 82.1912 367.922C94.4718 356.802 110.59 351.242 130.546 351.242C150.119 351.242 165.853 356.802 177.75 367.922C190.031 379.041 196.171 393.037 196.171 409.909C196.171 426.397 190.031 440.2 177.75 451.32C165.853 462.44 150.119 468 130.546 468Z" fill="url(#paint0_linear_364_5192)"/>
<path d="M170.267 28C212.098 28 245.678 38.7364 271.007 60.2091C296.336 81.6819 309 112.357 309 152.235C309 187.129 297.295 214.736 273.885 235.059C250.859 255.381 220.349 265.926 182.355 266.693L179.477 308.68H79.8885L76.4346 194.222H117.882C143.978 194.222 163.934 191.346 177.75 185.595C191.566 179.46 198.474 168.723 198.474 153.386C198.474 143.033 195.596 134.98 189.839 129.229C184.466 123.094 176.983 120.026 167.388 120.026C156.643 120.026 148.392 123.285 142.635 129.804C137.262 135.939 134.576 144.375 134.576 155.111H28.0794C27.3119 131.721 32.109 110.44 42.4708 91.268C53.2164 71.7124 69.3348 56.3747 90.826 45.2549C112.317 33.7516 138.797 28 170.267 28ZM130.546 468C110.59 468 94.4718 462.632 82.1912 451.895C70.2942 440.776 64.3458 426.78 64.3458 409.909C64.3458 393.037 70.2942 379.041 82.1912 367.922C94.4718 356.802 110.59 351.242 130.546 351.242C150.119 351.242 165.853 356.802 177.75 367.922C190.031 379.041 196.171 393.037 196.171 409.909C196.171 426.397 190.031 440.2 177.75 451.32C165.853 462.44 150.119 468 130.546 468Z" fill="black" fill-opacity="0.12"/>
<path d="M148.267 6C190.098 6 223.678 16.7364 249.007 38.2091C274.336 59.6819 287 90.3573 287 130.235C287 165.129 275.295 192.736 251.885 213.059C228.859 233.381 198.349 243.926 160.355 244.693L157.477 286.68H57.8885L54.4346 172.222H95.8819C121.978 172.222 141.934 169.346 155.75 163.595C169.566 157.46 176.474 146.723 176.474 131.386C176.474 121.033 173.596 112.98 167.839 107.229C162.466 101.094 154.983 98.0262 145.388 98.0262C134.643 98.0262 126.392 101.285 120.635 107.804C115.262 113.939 112.576 122.375 112.576 133.111H6.0794C5.31186 109.721 10.109 88.4401 20.4708 69.268C31.2164 49.7124 47.3348 34.3747 68.826 23.2549C90.3172 11.7516 116.797 6 148.267 6ZM108.546 446C88.5902 446 72.4718 440.632 60.1912 429.895C48.2942 418.776 42.3458 404.78 42.3458 387.909C42.3458 371.037 48.2942 357.041 60.1912 345.922C72.4718 334.802 88.5902 329.242 108.546 329.242C128.119 329.242 143.853 334.802 155.75 345.922C168.031 357.041 174.171 371.037 174.171 387.909C174.171 404.397 168.031 418.2 155.75 429.32C143.853 440.44 128.119 446 108.546 446Z" fill="white" stroke="url(#paint1_linear_364_5192)" stroke-width="12"/>
<defs>
<linearGradient id="paint0_linear_364_5192" x1="-112.5" y1="248" x2="286.688" y2="502.936" gradientUnits="userSpaceOnUse">
<stop stop-color="#FF00AA"/>
<stop offset="0.501768" stop-color="#9C42F5"/>
<stop offset="1" stop-color="#5D2DE1"/>
</linearGradient>
<linearGradient id="paint1_linear_364_5192" x1="-134.5" y1="226" x2="264.688" y2="480.936" gradientUnits="userSpaceOnUse">
<stop stop-color="#FF00AA"/>
<stop offset="0.501768" stop-color="#9C42F5"/>
<stop offset="1" stop-color="#5D2DE1"/>
</linearGradient>
</defs>
</svg>
