<svg width="20" height="20" viewBox="0 0 20 20" fill="none" xmlns="http://www.w3.org/2000/svg">
<path fill-rule="evenodd" clip-rule="evenodd" d="M16.8039 10.2995C16.8039 14.03 13.7309 17.1094 10.0005 17.1094C6.27 17.1094 3.19708 14.03 3.19708 10.2995C3.19708 6.56903 6.27 3.49609 10.0005 3.49609C13.7244 3.49609 16.8039 6.56903 16.8039 10.2995ZM4.7337 10.2995C4.7337 13.2227 7.07745 15.5795 10.0006 15.5795C12.9238 15.5795 15.2806 13.2227 15.2806 10.2995C15.2741 7.37634 12.9238 5.02606 10.0006 5.02606C7.07094 5.02606 4.7337 7.37634 4.7337 10.2995ZM9.84406 11.5494C10.2282 11.5494 10.4821 11.3411 10.5146 11.0677C10.5179 11.0579 10.5195 11.0449 10.5211 11.0319C10.5228 11.0189 10.5244 11.0059 10.5276 10.9961C10.5602 10.6771 10.8076 10.4622 11.2047 10.2018C11.8558 9.78516 12.2334 9.41406 12.2334 8.67834C12.2334 7.59766 11.2503 6.94659 10.0524 6.94659C8.93911 6.94659 8.16437 7.43488 7.94301 8.05988C7.89744 8.17706 7.8714 8.28772 7.8714 8.41797C7.8714 8.74347 8.13182 8.97784 8.4964 8.97784C8.84005 8.97784 8.96703 8.82672 9.11672 8.64844C9.13719 8.62408 9.15807 8.59924 9.17999 8.57422C9.38833 8.28125 9.63572 8.11194 9.98077 8.11194C10.4365 8.11194 10.7295 8.37238 10.7295 8.75647C10.7295 9.12756 10.456 9.33594 9.92218 9.70703C9.45994 10.026 9.14093 10.3516 9.14093 10.8919V10.957C9.14093 11.3477 9.38833 11.5494 9.84406 11.5494ZM10.6515 12.845C10.6515 13.2877 10.2934 13.5938 9.83771 13.5938C9.38198 13.5938 9.0174 13.2877 9.0174 12.845C9.0174 12.4088 9.38198 12.1028 9.83771 12.1028C10.2934 12.1028 10.6515 12.4088 10.6515 12.845Z" fill="black" fill-opacity="0.4"/>
</svg>
