<svg width="315" height="474" viewBox="0 0 315 474" fill="none" xmlns="http://www.w3.org/2000/svg">
<path d="M173.519 28.2861C216.179 28.2861 250.424 39.1619 276.254 60.9136C302.085 82.6652 315 113.739 315 154.135C315 189.481 303.063 217.448 279.19 238.034C255.707 258.62 224.593 269.302 185.848 270.079L182.912 312.611H81.3517L77.8293 196.667H120.097C146.711 196.667 167.062 193.754 181.151 187.928C195.241 181.713 202.285 170.837 202.285 155.3C202.285 144.813 199.35 136.656 193.479 130.83C188 124.615 180.368 121.507 170.584 121.507C159.626 121.507 151.211 124.809 145.341 131.412C139.862 137.627 137.122 146.172 137.122 157.048H28.5166C27.7339 133.354 32.626 111.797 43.193 92.3758C54.1514 72.5663 70.589 57.0294 92.5057 45.7651C114.422 34.1125 141.427 28.2861 173.519 28.2861ZM133.013 474C112.661 474 96.2238 468.563 83.6999 457.687C71.5674 446.422 65.5011 432.245 65.5011 415.154C65.5011 398.064 71.5674 383.886 83.6999 372.622C96.2238 361.358 112.661 355.726 133.013 355.726C152.973 355.726 169.019 361.358 181.151 372.622C193.675 383.886 199.937 398.064 199.937 415.154C199.937 431.857 193.675 445.84 181.151 457.104C169.019 468.368 152.973 474 133.013 474Z" fill="url(#paint0_linear_252_13871)"/>
<path d="M173.519 28.2861C216.179 28.2861 250.424 39.1619 276.254 60.9136C302.085 82.6652 315 113.739 315 154.135C315 189.481 303.063 217.448 279.19 238.034C255.707 258.62 224.593 269.302 185.848 270.079L182.912 312.611H81.3517L77.8293 196.667H120.097C146.711 196.667 167.062 193.754 181.151 187.928C195.241 181.713 202.285 170.837 202.285 155.3C202.285 144.813 199.35 136.656 193.479 130.83C188 124.615 180.368 121.507 170.584 121.507C159.626 121.507 151.211 124.809 145.341 131.412C139.862 137.627 137.122 146.172 137.122 157.048H28.5166C27.7339 133.354 32.626 111.797 43.193 92.3758C54.1514 72.5663 70.589 57.0294 92.5057 45.7651C114.422 34.1125 141.427 28.2861 173.519 28.2861ZM133.013 474C112.661 474 96.2238 468.563 83.6999 457.687C71.5674 446.422 65.5011 432.245 65.5011 415.154C65.5011 398.064 71.5674 383.886 83.6999 372.622C96.2238 361.358 112.661 355.726 133.013 355.726C152.973 355.726 169.019 361.358 181.151 372.622C193.675 383.886 199.937 398.064 199.937 415.154C199.937 431.857 193.675 445.84 181.151 457.104C169.019 468.368 152.973 474 133.013 474Z" fill="black" fill-opacity="0.12"/>
<path d="M151.084 6C193.743 6 227.988 16.8758 253.819 38.6274C279.649 60.3791 292.564 91.4528 292.564 131.849C292.564 167.195 280.628 195.162 256.754 215.748C233.272 236.334 202.158 247.016 163.412 247.793L160.477 290.325H58.916L55.3937 174.381H97.6617C124.275 174.381 144.626 171.468 158.716 165.641C172.805 159.427 179.85 148.551 179.85 133.014C179.85 122.527 176.914 114.37 171.044 108.543C165.565 102.329 157.933 99.2213 148.149 99.2213C137.19 99.2213 128.776 102.523 122.905 109.126C117.426 115.341 114.686 123.886 114.686 134.762H6.08097C5.29823 111.068 10.1904 89.5107 20.7574 70.0896C31.7158 50.2801 48.1533 34.7432 70.0701 23.479C91.9869 11.8263 118.991 6 151.084 6ZM110.577 451.714C90.2257 451.714 73.7881 446.276 61.2642 435.401C49.1318 424.136 43.0655 409.959 43.0655 392.868C43.0655 375.778 49.1318 361.6 61.2642 350.336C73.7881 339.072 90.2257 333.44 110.577 333.44C130.537 333.44 146.583 339.072 158.716 350.336C171.239 361.6 177.501 375.778 177.501 392.868C177.501 409.571 171.239 423.554 158.716 434.818C146.583 446.082 130.537 451.714 110.577 451.714Z" fill="white" stroke="url(#paint1_linear_252_13871)" stroke-width="12"/>
<defs>
<linearGradient id="paint0_linear_252_13871" x1="-114.847" y1="251.143" x2="290.661" y2="511.857" gradientUnits="userSpaceOnUse">
<stop stop-color="#FF5E00"/>
<stop offset="0.541068" stop-color="#F54562"/>
<stop offset="1" stop-color="#C32DE1"/>
</linearGradient>
<linearGradient id="paint1_linear_252_13871" x1="-137.282" y1="228.857" x2="268.225" y2="489.571" gradientUnits="userSpaceOnUse">
<stop stop-color="#FF5E00"/>
<stop offset="0.541068" stop-color="#F54562"/>
<stop offset="1" stop-color="#C32DE1"/>
</linearGradient>
</defs>
</svg>
