<svg width="20" height="20" viewBox="0 0 20 20" fill="none" xmlns="http://www.w3.org/2000/svg">
<path fill-rule="evenodd" clip-rule="evenodd" d="M15.2898 14.0961C15.2898 14.6234 14.8888 15.0409 14.356 15.0409C14.1033 15.0409 13.8561 14.953 13.6748 14.7717L11.4116 12.5085C10.7415 12.926 9.95044 13.1677 9.10999 13.1677C6.69299 13.1677 4.70996 11.1847 4.70996 8.7677C4.70996 6.34521 6.69299 4.36768 9.10999 4.36768C11.527 4.36768 13.5045 6.35071 13.5045 8.7677C13.5045 9.65759 13.2408 10.4871 12.7794 11.1792L15.0206 13.4259C15.2074 13.6127 15.2898 13.8489 15.2898 14.0961ZM6.04492 8.7677C6.04492 10.4486 7.42371 11.8274 9.11011 11.8274C10.791 11.8274 12.1698 10.4486 12.1698 8.7677C12.1698 7.08679 10.791 5.70801 9.11011 5.70801C7.42371 5.70801 6.04492 7.08679 6.04492 8.7677Z" fill="#E0E0FF" fill-opacity="0.4"/>
</svg>
