<svg width="24" height="24" viewBox="0 0 24 24" fill="none" xmlns="http://www.w3.org/2000/svg">
<path fill-rule="evenodd" clip-rule="evenodd" d="M13.1953 21.1641C13.8281 21.1641 14.2656 20.6719 14.5547 19.9219L19.75 6.33594C19.875 6 19.9453 5.70312 19.9453 5.44531C19.9453 4.84375 19.5703 4.46875 18.9688 4.46875C18.7109 4.46875 18.4062 4.53906 18.0703 4.66406L4.44531 9.875C3.75781 10.1406 3.25 10.5781 3.25 11.2188C3.25 11.9844 3.8125 12.3047 4.59375 12.5391L10.2266 14.1875L11.8672 19.7656C12.1016 20.5781 12.4219 21.1641 13.1953 21.1641ZM10.7578 12.5547L6.32031 11.1953C6.21875 11.1641 6.17969 11.1328 6.17969 11.0781C6.17969 11.0312 6.21094 10.9844 6.30469 10.9531L14.5859 7.76562C15.1531 7.54505 15.7101 7.2889 16.3267 7.00535L16.3267 7.00535C16.4745 6.93739 16.6257 6.86786 16.7812 6.79688C16.1875 7.28125 15.4609 7.875 14.9531 8.375L10.7578 12.5547ZM13.2188 18.0938C13.25 18.1953 13.2812 18.2422 13.3359 18.2422C13.3906 18.2422 13.4219 18.1953 13.4531 18.1094L16.6484 9.82812C16.8628 9.27082 17.1107 8.72793 17.3848 8.12793C17.4603 7.96252 17.5378 7.79277 17.6172 7.61719C17.1484 8.21094 16.5234 8.96875 16.0391 9.46094L11.8594 13.6562L13.2188 18.0938Z" fill="black" fill-opacity="0.4"/>
</svg>
