<svg width="20" height="20" viewBox="0 0 20 20" fill="none" xmlns="http://www.w3.org/2000/svg">
<path fill-rule="evenodd" clip-rule="evenodd" d="M10.9967 17.6367C11.5241 17.6367 11.8887 17.2265 12.1296 16.6015L16.459 5.27993C16.5632 4.99998 16.6217 4.75258 16.6217 4.53774C16.6217 4.03644 16.3092 3.72394 15.8079 3.72394C15.5931 3.72394 15.3392 3.78253 15.0592 3.8867L3.70508 8.22915C3.13216 8.4505 2.70898 8.81508 2.70898 9.34894C2.70898 9.98696 3.17773 10.2539 3.82878 10.4492L8.52279 11.8229L9.88997 16.4713C10.0853 17.1484 10.3522 17.6367 10.9967 17.6367ZM8.96549 10.4622L5.26758 9.32941C5.18294 9.30337 5.15039 9.27732 5.15039 9.23175C5.15039 9.19269 5.17643 9.15363 5.25456 9.12758L12.1556 6.47133C12.6283 6.28752 13.0924 6.07405 13.6063 5.83777C13.7294 5.78114 13.8554 5.7232 13.985 5.66404C13.4902 6.06769 12.8848 6.56248 12.4616 6.97915L8.96549 10.4622ZM11.0163 15.0781C11.0423 15.1627 11.0684 15.2018 11.1139 15.2018C11.1595 15.2018 11.1855 15.1627 11.2116 15.0911L13.8743 8.19008C14.053 7.72566 14.2596 7.27324 14.488 6.77324C14.5509 6.6354 14.6155 6.49395 14.6816 6.34764C14.291 6.84243 13.7702 7.47394 13.3665 7.88409L9.88346 11.3802L11.0163 15.0781Z" fill="white"/>
</svg>
