<svg width="20" height="20" viewBox="0 0 20 20" fill="none" xmlns="http://www.w3.org/2000/svg">
<path fill-rule="evenodd" clip-rule="evenodd" d="M11.8229 16.556C11.6927 17.1029 11.237 17.4609 10.6576 17.4609H9.33594C8.76302 17.4609 8.30729 17.1029 8.17708 16.556L7.92318 15.4687L7.78646 15.4167L6.83594 16.0026C6.35417 16.3021 5.77474 16.224 5.37761 15.8138L4.45964 14.9023C4.04948 14.4857 3.97786 13.9193 4.27734 13.444L4.86328 12.5L4.81771 12.3698L3.73047 12.1094C3.19011 11.9792 2.83203 11.5234 2.83203 10.9505V9.67447C2.83203 9.10807 3.18359 8.65234 3.73047 8.51562L4.80469 8.24869L4.86328 8.11197L4.27083 7.16796C3.97136 6.69921 4.04297 6.13281 4.45312 5.70963L5.37109 4.79166C5.76823 4.38802 6.34114 4.30989 6.82943 4.60937L7.77344 5.1888L7.92318 5.1302L8.17708 4.04296C8.30729 3.49609 8.76302 3.13802 9.33594 3.13802H10.6576C11.237 3.13802 11.6927 3.49609 11.8229 4.04296L12.0703 5.1302L12.2201 5.1888L13.1706 4.60937C13.6523 4.30989 14.2253 4.38802 14.6289 4.79166L15.5404 5.70963C15.9505 6.13281 16.0286 6.69921 15.7227 7.16796L15.1367 8.11197L15.1888 8.24869L16.263 8.51562C16.8099 8.64583 17.168 9.10807 17.168 9.67447V10.9505C17.168 11.5234 16.8099 11.9727 16.263 12.1094L15.1823 12.3698L15.1302 12.5L15.7227 13.444C16.0221 13.9193 15.9505 14.4857 15.5404 14.9023L14.6224 15.8138C14.2188 16.224 13.6458 16.3021 13.1641 16.0026L12.2135 15.4167L12.0703 15.4687L11.8229 16.556ZM9.55078 16.1263H10.4492C10.5599 16.1263 10.6055 16.0807 10.625 15.9831L11.0091 14.3945C11.4648 14.2904 11.8424 14.1276 12.2005 13.8997L13.5938 14.7526C13.6719 14.8047 13.75 14.7982 13.8281 14.7266L14.4466 14.1016C14.5247 14.0299 14.5247 13.9518 14.4727 13.8737L13.6133 12.4805C13.8216 12.1419 13.9974 11.7253 14.0885 11.3021L15.6901 10.9245C15.7878 10.9049 15.8333 10.8529 15.8333 10.7487V9.87629C15.8333 9.75911 15.7878 9.71353 15.6901 9.694L14.0951 9.30989C13.9974 8.87369 13.8086 8.45051 13.6263 8.12499L14.4792 6.73827C14.5312 6.65364 14.5312 6.57551 14.4596 6.5039L13.8346 5.88541C13.75 5.81379 13.6849 5.80728 13.5938 5.85937L12.207 6.70572C11.8555 6.49739 11.4518 6.3151 11.0091 6.21744L10.625 4.61588C10.6055 4.51822 10.5599 4.47265 10.4492 4.47265H9.55078C9.44011 4.47265 9.38802 4.51822 9.375 4.61588L8.99089 6.20442C8.55469 6.3151 8.09245 6.5039 7.78646 6.70572L6.39974 5.85286C6.30859 5.80077 6.23698 5.80728 6.15886 5.88541L5.53386 6.49739C5.45573 6.569 5.46224 6.64713 5.51432 6.73827L6.3737 8.12499C6.18489 8.45051 5.99609 8.87369 5.89844 9.3164L4.30989 9.694C4.20573 9.71353 4.16016 9.75911 4.16016 9.87629V10.7487C4.16016 10.8529 4.21224 10.9049 4.30989 10.9245L5.90495 11.3021C5.99609 11.7253 6.17839 12.1354 6.38021 12.4805L5.52083 13.8737C5.46875 13.9583 5.46875 14.0365 5.54036 14.1081L6.16536 14.7331C6.24349 14.8047 6.32161 14.8112 6.39974 14.7591L7.79297 13.8997C8.14453 14.1276 8.5612 14.2969 8.99089 14.3945L9.375 15.9831C9.38802 16.0807 9.44011 16.1263 9.55078 16.1263ZM10 12.7669C11.3477 12.7669 12.4544 11.6536 12.4544 10.2995C12.4544 8.95182 11.3477 7.85155 10 7.85155C8.64583 7.85155 7.53255 8.95182 7.53255 10.2995C7.53255 11.6536 8.64583 12.7669 10 12.7669ZM8.75651 10.2995C8.75651 10.9896 9.3164 11.5495 10 11.5495C10.6706 11.5495 11.2305 10.9831 11.2305 10.2995C11.2305 9.6289 10.6706 9.06249 10 9.06249C9.32291 9.06249 8.75651 9.62239 8.75651 10.2995Z" fill="white"/>
</svg>
