<svg width="20" height="20" viewBox="0 0 20 20" fill="none" xmlns="http://www.w3.org/2000/svg">
<path fill-rule="evenodd" clip-rule="evenodd" d="M11.8229 16.556C11.6927 17.1029 11.237 17.461 10.6576 17.461H9.33594C8.76302 17.461 8.30729 17.1029 8.17708 16.556L7.92318 15.4688L7.78646 15.4167L6.83594 16.0026C6.35417 16.3021 5.77474 16.224 5.3776 15.8138L4.45964 14.9024C4.04948 14.4857 3.97786 13.9193 4.27734 13.444L4.86328 12.5001L4.81771 12.3698L3.73047 12.1094C3.1901 11.9792 2.83203 11.5235 2.83203 10.9506V9.6745C2.83203 9.10809 3.18359 8.6524 3.73047 8.51569L4.80469 8.24872L4.86328 8.112L4.27083 7.16803C3.97135 6.69928 4.04297 6.13287 4.45312 5.70966L5.37109 4.79169C5.76823 4.38806 6.34115 4.30994 6.82943 4.60944L7.77344 5.18884L7.92318 5.13025L8.17708 4.04303C8.30729 3.49615 8.76302 3.13806 9.33594 3.13806H10.6576C11.237 3.13806 11.6927 3.49615 11.8229 4.04303L12.0703 5.13025L12.2201 5.18884L13.1706 4.60944C13.6523 4.30994 14.2253 4.38806 14.6289 4.79169L15.5404 5.70966C15.9505 6.13287 16.0286 6.69928 15.7227 7.16803L15.1367 8.112L15.1888 8.24872L16.263 8.51569C16.8099 8.64587 17.168 9.10809 17.168 9.6745V10.9506C17.168 11.5235 16.8099 11.9727 16.263 12.1094L15.1823 12.3698L15.1302 12.5001L15.7227 13.444C16.0221 13.9193 15.9505 14.4857 15.5404 14.9024L14.6224 15.8138C14.2188 16.224 13.6458 16.3021 13.1641 16.0026L12.2135 15.4167L12.0703 15.4688L11.8229 16.556ZM9.55078 16.1263H10.4492C10.5599 16.1263 10.6055 16.0808 10.625 15.9832L11.0091 14.3946C11.4648 14.2904 11.8424 14.1277 12.2005 13.8998L13.5938 14.7527C13.6719 14.8047 13.75 14.7982 13.8281 14.7266L14.4466 14.1016C14.5247 14.03 14.5247 13.9519 14.4727 13.8738L13.6133 12.4805C13.8216 12.142 13.9974 11.7253 14.0885 11.3021L15.6901 10.9246C15.7878 10.905 15.8333 10.8529 15.8333 10.7488V9.87634C15.8333 9.75916 15.7878 9.71362 15.6901 9.69409L14.0951 9.30994C13.9974 8.87378 13.8086 8.45056 13.6263 8.12506L14.4792 6.73834C14.5312 6.65369 14.5312 6.57556 14.4596 6.50397L13.8346 5.8855C13.75 5.81384 13.6849 5.80737 13.5938 5.85944L12.207 6.70581C11.8555 6.49744 11.4518 6.31519 11.0091 6.21753L10.625 4.61597C10.6055 4.51831 10.5599 4.47272 10.4492 4.47272H9.55078C9.4401 4.47272 9.38802 4.51831 9.375 4.61597L8.99089 6.20447C8.55469 6.31519 8.09245 6.50397 7.78646 6.70581L6.39974 5.85291C6.30859 5.80084 6.23698 5.80737 6.15885 5.8855L5.53385 6.49744C5.45573 6.56909 5.46224 6.64722 5.51432 6.73834L6.3737 8.12506C6.1849 8.45056 5.99609 8.87378 5.89844 9.31647L4.3099 9.69409C4.20573 9.71362 4.16016 9.75916 4.16016 9.87634V10.7488C4.16016 10.8529 4.21224 10.905 4.3099 10.9246L5.90495 11.3021C5.99609 11.7253 6.17839 12.1355 6.38021 12.4805L5.52083 13.8738C5.46875 13.9584 5.46875 14.0365 5.54036 14.1082L6.16536 14.7332C6.24349 14.8047 6.32161 14.8113 6.39974 14.7592L7.79297 13.8998C8.14453 14.1277 8.5612 14.2969 8.99089 14.3946L9.375 15.9832C9.38802 16.0808 9.4401 16.1263 9.55078 16.1263ZM10 12.767C11.3477 12.767 12.4544 11.6537 12.4544 10.2996C12.4544 8.9519 11.3477 7.85162 10 7.85162C8.64583 7.85162 7.53255 8.9519 7.53255 10.2996C7.53255 11.6537 8.64583 12.767 10 12.767ZM8.75651 10.2996C8.75651 10.9896 9.3164 11.5496 10 11.5496C10.6706 11.5496 11.2305 10.9832 11.2305 10.2996C11.2305 9.62897 10.6706 9.06256 10 9.06256C9.32291 9.06256 8.75651 9.62244 8.75651 10.2996Z" fill="black" fill-opacity="0.4"/>
</svg>
