<svg width="20" height="20" viewBox="0 0 20 20" fill="none" xmlns="http://www.w3.org/2000/svg">
<path fill-rule="evenodd" clip-rule="evenodd" d="M10.0007 17.1094C13.7311 17.1094 16.804 14.0299 16.804 10.2995C16.804 6.56901 13.7246 3.49609 10.0007 3.49609C6.27018 3.49609 3.19727 6.56901 3.19727 10.2995C3.19727 14.0299 6.27018 17.1094 10.0007 17.1094ZM10.0007 15.5794C7.07747 15.5794 4.73372 13.2227 4.73372 10.2995C4.73372 7.3763 7.07096 5.02604 10.0007 5.02604C12.9238 5.02604 15.2741 7.3763 15.2806 10.2995C15.2806 13.2227 12.9238 15.5794 10.0007 15.5794ZM8.82878 8.88021C8.82878 9.36198 8.50326 9.70052 8.11914 9.70052C7.73503 9.70052 7.41602 9.36198 7.41602 8.88021C7.41602 8.40495 7.73503 8.0599 8.11914 8.0599C8.50326 8.0599 8.82878 8.40495 8.82878 8.88021ZM11.9017 9.70052C12.2858 9.70052 12.6113 9.36198 12.6113 8.88021C12.6113 8.40495 12.2858 8.0599 11.9017 8.0599C11.5176 8.0599 11.1986 8.40495 11.1986 8.88021C11.1986 9.36198 11.5176 9.70052 11.9017 9.70052ZM12.2858 12.1029C12.2858 12.5391 11.3678 13.444 10.0007 13.444C8.62695 13.444 7.70898 12.5391 7.70898 12.1029C7.70898 11.9401 7.87174 11.862 8.02148 11.9336C8.49674 12.181 9.05013 12.4675 10.0007 12.4675C10.7994 12.4675 11.3185 12.2577 11.7473 12.0472L11.9733 11.9336C12.1296 11.862 12.2858 11.9401 12.2858 12.1029Z" fill="white"/>
</svg>
