<svg width="32" height="32" viewBox="0 0 32 32" fill="none" xmlns="http://www.w3.org/2000/svg">
<path fill-rule="evenodd" clip-rule="evenodd" d="M23.6667 24.8125C23.9583 25.6875 23.8542 26.3646 23.3125 26.7708C22.7604 27.1875 22.0937 27.0521 21.3333 26.5L16 22.5833L10.6667 26.5C9.90625 27.0521 9.23958 27.1875 8.6875 26.7708C8.14583 26.3646 8.04166 25.6875 8.33333 24.8125L10.4479 18.5521L5.0625 14.6875C4.3125 14.1562 3.97916 13.5417 4.20833 12.8854C4.42708 12.25 5.03125 11.9375 5.95833 11.9479L12.5521 12L14.5625 5.69792C14.8542 4.80208 15.3229 4.3125 16 4.3125C16.6771 4.3125 17.1562 4.80208 17.4375 5.69792L19.4479 12L26.0417 11.9479C26.9687 11.9375 27.5729 12.25 27.7917 12.8958C28.0104 13.5417 27.6875 14.1562 26.9375 14.6875L21.5521 18.5521L23.6667 24.8125ZM16.6876 20.3958L21.0939 23.8229C21.1014 23.8267 21.1082 23.8304 21.1145 23.8339C21.143 23.8496 21.1601 23.859 21.1772 23.8333C21.1876 23.8125 21.1876 23.8021 21.1772 23.75L19.2918 18.5C19.073 17.9062 19.1251 17.5938 19.6876 17.2188L24.3126 14.0729C24.3543 14.0417 24.3647 14.0312 24.3647 14C24.3543 13.9792 24.323 13.9792 24.2709 13.9792L18.698 14.1354C18.0626 14.1562 17.7709 13.9896 17.6043 13.3646L16.0522 8.01042C16.0418 7.95833 16.0209 7.9375 16.0001 7.9375C15.9793 7.9375 15.9584 7.95833 15.948 8.01042L14.4064 13.3646C14.2293 13.9896 13.9376 14.1562 13.3022 14.1354L7.72928 13.9792C7.67719 13.9792 7.65636 13.9792 7.64594 14C7.63553 14.0312 7.65636 14.0521 7.69803 14.0729L12.3126 17.2083C12.8855 17.5833 12.9272 17.9062 12.7084 18.5L10.823 23.75C10.8126 23.8021 10.8126 23.8125 10.823 23.8333C10.8401 23.859 10.8572 23.8496 10.8857 23.8339C10.892 23.8304 10.8989 23.8267 10.9064 23.8229L15.3126 20.3958C15.823 19.9896 16.1772 19.9896 16.6876 20.3958Z" fill="white"/>
</svg>
