<svg width="20" height="20" viewBox="0 0 20 20" fill="none" xmlns="http://www.w3.org/2000/svg">
<path d="M14.5703 16.7318C14.9089 16.4779 14.974 16.0547 14.7917 15.5078L13.4701 11.5951L16.836 9.17969C17.3047 8.84766 17.5065 8.46354 17.3698 8.0599C17.2331 7.65625 16.8555 7.46094 16.2761 7.46745L12.155 7.5L10.8985 3.5612C10.7227 3.0013 10.4232 2.69531 10 2.69531C9.57684 2.69531 9.28388 3.0013 9.10158 3.5612L7.84507 7.5L3.72398 7.46745C3.14455 7.46094 2.76695 7.65625 2.63023 8.05339C2.487 8.46354 2.69533 8.84766 3.16408 9.17969L6.52997 11.5951L5.20836 15.5078C5.02606 16.0547 5.09117 16.4779 5.42971 16.7318C5.77476 16.9922 6.19143 16.9076 6.66669 16.5625L10 14.1146L13.3334 16.5625C13.8086 16.9076 14.2253 16.9922 14.5703 16.7318Z" fill="#FFAB00"/>
</svg>
