<svg width="20" height="20" viewBox="0 0 20 20" fill="none" xmlns="http://www.w3.org/2000/svg">
<path fill-rule="evenodd" clip-rule="evenodd" d="M10.1693 8.52542C9.71355 8.52542 9.39454 8.21292 9.39454 7.75068C9.39454 7.55536 9.48569 7.33401 9.63543 7.18427L12.9102 3.8249C13.2357 3.48635 13.7435 3.48635 14.0755 3.8249L17.3503 7.18427C17.5 7.33401 17.5912 7.55536 17.5912 7.75068C17.5912 8.21292 17.2721 8.52542 16.8164 8.52542C16.6016 8.52542 16.4193 8.4538 16.2761 8.30406L14.9414 6.91734L14.2318 6.10354L14.2708 7.38609L14.2708 15.6478C14.2708 16.0905 13.9453 16.4291 13.4896 16.4291C13.0404 16.4291 12.7083 16.0905 12.7083 15.6478L12.7083 7.38609L12.7539 6.10354L12.0443 6.91734L10.7096 8.30406C10.5664 8.4538 10.3841 8.52542 10.1693 8.52542ZM2.03761 12.8158C1.88787 12.666 1.79672 12.4447 1.79672 12.2429C1.79672 11.7871 2.12224 11.4681 2.57146 11.4681C2.78631 11.4681 2.9686 11.5462 3.11834 11.696L4.45297 13.0827L5.1561 13.8965L5.11703 12.614L5.11703 4.35223C5.11703 3.90301 5.44256 3.57098 5.89828 3.57098C6.3475 3.57098 6.67953 3.90301 6.67953 4.35223L6.67953 12.614L6.63396 13.8965L7.3436 13.0827L8.67823 11.696C8.82146 11.5462 9.00375 11.4681 9.2186 11.4681C9.67433 11.4681 9.99334 11.7871 9.99334 12.2429C9.99334 12.4447 9.90219 12.666 9.75245 12.8158L6.47771 16.1752C6.15219 16.5072 5.64438 16.5137 5.31235 16.1752L2.03761 12.8158Z" fill="black" fill-opacity="0.4"/>
</svg>
