<svg width="20" height="20" viewBox="0 0 20 20" fill="none" xmlns="http://www.w3.org/2000/svg">
<path fill-rule="evenodd" clip-rule="evenodd" d="M10.1694 8.52539C9.7137 8.52539 9.39469 8.21289 9.39469 7.75065C9.39469 7.55534 9.48584 7.33399 9.63558 7.18425L12.9103 3.82487C13.2358 3.48633 13.7437 3.48633 14.0757 3.82487L17.3504 7.18425C17.5002 7.33399 17.5913 7.55534 17.5913 7.75065C17.5913 8.21289 17.2723 8.52539 16.8166 8.52539C16.6017 8.52539 16.4194 8.45378 16.2762 8.30404L14.9416 6.91732L14.2319 6.10352L14.271 7.38607L14.271 15.6478C14.271 16.0905 13.9455 16.429 13.4897 16.429C13.0405 16.429 12.7085 16.0905 12.7085 15.6478L12.7085 7.38607L12.7541 6.10352L12.0444 6.91732L10.7098 8.30404C10.5666 8.45378 10.3843 8.52539 10.1694 8.52539ZM2.03776 12.8158C1.88802 12.666 1.79687 12.4447 1.79687 12.2428C1.79687 11.7871 2.1224 11.4681 2.57161 11.4681C2.78646 11.4681 2.96875 11.5462 3.11849 11.696L4.45312 13.0827L5.15625 13.8965L5.11719 12.6139L5.11719 4.35221C5.11719 3.90299 5.44271 3.57096 5.89844 3.57096C6.34766 3.57096 6.67969 3.90299 6.67969 4.35221L6.67969 12.6139L6.63411 13.8965L7.34375 13.0827L8.67839 11.696C8.82161 11.5462 9.00391 11.4681 9.21875 11.4681C9.67448 11.4681 9.99349 11.7871 9.99349 12.2428C9.99349 12.4447 9.90234 12.666 9.7526 12.8158L6.47786 16.1751C6.15234 16.5072 5.64453 16.5137 5.3125 16.1751L2.03776 12.8158Z" fill="white"/>
</svg>
