<svg width="16" height="16" viewBox="0 0 16 16" fill="none" xmlns="http://www.w3.org/2000/svg">
<g id="tag">
<path id="shape" fill-rule="evenodd" clip-rule="evenodd" d="M8.39539 13.9141L13.2001 9.10449C13.5956 8.70898 13.6444 8.46484 13.6444 7.87891V6.02832C13.6444 5.47656 13.5126 5.2666 13.0975 4.85156L11.9794 3.7334C11.5643 3.31836 11.3544 3.18652 10.8026 3.18652H8.95203C8.36609 3.18652 8.13172 3.24512 7.73621 3.64062L2.92175 8.44531C2.1698 9.20215 2.16004 10.0176 2.92664 10.7793L6.0614 13.9092C6.828 14.6758 7.63855 14.6709 8.39539 13.9141ZM6.76476 13.0352L3.80089 10.0762C3.48839 9.76367 3.49816 9.45117 3.80089 9.15332L8.53234 4.42188C8.62999 4.32422 8.71789 4.27539 8.86925 4.27539H10.7638C10.9054 4.27539 11.003 4.32422 11.0958 4.41699L12.4142 5.73535C12.5069 5.82324 12.5558 5.92578 12.5558 6.06738V7.96191C12.5558 8.12305 12.5118 8.21094 12.4191 8.30859L7.68761 13.04C7.38488 13.3379 7.07726 13.3477 6.76476 13.0352ZM10.8958 6.66309C10.8958 7.07324 10.5784 7.39551 10.1682 7.39551C9.75317 7.39551 9.43579 7.07324 9.43579 6.66309C9.43579 6.25781 9.75317 5.93555 10.1682 5.93555C10.5784 5.93555 10.8958 6.25781 10.8958 6.66309Z" fill="#E0E0FF" fill-opacity="0.4"/>
</g>
</svg>
