<svg width="72" height="72" viewBox="0 0 72 72" fill="none" xmlns="http://www.w3.org/2000/svg">
<g clip-path="url(#clip0_364_1253)">
<path d="M70.0076 45.9255L48.0294 69.1332C46.0313 71.285 42.9575 72.0534 40.191 71.285L14.8315 63.2929C12.6798 62.6781 10.9891 60.9875 10.2207 58.9894L0.999047 34.2447C-0.0768101 31.4782 0.691659 28.4044 2.68968 26.4063L24.6679 3.04488C26.6659 0.893163 29.5861 0.124693 32.5063 0.893163L57.7121 8.88524C59.7101 9.50002 61.4007 11.1907 62.1692 13.1887L71.5445 37.9334C72.4667 40.6999 72.0056 43.7738 70.0076 45.9255Z" fill="url(#paint0_radial_364_1253)"/>
<path opacity="0.83" d="M70.6223 60.527C70.1613 61.2954 69.2391 61.9102 68.0095 62.2176C67.2411 62.3713 66.3189 62.525 65.3967 62.525C60.9396 62.3713 59.8638 62.0639 57.8657 62.3713C56.1751 62.525 54.0234 64.0619 53.2549 64.523C53.1012 64.523 53.1012 64.523 53.1012 64.6767C49.1052 64.8304 48.0293 62.9861 44.4944 62.6787C41.7279 62.3713 35.7338 64.523 32.6599 65.1378C30.5082 65.5989 31.2767 63.9082 27.8954 64.6767C27.588 64.8304 26.0511 64.523 24.3605 64.523C23.8994 64.523 23.4383 64.523 22.9772 64.6767C22.6698 64.6767 22.3625 64.8304 21.9014 64.8304C21.2866 64.9841 20.6718 65.1378 20.2107 65.4452C19.7497 65.7526 19.2886 65.9063 18.6738 66.06C17.4443 66.521 16.2147 66.521 15.4462 66.3673C15.1388 66.3673 14.9852 66.2136 14.8315 65.9063C14.6778 65.4452 14.5241 64.9841 14.3704 64.523C14.063 64.2156 13.9093 64.0619 13.9093 63.9082C13.6019 63.6009 13.1408 63.4472 12.5261 63.6009C11.6039 63.9082 10.528 64.2156 9.45217 64.3693C7.14677 64.6767 4.68766 64.8304 2.53595 63.9082C1.61379 63.4472 0.691622 62.8324 0.230541 61.9102C-0.0768469 61.1418 -0.0768469 60.2196 0.230541 59.2974C0.384235 58.8363 0.537929 58.3753 0.845316 58.0679C1.1527 57.6068 1.46009 57.2994 1.92117 57.1457C2.07487 57.1457 2.07487 57.1457 2.22856 56.992C2.38226 56.992 2.53595 56.992 2.53595 56.8383C2.99703 56.3772 2.07487 54.2255 5.30244 53.3034C5.45613 53.3034 5.45613 53.3034 5.45613 53.3034C5.60983 53.3034 5.60983 53.3034 5.60983 53.3034C5.60983 53.3034 5.60983 53.3034 5.76352 53.3034C6.07091 53.1497 6.2246 52.5349 6.53199 49.9221C6.53199 49.7684 6.68568 49.7684 6.68568 49.6147C6.83938 48.6926 6.99307 47.9241 7.14676 47.1556C7.30046 46.6945 7.30046 46.3871 7.45415 45.9261C8.06893 44.0817 8.8374 42.2374 9.75956 40.5468V40.3931C9.29848 36.0897 10.9891 38.3951 11.4502 35.6286C12.2187 31.6325 18.8275 21.7961 18.8275 21.7961C18.8275 21.7961 31.2767 22.4109 34.0432 12.1134C34.3506 10.8839 34.5043 9.50061 34.658 8.27106C38.3466 7.04151 40.0373 8.57845 40.652 9.50061C40.652 9.65431 40.8057 9.65431 40.8057 9.808C40.8057 9.808 40.8057 9.808 40.8057 9.9617C40.9594 10.1154 40.9594 10.1154 41.1131 9.9617C42.65 8.88584 44.3407 9.34692 45.8776 10.7302H46.0313H46.185L46.3387 10.8839C48.6441 13.1893 50.9495 17.1853 52.9475 21.335C52.9475 21.335 52.9475 21.4887 53.1012 21.4887C55.0993 25.9459 55.714 30.5567 56.1751 32.0936C56.3288 32.401 57.712 34.8601 57.8657 35.1675C58.1731 38.2414 59.5564 42.8522 61.247 46.0798L61.5544 46.6945C62.6302 49.1536 64.0135 51.3053 64.9357 51.7664C65.3967 52.0738 65.7041 52.3812 66.0115 52.6886C66.0115 52.8423 66.1652 52.996 66.1652 53.1497C66.1652 53.4571 66.4726 53.6108 66.6263 53.7644C66.78 54.0718 66.78 54.2255 66.9337 54.5329C66.9337 54.6866 67.0874 54.8403 67.0874 55.1477C67.0874 55.4551 67.2411 55.6088 67.3948 55.7625C67.3948 55.7625 67.3948 55.7625 67.5485 55.7625C68.1632 55.9162 69.3928 56.2235 70.0076 57.1457C70.1612 57.2994 70.3149 57.6068 70.4686 57.7605C70.6223 58.0679 70.776 58.3753 70.776 58.8363C70.776 58.99 70.776 58.99 70.776 58.99C70.9297 59.7585 70.776 60.2196 70.6223 60.527Z" fill="black"/>
<path d="M38.9608 7.80872C38.9608 7.80872 38.8089 7.65683 38.9608 7.80872C38.8089 7.65683 38.9608 7.80872 38.9608 7.80872Z" fill="#580C48"/>
<path d="M39.1152 8.11793C38.9615 7.96424 38.9615 7.96424 38.9615 7.81055C38.9615 7.96424 39.1152 7.96424 39.1152 8.11793Z" fill="#580C48"/>
<path d="M41.5742 10.5762V10.7299C41.7279 10.7299 41.5742 10.7299 41.5742 10.5762Z" fill="#580C48"/>
<path opacity="0.61" d="M38.8078 7.65527C38.8078 7.80897 38.9615 7.80897 38.8078 7.65527C38.9615 7.80897 38.8078 7.65527 38.8078 7.65527Z" fill="url(#paint1_radial_364_1253)"/>
<path opacity="0.61" d="M38.9615 7.81055C39.1152 7.96424 39.1152 7.96424 39.1152 8.11793C39.1152 7.96424 38.9615 7.96424 38.9615 7.81055Z" fill="url(#paint2_radial_364_1253)"/>
<path d="M70.6223 59.4511C70.6223 59.6047 70.6223 59.6047 70.6223 59.4511C70.6223 59.7584 70.4686 59.7584 70.4686 59.9121C70.4686 59.9121 70.4686 59.9121 70.4686 60.0658C70.3149 60.3732 70.1612 60.5269 70.0075 60.6806C70.0075 60.6806 70.0075 60.6806 69.8538 60.8343L69.7001 60.988C69.3927 61.1417 69.0853 61.4491 68.7779 61.4491C68.0095 61.7565 67.0873 61.9102 66.3188 61.7565H65.704H65.243C64.3208 61.7565 63.3986 61.7565 62.4765 61.7565H62.0154H61.5543H61.4006H61.0932H60.9395H60.6322H60.4785H60.1711H60.0174H59.8637H59.71H59.5563H59.4026H59.2489H58.9415H58.4804H58.3267H58.173C57.8657 61.7565 57.712 61.7565 57.5583 61.7565C57.0972 61.7565 56.6361 61.9102 56.3287 62.2175C55.4066 62.8323 54.3307 63.1397 53.2548 63.4471L52.9475 63.6008C49.2588 64.6766 46.4923 63.7545 46.4923 63.7545C37.5781 62.6786 36.1948 62.986 33.1209 64.0619C30.0471 64.984 28.8175 63.2934 26.9732 63.7545C25.5899 64.0619 23.8993 63.7545 23.1308 63.6008C22.9772 63.6008 22.9772 63.6008 22.8235 63.6008C22.5161 63.6008 22.2087 63.6008 21.9013 63.7545C19.7496 64.6766 18.2126 65.2914 17.1368 65.4451C16.3683 65.5988 15.9072 65.4451 15.4462 65.2914C15.2925 65.1377 14.9851 64.984 14.8314 64.8303C14.524 64.3693 14.3703 63.7545 14.3703 63.4471C14.3703 63.4471 14.3703 63.4471 14.3703 63.2934C14.3703 63.1397 14.2166 63.1397 14.2166 62.986H14.0629C13.1407 62.5249 11.6038 63.2934 10.528 63.4471C10.3743 63.4471 10.0669 63.4471 9.91317 63.6008C8.22254 63.9082 7.30038 64.0619 6.22452 64.0619H6.07083C5.91713 64.0619 5.76344 64.0619 5.60975 64.0619C5.45605 64.0619 5.30236 64.0619 5.14867 64.0619H4.99497H4.68758H4.53389C4.3802 64.0619 4.2265 64.0619 4.07281 63.9082H3.91911H3.61173H3.45803C3.30434 63.9082 3.30434 63.9082 3.15064 63.7545H2.99695H2.84326H2.68956H2.53587H2.38218H2.22848C2.07479 63.7545 2.07479 63.6008 1.92109 63.6008L1.7674 63.4471C1.61371 63.2934 1.46001 63.2934 1.30632 63.1397L1.15262 62.986L0.998931 62.8323C0.998931 62.8323 0.998931 62.6786 0.845237 62.6786C0.845237 62.6786 0.845237 62.5249 0.691543 62.5249V62.3712C0.691543 62.3712 0.691543 62.2175 0.537849 62.2175V62.0639V61.9102V61.7565C0.537849 61.6028 0.384155 61.4491 0.384155 61.2954V61.1417V60.988V60.8343V60.6806C0.384155 60.0658 0.384155 59.6047 0.537849 59.1437V58.99C0.537849 58.8363 0.537849 58.8363 0.691543 58.6826V58.5289V58.3752C0.691543 58.3752 0.691543 58.2215 0.845237 58.2215L0.998931 58.0678L1.15262 57.9141L1.30632 57.7604C1.30632 57.7604 1.30632 57.7604 1.46001 57.6067V57.453C1.7674 57.1456 2.07479 56.992 2.38218 56.8383C2.53587 56.8383 2.53587 56.8383 2.53587 56.8383C2.68956 56.8383 2.84326 56.8383 2.84326 56.6846C3.30434 56.2235 2.99695 54.9939 3.91911 54.0718L4.07281 53.9181L4.2265 53.7644H4.3802C4.3802 53.7644 4.53389 53.7644 4.53389 53.6107C4.53389 53.457 4.68758 53.6107 4.68758 53.457H4.84128C4.84128 53.457 4.99497 53.457 4.99497 53.3033H5.14867C5.14867 53.3033 5.30236 53.3033 5.30236 53.1496H5.45605H5.60975H5.76344H5.91713H6.07083H6.22452H6.37822H6.53191C6.8393 52.8422 6.8393 52.2274 7.30038 49.7683C7.91515 45.4649 10.528 40.7004 10.528 40.7004C9.2984 35.7822 10.8353 38.0876 11.2964 35.1674C12.0649 31.1714 18.6737 21.335 18.6737 21.335C18.6737 21.335 30.9692 21.7961 33.8894 11.6523C34.1968 10.4227 34.5042 9.03947 34.5042 7.65622C37.4244 6.58036 39.115 7.34883 39.8835 8.271L40.0372 8.42469C40.0372 8.42469 40.0372 8.42469 40.1909 8.57838L40.3446 8.73208C40.3446 8.73208 40.3446 8.88577 40.4983 8.88577C40.6519 8.88577 40.4983 8.88577 40.4983 9.03947V9.19316C40.4983 9.34685 40.6519 9.34685 40.6519 9.34685C40.6519 9.34685 40.6519 9.34685 40.6519 9.50055C40.8056 9.65424 40.8056 9.65424 40.9593 9.50055C41.7278 9.03947 42.3426 8.73208 42.9574 8.73208H43.111H43.2647H43.4184C43.5721 8.73208 43.7258 8.88577 43.8795 8.88577H44.0332H44.1869C44.3406 8.88577 44.3406 9.03947 44.3406 9.03947H44.4943H44.648C44.648 9.03947 44.648 9.03947 44.8017 9.03947H44.9554H45.1091H45.2628L45.4165 9.19316H45.5702L45.7238 9.34685H45.8775H46.0312L46.3386 10.269L46.4923 10.4227L46.646 10.5764L46.7997 10.7301L46.9534 10.8838C47.1071 11.0375 47.1071 11.0375 47.2608 11.1912L47.4145 11.3449L47.5682 11.4986L47.7219 11.6523C47.7219 11.6523 47.7219 11.806 47.8756 11.9596L48.0293 12.1133C48.3366 12.5744 48.644 13.0355 48.9514 13.4966L49.1051 13.6503L49.2588 13.804V13.9577C49.7199 14.5724 50.0273 15.1872 50.4884 15.802L50.6421 15.9557C50.6421 15.9557 50.642 16.1094 50.7957 16.1094C50.7957 16.2631 50.7957 16.2631 50.7957 16.4168L50.9494 16.5705L51.1031 16.8779V17.0315V17.1852L51.2568 17.3389C51.4105 17.4926 51.4105 17.6463 51.5642 17.9537L51.7179 18.1074L51.8716 18.2611L52.0253 18.4148V18.5685L52.179 18.8759L52.3327 19.1833V19.337L52.4864 19.4906L52.6401 19.6443C52.7938 20.1054 53.1011 20.5665 53.2548 20.8739L53.4085 21.0276C53.7159 21.6424 54.0233 22.2571 54.177 22.7182C54.177 22.8719 54.3307 22.8719 54.3307 23.0256L54.4844 23.1793L54.6381 23.333L54.7918 23.6404L55.0992 24.1015C55.2529 24.4089 55.4066 24.5625 55.4066 24.8699L55.5602 25.1773L55.7139 25.4847L55.8676 25.9458L56.0213 26.2532C56.0213 26.4069 56.0213 26.4069 56.175 26.5606C56.175 26.7143 56.3287 26.868 56.3287 26.868L56.4824 27.1753C56.6361 27.329 56.6361 27.6364 56.7898 27.7901V27.9438C56.7898 27.9438 56.7898 28.0975 56.9435 28.0975C56.9435 28.2512 57.0972 28.4049 57.0972 28.5586L57.2509 28.7123C57.2509 28.866 57.4046 29.0197 57.4046 29.0197C57.4046 29.1734 57.4046 29.1734 57.5583 29.1734C57.5583 29.3271 57.5583 29.3271 57.712 29.3271L57.8657 29.4807C57.8657 29.6344 58.0194 29.7881 58.0194 29.9418C58.0194 29.9418 58.0194 29.9418 58.0194 30.0955V30.2492V30.4029C58.0194 30.5566 58.173 30.7103 58.173 30.864V31.0177V31.1714V31.3251L58.3267 31.6325V31.7862V31.9399V32.0935V32.2472C58.3267 32.4009 58.3267 32.4009 58.4804 32.4009V32.5546V32.7083V32.862C58.4804 33.0157 58.4804 33.0157 58.6341 33.0157C58.7878 33.3231 59.2489 36.0896 59.2489 36.397C59.2489 36.5507 59.2489 36.8581 59.4026 37.0117C59.4026 37.0117 59.4026 37.0117 59.4026 37.1654C59.4026 37.3191 59.4026 37.3191 59.4026 37.3191V37.4728C59.4026 37.6265 59.4026 37.7802 59.4026 37.9339V38.0876V38.2413V38.395V38.5487C59.4026 38.7024 59.4026 38.7024 59.4026 38.8561V39.0098V39.1635V39.3172V39.4709C59.4026 39.6245 59.4026 39.6245 59.4026 39.7782C59.4026 39.9319 59.5563 40.0856 59.5563 40.2393C59.5563 40.393 59.5563 40.393 59.71 40.5467C59.71 40.7004 59.71 40.7004 59.8637 40.8541C59.8637 41.0078 59.8637 41.0078 60.0174 41.1615V41.3152C60.1711 41.7763 60.3248 42.0836 60.3248 42.5447V42.6984V42.8521V43.0058V43.1595C60.4785 43.4669 60.4785 43.7743 60.6322 44.0817C60.6322 44.2354 60.6321 44.2354 60.7858 44.3891V44.5427C60.9395 44.8501 60.9395 45.0038 61.0932 45.3112C61.0932 45.4649 61.2469 45.4649 61.2469 45.6186V45.7723V45.926V46.0797L61.4006 46.3871C61.4006 46.5408 61.5543 46.5408 61.5543 46.6945C61.5543 46.6945 61.5543 46.6945 61.5543 46.8482V47.0019C61.5543 47.1555 61.708 47.1555 61.708 47.3092C61.708 47.4629 61.8617 47.6166 61.8617 47.6166V47.7703V47.924C62.0154 48.3851 62.3228 48.6925 62.4765 49.1536V49.3073V49.461V49.6146C62.6302 49.922 62.7839 50.0757 62.9376 50.3831C62.9376 50.3831 62.9376 50.5368 63.0913 50.5368V50.6905V50.8442C63.0913 50.8442 63.0913 50.8442 63.0913 50.9979C63.2449 51.1516 63.2449 51.3053 63.3986 51.3053V51.459C63.3986 51.459 63.3986 51.6127 63.5523 51.6127C64.1671 52.0737 64.6282 52.3811 65.243 52.9959C66.1651 54.2255 65.704 55.6087 66.3188 55.7624H66.4725H66.6262H66.7799H66.9336C67.7021 55.9161 68.1631 56.3772 68.4705 56.5309C68.7779 56.6846 68.9316 56.9919 69.0853 57.2993C69.239 57.453 69.3927 57.7604 69.3927 57.9141C69.5464 58.2215 69.7001 58.5289 69.7001 58.99C70.7759 58.8363 70.7759 59.1437 70.6223 59.4511Z" fill="#580C48"/>
<path d="M70.6223 59.4511C70.6223 59.6047 70.6223 59.6047 70.6223 59.4511C70.6223 59.7584 70.4686 59.7584 70.4686 59.9121C70.4686 59.9121 70.4686 59.9121 70.4686 60.0658C70.3149 60.3732 70.1612 60.5269 70.0075 60.6806C70.0075 60.6806 70.0075 60.6806 69.8538 60.8343L69.7001 60.988C69.3927 61.1417 69.0853 61.4491 68.7779 61.4491C68.0095 61.7565 67.0873 61.9102 66.3188 61.7565H65.704H65.243C64.3208 61.7565 63.3986 61.7565 62.4765 61.7565H62.0154H61.5543H61.4006H61.0932H60.9395H60.6322H60.4785H60.1711H60.0174H59.8637H59.71H59.5563H59.4026H59.2489H58.9415H58.4804H58.3267H58.173C57.8657 61.7565 57.712 61.7565 57.5583 61.7565C57.0972 61.7565 56.6361 61.9102 56.3287 62.2175C55.4066 62.8323 54.3307 63.1397 53.2548 63.4471L52.9475 63.6008C49.2588 64.6766 46.4923 63.7545 46.4923 63.7545C37.5781 62.6786 36.1948 62.986 33.1209 64.0619C30.0471 64.984 28.8175 63.2934 26.9732 63.7545C26.051 63.9082 24.9752 63.7545 24.2067 63.4471C23.8993 63.2934 23.5919 63.2934 23.4382 63.1397C22.8235 62.986 22.3624 63.1397 21.7476 63.4471C20.6717 64.0619 19.7496 64.5229 18.6737 64.984C18.2126 65.1377 17.7516 65.2914 17.1368 65.4451C16.3683 65.5988 15.9072 65.4451 15.4462 65.2914C15.2925 65.1377 14.9851 64.984 14.8314 64.8303C14.524 64.3693 14.3703 63.7545 14.3703 63.4471C14.3703 63.4471 14.3703 63.4471 14.3703 63.2934C14.3703 63.1397 14.2166 63.1397 14.2166 62.986H14.0629C13.1407 62.5249 11.6038 63.2934 10.528 63.4471C10.3743 63.4471 10.0669 63.4471 9.91317 63.6008C8.22254 63.9082 7.30038 64.0619 6.22452 64.0619H6.07083C5.91713 64.0619 5.76344 64.0619 5.60975 64.0619C5.45605 64.0619 5.30236 64.0619 5.14867 64.0619H4.99497H4.68758H4.53389C4.3802 64.0619 4.2265 64.0619 4.07281 63.9082H3.91911H3.61173H3.45803C3.30434 63.9082 3.30434 63.9082 3.15064 63.7545H2.99695H2.84326H2.68956H2.53587H2.38218H2.22848C2.07479 63.7545 2.07479 63.6008 1.92109 63.6008L1.7674 63.4471C1.61371 63.2934 1.46001 63.2934 1.30632 63.1397L1.15262 62.986L0.998931 62.8323C0.998931 62.8323 0.998931 62.6786 0.845237 62.6786C0.845237 62.6786 0.845237 62.5249 0.691543 62.5249V62.3712C0.691543 62.3712 0.691543 62.2175 0.537849 62.2175V62.0639V61.9102V61.7565C0.537849 61.6028 0.384155 61.4491 0.384155 61.2954V61.1417V60.988V60.8343V60.6806C0.384155 60.0658 0.384155 59.6047 0.537849 59.1437V58.99C0.537849 58.8363 0.537849 58.8363 0.691543 58.6826V58.5289V58.3752C0.691543 58.3752 0.691543 58.2215 0.845237 58.2215L0.998931 58.0678L1.15262 57.9141L1.30632 57.7604C1.30632 57.7604 1.30632 57.7604 1.46001 57.6067V57.453C1.7674 57.1456 2.07479 56.992 2.38218 56.8383C2.53587 56.8383 2.53587 56.8383 2.53587 56.8383C2.68956 56.8383 2.84326 56.8383 2.84326 56.6846C3.30434 56.2235 2.99695 54.9939 3.91911 54.0718L4.07281 53.9181L4.2265 53.7644H4.3802C4.3802 53.7644 4.53389 53.7644 4.53389 53.6107C4.53389 53.457 4.68758 53.6107 4.68758 53.457H4.84128C4.84128 53.457 4.99497 53.457 4.99497 53.3033H5.14867C5.14867 53.3033 5.30236 53.3033 5.30236 53.1496H5.45605H5.60975H5.76344H5.91713H6.07083H6.22452H6.37822H6.53191C6.8393 52.8422 6.8393 52.2274 7.30038 49.7683C7.91515 45.4649 10.528 40.7004 10.528 40.7004C9.2984 35.7822 10.8353 38.0876 11.2964 35.1674C12.0649 31.1714 18.6737 21.335 18.6737 21.335C18.6737 21.335 30.9692 21.7961 33.8894 11.6523C34.1968 10.4227 34.5042 9.03947 34.5042 7.65622C37.4244 6.58036 39.115 7.34883 39.8835 8.271L40.0372 8.42469C40.0372 8.42469 40.0372 8.42469 40.1909 8.57838L40.3446 8.73208C40.3446 8.73208 40.3446 8.88577 40.4983 8.88577C40.6519 8.88577 40.4983 8.88577 40.4983 9.03947V9.19316C40.4983 9.34685 40.6519 9.34685 40.6519 9.34685C40.6519 9.34685 40.6519 9.34685 40.6519 9.50055C40.8056 9.65424 40.8056 9.65424 40.9593 9.50055C41.7278 9.03947 42.3426 8.73208 42.9574 8.73208H43.111H43.2647H43.4184C43.5721 8.73208 43.7258 8.88577 43.8795 8.88577H44.0332H44.1869C44.3406 8.88577 44.3406 9.03947 44.3406 9.03947H44.4943H44.648C44.648 9.03947 44.648 9.03947 44.8017 9.03947H44.9554H45.1091H45.2628L45.4165 9.19316H45.5702L45.7238 9.34685H45.8775H46.0312L46.3386 10.269L46.4923 10.4227L46.646 10.5764L46.7997 10.7301C46.9534 10.8838 46.9534 10.8838 47.1071 11.0375L47.2608 11.1912L47.4145 11.3449L47.5682 11.4986C47.7219 11.6523 47.7219 11.806 47.8756 11.9596L48.0293 12.1133C48.3366 12.5744 48.644 13.0355 48.9514 13.4966L49.1051 13.6503L49.2588 13.804V13.9577C49.7199 14.5724 50.0273 15.1872 50.4884 15.802L50.6421 15.9557C50.6421 15.9557 50.642 16.1094 50.7957 16.1094C50.7957 16.2631 50.7957 16.2631 50.7957 16.4168L50.9494 16.5705L51.1031 16.8779V17.0315V17.1852L51.2568 17.3389C51.4105 17.4926 51.4105 17.6463 51.5642 17.9537L51.7179 18.1074L51.8716 18.2611L52.0253 18.4148V18.5685L52.179 18.8759L52.3327 19.1833V19.337L52.4864 19.4906L52.6401 19.6443C52.7938 20.1054 53.1011 20.5665 53.2548 20.8739L53.4085 21.0276C53.7159 21.6424 54.0233 22.2571 54.177 22.7182C54.177 22.8719 54.3307 22.8719 54.3307 23.0256L54.4844 23.1793L54.6381 23.333L54.7918 23.6404L55.0992 24.1015C55.2529 24.4089 55.4066 24.5625 55.4066 24.8699L55.5602 25.1773L55.7139 25.4847L55.8676 25.9458L56.0213 26.2532C56.0213 26.4069 56.0213 26.4069 56.175 26.5606C56.175 26.7143 56.3287 26.868 56.3287 26.868L56.4824 27.1753C56.6361 27.329 56.6361 27.6364 56.7898 27.7901V27.9438C56.7898 27.9438 56.7898 28.0975 56.9435 28.0975C56.9435 28.2512 57.0972 28.4049 57.0972 28.5586L57.2509 28.7123C57.2509 28.866 57.4046 29.0197 57.4046 29.0197C57.4046 29.1734 57.4046 29.1734 57.5583 29.1734C57.5583 29.3271 57.5583 29.3271 57.712 29.3271L57.8657 29.4807C57.8657 29.6344 58.0194 29.7881 58.0194 29.9418C58.0194 29.9418 58.0194 29.9418 58.0194 30.0955V30.2492V30.4029C58.0194 30.5566 58.173 30.7103 58.173 30.864V31.0177V31.1714V31.3251L58.3267 31.6325V31.7862V31.9399V32.0935V32.2472C58.3267 32.4009 58.3267 32.4009 58.4804 32.4009V32.5546V32.7083V32.862C58.4804 33.0157 58.4804 33.0157 58.6341 33.0157C58.7878 33.3231 59.2489 36.0896 59.2489 36.397C59.2489 36.5507 59.2489 36.8581 59.4026 37.0117C59.4026 37.0117 59.4026 37.0117 59.4026 37.1654C59.4026 37.3191 59.4026 37.3191 59.4026 37.3191V37.4728C59.4026 37.6265 59.4026 37.7802 59.4026 37.9339V38.0876V38.2413V38.395V38.5487C59.4026 38.7024 59.4026 38.7024 59.4026 38.8561V39.0098V39.1635V39.3172V39.4709C59.4026 39.6245 59.4026 39.6245 59.4026 39.7782C59.4026 39.9319 59.5563 40.0856 59.5563 40.2393C59.5563 40.393 59.5563 40.393 59.71 40.5467C59.71 40.7004 59.71 40.7004 59.8637 40.8541C59.8637 41.0078 59.8637 41.0078 60.0174 41.1615V41.3152C60.1711 41.7763 60.3248 42.0836 60.3248 42.5447V42.6984V42.8521V43.0058V43.1595C60.4785 43.4669 60.4785 43.7743 60.6322 44.0817C60.6322 44.2354 60.6321 44.2354 60.7858 44.3891V44.5427C60.9395 44.8501 60.9395 45.0038 61.0932 45.3112C61.0932 45.4649 61.2469 45.4649 61.2469 45.6186V45.7723V45.926V46.0797L61.4006 46.3871C61.4006 46.5408 61.5543 46.5408 61.5543 46.6945C61.5543 46.6945 61.5543 46.6945 61.5543 46.8482C61.5543 46.8482 61.5543 46.8482 61.5543 47.0019C61.5543 47.1555 61.708 47.1555 61.708 47.3092C61.708 47.4629 61.8617 47.6166 61.8617 47.6166V47.7703V47.924C62.0154 48.3851 62.3228 48.6925 62.4765 49.1536V49.3073V49.461V49.6146C62.6302 49.922 62.7839 50.0757 62.9376 50.3831C62.9376 50.3831 62.9376 50.5368 63.0913 50.5368V50.6905V50.8442C63.0913 50.8442 63.0913 50.8442 63.0913 50.9979C63.2449 51.1516 63.2449 51.3053 63.3986 51.3053V51.459C63.3986 51.459 63.3986 51.6127 63.5523 51.6127C64.1671 52.0737 64.6282 52.3811 65.243 52.9959C66.1651 54.2255 65.704 55.6087 66.3188 55.7624H66.4725H66.6262H66.7799H66.9336C67.7021 55.9161 68.1631 56.3772 68.4705 56.5309C68.7779 56.6846 68.9316 56.9919 69.0853 57.2993C69.239 57.453 69.3927 57.7604 69.3927 57.9141C69.5464 58.2215 69.7001 58.5289 69.7001 58.99C70.7759 58.8363 70.7759 59.1437 70.6223 59.4511Z" fill="url(#paint3_radial_364_1253)"/>
<path opacity="0.61" d="M70.4686 60.0647C70.0076 60.8332 69.0854 61.4479 67.8558 61.7553C67.0874 61.909 66.1652 62.0627 65.243 62.0627C60.7859 61.909 59.7101 61.6016 57.712 61.909C56.0214 62.0627 53.8697 63.5996 53.1012 64.0607C53.1012 64.0607 52.9475 64.0607 52.9475 64.2144C48.9515 64.3681 47.8756 62.5238 44.3407 62.2164C41.5742 61.909 35.5801 64.0607 32.5063 64.6755C30.3545 65.1366 31.123 63.446 27.7417 64.2144C27.4344 64.3681 25.8974 64.0607 24.2068 64.0607C23.7457 64.0607 23.2846 64.0607 22.8235 64.2144C22.5162 64.2144 22.2088 64.3681 21.7477 64.3681C21.1329 64.5218 20.5181 64.6755 20.0571 64.9829C19.596 65.2903 19.1349 65.444 18.5201 65.5977C17.2906 66.0588 16.061 66.0588 15.2925 65.9051C14.9852 65.9051 14.8315 65.7514 14.6778 65.444C14.5241 64.9829 14.3704 64.5218 14.2167 64.0607C14.063 63.907 14.063 63.7533 13.9093 63.5997C13.6019 63.2923 13.1408 63.1386 12.5261 63.2923C11.6039 63.5996 10.528 63.907 9.45217 64.0607C7.14677 64.3681 4.68766 64.5218 2.53595 63.5997C1.61379 63.1386 0.691622 62.5238 0.230541 61.6016C-0.0768469 60.8332 -0.0768469 59.911 0.230541 58.9888C0.384235 58.5278 0.537929 58.0667 0.845316 57.7593C1.1527 57.2982 1.46009 56.9908 1.92117 56.8371C2.07487 56.8371 2.07487 56.8371 2.22856 56.8371C2.38226 56.8371 2.53595 56.8371 2.53595 56.6834C3.15072 56.0686 2.22856 54.0706 5.30244 53.1485C5.45613 53.1485 5.45613 53.1485 5.45613 53.1485C5.60983 53.1485 5.60983 53.1485 5.60983 53.1485C5.60983 53.1485 5.60983 53.1485 5.76352 53.1485C6.07091 52.9948 6.2246 52.38 6.53199 49.7672C6.53199 49.6135 6.68568 49.6135 6.68568 49.4598C6.83938 48.6913 6.99307 48.0766 7.14676 47.3081C7.30046 46.847 7.30046 46.5396 7.45415 46.0785C8.06893 44.2342 8.8374 42.3899 9.75956 40.6993V40.5456C9.29848 35.9348 10.8354 38.0865 11.4502 35.32C12.2187 31.3239 18.8275 21.4875 18.8275 21.4875C18.8275 21.4875 31.2767 22.1023 34.0432 11.8048C34.3506 10.5753 34.5043 9.19202 34.658 7.96247C38.3466 6.73292 40.0373 8.26986 40.652 9.19202C40.652 9.34571 40.8057 9.34571 40.8057 9.49941C40.8057 9.49941 40.8057 9.49941 40.8057 9.6531C40.9594 9.8068 40.9594 9.8068 41.1131 9.6531C42.65 8.57725 44.3407 9.03833 45.8776 10.4216H46.0313H46.185L46.3387 10.5753C48.6441 12.8807 50.9495 16.8767 52.9475 21.0264C52.9475 21.0264 52.9475 21.1801 53.1012 21.1801C55.0993 25.6373 55.714 30.2481 56.1751 31.785C56.3288 32.0924 57.712 34.5515 57.8657 34.8589C58.1731 37.9328 59.5564 42.5436 61.247 45.7712C61.4007 45.9249 61.4007 46.2322 61.5544 46.3859C62.6302 48.845 63.8598 50.9967 64.9357 51.4578C65.3967 51.7652 65.7041 52.0726 66.0115 52.38C66.0115 52.5337 66.1652 52.6874 66.1652 52.8411C66.1652 53.1485 66.4726 53.3022 66.6263 53.4559C66.78 53.7632 66.78 53.9169 66.9337 54.2243C66.9337 54.378 67.0874 54.5317 67.0874 54.8391C67.0874 55.1465 67.2411 55.3002 67.3948 55.4539C67.3948 55.4539 67.3948 55.4539 67.5485 55.4539C68.1632 55.6076 69.3928 55.915 70.0076 56.8371C70.1612 56.9908 70.3149 57.2982 70.4686 57.4519C70.6223 57.7593 70.776 58.0667 70.776 58.5278C70.776 58.6814 70.776 58.6814 70.776 58.6814C70.776 59.2962 70.6223 59.7573 70.4686 60.0647Z" fill="url(#paint4_radial_364_1253)"/>
<path opacity="0.62" d="M35.2729 8.5785L35.4266 8.4248C35.2729 8.5785 35.1192 8.5785 35.1192 8.5785V8.73219C35.1192 8.73219 35.1192 8.73219 35.1192 8.5785H35.2729Z" fill="url(#paint5_radial_364_1253)"/>
<path opacity="0.78" d="M13.6021 55.9166C11.604 55.6092 6.83952 52.689 7.76169 48.8467C8.68385 44.6969 10.9893 38.0881 12.8336 35.629C14.8316 32.8625 18.5203 24.2557 19.9035 21.7966C20.2109 21.3355 21.2867 21.4892 21.2867 21.4892C21.2867 21.4892 27.1271 21.0281 31.7379 18.1079C32.9675 17.3394 33.4286 14.5729 34.3507 12.8823C35.5803 12.5749 38.3468 13.4971 39.8837 17.6468C40.1911 18.4153 40.1911 15.9562 38.3468 13.4971C37.8857 12.8823 39.8837 11.9602 41.8817 12.8823C43.726 13.6508 44.8019 15.9562 44.9556 16.1099C45.4167 16.7247 44.6482 15.1877 43.265 13.1897C50.0275 10.7306 52.0255 21.3355 54.0235 25.7926C57.2511 33.0162 59.8639 44.6969 61.5545 49.0004C66.1654 60.5274 27.2808 58.222 13.6021 55.9166Z" fill="url(#paint6_radial_364_1253)"/>
<path opacity="0.62" d="M60.4785 51.7673C58.7879 53.7653 55.5603 55.1485 51.5643 55.917C40.0372 58.2224 21.9013 56.3781 14.2167 52.6894C12.3723 51.7673 10.528 50.5377 10.9891 46.6954C11.6039 42.5456 13.2945 37.0126 14.9851 34.7072C17.2905 31.4797 21.1329 21.4896 21.1329 21.4896C21.1329 21.4896 28.6639 21.1822 32.0451 17.0324C32.6599 16.264 33.121 15.3418 33.7358 13.8049C33.8895 13.4975 34.0432 13.1901 34.1969 12.8827C34.3505 12.8827 34.3505 12.8827 34.5042 12.8827C34.6579 12.8827 34.9653 12.8827 35.119 12.8827C36.3486 13.1901 37.5781 13.8049 38.654 15.4955C38.8077 15.8029 38.9614 15.9566 39.1151 16.264C39.2687 16.5714 39.4224 17.0324 39.5761 17.4935C39.5761 17.6472 39.5761 17.6472 39.7298 17.6472C39.8835 17.8009 39.5761 15.3418 38.3466 13.6512C38.1929 13.4975 38.1929 13.3438 38.0392 13.1901C38.0392 12.729 38.5003 12.5753 38.9614 12.4216C39.8835 12.2679 41.2668 12.4216 41.8815 12.729C43.2648 13.4975 43.8796 14.5733 44.0333 14.8807C44.187 15.1881 44.3406 15.3418 44.4943 15.6492C44.4943 15.8029 44.648 15.8029 44.8017 15.9566C44.9554 15.8029 43.5722 13.8049 43.2648 13.3438L43.1111 13.0364C44.8017 12.4216 46.3387 12.729 47.5682 13.3438C47.8756 13.4975 48.183 13.8049 48.4904 13.9586C51.4106 17.0324 54.0234 24.2561 54.1771 24.8708C55.4066 28.2521 60.0174 42.853 61.247 46.849C61.8617 48.8471 61.5544 50.5377 60.4785 51.7673Z" fill="url(#paint7_radial_364_1253)"/>
<path d="M34.658 7.65527C32.9674 13.803 24.3605 21.0266 18.8275 21.334C26.6659 21.9488 34.1969 21.7951 34.658 7.65527Z" fill="#262261"/>
<path d="M70.1612 57.1459C69.8538 56.9922 69.7001 56.9923 69.5464 56.9923C67.241 56.6849 67.0873 60.0661 65.8577 60.6809C62.9376 61.9105 59.71 59.2977 58.0194 59.9124C56.6361 60.3735 55.0992 61.9105 53.7159 62.3715C50.3347 63.4474 48.7977 62.5252 45.4165 61.2957C43.1111 60.3735 37.7318 62.3715 35.4264 63.14C31.4303 64.3696 31.2766 62.5252 28.9712 62.0641C26.9732 61.7568 25.8973 65.138 24.2067 63.14C22.2087 60.6809 21.5939 65.7528 16.0609 64.8306C14.3703 64.5232 14.9851 62.0641 13.7555 62.0641C11.4501 61.9105 12.526 65.138 2.38218 62.8326C1.15263 62.5252 -0.230615 60.5272 0.0767725 58.8366C0.230466 58.3755 0.38416 57.9144 0.691548 57.607C0.998936 57.2996 1.30632 56.9922 1.7674 56.6849H1.9211C1.9211 56.5312 2.07479 56.3775 2.22849 56.3775C2.22849 56.3775 2.22849 56.3775 2.38218 56.5312C2.84326 57.1459 4.22651 60.3735 8.99102 60.3735C11.7575 60.3735 13.1408 60.3735 13.7555 60.6809C14.0629 60.8346 14.3703 60.9883 14.524 61.2957C14.6777 61.4494 14.6777 61.6031 14.8314 61.7568C17.5979 66.0602 19.2885 64.3696 20.3644 62.9863C20.6718 62.6789 20.8254 62.5252 20.9791 62.2178C21.1328 62.0641 21.1328 62.0641 21.2865 62.0641C22.5161 60.8346 23.7456 60.5272 24.053 61.2957C25.1289 63.4474 26.3584 61.6031 27.4343 60.6809C27.8954 60.3735 28.2028 60.0661 28.6638 60.0661C29.586 60.2198 30.2008 61.2957 31.1229 61.6031C32.1988 61.9105 33.2746 61.9105 34.3505 61.6031C35.7337 61.142 36.6559 60.0661 37.4244 59.4514C38.6539 58.3755 40.1909 58.5292 41.4204 58.9903C41.5741 58.9903 41.7278 59.144 41.8815 59.2977C42.0352 59.4514 42.1889 59.4513 42.3426 59.605C42.65 59.7587 42.9574 59.9124 43.4184 60.0661C44.9554 60.6809 46.4923 61.142 48.183 61.4494C49.5662 61.6031 50.9494 61.6031 52.179 61.142C52.3327 60.9883 52.6401 60.9883 52.7938 60.8346C53.5622 60.3735 54.4844 59.7587 55.4066 59.2977C56.0213 58.9903 56.6361 58.5292 57.2509 58.2218C57.712 58.0681 58.1731 58.0681 58.4804 58.0681C60.7858 58.3755 63.5523 61.2957 65.7041 59.4514C66.1651 59.144 66.6262 58.5292 67.0873 57.607C67.241 57.1459 67.3947 56.8386 67.5484 56.3775C67.5484 56.2238 67.5484 56.0701 67.5484 55.9164C67.5484 55.9164 67.5484 55.9164 67.5484 55.7627H67.7021C67.8558 55.7627 68.0095 55.7627 68.0095 55.9164C68.7779 56.0701 69.239 56.5312 69.5464 56.6849C69.7001 56.5312 69.8538 56.8386 70.1612 57.1459Z" fill="#892759"/>
<path d="M6.83937 60.3737C6.68568 60.22 2.99702 58.5294 1.46009 59.6053C0.384228 60.5274 1.61378 61.9107 2.22855 62.5254H2.07486C1.46008 62.2181 -0.691629 60.6811 0.384228 58.8368C1.46008 57.2999 4.53396 58.5294 6.83937 60.3737Z" fill="url(#paint8_radial_364_1253)"/>
<path d="M45.263 61.4479C45.4167 61.6016 43.8798 61.6016 42.9576 61.6016C40.1911 60.8331 35.4266 64.5218 33.2749 62.9848C32.9675 62.6775 32.6601 62.3701 32.3528 62.0627C34.8119 63.7533 43.4187 58.9888 45.263 61.4479Z" fill="#E76F81"/>
<path d="M5.60993 52.6885C5.76363 54.8402 9.45228 58.0678 11.7577 57.6067C13.1409 57.2993 13.7557 56.5308 14.8316 57.6067C15.6 58.2215 15.9074 59.2973 16.2148 60.2195C16.5222 61.1416 17.4444 62.0638 18.3665 61.9101C19.4424 61.7564 21.4404 58.6825 22.3626 58.5288C23.7458 58.3752 25.4364 59.7584 26.9734 59.6047C27.7418 59.451 29.5862 58.5288 30.3546 59.2973C32.3527 61.449 36.6561 57.2993 36.6561 57.7604C36.6561 58.2215 32.5064 62.986 30.9694 60.6806C29.4325 58.2215 27.8955 59.6047 27.2808 60.0658C26.0512 60.6806 23.5921 59.1436 22.2089 59.1436C21.4404 59.1436 19.4424 61.6027 18.8276 62.3712C17.2907 63.9081 16.5222 61.6027 16.2148 60.9879C15.7537 60.0658 14.9853 58.6825 14.0631 58.3752C12.2188 57.6067 12.3725 58.6825 10.3744 58.0678C4.99516 56.3771 5.60993 52.6885 5.60993 52.6885Z" fill="#A82671"/>
<path d="M43.4186 59.6047C45.263 60.5269 47.5684 61.1417 49.1053 60.8343C52.0255 60.3732 52.9477 57.7604 55.7141 57.1456C58.9417 56.3772 64.9358 59.9121 65.7043 56.8382C66.0116 55.9161 65.7043 54.6865 65.7043 54.6865C65.7043 55.455 64.4747 56.6845 64.0136 56.8382C60.6323 57.9141 58.3269 55.1476 55.0994 56.5308C53.4087 57.2993 50.7959 59.2973 49.1053 59.7584C47.261 60.0658 43.4186 59.6047 43.4186 59.6047Z" fill="#A82671"/>
<path d="M55.4067 29.7873C53.7161 26.7134 50.9496 15.6475 47.5683 13.3421C46.3388 12.5736 44.8018 12.4199 43.1112 13.0347C43.1112 13.0347 43.726 13.9569 43.726 14.1105C45.4166 13.3421 48.6442 14.879 51.5643 21.3342C51.8717 22.1026 53.255 25.4839 54.4845 28.4041C54.4845 28.4041 55.8678 30.5558 55.4067 29.7873ZM44.8018 15.9549L44.6481 15.6475C44.4944 15.3401 43.726 13.8032 42.189 13.0347C41.2669 12.5736 40.191 12.4199 39.2688 12.7273C38.8078 12.881 38.193 13.1884 38.3467 13.4958C38.5004 13.6495 38.5004 13.8032 38.6541 13.9569C41.4206 13.1884 44.0333 14.7253 44.8018 15.9549C45.2629 16.7233 45.2629 16.877 44.8018 15.9549Z" fill="#E76F81"/>
<path d="M39.8837 17.8C40.1911 18.8759 39.8837 18.1074 39.8837 18.1074C38.9615 15.6483 35.4266 13.3429 33.8896 13.804C34.0433 13.4966 34.197 13.1892 34.3507 12.8818C34.5044 12.8818 34.5044 12.8818 34.6581 12.8818C35.4266 12.8818 37.8857 13.1892 39.4226 16.4168C39.4226 16.8779 39.8837 17.6463 39.8837 17.8Z" fill="#E76F81"/>
<path d="M34.658 7.65527C32.9674 13.803 24.3605 21.0266 18.8275 21.334C26.6659 21.9488 34.1969 21.7951 34.658 7.65527Z" fill="url(#paint9_radial_364_1253)"/>
<path d="M34.658 7.65527C32.9674 13.803 24.3605 21.0266 18.8275 21.334C24.9753 20.8729 33.4285 22.1025 34.658 7.65527Z" fill="white"/>
<path d="M33.2747 15.4942C31.123 20.7198 26.8196 21.4882 23.4383 21.4882C23.2846 21.4882 23.1309 21.9493 23.2846 21.9493C24.8216 22.2567 30.8156 21.9493 33.2747 15.4942C33.4284 15.3405 33.2747 15.3405 33.2747 15.4942Z" fill="#E76F81"/>
<path d="M22.0551 21.1817C27.7418 20.5669 29.2787 19.1837 29.5861 18.8763C32.1989 16.7246 33.5822 12.7285 33.5822 11.499C33.8896 10.1157 33.5822 10.4231 32.8137 11.8064C32.0452 13.3433 26.2049 19.7985 21.9014 20.8743C21.4404 21.028 20.9793 21.028 21.133 21.1817C21.133 21.1817 21.7477 21.1817 22.0551 21.1817Z" fill="#312F68"/>
<path d="M51.5645 55.9156C61.2472 52.0733 58.9418 46.2329 57.2511 38.3945C58.0196 40.0852 61.8619 48.692 60.4787 51.6122C60.0176 52.8418 56.1753 55.1472 51.5645 55.9156Z" fill="#E76F81"/>
<path opacity="0.56" d="M48.7977 14.4194C48.644 14.2657 48.3366 13.8046 47.8756 13.6509C47.1071 13.1898 46.3386 12.8824 45.4165 12.7288C44.648 12.5751 43.7258 12.7288 42.9573 13.0361C43.4184 13.6509 43.7258 14.2657 44.0332 14.7268C44.648 15.9563 45.1091 16.5711 44.648 16.11C44.4943 15.9563 44.1869 15.3415 44.0332 15.1879C43.7258 14.7268 42.8037 13.3435 41.5741 12.8824C39.2687 12.114 37.5781 13.0361 38.0391 13.4972C38.0391 13.6509 38.1928 13.6509 38.1928 13.8046C38.6539 14.5731 39.115 15.4952 39.4224 16.4174C39.5761 16.8785 39.7298 17.4933 39.5761 17.8006C39.5761 17.8006 39.2687 17.1859 39.2687 17.0322C38.3465 15.1879 37.8855 14.5731 37.117 13.9583C36.3485 13.3435 35.8874 13.1898 34.9653 12.8824C34.8116 12.8824 34.6579 12.8824 34.5042 12.8824C34.3505 12.8824 34.3505 12.8824 34.1968 12.8824C34.0431 12.8824 34.0431 12.8824 34.0431 12.8824L33.7357 13.6509C34.5042 11.4992 34.8116 9.65487 34.9653 9.0401C34.9653 8.8864 34.9653 8.8864 34.9653 8.73271V8.57902L35.119 8.42532C35.8874 7.96424 36.6559 7.81055 37.5781 7.81055C38.1928 7.96424 38.9613 8.27163 39.4224 8.73271C39.7298 9.0401 39.8835 9.19379 40.0372 9.50118C39.5761 10.116 39.2687 11.3455 39.2687 11.3455C39.7298 10.7307 40.1909 10.2696 40.6519 9.96226H40.8056C41.2667 9.80857 41.8815 9.65487 42.4963 9.65487C43.2647 9.65487 43.8795 9.80857 44.4943 10.116C44.9554 10.4233 45.4165 10.7307 45.8775 11.0381C46.1849 11.4992 46.646 11.9603 46.9534 12.4214C48.0292 13.0361 48.4903 13.8046 48.7977 14.4194Z" fill="url(#paint10_linear_364_1253)"/>
<path d="M50.6423 16.2637C50.6423 16.4174 49.8738 15.3416 49.1053 14.2657C48.6442 13.651 48.1831 13.0362 47.7221 12.5751C47.4147 12.114 46.9536 11.6529 46.6462 11.1919C46.3388 10.7308 45.8777 10.4234 45.263 10.2697C44.6482 9.9623 43.8797 9.80861 43.2649 9.80861C42.6502 9.80861 42.1891 9.9623 41.5743 10.116C40.9595 10.4234 40.4985 11.0382 40.0374 11.4992C40.0374 11.4992 40.0374 11.4992 40.0374 11.3455C40.0374 11.1918 40.3448 10.2697 40.6521 9.80861C40.0374 9.04014 39.2689 8.11797 37.8857 7.96428C37.1172 7.96428 36.195 8.11797 35.4266 8.57905L35.2729 8.73275V8.88644C35.2729 8.88644 35.2729 9.04014 35.2729 9.19383C35.2729 9.80861 35.1192 10.8845 34.5044 13.0362C34.5044 13.1899 33.8896 14.5731 33.8896 14.4194C34.3507 12.8825 34.8118 9.9623 34.9655 7.81059C36.0413 7.3495 39.4226 6.11995 41.1132 9.34752C41.1132 9.50122 41.2669 9.50122 41.4206 9.50122C42.6502 8.57905 44.3408 8.27167 46.7999 10.7308C47.5684 11.4992 48.3368 12.4214 49.1053 13.3436C49.4127 14.2657 50.0275 15.1879 50.6423 16.2637Z" fill="#977280"/>
<path d="M9.75938 40.7005C9.75938 40.8542 9.60569 41.0079 9.60569 41.1616C9.452 41.469 9.2983 41.7763 9.14461 42.0837C8.83722 42.6985 8.68353 43.3133 8.52983 44.0817C8.22245 45.1576 7.91506 46.0798 7.60767 47.1556C7.45398 47.9241 7.30028 48.5389 7.14659 49.3073C7.14659 49.461 7.14659 49.461 7.14659 49.6147C7.14659 49.6147 7.14659 49.6147 7.14659 49.7684C7.14659 49.9221 7.14659 50.2295 7.14659 50.3832C7.14659 50.6906 7.14659 50.998 7.14659 51.3054C7.14659 51.9201 7.14659 52.3812 7.14659 52.996C7.14659 53.6108 7.14659 54.0718 6.99289 54.5329C6.99289 54.6866 6.8392 54.8403 6.68551 54.8403C6.68551 54.8403 5.60965 52.996 5.60965 52.5349C5.91704 52.3812 5.91704 52.0738 6.37812 49.1536C6.37812 49 6.8392 47.3093 6.99289 46.5408C7.14659 46.0798 7.14659 45.7724 7.30028 45.3113C7.91506 43.467 8.68353 41.6226 9.60569 39.932V39.7783C9.60569 39.7783 9.75938 39.7783 9.75938 39.932C9.91308 40.3931 9.91308 40.5468 9.75938 40.7005Z" fill="#7D1854"/>
<path d="M35.8876 8.8864C35.5803 9.0401 35.4266 9.19379 35.1192 9.34749C35.1192 9.0401 35.1192 8.57902 35.1192 8.57902C35.7339 8.27163 36.6561 7.81055 37.8857 7.81055C38.9615 7.81055 39.73 8.57902 40.0374 8.8864C40.0374 8.8864 37.732 7.50316 35.8876 8.8864Z" fill="#69505C"/>
<path d="M31.4304 14.4191C30.9693 15.1876 30.6619 15.6487 29.2787 16.4171C28.9713 16.5708 26.2048 18.5689 25.8974 19.3373C25.7437 19.7984 26.8196 19.6447 28.6639 19.0299C29.7398 18.7225 29.2787 18.2615 30.0472 17.493C30.8156 16.8782 31.2767 16.4171 31.5841 14.5728C31.7378 14.4191 31.8915 13.6507 31.4304 14.4191Z" fill="#6966AB"/>
<path d="M58.1731 58.6816C59.7101 58.6816 62.0155 59.45 61.5544 59.2963C60.6322 59.1426 59.4027 57.9131 58.1731 57.9131C56.7899 57.9131 54.6382 59.6037 55.0992 59.2963C55.2529 59.2963 56.7899 58.6816 58.1731 58.6816Z" fill="#E76F81"/>
<path d="M25.2826 62.526C26.2048 62.3724 27.2807 60.6817 27.4343 60.3743C26.9733 60.2206 26.2048 62.065 24.9752 62.065C24.3605 62.065 23.8994 61.4502 23.7457 60.9891C23.8994 60.9891 24.5142 62.6797 25.2826 62.526Z" fill="#E76F81"/>
<g opacity="0.18">
<path opacity="0.18" d="M6.83937 60.3736C6.68567 60.2199 2.99702 58.5293 1.46008 59.6051C1.15269 59.7588 0.999 60.0662 0.999 60.3736C0.999 60.3736 0.845306 60.2199 0.845306 60.0662C0.845306 59.9125 0.845306 59.7588 0.845306 59.6051C0.999 59.2978 1.15269 59.1441 1.30639 58.9904C1.76747 58.683 2.22855 58.683 2.68963 58.5293C3.15071 58.5293 3.76549 58.5293 4.22657 58.683C5.30243 59.2978 6.0709 59.7588 6.83937 60.3736Z" fill="white"/>
</g>
<path d="M70.4687 60.0656C70.1613 60.5267 69.7002 61.1415 68.9317 61.4489H68.7781C68.7781 61.4489 68.7781 61.4489 68.6244 61.4489C68.317 61.4489 67.5485 61.6026 67.7022 61.6026C67.7022 61.6026 67.7022 61.6026 67.8559 61.6026C68.0096 61.4489 68.1633 61.4489 68.4707 61.2952C70.6224 60.373 70.1613 57.6065 69.5465 56.9917C69.2391 56.6844 68.1633 56.5307 67.3948 56.0696C67.2411 55.9159 67.0874 55.9159 67.0874 55.7622C66.1653 54.2252 67.2411 53.6105 63.5525 50.2292C62.784 49.6144 62.0155 47.4627 61.7081 46.3869C61.7081 46.2332 61.5544 46.0795 61.5544 45.9258L61.7081 46.2332C61.7081 46.2332 61.7081 46.2332 61.7081 46.3869C61.7081 46.3869 61.7081 46.3869 61.7081 46.5406L61.8618 46.6943C62.0155 46.8479 62.0155 47.0016 62.0155 47.1553V47.309C62.4766 48.2312 63.0914 49.1534 63.7062 50.0755C64.0135 50.5366 64.3209 50.844 64.6283 51.1514C65.2431 51.6125 65.7042 51.9198 66.319 52.5346C67.2411 53.7642 66.78 55.1474 67.3948 55.3011H67.5485C67.7022 55.3011 67.8559 55.3011 67.8559 55.4548C68.6244 55.6085 69.0854 56.0696 69.3928 56.2233C69.7002 56.377 69.8539 56.6844 70.0076 56.9917C70.1613 57.1454 70.315 57.4528 70.315 57.6065C70.7761 58.375 70.7761 59.2971 70.4687 60.0656Z" fill="#F9CDD4"/>
<path d="M11.6038 42.6991C11.4501 42.8528 11.2964 43.0065 11.2964 43.3139C11.1427 43.4676 8.5299 49.1543 12.987 52.8429C13.2944 52.9966 14.8313 54.0725 15.4461 54.0725C16.0609 54.2262 16.6757 53.9188 16.8294 53.304V53.1503C16.8294 52.8429 16.9831 52.5355 16.6757 52.3818C16.3683 52.2281 10.2205 50.8449 12.0649 43.6213C12.0649 43.4676 12.2185 43.1602 12.2185 43.0065C12.2185 42.8528 11.7575 42.5454 11.6038 42.6991Z" fill="#E76F81"/>
<path d="M28.3564 56.223C30.9692 56.5304 35.8874 56.8378 36.5022 56.8378C37.1169 56.8378 41.5741 56.8378 41.8815 56.8378C42.4962 56.6841 44.9553 56.6841 45.109 56.6841C45.8775 56.5304 46.3386 56.6841 46.9534 56.5304C46.7997 56.5304 46.0312 56.0693 39.2687 56.0693C30.2007 56.223 28.6638 56.0693 28.3564 56.223C28.049 56.223 28.2027 56.223 28.3564 56.223Z" fill="#E76F81"/>
<path opacity="0.35" d="M14.8314 58.3748C16.9831 59.7581 16.8294 63.7541 18.6737 62.3709C19.4422 61.7561 21.7476 58.9896 22.5161 58.9896C24.8215 58.9896 25.8973 60.3728 27.1269 59.9117C29.8934 58.6822 28.8175 58.6822 31.1229 60.6802C33.582 62.8319 34.1968 56.6842 38.6539 57.6063C42.65 58.3748 47.1071 63.6004 52.4864 58.5285C53.7159 57.299 55.7139 55.4546 57.712 56.2231C62.4765 57.9137 66.7799 60.5265 65.3967 54.0714C65.243 53.6103 66.9336 55.1472 66.6262 56.3768C65.704 60.8339 63.706 60.9876 58.6341 58.0674C55.5602 56.2231 54.4844 63.1393 44.9554 60.6802C42.65 60.0654 40.1909 57.4526 37.5781 58.9896C34.1968 60.9876 32.6599 63.6004 30.5081 61.6024C26.3584 57.6063 25.7436 64.3689 23.8993 61.4487C22.5161 59.1433 20.518 63.6004 18.0589 64.2152C16.2146 64.83 14.6777 61.4487 13.4481 60.6802C12.0649 59.9117 9.60578 61.295 4.68758 59.297C3.30433 58.6822 0.537842 54.6862 5.45605 52.9955C5.76343 52.8418 5.14866 56.8379 10.3742 58.0674C12.0649 58.2211 12.987 57.299 14.8314 58.3748Z" fill="black"/>
<path d="M0.999003 60.5276C0.999003 61.2961 1.76747 62.2183 2.22855 62.6793C2.22855 62.5256 2.07486 62.5256 2.07486 62.5256C1.46008 62.2183 -0.691629 60.6813 0.384228 58.837C1.1527 57.7611 2.68964 58.0685 4.38027 58.837C5.30243 59.2981 6.0709 59.7591 6.83937 60.3739C6.68568 60.2202 2.99702 58.5296 1.46009 59.6055C1.1527 59.9128 0.999003 60.2202 0.999003 60.5276Z" fill="#E76F81"/>
<path d="M47.5681 12.5737C47.4144 12.5737 47.4144 12.42 47.4144 12.42C46.1849 11.3442 44.1869 9.34616 41.4204 10.5757C40.6519 10.8831 39.8834 11.8053 39.8834 11.6516C40.8056 10.422 41.2667 10.2683 41.4204 10.2683C41.8814 10.1146 42.4962 9.96094 43.111 9.96094C43.8795 9.96094 44.4942 10.1146 45.109 10.422C45.109 10.1146 46.1849 10.422 47.5681 12.5737Z" fill="#69505C"/>
<path d="M20.3643 23.1781C28.8175 19.0284 32.8135 30.5554 33.4283 29.3259C41.113 15.0323 57.7119 26.8668 51.8715 37.318C50.3346 40.0844 48.4903 43.312 40.0371 41.0066C38.8076 40.6992 33.8894 37.779 33.1209 38.2401C18.3663 47.0007 13.2944 39.4697 12.5259 36.3958C14.5239 33.4756 19.7495 24.1003 20.3643 23.1781Z" fill="#C2242D"/>
<path d="M66.9338 59.4504C67.0874 59.2967 67.0874 59.2967 67.8559 58.3745C68.6244 57.4524 69.3929 57.7598 69.2392 57.145C69.0855 56.2228 67.7022 56.9913 66.9338 58.9893C66.7801 59.2967 66.7801 59.2967 66.9338 59.4504C66.7801 59.4504 66.7801 59.4504 66.9338 59.4504Z" fill="#E76F81"/>
<path d="M13.7556 60.3724C14.6778 60.6798 15.6 62.3705 15.7537 62.8315C14.9852 61.9094 14.3704 61.4483 13.6019 60.8335C13.1409 60.5261 12.3724 60.3724 11.9113 60.2188C11.7576 60.2187 12.9872 60.2187 13.7556 60.3724Z" fill="#E76F81"/>
<path d="M52.0254 32.2461C52.0254 32.2461 52.1791 38.5475 47.4146 40.0845C42.65 41.6214 34.8117 41.314 34.5043 32.3998L52.0254 32.2461Z" fill="white"/>
<path d="M43.966 36.6805C44.6583 34.9463 43.6857 32.9281 41.7938 32.173C39.9019 31.4178 37.807 32.2115 37.1147 33.9458C36.4224 35.68 37.395 37.6981 39.2869 38.4533C41.1789 39.2085 43.2738 38.4148 43.966 36.6805Z" fill="#080018"/>
<path d="M41.3362 36.1823C41.5016 35.7914 41.192 35.2869 40.6447 35.0554C40.0975 34.8239 39.5198 34.9531 39.3545 35.344C39.1891 35.7349 39.4987 36.2394 40.0459 36.4709C40.5932 36.7024 41.1709 36.5732 41.3362 36.1823Z" fill="white"/>
<path d="M39.0461 34.6504C39.1122 34.494 38.9757 34.2869 38.7412 34.1876C38.5067 34.0884 38.2629 34.1348 38.1968 34.2911C38.1306 34.4475 38.2672 34.6546 38.5017 34.7539C38.7362 34.8531 38.98 34.8067 39.0461 34.6504Z" fill="white"/>
<path opacity="0.58" d="M34.3505 32.8622C33.1209 25.7923 51.8716 27.944 52.0253 32.8622C52.0253 33.1696 52.0253 33.9381 51.8716 34.0918C52.0253 34.0918 34.5042 33.1696 34.3505 32.8622Z" fill="url(#paint11_linear_364_1253)"/>
<path d="M34.3506 32.4008C34.3506 32.4008 34.0433 21.9497 44.0334 22.7181C47.5683 23.0255 52.1791 25.4846 53.7161 32.0935L34.3506 32.4008Z" fill="#580C48"/>
<path d="M34.3506 32.4008C34.3506 32.4008 34.0433 21.9497 44.0334 22.7181C47.5683 23.0255 52.1791 25.4846 53.7161 32.0935L34.3506 32.4008Z" fill="url(#paint12_linear_364_1253)"/>
<path d="M34.043 32.0946C34.043 32.0946 53.4085 25.9469 53.5621 32.0946H34.043Z" fill="url(#paint13_linear_364_1253)"/>
<path d="M34.0433 32.5547C34.8118 32.5547 35.5803 32.7084 36.3487 32.5547C37.1172 32.5547 37.732 32.5547 38.5004 32.5547C38.9615 32.5547 39.2689 32.5547 39.73 32.5547C39.8837 32.5547 40.1911 32.5547 40.3448 32.5547C40.4985 32.5547 40.8058 32.5547 40.9595 32.5547C41.8817 32.5547 42.8039 32.5547 43.5723 32.5547H46.1851C46.9536 32.5547 47.8758 32.5547 48.6442 32.5547C49.4127 32.5547 50.0275 32.5547 50.7959 32.5547C51.5644 32.5547 52.4866 32.5547 53.255 32.5547H53.4087C53.7161 32.5547 54.0235 32.2474 54.0235 31.94C54.0235 31.6326 53.7161 31.3252 53.4087 31.3252C52.6403 31.3252 52.0255 31.3252 51.257 31.3252C50.4886 31.3252 49.8738 31.3252 49.259 31.4789C48.4905 31.4789 47.7221 31.4789 46.7999 31.6326C44.9556 31.6326 43.2649 31.6326 41.4206 31.7863C40.6521 31.7863 39.73 31.94 38.9615 31.94C38.193 31.94 37.4246 31.94 36.8098 31.94C35.8876 31.94 34.9655 31.94 34.0433 31.94H33.8896C33.8896 32.4011 33.8896 32.5547 34.0433 32.5547Z" fill="#0B0018"/>
<path d="M50.3347 26.4061C50.181 27.0209 47.1071 24.7155 44.1869 24.4081C41.4204 24.1007 39.5761 24.7155 39.5761 24.1007C39.5761 23.4859 41.8815 22.8712 44.1869 23.0249C46.646 23.3323 50.4884 25.7914 50.3347 26.4061Z" fill="#CB5474"/>
<path opacity="0.75" d="M31.8914 32.4014C32.3525 34.2457 31.584 39.3176 26.8195 40.8545C21.2865 42.5452 13.9092 42.2378 13.4482 32.5551L31.8914 32.4014Z" fill="url(#paint14_radial_364_1253)"/>
<g opacity="0.33">
<path opacity="0.33" d="M22.3626 40.3931C27.8956 40.7005 30.9695 37.0119 30.6621 32.5548C30.6621 32.2474 31.5843 32.2474 31.5843 32.5548C31.738 34.0917 30.9695 41.3153 22.209 40.7005C22.209 40.7005 22.209 40.3931 22.3626 40.3931Z" fill="#231F20"/>
</g>
<g opacity="0.33">
<path opacity="0.33" d="M22.3626 40.3931C27.8956 40.7005 30.9695 37.0119 30.6621 32.5548C30.6621 32.2474 31.5843 32.2474 31.5843 32.5548C31.738 34.0917 30.9695 41.3153 22.209 40.7005C22.209 40.7005 22.209 40.3931 22.3626 40.3931Z" fill="#231F20"/>
</g>
<g opacity="0.33">
<path opacity="0.33" d="M44.4946 40.8548C38.9616 41.1622 34.8119 37.1662 35.1193 32.7091C35.1193 32.4017 34.5045 32.4017 34.5045 32.7091C34.3508 34.246 35.1193 41.4696 43.8798 40.8548C44.0335 40.8548 44.9557 40.7011 44.802 40.7011L44.4946 40.8548Z" fill="#231F20"/>
</g>
<g opacity="0.33">
<path opacity="0.33" d="M49.8735 36.398C49.8735 36.398 50.0272 36.2443 49.8735 36.398C49.8735 36.2443 49.8735 36.2443 49.8735 36.2443C49.8735 36.2443 49.8735 36.2443 49.8735 36.0906C49.8735 36.0906 49.8735 36.0906 49.8735 35.9369C49.8735 35.7832 49.7198 35.7832 49.5661 35.7832C49.4124 35.7832 49.4124 35.7832 49.2587 35.9369C49.2587 35.9369 49.2587 35.9369 49.2587 36.0906C49.2587 36.2443 49.2587 36.0906 49.2587 36.2443V36.398C49.5661 36.5517 49.7198 36.5517 49.8735 36.398Z" fill="#E76F81"/>
</g>
<g opacity="0.33">
<path opacity="0.33" d="M50.1807 35.3203C50.3344 35.1666 50.3344 35.1666 50.4881 35.0129C50.6418 34.8592 50.6418 34.7055 50.6418 34.5519C50.6418 34.3982 50.7955 34.2445 50.7955 33.9371C50.7955 33.7834 50.7955 33.476 50.7955 33.3223C50.7955 33.1686 50.6418 33.1686 50.4881 33.3223C50.3344 33.476 50.4881 33.6297 50.3344 33.9371C50.3344 34.0908 50.3344 34.2445 50.1807 34.3982C50.1807 34.5519 50.1807 34.7055 50.027 34.8592C50.027 35.0129 49.8733 35.1666 49.8733 35.1666C49.8733 35.3203 49.8733 35.3203 49.8733 35.3203C50.1807 35.3203 50.1807 35.3203 50.1807 35.3203Z" fill="#E76F81"/>
</g>
<path d="M14.2165 32.2461C14.2165 32.2461 14.0628 38.5475 18.8273 40.0845C23.5918 41.6214 31.4302 41.314 31.7376 32.3998L14.2165 32.2461Z" fill="white"/>
<path d="M27.0173 38.5849C28.9092 37.8297 29.8818 35.8116 29.1895 34.0773C28.4973 32.343 26.4024 31.5493 24.5104 32.3045C22.6185 33.0597 21.646 35.0778 22.3382 36.8121C23.0305 38.5463 25.1254 39.34 27.0173 38.5849Z" fill="#080018"/>
<path d="M26.2028 36.512C26.75 36.2805 27.0596 35.776 26.8942 35.3851C26.7289 34.9942 26.1512 34.865 25.604 35.0965C25.0567 35.328 24.7471 35.8325 24.9125 36.2234C25.0778 36.6143 25.6555 36.7435 26.2028 36.512Z" fill="white"/>
<path d="M27.684 34.6922C27.9185 34.593 28.055 34.3858 27.9889 34.2295C27.9227 34.0731 27.679 34.0268 27.4445 34.126C27.2099 34.2252 27.0734 34.4324 27.1396 34.5888C27.2057 34.7451 27.4494 34.7914 27.684 34.6922Z" fill="white"/>
<g opacity="0.33">
<path opacity="0.33" d="M21.7478 40.701C27.2808 41.0084 31.4305 37.6271 31.4305 32.5552C31.4305 32.2479 31.8916 32.4016 31.8916 32.7089C32.0453 34.2459 31.2768 41.4695 22.5163 40.8547C22.3626 40.8547 21.4404 40.701 21.5941 40.701H21.7478Z" fill="#231F20"/>
</g>
<g opacity="0.33">
<path opacity="0.33" d="M14.8312 32.8624C14.9849 32.555 14.2165 32.555 14.2165 32.8624C14.0628 34.3993 15.1386 40.3934 20.6716 40.7008C16.0608 40.086 14.3702 34.2456 14.8312 32.8624Z" fill="#231F20"/>
</g>
<path opacity="0.58" d="M31.8915 32.8622C33.1211 25.7923 14.2167 27.944 14.2167 32.8622C14.2167 33.1696 14.2167 33.9381 14.3704 34.0918C14.3704 34.0918 31.7378 33.1696 31.8915 32.8622Z" fill="url(#paint15_linear_364_1253)"/>
<g opacity="0.33">
<path opacity="0.33" d="M16.8295 36.398C16.8295 36.398 16.8295 36.2443 16.8295 36.398C16.8295 36.2443 16.8295 36.2443 16.8295 36.2443C16.8295 36.2443 16.8295 36.2443 16.8295 36.0906C16.8295 36.0906 16.8295 36.0906 16.8295 35.9369C16.8295 35.7832 16.6758 35.7832 16.5221 35.7832C16.3684 35.7832 16.3684 35.7832 16.2147 35.9369C16.2147 35.9369 16.2147 35.9369 16.2147 36.0906C16.2147 36.2443 16.2147 36.0906 16.2147 36.2443V36.398C16.3684 36.5517 16.5221 36.5517 16.8295 36.398Z" fill="#E76F81"/>
</g>
<g opacity="0.33">
<path opacity="0.33" d="M16.2146 35.1666C16.2146 35.0129 16.0609 35.0129 16.0609 34.8592C16.0609 34.7055 15.9072 34.5519 15.9072 34.3982C15.9072 34.2445 15.9072 34.0908 15.7535 33.9371C15.7535 33.7834 15.7535 33.476 15.5998 33.3223C15.5998 33.1686 15.4462 33.1686 15.2925 33.3223C15.1388 33.476 15.2925 33.7834 15.2925 33.9371C15.2925 34.0908 15.2925 34.3982 15.4462 34.5519C15.4462 34.7055 15.5998 34.8592 15.5998 35.0129C15.7535 35.1666 15.7535 35.1666 15.9072 35.3203H16.0609C16.2146 35.3203 16.3683 35.1666 16.2146 35.1666Z" fill="#E76F81"/>
</g>
<path d="M32.0453 32.4008C32.0453 32.4008 32.3527 21.9497 22.3626 22.7181C18.8276 23.0255 14.2168 25.4846 12.6798 32.0935L32.0453 32.4008Z" fill="#580C48"/>
<path d="M32.0453 32.4008C32.0453 32.4008 32.3527 21.9497 22.3626 22.7181C18.8276 23.0255 14.2168 25.4846 12.6798 32.0935L32.0453 32.4008Z" fill="url(#paint16_linear_364_1253)"/>
<path d="M32.199 32.0946C32.199 32.0946 12.8335 25.9469 12.6798 32.0946H32.199Z" fill="url(#paint17_linear_364_1253)"/>
<path d="M32.1988 32.5547C31.4303 32.5547 30.6619 32.7084 29.8934 32.5547C29.1249 32.5547 28.5101 32.5547 27.7417 32.5547C27.2806 32.5547 26.9732 32.5547 26.5121 32.5547C26.3584 32.5547 26.051 32.5547 25.8974 32.5547C25.7437 32.5547 25.4363 32.5547 25.2826 32.5547C24.3604 32.5547 23.4383 32.5547 22.6698 32.5547H20.057C19.2885 32.5547 18.3664 32.5547 17.5979 32.5547C16.8294 32.5547 16.2146 32.5547 15.4462 32.5547C14.6777 32.5547 13.7555 32.5547 12.9871 32.5547H12.8334C12.526 32.5547 12.2186 32.2474 12.2186 31.94C12.2186 31.6326 12.526 31.3252 12.8334 31.3252C13.6018 31.3252 14.2166 31.3252 14.9851 31.3252C15.7536 31.3252 16.3683 31.3252 16.9831 31.4789C17.7516 31.4789 18.52 31.4789 19.4422 31.6326C21.2865 31.6326 22.9772 31.6326 24.8215 31.7863C25.59 31.7863 26.5121 31.94 27.2806 31.94C28.0491 31.94 28.8175 31.94 29.4323 31.94C30.3545 31.94 31.2766 31.94 32.1988 31.94H32.3525C32.3525 32.4011 32.3525 32.5547 32.1988 32.5547Z" fill="#0B0018"/>
<path d="M28.3566 25.1763C28.2029 25.791 26.2048 25.1763 23.8994 24.8689C21.594 24.5615 18.9812 25.0226 19.1349 24.4078C19.2886 23.793 21.9014 22.8709 24.2068 23.1782C26.5122 23.3319 28.5102 24.5615 28.3566 25.1763Z" fill="#CB5474"/>
<path d="M50.3348 45.158C50.4885 47.4634 50.4885 49.0003 49.4126 49.6151C48.7979 49.9225 48.4905 50.3836 48.0294 50.5373C47.2609 50.9983 46.3388 51.3057 45.4166 51.6131C30.3546 57.7609 18.2128 50.3836 18.2128 50.3836C16.8295 49.7688 15.4463 48.3856 15.4463 47.4634C15.4463 45.3117 14.9852 43.0063 13.9094 41.0082C13.9094 40.8546 13.9094 40.8545 14.0631 40.7009H14.2168C20.5182 42.8526 27.8955 43.7747 33.4285 43.4673C43.8797 42.8526 51.4107 39.625 51.4107 39.625C50.7959 42.2378 50.1811 42.8526 50.3348 45.158Z" fill="#EF7D92"/>
<path d="M18.3662 50.5372C16.983 49.9224 15.5997 48.5392 15.5997 47.617C15.5997 45.4653 15.1386 43.1599 14.0628 41.1619C14.0628 41.0082 14.0628 41.0082 14.2165 40.8545H14.3702C20.5179 43.1599 18.3662 50.5372 18.3662 50.5372Z" fill="#F9CDD4"/>
<path d="M49.8735 49.1533C49.7198 49.307 49.5661 49.4607 49.4124 49.6144C49.5661 49.4607 49.7198 49.4607 49.7198 49.307C49.7198 49.1533 49.8735 49.1533 49.8735 49.1533Z" fill="#F497A9"/>
<path d="M58.3268 34.3996C53.2549 41.3158 31.5841 48.3857 9.91322 39.1641C9.75953 39.0104 9.60583 38.3956 9.60583 38.3956C34.1969 49.1542 56.3288 37.6271 58.1731 33.9385C58.3268 34.0922 58.3268 34.2459 58.3268 34.3996Z" fill="#F3A095"/>
<path d="M58.3266 34.399C56.1749 37.1655 51.4104 40.0857 44.9552 41.93C35.5799 44.5428 40.4981 43.1595 49.4124 39.6246C54.3306 37.7803 57.5581 35.4749 58.1729 34.2453C58.3266 34.0916 58.3266 34.2453 58.3266 34.399Z" fill="#F9CDD4"/>
<path d="M56.7898 35.935C56.1751 36.3961 55.5603 36.8572 54.9455 37.3182C54.3307 37.7793 53.716 38.0867 53.1012 38.3941C52.4864 38.7015 51.718 39.1626 51.1032 39.47C47.4145 40.8532 30.9693 46.6936 14.8314 41.0069C14.8314 41.0069 13.1408 40.3921 12.3723 40.2384C12.0649 40.0847 11.6039 39.931 11.2965 39.7774C10.9891 39.6237 10.528 39.47 10.2206 39.3163H10.0669H9.91322C9.75953 39.3163 9.75953 39.1626 9.75953 39.1626C9.60584 39.0089 9.60583 38.8552 9.60583 38.7015C9.60583 38.5478 9.60583 38.3941 9.60583 38.0867C9.60583 37.933 9.60584 37.933 9.75953 37.7793C9.75953 37.6256 9.75953 37.6256 9.91322 37.4719C9.91322 37.6256 9.75953 37.6256 9.75953 37.7793C9.75953 37.933 9.75953 37.933 9.60583 38.0867C9.60583 38.2404 9.60583 38.3941 9.60583 38.7015C9.60583 39.0089 9.60584 39.1626 9.75953 39.3163C9.75953 39.47 9.91322 39.47 9.91322 39.47C10.8354 40.2384 14.6777 42.0828 14.9851 42.3901C15.2925 43.466 15.7536 45.6177 15.9073 47.9231C15.9073 48.8453 16.8294 49.6138 18.3664 50.3822C18.3664 50.3822 29.8934 47.9231 47.5682 50.0748H47.7219C49.2589 49.4601 49.7199 48.2305 49.7199 47.001C49.7199 47.001 49.2589 43.0049 51.4106 40.2384C54.0234 39.0089 56.4825 36.8572 57.0972 36.3961C57.5583 35.935 58.0194 35.1665 58.3268 34.5518C57.8657 34.8591 57.4046 35.4739 56.7898 35.935Z" fill="#080018"/>
<path opacity="0.6" d="M48.9515 47.3093C48.9515 48.5388 49.5663 49.9221 48.0293 50.5368C31.5841 48.6925 18.8275 50.6905 18.8275 50.6905C17.4442 50.0757 16.3684 49.3073 16.3684 48.3851C16.2147 45.3112 15.4462 42.0837 15.4462 42.0837C21.4403 44.2354 27.8954 45.0039 34.1969 44.6965C44.6481 44.0817 51.1032 41.0078 51.1032 41.0078C48.6441 44.2354 48.9515 47.3093 48.9515 47.3093Z" fill="url(#paint18_radial_364_1253)"/>
<path d="M47.5684 49.9221C47.5684 49.9221 42.0354 51.7664 39.5763 52.0738C27.2808 54.0718 18.2129 50.0758 18.2129 50.0758C21.7478 48.0778 24.3606 47.0019 26.5124 46.5408C29.2788 45.9261 30.8158 46.3871 31.5843 46.6945C32.0453 47.0019 32.5064 46.8482 32.8138 46.6945C33.5823 46.2334 35.4266 45.7724 39.2689 46.6945C41.5744 47.3093 44.1872 48.2315 47.5684 49.9221Z" fill="#4F0B31"/>
<path d="M50.642 41.1616C50.4883 41.7764 49.4125 42.8523 45.7238 43.9281C42.3425 44.8503 35.4263 45.004 30.2007 45.004C24.2067 44.8503 19.2885 44.5429 18.6737 44.5429C17.7515 44.3892 16.522 43.006 16.0609 42.3912C18.52 43.3134 26.5121 44.3892 33.7357 44.2355C37.578 44.0818 42.0351 43.1597 44.9553 42.3912C47.8755 41.6227 50.0272 40.7006 50.4883 40.5469C50.642 40.5469 50.642 40.8543 50.642 41.1616Z" fill="white"/>
<path d="M50.6422 40.2393C50.4885 40.2393 48.1831 41.1614 44.9555 42.0836C42.0353 42.8521 37.5782 43.9279 33.7358 43.9279C33.4284 43.9279 32.9674 43.9279 32.66 43.9279C25.4364 43.9279 17.7517 42.6984 15.7537 41.7762L15.2926 41.6225L15.6 41.9299C15.7537 42.0836 17.4443 44.389 18.6738 44.5427C19.1349 44.6964 21.4403 44.8501 24.6679 44.8501H24.8216C27.127 45.0038 29.7398 45.0038 32.3526 45.0038C37.5782 45.0038 42.8038 44.6964 45.724 43.9279L46.185 43.7742C47.722 43.3131 48.7978 42.8521 49.5663 42.391C50.1811 41.9299 50.6422 41.4688 50.7959 41.0077C50.9495 40.854 50.7959 40.393 50.6422 40.2393ZM50.6422 41.1614C50.4885 41.4688 50.3348 41.9299 49.5663 42.391C49.5663 42.0836 49.5663 41.9299 49.4126 41.7762C49.2589 41.4688 48.9515 41.7762 49.1052 41.9299C49.2589 42.0836 49.2589 42.2373 49.2589 42.5447V42.6984C48.3368 43.1594 47.4146 43.6205 46.3387 43.9279C46.4924 43.6205 46.4924 43.3131 46.4924 42.8521C46.4924 42.5447 46.0313 42.5447 46.0313 42.8521C46.0313 43.1594 46.0313 43.6205 45.724 43.9279C45.724 43.9279 45.724 43.9279 45.724 44.0816C42.3427 45.0038 35.4265 45.1575 30.2009 45.1575C28.3566 45.1575 26.5122 45.0038 24.9753 45.0038V44.8501C24.8216 44.6964 24.6679 44.5427 24.3605 44.389C24.2068 44.389 24.0531 44.389 24.0531 44.5427C24.0531 44.6964 24.0531 44.6964 24.0531 44.8501C24.2068 44.8501 24.2068 45.0038 24.3605 45.0038C21.2866 44.8501 18.9812 44.6964 18.6738 44.6964C17.7517 44.5427 16.5221 43.1594 16.061 42.5447C18.5201 43.4668 26.5122 44.5427 33.7358 44.389C37.5782 44.2353 42.0353 43.3131 44.9555 42.5447C47.8757 41.7762 50.0274 40.854 50.4885 40.7003C50.6422 40.5466 50.6422 40.854 50.6422 41.1614Z" fill="#0B0018"/>
<path opacity="0.23" d="M15.7536 41.9297C15.7536 41.9297 17.5979 44.2352 18.8274 44.3889C20.057 44.5425 38.9613 45.6184 45.4165 43.6204C50.4884 42.0834 49.5662 40.7002 49.5662 40.7002C49.5662 40.7002 41.2668 43.6204 33.7358 43.7741C26.2048 43.9278 17.5979 42.8519 15.7536 41.9297Z" fill="url(#paint19_radial_364_1253)"/>
<g opacity="0.18">
<path opacity="0.18" d="M45.5702 41.1615C45.7239 41.1615 45.7239 41.1615 45.5702 41.1615C45.7239 41.0078 45.5702 41.0078 45.5702 41.0078C45.5702 41.0078 45.5702 41.0078 45.5702 41.1615Z" fill="white"/>
</g>
<path d="M47.5684 49.9221C47.5684 49.9221 42.0354 51.7664 39.5763 52.0738C27.2808 54.0718 18.2129 50.0758 18.2129 50.0758C21.7478 48.0778 24.3606 47.0019 26.5124 46.5408C29.2788 45.9261 30.8158 46.3871 31.5843 46.6945C32.0453 47.0019 32.5064 46.8482 32.8138 46.6945C33.5823 46.2334 35.4266 45.7724 39.2689 46.6945C41.5744 47.3093 44.1872 48.2315 47.5684 49.9221Z" fill="url(#paint20_radial_364_1253)"/>
<path d="M23.1312 48.8456C22.6701 50.0751 28.9715 49.153 30.0474 48.2308C31.1232 47.155 28.5104 46.8476 26.8198 47.155C24.5144 47.616 23.2849 47.9234 23.1312 48.8456Z" fill="#E76F81"/>
<path d="M39.576 48.2321C38.9612 49.6153 33.2746 49.3079 33.8893 47.9247C34.1967 47.0025 35.8873 46.5414 36.9632 46.6951C38.1928 47.0025 40.0371 47.3099 39.576 48.2321Z" fill="#E76F81"/>
<path opacity="0.24" d="M39.4224 46.6945C37.8855 46.5408 33.4283 45.465 32.6599 49.461C31.8914 46.0797 29.4323 46.5408 26.5121 46.5408C29.2786 45.9261 30.8155 46.3871 31.584 46.6945C32.0451 47.0019 32.5062 46.8482 32.8136 46.6945C33.7357 46.2334 35.5801 45.7724 39.4224 46.6945Z" fill="#541223"/>
<path d="M37.117 53.9184C42.3426 53.9184 48.4903 51.3056 49.7199 49.3076C46.646 51.613 42.1889 53.15 37.117 53.9184Z" fill="#F9CDD4"/>
<path opacity="0.2" d="M47.1418 37.6127C47.38 36.5352 46.095 35.335 44.2717 34.9318C42.4483 34.5286 40.7771 35.0752 40.5389 36.1526C40.3006 37.2301 41.5856 38.4304 43.4089 38.8335C45.2323 39.2367 46.9035 38.6901 47.1418 37.6127Z" fill="white"/>
<path opacity="0.2" d="M22.9409 38.7518C24.7327 38.2258 25.9332 36.941 25.6224 35.8822C25.3115 34.8234 23.607 34.3916 21.8152 34.9176C20.0234 35.4437 18.8229 36.7284 19.1337 37.7872C19.4446 38.846 21.1491 39.2779 22.9409 38.7518Z" fill="white"/>
<path opacity="0.75" d="M31.8915 32.4014C32.66 36.3974 29.7398 40.3934 25.7437 41.1619C20.3645 42.0841 14.5241 40.8545 14.2167 32.8625L31.8915 32.4014Z" fill="url(#paint21_radial_364_1253)"/>
<path opacity="0.75" d="M34.6579 32.2461C33.8894 36.2421 36.8096 40.2382 40.8056 40.6993C46.1849 41.314 51.8716 40.3919 52.179 32.5535L34.6579 32.2461Z" fill="url(#paint22_radial_364_1253)"/>
</g>
<defs>
<radialGradient id="paint0_radial_364_1253" cx="0" cy="0" r="1" gradientUnits="userSpaceOnUse" gradientTransform="translate(37.8031 46.3853) rotate(-1.55206) scale(41.8121 42.3828)">
<stop offset="0.37" stop-color="#BAD68E"/>
<stop offset="0.86" stop-color="#6DCDF6"/>
</radialGradient>
<radialGradient id="paint1_radial_364_1253" cx="0" cy="0" r="1" gradientUnits="userSpaceOnUse" gradientTransform="translate(38.8843 7.73642) scale(0.0960194)">
<stop offset="0.24" stop-color="white" stop-opacity="0"/>
<stop offset="0.35" stop-color="#E7B9BB" stop-opacity="0.23"/>
<stop offset="0.47" stop-color="#D27D7F" stop-opacity="0.44"/>
<stop offset="0.59" stop-color="#C14D51" stop-opacity="0.6"/>
<stop offset="0.71" stop-color="#B52B2F" stop-opacity="0.71"/>
<stop offset="0.83" stop-color="#AE171C" stop-opacity="0.78"/>
<stop offset="0.96" stop-color="#AC1015" stop-opacity="0.8"/>
</radialGradient>
<radialGradient id="paint2_radial_364_1253" cx="0" cy="0" r="1" gradientUnits="userSpaceOnUse" gradientTransform="translate(39.0529 7.93996) scale(0.180284)">
<stop offset="0.24" stop-color="white" stop-opacity="0"/>
<stop offset="0.35" stop-color="#E7B9BB" stop-opacity="0.23"/>
<stop offset="0.47" stop-color="#D27D7F" stop-opacity="0.44"/>
<stop offset="0.59" stop-color="#C14D51" stop-opacity="0.6"/>
<stop offset="0.71" stop-color="#B52B2F" stop-opacity="0.71"/>
<stop offset="0.83" stop-color="#AE171C" stop-opacity="0.78"/>
<stop offset="0.96" stop-color="#AC1015" stop-opacity="0.8"/>
</radialGradient>
<radialGradient id="paint3_radial_364_1253" cx="0" cy="0" r="1" gradientUnits="userSpaceOnUse" gradientTransform="translate(42.7651 32.2524) scale(31.7321)">
<stop offset="0.48" stop-color="#D04C5E" stop-opacity="0.5"/>
<stop offset="0.57" stop-color="#C44860" stop-opacity="0.45"/>
<stop offset="0.73" stop-color="#A33F66" stop-opacity="0.31"/>
<stop offset="0.93" stop-color="#6F306F" stop-opacity="0.08"/>
<stop offset="1" stop-color="#5B2A73" stop-opacity="0"/>
</radialGradient>
<radialGradient id="paint4_radial_364_1253" cx="0" cy="0" r="1" gradientUnits="userSpaceOnUse" gradientTransform="translate(42.8693 32.254) scale(47.1603)">
<stop offset="0.16" stop-color="white" stop-opacity="0"/>
<stop offset="0.24" stop-color="#DACBD3" stop-opacity="0.21"/>
<stop offset="0.42" stop-color="#9D778C" stop-opacity="0.56"/>
<stop offset="0.59" stop-color="#723B5A" stop-opacity="0.8"/>
<stop offset="0.76" stop-color="#58173B" stop-opacity="0.95"/>
<stop offset="0.95" stop-color="#4F0B31"/>
</radialGradient>
<radialGradient id="paint5_radial_364_1253" cx="0" cy="0" r="1" gradientUnits="userSpaceOnUse" gradientTransform="translate(33.2026 16.1188) rotate(90) scale(0.166629 0.515036)">
<stop offset="0.06" stop-color="#FAAF40" stop-opacity="0.3"/>
<stop offset="0.1" stop-color="#CF9135" stop-opacity="0.39"/>
<stop offset="0.19" stop-color="#74521E" stop-opacity="0.57"/>
<stop offset="0.29" stop-color="#34240D" stop-opacity="0.7"/>
<stop offset="0.38" stop-color="#0D0903" stop-opacity="0.77"/>
<stop offset="0.48" stop-opacity="0.8"/>
</radialGradient>
<radialGradient id="paint6_radial_364_1253" cx="0" cy="0" r="1" gradientUnits="userSpaceOnUse" gradientTransform="translate(42.2675 30.9534) scale(34.2521)">
<stop offset="0.22" stop-color="#E4333D"/>
<stop offset="0.5" stop-color="#CC2D3D"/>
<stop offset="1" stop-color="#A5223D"/>
</radialGradient>
<radialGradient id="paint7_radial_364_1253" cx="0" cy="0" r="1" gradientUnits="userSpaceOnUse" gradientTransform="translate(43.7976 30.5606) scale(26.9513)">
<stop offset="0.23" stop-color="#E63A42"/>
<stop offset="0.45" stop-color="#E03C4D"/>
<stop offset="0.83" stop-color="#D1416A"/>
<stop offset="1" stop-color="#CA4478"/>
</radialGradient>
<radialGradient id="paint8_radial_364_1253" cx="0" cy="0" r="1" gradientUnits="userSpaceOnUse" gradientTransform="translate(11.7464 57.5056) scale(4.29534 7.80971)">
<stop offset="0.35" stop-color="#FCDACB" stop-opacity="0.5"/>
<stop offset="0.45" stop-color="#EECBC3" stop-opacity="0.46"/>
<stop offset="0.62" stop-color="#C9A2AF" stop-opacity="0.34"/>
<stop offset="0.84" stop-color="#8E618F" stop-opacity="0.16"/>
<stop offset="1" stop-color="#5B2A73" stop-opacity="0"/>
</radialGradient>
<radialGradient id="paint9_radial_364_1253" cx="0" cy="0" r="1" gradientUnits="userSpaceOnUse" gradientTransform="translate(34.455 10.9225) scale(7.25209)">
<stop offset="0.19" stop-color="white" stop-opacity="0"/>
<stop offset="0.8" stop-opacity="0.7"/>
</radialGradient>
<linearGradient id="paint10_linear_364_1253" x1="33.9108" y1="12.8366" x2="48.8427" y2="12.8366" gradientUnits="userSpaceOnUse">
<stop offset="0.1" stop-color="#2D2B2C" stop-opacity="0.8"/>
<stop offset="0.22" stop-color="#544430" stop-opacity="0.7"/>
<stop offset="0.41" stop-color="#C18A3A" stop-opacity="0.44"/>
<stop offset="0.49" stop-color="#FAAF40" stop-opacity="0.3"/>
<stop offset="0.53" stop-color="#CF9135" stop-opacity="0.39"/>
<stop offset="0.64" stop-color="#74521E" stop-opacity="0.57"/>
<stop offset="0.74" stop-color="#34240D" stop-opacity="0.7"/>
<stop offset="0.85" stop-color="#0D0903" stop-opacity="0.77"/>
<stop offset="0.96" stop-opacity="0.8"/>
</linearGradient>
<linearGradient id="paint11_linear_364_1253" x1="43.2925" y1="28.3191" x2="43.222" y2="34.0606" gradientUnits="userSpaceOnUse">
<stop offset="0.41" stop-color="#231F20" stop-opacity="0.9"/>
<stop offset="0.71" stop-color="#312E2F" stop-opacity="0.84"/>
<stop offset="0.85" stop-color="#646162" stop-opacity="0.63"/>
<stop offset="0.95" stop-color="#BCBABB" stop-opacity="0.28"/>
<stop offset="1" stop-color="white" stop-opacity="0"/>
</linearGradient>
<linearGradient id="paint12_linear_364_1253" x1="34.3024" y1="27.5696" x2="53.683" y2="27.5696" gradientUnits="userSpaceOnUse">
<stop offset="0.01" stop-color="#6B134C"/>
<stop offset="0.07" stop-color="#73154D"/>
<stop offset="0.61" stop-color="#B52155"/>
</linearGradient>
<linearGradient id="paint13_linear_364_1253" x1="34.0283" y1="30.7452" x2="53.5849" y2="30.7452" gradientUnits="userSpaceOnUse">
<stop offset="0.01" stop-color="#801951" stop-opacity="0.4"/>
<stop offset="0.34" stop-color="#AF1D4D" stop-opacity="0.71"/>
<stop offset="0.58" stop-color="#CE204A" stop-opacity="0.92"/>
<stop offset="0.7" stop-color="#DA2149"/>
</linearGradient>
<radialGradient id="paint14_radial_364_1253" cx="0" cy="0" r="1" gradientUnits="userSpaceOnUse" gradientTransform="translate(9.2681 38.3931) rotate(90) scale(7.46904 13.6932)">
<stop offset="0.63" stop-color="#25A9E0" stop-opacity="0.2"/>
<stop offset="0.74" stop-color="#229ACC" stop-opacity="0.27"/>
<stop offset="0.85" stop-color="#186D90" stop-opacity="0.48"/>
<stop offset="0.96" stop-color="#07222D" stop-opacity="0.84"/>
<stop offset="1"/>
</radialGradient>
<linearGradient id="paint15_linear_364_1253" x1="23.0101" y1="28.3191" x2="23.0807" y2="34.0606" gradientUnits="userSpaceOnUse">
<stop offset="0.41" stop-color="#231F20" stop-opacity="0.9"/>
<stop offset="0.71" stop-color="#312E2F" stop-opacity="0.84"/>
<stop offset="0.85" stop-color="#646162" stop-opacity="0.63"/>
<stop offset="0.95" stop-color="#BCBABB" stop-opacity="0.28"/>
<stop offset="1" stop-color="white" stop-opacity="0"/>
</linearGradient>
<linearGradient id="paint16_linear_364_1253" x1="29.3296" y1="35.5757" x2="16.6659" y2="24.9495" gradientUnits="userSpaceOnUse">
<stop offset="0.01" stop-color="#6B134C"/>
<stop offset="0.07" stop-color="#73154D"/>
<stop offset="0.61" stop-color="#B52155"/>
</linearGradient>
<linearGradient id="paint17_linear_364_1253" x1="32.2649" y1="30.7452" x2="12.7083" y2="30.7452" gradientUnits="userSpaceOnUse">
<stop stop-color="#801951" stop-opacity="0.2"/>
<stop offset="0.09" stop-color="#8F1A50" stop-opacity="0.33"/>
<stop offset="0.31" stop-color="#AF1D4D" stop-opacity="0.62"/>
<stop offset="0.49" stop-color="#C61F4B" stop-opacity="0.82"/>
<stop offset="0.62" stop-color="#D52149" stop-opacity="0.95"/>
<stop offset="0.7" stop-color="#DA2149"/>
</linearGradient>
<radialGradient id="paint18_radial_364_1253" cx="0" cy="0" r="1" gradientUnits="userSpaceOnUse" gradientTransform="translate(40.8508 41.3144) scale(12.7793)">
<stop offset="0.43" stop-color="#BE1E2D" stop-opacity="0.9"/>
<stop offset="0.49" stop-color="#B81D2C" stop-opacity="0.87"/>
<stop offset="0.57" stop-color="#A71A28" stop-opacity="0.79"/>
<stop offset="0.66" stop-color="#8B1621" stop-opacity="0.66"/>
<stop offset="0.75" stop-color="#641018" stop-opacity="0.47"/>
<stop offset="0.84" stop-color="#32080C" stop-opacity="0.24"/>
<stop offset="0.92" stop-opacity="0"/>
</radialGradient>
<radialGradient id="paint19_radial_364_1253" cx="0" cy="0" r="1" gradientUnits="userSpaceOnUse" gradientTransform="translate(40.1962 38.9591) scale(10.5041 14.3238)">
<stop offset="0.39" stop-color="white" stop-opacity="0"/>
<stop offset="0.4" stop-color="#F6F6F6" stop-opacity="0.03"/>
<stop offset="1"/>
</radialGradient>
<radialGradient id="paint20_radial_364_1253" cx="0" cy="0" r="1" gradientUnits="userSpaceOnUse" gradientTransform="translate(32.9508 49.434) scale(10.5984)">
<stop offset="0.22" stop-color="#E4333D"/>
<stop offset="0.5" stop-color="#CC2D3D"/>
<stop offset="1" stop-color="#A5223D"/>
</radialGradient>
<radialGradient id="paint21_radial_364_1253" cx="0" cy="0" r="1" gradientUnits="userSpaceOnUse" gradientTransform="translate(24.5717 37.5896) scale(12.1996)">
<stop stop-color="white" stop-opacity="0"/>
<stop offset="1" stop-color="#540C3C" stop-opacity="0.6"/>
</radialGradient>
<radialGradient id="paint22_radial_364_1253" cx="0" cy="0" r="1" gradientUnits="userSpaceOnUse" gradientTransform="translate(42.9832 38.4887) scale(12.4066)">
<stop stop-color="white" stop-opacity="0"/>
<stop offset="1" stop-color="#540C3C" stop-opacity="0.6"/>
</radialGradient>
<clipPath id="clip0_364_1253">
<rect width="72" height="72" fill="white"/>
</clipPath>
</defs>
</svg>
