<svg width="72" height="72" viewBox="0 0 72 72" fill="none" xmlns="http://www.w3.org/2000/svg">
<path d="M33.6842 8.0795C39.9398 7.65677 46.3158 8.92494 51.9098 11.7632C60.2105 15.8697 66.8271 23.2373 69.8947 31.9334C71.2782 35.7983 72 39.8444 72 43.9509V59.1087C72 59.7126 72 60.3768 71.8797 60.9807C71.5188 62.4905 70.4361 63.8794 68.9925 64.5437C67.9699 65.0269 66.8271 65.0872 65.8045 64.9061C63.5188 64.4833 61.7143 62.3093 61.7143 59.9541C61.7143 55.2437 61.7143 50.5334 61.7143 45.823C61.7744 44.4944 61.7744 43.0451 61.0526 41.8977C59.9098 39.7236 57.0226 38.697 54.797 39.6028C52.8722 40.2671 51.4887 42.26 51.4286 44.3132C51.4286 49.084 51.4286 53.8548 51.4286 58.6255C51.4286 59.5314 51.4887 60.4372 51.188 61.2827C50.7068 62.9736 49.3233 64.3022 47.6391 64.7853C45.4135 65.3892 42.8872 64.423 41.8045 62.3697C41.0226 61.1619 41.0827 59.6522 41.1429 58.2632C41.1429 53.4924 41.1429 48.7821 41.1429 44.0113C41.0827 41.5957 39.0977 39.4217 36.7519 39.1197C35.188 38.8782 33.5639 39.4217 32.4211 40.5087C31.3985 41.4749 30.8571 42.8639 30.8571 44.2528V58.082C30.8571 59.2294 30.9774 60.4372 30.5564 61.5243C29.8947 63.5171 27.9098 64.9664 25.8045 64.9061C23.6391 65.0268 21.5338 63.5171 20.8722 61.5243C20.5113 60.4976 20.5714 59.471 20.5714 58.384C20.5714 53.6132 20.5714 48.8424 20.5714 44.0717C20.5714 41.7165 18.7068 39.5425 16.4211 39.1197C14.3158 38.697 12.0301 39.7236 10.9474 41.6561C10.5263 42.4411 10.2857 43.347 10.2857 44.2528V59.7729C10.2857 61.2827 9.62406 62.7924 8.4812 63.7587C6.73684 65.2684 3.90977 65.3892 2.10526 64.0002C0.781955 63.0944 0 61.5243 0 59.8937V44.1924C0 38.2743 1.50376 32.3561 4.33083 27.1022C6.61654 22.8146 9.80451 19.01 13.594 15.9905C19.188 11.2801 26.3459 8.50223 33.6842 8.0795Z" fill="#5741D9"/>
</svg>
