<svg width="24" height="24" viewBox="0 0 24 24" fill="none" xmlns="http://www.w3.org/2000/svg">
<path fill-rule="evenodd" clip-rule="evenodd" d="M15.7141 2.87368H15.7185C15.6309 2.36505 15.6685 2.03571 15.6726 2.03571H12.2165V15.3183C12.2165 15.3299 12.2165 15.3415 12.2165 15.3531C12.2166 15.8076 12.2167 16.2467 12.0622 16.6858C11.812 17.4028 11.2742 18.0532 10.5572 18.3408C9.61076 18.7203 8.84786 18.7285 7.99321 18.2741C8.17247 18.516 8.38926 18.7285 8.63941 18.8996C8.94193 19.1 9.22997 19.2443 9.51437 19.3363C9.2291 19.2448 8.93978 19.1005 8.63512 18.8996C8.38498 18.7244 8.1682 18.5117 7.98892 18.27C7.87219 18.2074 7.75546 18.1366 7.63455 18.0574C6.60896 17.3361 6.42136 16.2563 6.42552 15.4934C6.54643 14.4553 6.955 13.8758 7.7221 13.2797C8.82273 12.475 10.1943 12.9295 10.1943 12.9295V10.228L10.1986 10.2279V9.45244C9.55235 9.36072 8.89784 9.36905 8.25574 9.48162C7.8305 9.56083 7.41359 9.68174 7.01337 9.8485C6.37551 10.0945 5.77933 10.4488 5.25403 10.8908C4.65785 11.4035 4.15756 12.0206 3.77402 12.7043C3.6281 12.9544 3.07779 13.9591 3.01108 15.5893C2.96939 16.5149 3.24872 17.4737 3.38212 17.8698V17.878C3.4655 18.1115 3.7907 18.9078 4.32016 19.579C4.74958 20.1169 5.24987 20.588 5.81686 20.9798C5.64174 20.8006 5.47498 20.6129 5.32073 20.4171C4.78709 19.7375 4.46191 18.9329 4.37853 18.7077V18.7036C4.25827 18.335 4.00806 17.4828 4.00409 16.6204C4.00925 17.4768 4.25482 18.328 4.37853 18.6952V18.6994C4.46191 18.9286 4.78709 19.7291 5.32073 20.4087C5.47499 20.6047 5.64176 20.7922 5.81686 20.9715L5.82519 20.9798C7.49698 22.1097 9.35223 22.0347 9.35223 22.0347C9.37592 22.0338 9.4037 22.033 9.43536 22.0321C9.83273 22.0208 10.839 21.9922 11.9704 21.4593C13.3253 20.8215 14.0965 19.8709 14.0965 19.8709L14.1123 19.852L14.13 19.8311C14.3043 19.6246 14.8767 18.9469 15.2556 17.9573C15.5683 17.1402 15.6725 16.1604 15.6725 15.7686V8.72286C15.7141 8.74787 16.2729 9.11475 16.2729 9.11475C16.2729 9.11475 17.0774 9.62753 18.3323 9.96106C19.2328 10.1987 20.446 10.2487 20.446 10.2487V7.57636C20.0417 7.48047 19.6456 7.33872 19.2746 7.15112C19.2677 7.14767 19.2608 7.14421 19.2539 7.14072C19.2608 7.14421 19.2677 7.14768 19.2747 7.15112C19.6457 7.33873 20.0418 7.48047 20.4461 7.57636V6.83845C20.021 6.8843 19.1579 6.75089 18.2741 6.31315C18.1366 6.24227 18.0073 6.16723 17.878 6.08384C17.9608 6.17279 18.2873 6.51441 18.7413 6.83156C18.2845 6.51343 17.9578 6.17295 17.8779 6.08384C17.5069 5.84204 17.165 5.55021 16.8607 5.22502C16.102 4.36202 15.8185 3.48652 15.7141 2.87368ZM12.6539 18.2989C12.5563 18.4326 12.4475 18.5581 12.3287 18.6723C12.4477 18.5582 12.5565 18.4328 12.6539 18.2989Z" fill="#141029" fill-opacity="0.6"/>
</svg>
