<svg width="16" height="16" viewBox="0 0 16 16" fill="none" xmlns="http://www.w3.org/2000/svg">
<path fill-rule="evenodd" clip-rule="evenodd" d="M13.4428 8.23958C13.4428 11.2448 11.0053 13.6823 8.00008 13.6823C4.99487 13.6823 2.55737 11.2448 2.55737 8.23958C2.55737 6.97396 3.0105 5.79688 3.75529 4.86979C4.02091 4.51042 4.44279 4.48438 4.698 4.73438C4.96362 4.99479 4.91675 5.30729 4.69279 5.63542C4.12508 6.34896 3.78654 7.26562 3.78133 8.23958C3.77612 10.5729 5.65633 12.4635 8.00008 12.4635C10.349 12.4635 12.2188 10.5729 12.2188 8.23958C12.2188 6.04167 10.5782 4.24479 8.43758 4.02083V5.19271C8.43758 5.48958 8.22925 5.71354 7.93237 5.71354C7.6355 5.71354 7.42717 5.48958 7.42717 5.19271V3.35417C7.42717 3.01042 7.64592 2.79688 8.00529 2.79688C11.0105 2.79688 13.4428 5.23958 13.4428 8.23958ZM8.66152 7.65625C9.19277 8.00521 9.28652 8.65104 8.83861 9.11458C8.38548 9.55729 7.73965 9.45833 7.39069 8.92708L5.65632 6.375C5.42194 6.02083 5.75527 5.6875 6.10944 5.92187L8.66152 7.65625Z" fill="black" fill-opacity="0.4"/>
</svg>
