<svg width="48" height="48" viewBox="0 0 48 48" fill="none" xmlns="http://www.w3.org/2000/svg">
<path fill-rule="evenodd" clip-rule="evenodd" d="M46.0781 35.4844C46.0781 38.1719 44.4531 39.7031 41.6562 39.7031H38C35.2031 39.7031 33.5938 38.1719 33.5938 35.4844V14C33.5938 11.3281 35.2031 9.78125 38 9.78125H41.6562C44.4531 9.78125 46.0781 11.3281 46.0781 14V35.4844ZM38.5625 36.5312H41.0938C42.2031 36.5312 42.6719 36.0781 42.6719 35V14.5C42.6719 13.4219 42.2031 12.9531 41.1094 12.9531H38.5625C37.4688 12.9531 37 13.4219 37 14.5V35C37 36.0781 37.4688 36.5312 38.5625 36.5312ZM26.8594 39.7031C29.6562 39.7031 31.2812 38.1719 31.2812 35.4844V18.5469C31.2812 15.875 29.6562 14.3438 26.8594 14.3438H23.2031C20.3906 14.3438 18.7812 15.875 18.7812 18.5625V35.4844C18.7812 38.1719 20.3906 39.7031 23.2031 39.7031H26.8594ZM23.7656 36.5312H26.2969C27.3906 36.5312 27.8594 36.0781 27.8594 35V19.0469C27.8594 17.9688 27.3906 17.5 26.2969 17.5H23.7656C22.6719 17.5 22.2031 17.9688 22.2031 19.0469V35C22.2031 36.0781 22.6719 36.5312 23.7656 36.5312ZM12.0469 39.7031C14.8594 39.7031 16.4688 38.1719 16.4688 35.4844V23.125C16.4688 20.4531 14.8594 18.9219 12.0469 18.9219H8.40625C5.59375 18.9219 3.98438 20.4531 3.98438 23.1406V35.4844C3.98438 38.1719 5.59375 39.7031 8.40625 39.7031H12.0469ZM8.96875 36.5312H11.4844C12.5938 36.5312 13.0625 36.0781 13.0625 35V23.625C13.0625 22.5469 12.5938 22.0781 11.5 22.0781H8.96875C7.875 22.0781 7.39062 22.5469 7.39062 23.625V35C7.39062 36.0781 7.875 36.5312 8.96875 36.5312Z" fill="#FF5E00"/>
</svg>
