<svg width="48" height="48" viewBox="0 0 48 48" fill="none" xmlns="http://www.w3.org/2000/svg">
<path fill-rule="evenodd" clip-rule="evenodd" d="M26.2344 27C25.3594 27.5 24.7031 27.7656 24 27.7656C23.2969 27.7656 22.6406 27.5 21.75 27L9.6875 20C8.3125 19.1875 7.65625 18.4688 7.65625 17.3594C7.65625 16.2344 8.3125 15.5156 9.6875 14.7031L21.75 7.70312C22.6406 7.20312 23.2969 6.9375 24 6.9375C24.7031 6.9375 25.3594 7.20312 26.2344 7.70312L38.3125 14.7031C39.6875 15.5156 40.3437 16.2344 40.3437 17.3594C40.3437 18.4688 39.6875 19.1875 38.3125 20L26.2344 27ZM23.4219 23.8129C23.6406 23.9379 23.8125 24.0004 24 24.0004C24.1875 24.0004 24.3594 23.9379 24.5781 23.8129L35.7188 17.5004C35.7813 17.4691 35.8125 17.4222 35.8125 17.3597C35.8125 17.2816 35.7813 17.2347 35.7188 17.2035L24.5781 10.891C24.3594 10.766 24.1875 10.7035 24 10.7035C23.8125 10.7035 23.6406 10.766 23.4219 10.891L12.2813 17.2035C12.2188 17.2347 12.1719 17.2816 12.1719 17.3597C12.1719 17.4222 12.2188 17.4691 12.2813 17.5004L23.4219 23.8129ZM24 35.5472C24.6562 35.5472 25.2344 35.2504 26.0469 34.766L38.9375 27.2035C39.8594 26.6566 40.3594 25.9691 40.3594 25.1097C40.3594 24.2504 39.8438 23.5785 39.2031 23.1722L25.1562 31.3285C24.7031 31.5941 24.3438 31.766 24 31.766C23.6406 31.766 23.2969 31.5941 22.8281 31.3285L8.79688 23.1722C8.15625 23.5785 7.64062 24.2504 7.64062 25.1097C7.64062 25.9691 8.15625 26.6722 9.0625 27.2035L21.9531 34.766C22.7656 35.2504 23.3438 35.5472 24 35.5472ZM26.0469 42.1562C25.2344 42.6406 24.6562 42.9375 24 42.9375C23.3438 42.9375 22.7656 42.6406 21.9531 42.1562L9.0625 34.5938C8.15625 34.0625 7.64062 33.3594 7.64062 32.4844C7.64062 31.6406 8.15625 30.9688 8.79688 30.5625L22.8281 38.7188C23.2969 38.9844 23.6406 39.1562 24 39.1562C24.3438 39.1562 24.7031 38.9844 25.1562 38.7188L39.2031 30.5625C39.8438 30.9688 40.3594 31.6406 40.3594 32.4844C40.3594 33.3594 39.8438 34.0625 38.9375 34.5938L26.0469 42.1562Z" fill="#5D2DE1"/>
</svg>
