<svg width="48" height="48" viewBox="0 0 48 48" fill="none" xmlns="http://www.w3.org/2000/svg">
<path fill-rule="evenodd" clip-rule="evenodd" d="M32.2344 24.9531C36.0625 24.9531 39.1562 21.6094 39.1562 17.4688C39.1562 13.4062 36.0469 10.1406 32.2344 10.1406C28.4375 10.1406 25.3125 13.4375 25.3125 17.4844C25.3281 21.6094 28.4062 24.9531 32.2344 24.9531ZM14.0312 25.3125C17.3594 25.3125 20.0625 22.3594 20.0625 18.7188C20.0625 15.1719 17.3594 12.2812 14.0312 12.2812C10.7188 12.2812 7.98438 15.2031 8 18.7344C8 22.375 10.7031 25.3125 14.0312 25.3125ZM28.4375 17.4844C28.4375 20 30.1719 21.9375 32.2344 21.9375C34.3125 21.9375 36.0312 19.9688 36.0312 17.4688C36.0312 15.0312 34.3125 13.1562 32.2344 13.1562C30.1719 13.1562 28.4219 15.0469 28.4375 17.4844ZM14.0312 22.3438C12.375 22.3438 10.9687 20.75 10.9687 18.7344C10.9531 16.8125 12.375 15.25 14.0312 15.25C15.7031 15.25 17.1094 16.7812 17.1094 18.7188C17.1094 20.75 15.7031 22.3438 14.0312 22.3438ZM16.1406 36.7344C16.0312 37.8594 16.6094 39.1406 17.5469 39.7031H5.5C3.15625 39.7031 1.98438 38.6719 1.98438 36.7031C1.98438 31.5156 7.35938 26.8125 14.0156 26.8125C16.3438 26.8125 18.8594 27.4531 20.7969 28.5938C19.8125 29.2188 19.1094 29.9531 18.5625 30.8281C17.3438 30.1719 15.5938 29.7656 14.0156 29.7656C9.1875 29.7656 5.15625 33.0156 5.15625 36.3594C5.15625 36.6094 5.26562 36.7344 5.54688 36.7344H16.1406ZM41.9062 39.6875C44.6875 39.6875 46.0469 38.7812 46.0469 36.8438C46.0469 32.3906 40.5312 26.8281 32.2344 26.8281C23.9375 26.8281 18.4062 32.3906 18.4062 36.8438C18.4062 38.7812 19.7656 39.6875 22.5469 39.6875H41.9062ZM21.7969 36.2969C21.7969 36.5625 21.9219 36.6719 22.2656 36.6719H42.2031C42.5312 36.6719 42.6562 36.5625 42.6562 36.2969C42.6562 34.0469 38.875 29.8438 32.2344 29.8438C25.5781 29.8438 21.7969 34.0469 21.7969 36.2969Z" fill="#00BBFF"/>
</svg>
