<svg width="48" height="48" viewBox="0 0 48 48" fill="none" xmlns="http://www.w3.org/2000/svg">
<path fill-rule="evenodd" clip-rule="evenodd" d="M32.8516 42.4219C35.9141 42.4219 38.4141 39.9219 38.4141 36.8594C38.4141 34.3906 36.8047 32.2969 34.5859 31.5625V31.0938C34.5859 27.5625 32.4922 25.1562 28.4609 24.125L20.5391 22.0625C18.1328 21.4219 16.8828 20.1719 16.8828 18.4062V17.9375C19.1172 17.2031 20.7109 15.1094 20.7109 12.6406C20.7109 9.5625 18.2266 7.07812 15.1484 7.07812C12.0859 7.07812 9.58594 9.5625 9.58594 12.6406C9.58594 15.1094 11.1953 17.2031 13.4141 17.9375V18.4062C13.4141 21.9375 15.5078 24.3438 19.5391 25.375L27.4453 27.4375C29.8672 28.0781 31.1172 29.3281 31.1172 31.0938V31.5625C28.8828 32.2969 27.2734 34.3906 27.2734 36.8594C27.2734 39.9219 29.7734 42.4219 32.8516 42.4219ZM15.1484 14.9531C13.8516 14.9531 12.8359 13.9375 12.8359 12.6406C12.8359 11.3281 13.8516 10.3281 15.1484 10.3281C16.4609 10.3281 17.4609 11.3281 17.4609 12.6406C17.4609 13.9375 16.4609 14.9531 15.1484 14.9531ZM30.5391 36.8594C30.5391 38.1719 31.5391 39.1719 32.8516 39.1719C34.1484 39.1719 35.1484 38.1719 35.1484 36.8594C35.1484 35.5625 34.1328 34.5469 32.8516 34.5469C31.5391 34.5469 30.5391 35.5625 30.5391 36.8594Z" fill="#00B8B9"/>
</svg>
