<svg width="48" height="48" viewBox="0 0 48 48" fill="none" xmlns="http://www.w3.org/2000/svg">
<path fill-rule="evenodd" clip-rule="evenodd" d="M35.2812 23.0777L20.3125 42.0308C19.1562 43.4995 17.2812 42.5464 17.9531 40.7495L22.5469 28.4058H13.5312C12.8125 28.4058 12.2812 27.9058 12.2812 27.2183C12.2812 26.8277 12.4375 26.4839 12.7188 26.1245L27.6875 7.1558C28.8438 5.68705 30.7031 6.64017 30.0469 8.43705L25.4531 20.7964H34.4688C35.1875 20.7964 35.7188 21.2964 35.7188 21.9839C35.7188 22.3589 35.5625 22.7027 35.2812 23.0777ZM26.7188 25.7188L22.5469 34.7031L31.0625 23.4844H21.2812L25.4375 14.4844L16.9375 25.7188H26.7188Z" fill="#9C42F5"/>
</svg>
