<svg width="48" height="48" viewBox="0 0 48 48" fill="none" xmlns="http://www.w3.org/2000/svg">
<path fill-rule="evenodd" clip-rule="evenodd" d="M24 41.0625C32.9531 41.0625 40.3281 33.6719 40.3281 24.7188C40.3281 15.7656 32.9375 8.39062 24 8.39062C15.0469 8.39062 7.67188 15.7656 7.67188 24.7188C7.67188 33.6719 15.0469 41.0625 24 41.0625ZM17.2969 16.4688C16.2188 16.125 15.2969 15.6875 14.5469 15.1719C16.0781 13.6562 17.9844 12.4844 20.0938 11.8438C18.9688 12.9531 18.0156 14.5312 17.2969 16.4688ZM27.9219 11.8438C29.0469 12.9531 30 14.5469 30.7188 16.4688C31.7812 16.125 32.7188 15.6875 33.4531 15.1875C31.9219 13.6562 30.0312 12.5 27.9219 11.8438ZM22.8594 17.3594C21.7031 17.3125 20.6094 17.2031 19.5938 17.0156C20.4375 14.7969 21.5938 13.1406 22.8594 12.5156V17.3594ZM25.1562 12.5156V17.3594C26.3125 17.3125 27.4062 17.2031 28.4062 17.0156C27.5781 14.7969 26.4219 13.1406 25.1562 12.5156ZM15.9531 23.5625H10.5781C10.7969 21.0938 11.6875 18.8125 13.0781 16.8906C14 17.5938 15.2188 18.1719 16.6406 18.625C16.2656 20.1406 16.0312 21.7969 15.9531 23.5625ZM32.0469 23.5625H37.4219C37.2031 21.1094 36.3125 18.8125 34.9375 16.9062C34.0156 17.5938 32.7969 18.1719 31.375 18.625C31.7344 20.1406 31.9844 21.7969 32.0469 23.5625ZM29.7031 23.5625H25.1562V19.6562C26.5312 19.5938 27.8594 19.4531 29.0781 19.2031C29.4062 20.5625 29.625 22.0312 29.7031 23.5625ZM18.2969 23.5625H22.8594V19.6562C21.4844 19.5938 20.1562 19.4531 18.9219 19.2031C18.5938 20.5625 18.375 22.0312 18.2969 23.5625ZM13.1094 32.5938C11.7031 30.6562 10.7969 28.3594 10.5781 25.8594H15.9531C16.0312 27.6562 16.2656 29.3438 16.6406 30.875C15.2344 31.3281 14.0312 31.9062 13.1094 32.5938ZM18.2969 25.8594C18.375 27.4219 18.5938 28.9219 18.9375 30.2969C20.1562 30.0625 21.4844 29.9062 22.8594 29.8594V25.8594H18.2969ZM29.0625 30.2969C27.8438 30.0625 26.5312 29.9062 25.1562 29.8594V25.8594H29.7031C29.6406 27.4219 29.4062 28.9219 29.0625 30.2969ZM31.3594 30.875C32.7812 31.3281 33.9844 31.9062 34.9062 32.5938C36.2969 30.6562 37.2188 28.3594 37.4219 25.8594H32.0469C31.9844 27.6562 31.75 29.3438 31.3594 30.875ZM22.8594 36.9531C21.5938 36.3125 20.4531 34.6719 19.625 32.4844C20.625 32.3125 21.7031 32.2031 22.8594 32.1562V36.9531ZM25.1562 32.1562V36.9531C26.4062 36.3125 27.5625 34.6719 28.3906 32.4844C27.375 32.3125 26.2969 32.2031 25.1562 32.1562ZM20.0781 37.5938C17.9844 36.9531 16.1094 35.8125 14.5781 34.3125C15.3281 33.7969 16.25 33.375 17.3125 33.0469C18.0156 34.9375 18.9688 36.5 20.0781 37.5938ZM30.7031 33.0469C29.9844 34.9375 29.0469 36.5 27.9375 37.5938C30.0156 36.9531 31.8906 35.8125 33.4219 34.3125C32.6875 33.7969 31.7656 33.375 30.7031 33.0469Z" fill="#FF00AA"/>
</svg>
