<svg width="24" height="24" viewBox="0 0 24 24" fill="none" xmlns="http://www.w3.org/2000/svg">
<path fill-rule="evenodd" clip-rule="evenodd" d="M13.9414 18.9766C16.0273 18.9766 17.207 17.8125 17.207 15.7969V14.9609L19.9023 17.25C20.3164 17.5938 20.7227 17.8281 21.1289 17.8281C21.8711 17.8281 22.3867 17.3047 22.3867 16.5V8.27344C22.3867 7.46094 21.8711 6.9375 21.1289 6.9375C20.7148 6.9375 20.3164 7.17188 19.9023 7.52344L17.207 9.8125V8.90625C17.207 6.88281 16.0273 5.72656 13.9414 5.72656H5.84766C3.82422 5.72656 2.58203 6.88281 2.58203 8.90625V15.8906C2.58203 17.9062 3.76172 18.9766 5.84766 18.9766H13.9414ZM13.6523 17.3828H6.13672C4.95703 17.3828 4.28516 16.7422 4.28516 15.5391V9.16406C4.28516 7.92188 4.95703 7.3125 6.13672 7.3125H13.6523C14.832 7.3125 15.5039 7.95312 15.5039 9.16406V15.5391C15.5039 16.7422 14.8164 17.3828 13.6523 17.3828ZM20.5017 15.7991C20.5577 15.8414 20.6022 15.875 20.6602 15.875C20.7461 15.875 20.7852 15.8125 20.7852 15.7109V9.05469C20.7852 8.95312 20.7461 8.89062 20.6602 8.89062C20.5977 8.89062 20.5508 8.92188 20.4883 8.97656L17.207 11.6406V13.1328L20.4883 15.7891C20.4928 15.7925 20.4973 15.7958 20.5017 15.7991Z" fill="white"/>
</svg>
