<svg width="24" height="24" viewBox="0 0 24 24" fill="none" xmlns="http://www.w3.org/2000/svg">
<path d="M13.2969 20.4063L15.1094 11.8125L15.4219 13.3828C15.5079 13.8203 15.7735 14.0391 16.2266 14.0391H19.2735C19.6797 14.0391 20 13.7266 20 13.336C20 12.9141 19.6875 12.6094 19.2735 12.6094H16.6172L15.7579 8.75004C15.5938 8.04691 14.5313 8.05472 14.375 8.78129L12.5938 16.7344L10.6875 5.07816C10.5704 4.35941 9.51567 4.34379 9.35161 5.07035L7.72661 12.6094H4.72661C4.32036 12.6094 4.00005 12.9297 4.00005 13.336C4.00005 13.7266 4.32036 14.0391 4.72661 14.0391H8.20317C8.63286 14.0391 8.9063 13.8438 8.99223 13.4532L9.99223 8.88285L11.8985 20.4063C12.0235 21.1407 13.1485 21.1407 13.2969 20.4063Z" fill="#E0E0FF" fill-opacity="0.4"/>
</svg>
