<svg width="319" height="271" viewBox="0 0 319 271" fill="none" xmlns="http://www.w3.org/2000/svg">
<path d="M169.889 196.665L217.18 147.669L84.1819 19.2975L36.8913 68.2937L169.889 196.665Z" fill="url(#paint0_linear_1700_3152)"/>
<path d="M71.65 88.6838L107.324 51.7276L84.9387 30.1224L49.2756 67.0786L71.65 88.6838Z" fill="url(#paint1_linear_1700_3152)"/>
<path d="M97.8375 113.957L133.512 77.0005L111.137 55.4064L75.4631 92.3627L97.8375 113.957Z" fill="url(#paint2_linear_1700_3152)"/>
<path d="M124.025 139.241L159.699 102.285L137.325 80.6794L101.651 117.636L124.025 139.241Z" fill="url(#paint3_linear_1700_3152)"/>
<path d="M150.213 164.514L185.887 127.557L163.512 105.963L127.838 142.92L150.213 164.514Z" fill="url(#paint4_linear_1700_3152)"/>
<g opacity="0.3">
<path d="M36.8888 68.2938L62.028 42.2516C63.6445 49.4979 66.6656 57.0564 72.1728 63.723C82.641 76.4096 94.6587 76.8556 112.83 88.0595C131.793 99.7539 137.078 110.59 151.637 126.052C162.261 137.334 177.913 151.169 201.102 164.335L169.887 196.665L36.8888 68.2938Z" fill="url(#paint5_linear_1700_3152)"/>
</g>
<path d="M193.019 194.993L210.801 129.252L32.363 80.9692L14.5816 146.71L193.019 194.993Z" fill="url(#paint6_linear_1700_3152)"/>
<path d="M54.872 147.791L68.2832 98.2154L38.2612 90.0884L24.8499 139.676L54.872 147.791Z" fill="url(#paint7_linear_1700_3152)"/>
<path d="M89.9969 157.301L103.408 107.725L73.3973 99.5978L59.9749 149.174L89.9969 157.301Z" fill="url(#paint8_linear_1700_3152)"/>
<path d="M125.138 166.81L138.549 117.223L108.527 109.107L95.1155 158.683L125.138 166.81Z" fill="url(#paint9_linear_1700_3152)"/>
<path d="M160.265 176.308L173.688 126.732L143.665 118.617L130.243 168.193L160.265 176.308Z" fill="url(#paint10_linear_1700_3152)"/>
<g opacity="0.3">
<path d="M14.5807 146.71L26.2974 103.422C33.7221 112.953 41.1914 117.257 47.1668 119.375C63.9671 125.339 74.0005 115.952 96.0404 119.932C116.709 123.667 125.304 135.082 139.262 143.511C152.539 151.526 172.628 158.025 203.988 154.447L193.018 194.993L14.5807 146.71Z" fill="url(#paint11_linear_1700_3152)"/>
</g>
<path d="M207.982 187.2L191.84 121.047L12.2538 164.837L28.3852 231.001L207.982 187.2Z" fill="url(#paint12_linear_1700_3152)"/>
<path d="M64.2051 212.518L52.0313 162.619L21.8197 169.987L33.9823 219.887L64.2051 212.518Z" fill="url(#paint13_linear_1700_3152)"/>
<path d="M99.5645 203.889L87.3906 153.99L57.1791 161.359L69.3417 211.258L99.5645 203.889Z" fill="url(#paint14_linear_1700_3152)"/>
<path d="M134.916 195.272L122.753 145.372L92.5418 152.741L104.704 202.64L134.916 195.272Z" fill="url(#paint15_linear_1700_3152)"/>
<path d="M170.281 186.643L158.119 136.744L127.907 144.113L140.07 194.012L170.281 186.643Z" fill="url(#paint16_linear_1700_3152)"/>
<g opacity="0.3">
<path d="M28.3866 231.001L18.0299 188.538C32.5003 196.843 43.4143 197.445 50.9617 196.308C68.5869 193.633 72.9905 180.612 94.3058 173.711C114.294 167.245 127.26 173.243 143.536 174.068C157.973 174.803 176.992 171.593 200.515 156.61L207.973 187.2L28.3866 231.001Z" fill="url(#paint17_linear_1700_3152)"/>
</g>
<path d="M186.152 164.726C182.15 164.726 178.906 161.481 178.906 157.479C178.906 153.477 182.15 150.233 186.152 150.233C190.154 150.233 193.398 153.477 193.398 157.479C193.398 161.481 190.154 164.726 186.152 164.726Z" fill="url(#paint18_linear_1700_3152)"/>
<path d="M1.01001 245.383L314.932 242.707V250.622C314.932 252.774 313.56 254.602 311.71 254.925L222.937 270.522C221.889 270.711 220.819 270.756 219.748 270.667L4.41022 252.885C2.49271 252.729 0.99884 250.89 0.99884 248.682V245.383H1.01001Z" fill="#26264F"/>
<path d="M114.92 232.696L311.675 247.189C315.197 247.445 318.062 244.691 318.062 241.035V94.5143C318.062 90.8577 315.197 87.8923 311.675 87.8923H114.92C112.022 87.8923 109.67 90.5678 109.67 93.8788V226.33C109.681 229.63 112.022 232.484 114.92 232.696Z" fill="#26264F"/>
<path d="M111.788 232.696L308.542 247.189C312.065 247.445 314.93 244.691 314.93 241.035V94.5143C314.93 90.8577 312.065 87.8923 308.542 87.8923H111.788C108.889 87.8923 106.537 90.5678 106.537 93.8788V226.33C106.537 229.63 108.889 232.484 111.788 232.696Z" fill="url(#paint19_linear_1700_3152)"/>
<path d="M117.92 223.365L301.174 235.94C304.039 236.141 306.369 233.878 306.369 230.89V102.619C306.369 99.6313 304.039 97.201 301.174 97.1899L117.92 96.3983C115.523 96.3872 113.595 98.5834 113.595 101.304V218.136C113.595 220.857 115.523 223.198 117.92 223.365Z" fill="url(#paint20_linear_1700_3152)"/>
<path d="M203.214 91.8945C203.214 93.2545 204.229 94.3582 205.477 94.3694C206.726 94.3694 207.74 93.2657 207.74 91.9056C207.74 90.5455 206.726 89.4307 205.477 89.4307C204.229 89.4307 203.214 90.5344 203.214 91.8945Z" fill="white"/>
<path d="M103.952 231.893L314.932 247.144L222.937 263.298C221.889 263.487 220.819 263.532 219.748 263.443L0.99884 245.383L100.586 231.994C101.7 231.849 102.826 231.815 103.952 231.893Z" fill="url(#paint21_linear_1700_3152)"/>
<path d="M284.139 247.278L108.488 234.391L54.1294 241.637L228.264 255.416L284.139 247.278Z" fill="#26264F"/>
<path d="M87.3647 193.321C87.3647 209.53 100.586 223.51 117.13 224.558L301.365 236.263C281.878 235.026 266.326 219.786 266.326 202.217V0L87.3536 6.84499V193.321H87.3647Z" fill="url(#paint22_linear_1700_3152)"/>
<path d="M175.997 53.2656C175.997 71.5821 191.549 86.4091 211.025 86.3868C230.857 86.3645 247.189 71.0246 247.189 52.1173C247.189 33.21 230.857 18.4052 211.025 19.0184C191.549 19.6204 175.997 34.9491 175.997 53.2656Z" stroke="url(#paint23_linear_1700_3152)" stroke-width="8"/>
<g filter="url(#filter0_dddd_1700_3152)">
<path d="M216.409 70C218.333 70 219.84 69.2355 220.898 67.6746L250.908 21.6769C251.677 20.5301 251.998 19.479 251.998 18.4915C251.998 15.8794 250.074 14 247.381 14C245.522 14 244.399 14.6371 243.277 16.4209L216.281 58.851L202.494 41.5859C201.404 40.2799 200.282 39.6746 198.679 39.6746C195.954 39.6746 193.998 41.5859 193.998 44.2298C193.998 45.3766 194.383 46.4596 195.377 47.6064L211.953 67.8339C213.203 69.3311 214.582 70 216.409 70Z" fill="url(#paint24_linear_1700_3152)"/>
</g>
<path d="M98.9365 51.5492L163.295 50.4567V39.2639L98.9365 40.6909V51.5492Z" fill="#EBEFF8"/>
<path d="M98.9365 60.5235L163.295 59.6874V54.1021L98.9365 55.0943V60.5235Z" fill="#EBEFF8"/>
<path d="M98.9365 69.4866L163.295 68.9292V63.3328L98.9365 64.0575V69.4866Z" fill="#EBEFF8"/>
<path d="M98.938 117.558L237.398 119.475V113.923L98.938 112.34V117.558Z" fill="#EBEFF8"/>
<path opacity="0.4" d="M248.703 119.631L242.427 119.542V113.979L248.703 114.046V119.631Z" fill="#9C42F5"/>
<path d="M98.938 126.175L237.398 128.65V123.098L98.938 120.958V126.175Z" fill="#EBEFF8"/>
<path opacity="0.4" d="M248.703 128.851L242.427 128.739V123.176L248.703 123.265V128.851Z" fill="#9C42F5"/>
<path d="M98.938 134.793L237.398 137.825V132.273L98.938 129.575V134.793Z" fill="#EBEFF8"/>
<path opacity="0.4" d="M248.703 138.07L242.427 137.937V132.362L248.703 132.485V138.07Z" fill="#9C42F5"/>
<path d="M98.938 143.399L237.398 147V141.448L98.938 138.182V143.399Z" fill="#EBEFF8"/>
<path opacity="0.4" d="M248.703 147.29L242.427 147.134V141.56L248.703 141.705V147.29Z" fill="#9C42F5"/>
<path d="M98.9384 160.634L248.703 165.729V160.144L98.9384 155.417V160.634Z" fill="#EBEFF8"/>
<path d="M98.9384 169.252L248.703 174.948V169.363L98.9384 164.034V169.252Z" fill="#EBEFF8"/>
<path d="M98.9384 177.858L248.703 184.168V178.583L98.9384 172.641V177.858Z" fill="#EBEFF8"/>
<path d="M98.9384 186.476L248.703 193.388V187.802L98.9384 181.258V186.476Z" fill="#EBEFF8"/>
<defs>
<filter id="filter0_dddd_1700_3152" x="169.998" y="6" width="106" height="104" filterUnits="userSpaceOnUse" color-interpolation-filters="sRGB">
<feFlood flood-opacity="0" result="BackgroundImageFix"/>
<feColorMatrix in="SourceAlpha" type="matrix" values="0 0 0 0 0 0 0 0 0 0 0 0 0 0 0 0 0 0 127 0" result="hardAlpha"/>
<feMorphology radius="4" operator="erode" in="SourceAlpha" result="effect1_dropShadow_1700_3152"/>
<feOffset dy="8"/>
<feGaussianBlur stdDeviation="4"/>
<feColorMatrix type="matrix" values="0 0 0 0 0.0862745 0 0 0 0 0.721569 0 0 0 0 0.384314 0 0 0 0.12 0"/>
<feBlend mode="normal" in2="BackgroundImageFix" result="effect1_dropShadow_1700_3152"/>
<feColorMatrix in="SourceAlpha" type="matrix" values="0 0 0 0 0 0 0 0 0 0 0 0 0 0 0 0 0 0 127 0" result="hardAlpha"/>
<feOffset dy="16"/>
<feGaussianBlur stdDeviation="12"/>
<feColorMatrix type="matrix" values="0 0 0 0 0.0862745 0 0 0 0 0.721569 0 0 0 0 0.384314 0 0 0 0.24 0"/>
<feBlend mode="normal" in2="effect1_dropShadow_1700_3152" result="effect2_dropShadow_1700_3152"/>
<feColorMatrix in="SourceAlpha" type="matrix" values="0 0 0 0 0 0 0 0 0 0 0 0 0 0 0 0 0 0 127 0" result="hardAlpha"/>
<feMorphology radius="1" operator="erode" in="SourceAlpha" result="effect3_dropShadow_1700_3152"/>
<feOffset dy="2"/>
<feGaussianBlur stdDeviation="2"/>
<feColorMatrix type="matrix" values="0 0 0 0 0.0392157 0 0 0 0 0.27451 0 0 0 0 0.321569 0 0 0 0.12 0"/>
<feBlend mode="normal" in2="effect2_dropShadow_1700_3152" result="effect3_dropShadow_1700_3152"/>
<feColorMatrix in="SourceAlpha" type="matrix" values="0 0 0 0 0 0 0 0 0 0 0 0 0 0 0 0 0 0 127 0" result="hardAlpha"/>
<feOffset/>
<feGaussianBlur stdDeviation="0.5"/>
<feColorMatrix type="matrix" values="0 0 0 0 0.0862745 0 0 0 0 0.721569 0 0 0 0 0.384314 0 0 0 0.24 0"/>
<feBlend mode="normal" in2="effect3_dropShadow_1700_3152" result="effect4_dropShadow_1700_3152"/>
<feBlend mode="normal" in="SourceGraphic" in2="effect4_dropShadow_1700_3152" result="shape"/>
</filter>
<linearGradient id="paint0_linear_1700_3152" x1="126.02" y1="80.0833" x2="128.414" y2="145.817" gradientUnits="userSpaceOnUse">
<stop offset="0.00359712" stop-color="white"/>
<stop offset="1" stop-color="#F4F7FA"/>
</linearGradient>
<linearGradient id="paint1_linear_1700_3152" x1="58.2657" y1="30.5408" x2="145.715" y2="156.548" gradientUnits="userSpaceOnUse">
<stop stop-color="#FFC444"/>
<stop offset="0.9964" stop-color="#F36F56"/>
</linearGradient>
<linearGradient id="paint2_linear_1700_3152" x1="56.978" y1="16.2272" x2="144.427" y2="142.234" gradientUnits="userSpaceOnUse">
<stop stop-color="#FFC444"/>
<stop offset="0.9964" stop-color="#F36F56"/>
</linearGradient>
<linearGradient id="paint3_linear_1700_3152" x1="62.6493" y1="11.9408" x2="150.098" y2="137.948" gradientUnits="userSpaceOnUse">
<stop stop-color="#FFC444"/>
<stop offset="0.9964" stop-color="#F36F56"/>
</linearGradient>
<linearGradient id="paint4_linear_1700_3152" x1="74.3963" y1="16.409" x2="161.845" y2="142.416" gradientUnits="userSpaceOnUse">
<stop stop-color="#FFC444"/>
<stop offset="0.9964" stop-color="#F36F56"/>
</linearGradient>
<linearGradient id="paint5_linear_1700_3152" x1="35.7078" y1="67.4597" x2="128.361" y2="127.496" gradientUnits="userSpaceOnUse">
<stop stop-color="#FFC444"/>
<stop offset="0.9964" stop-color="#F36F56"/>
</linearGradient>
<linearGradient id="paint6_linear_1700_3152" x1="34.364" y1="99.2983" x2="131.795" y2="147.415" gradientUnits="userSpaceOnUse">
<stop offset="0.00359712" stop-color="white"/>
<stop offset="1" stop-color="#F4F7FA"/>
</linearGradient>
<linearGradient id="paint7_linear_1700_3152" x1="21.3266" y1="106.8" x2="137.405" y2="162.647" gradientUnits="userSpaceOnUse">
<stop offset="0.00359712" stop-color="#E38DDD"/>
<stop offset="1" stop-color="#9571F6"/>
</linearGradient>
<linearGradient id="paint8_linear_1700_3152" x1="24.2131" y1="100.793" x2="140.292" y2="156.64" gradientUnits="userSpaceOnUse">
<stop offset="0.00359712" stop-color="#E38DDD"/>
<stop offset="1" stop-color="#9571F6"/>
</linearGradient>
<linearGradient id="paint9_linear_1700_3152" x1="27.1043" y1="94.7868" x2="143.183" y2="150.634" gradientUnits="userSpaceOnUse">
<stop offset="0.00359712" stop-color="#E38DDD"/>
<stop offset="1" stop-color="#9571F6"/>
</linearGradient>
<linearGradient id="paint10_linear_1700_3152" x1="8.72408" y1="78.5473" x2="124.803" y2="134.394" gradientUnits="userSpaceOnUse">
<stop offset="0.00359712" stop-color="#E38DDD"/>
<stop offset="1" stop-color="#9571F6"/>
</linearGradient>
<linearGradient id="paint11_linear_1700_3152" x1="28.696" y1="110.775" x2="126.126" y2="158.891" gradientUnits="userSpaceOnUse">
<stop offset="0.00359712" stop-color="#E38DDD"/>
<stop offset="1" stop-color="#9571F6"/>
</linearGradient>
<linearGradient id="paint12_linear_1700_3152" x1="101.769" y1="152.653" x2="122.823" y2="211.594" gradientUnits="userSpaceOnUse">
<stop offset="0.00359712" stop-color="white"/>
<stop offset="1" stop-color="#F4F7FA"/>
</linearGradient>
<linearGradient id="paint13_linear_1700_3152" x1="37.8896" y1="191.532" x2="166.51" y2="184.448" gradientUnits="userSpaceOnUse">
<stop stop-color="#FF9085"/>
<stop offset="1" stop-color="#FB6FBB"/>
</linearGradient>
<linearGradient id="paint14_linear_1700_3152" x1="29.6403" y1="185.31" x2="158.26" y2="178.227" gradientUnits="userSpaceOnUse">
<stop stop-color="#FF9085"/>
<stop offset="1" stop-color="#FB6FBB"/>
</linearGradient>
<linearGradient id="paint15_linear_1700_3152" x1="24.6678" y1="178.909" x2="153.288" y2="171.825" gradientUnits="userSpaceOnUse">
<stop stop-color="#FF9085"/>
<stop offset="1" stop-color="#FB6FBB"/>
</linearGradient>
<linearGradient id="paint16_linear_1700_3152" x1="16.4959" y1="172.683" x2="145.116" y2="165.599" gradientUnits="userSpaceOnUse">
<stop stop-color="#FF9085"/>
<stop offset="1" stop-color="#FB6FBB"/>
</linearGradient>
<linearGradient id="paint17_linear_1700_3152" x1="18.7393" y1="153.43" x2="102.446" y2="188.74" gradientUnits="userSpaceOnUse">
<stop stop-color="#FF9085"/>
<stop offset="1" stop-color="#FB6FBB"/>
</linearGradient>
<linearGradient id="paint18_linear_1700_3152" x1="191.187" y1="152.269" x2="181.128" y2="162.689" gradientUnits="userSpaceOnUse">
<stop offset="0.00359712" stop-color="#E38DDD"/>
<stop offset="1" stop-color="#9571F6"/>
</linearGradient>
<linearGradient id="paint19_linear_1700_3152" x1="314.925" y1="167.547" x2="106.541" y2="167.547" gradientUnits="userSpaceOnUse">
<stop stop-color="#444B8C"/>
<stop offset="0.9964" stop-color="#26264F"/>
</linearGradient>
<linearGradient id="paint20_linear_1700_3152" x1="402.756" y1="166.175" x2="270.181" y2="349.309" gradientUnits="userSpaceOnUse">
<stop stop-color="#FF00AA"/>
<stop offset="0.501768" stop-color="#9C42F5"/>
<stop offset="1" stop-color="#5D2DE1"/>
</linearGradient>
<linearGradient id="paint21_linear_1700_3152" x1="314.927" y1="247.671" x2="1.00511" y2="247.671" gradientUnits="userSpaceOnUse">
<stop stop-color="#444B8C"/>
<stop offset="0.9964" stop-color="#26264F"/>
</linearGradient>
<linearGradient id="paint22_linear_1700_3152" x1="145.949" y1="36.2098" x2="263.19" y2="278.666" gradientUnits="userSpaceOnUse">
<stop stop-color="white"/>
<stop offset="0.9964" stop-color="#EBEFF2"/>
</linearGradient>
<linearGradient id="paint23_linear_1700_3152" x1="282.786" y1="52.6934" x2="215.5" y2="123.778" gradientUnits="userSpaceOnUse">
<stop stop-color="#66FF00"/>
<stop offset="0.518766" stop-color="#16B862"/>
<stop offset="1" stop-color="#00858F"/>
</linearGradient>
<linearGradient id="paint24_linear_1700_3152" x1="164.998" y1="42" x2="220.964" y2="99.9643" gradientUnits="userSpaceOnUse">
<stop stop-color="#66FF00"/>
<stop offset="0.518766" stop-color="#16B862"/>
<stop offset="1" stop-color="#00858F"/>
</linearGradient>
</defs>
</svg>
