<svg width="48" height="48" viewBox="0 0 48 48" fill="none" xmlns="http://www.w3.org/2000/svg">
<path fill-rule="evenodd" clip-rule="evenodd" d="M24.3281 40.6719C33.2812 40.6719 40.6562 33.2812 40.6562 24.3281C40.6562 15.375 33.2656 8 24.3281 8C15.375 8 8 15.375 8 24.3281C8 33.2812 15.375 40.6719 24.3281 40.6719ZM24.3281 37C17.3125 37 11.6875 31.3438 11.6875 24.3281C11.6875 17.3125 17.2969 11.6719 24.3281 11.6719C31.3438 11.6719 36.9844 17.3125 37 24.3281C37 31.3438 31.3438 37 24.3281 37ZM25.7344 32.7188C25.7344 33.125 25.4531 33.4062 25.0469 33.4062C24.6406 33.4062 24.3438 33.125 24.3438 32.7188V31.4844H23.3438V32.7188C23.3438 33.125 23.0469 33.4062 22.6406 33.4062C22.25 33.4062 21.9531 33.125 21.9531 32.7188V31.4844H21.1562C20.2344 31.4844 19.6719 30.9219 19.6719 29.9844V19.0312C19.6719 18.0938 20.25 17.5 21.1562 17.5H21.9531V16.2812C21.9531 15.875 22.25 15.5781 22.6406 15.5781C23.0469 15.5781 23.3438 15.875 23.3438 16.2812V17.5H24.3438V16.2812C24.3438 15.875 24.6406 15.5781 25.0469 15.5781C25.4375 15.5781 25.7344 15.875 25.7344 16.2812V17.5469C28.0156 17.7656 29.4062 19.125 29.4062 21.0938C29.4062 22.3594 28.6094 23.5469 27.4688 24.0625C29.0156 24.5312 30.0469 25.8281 30.0469 27.4531C30.0469 29.7656 28.4219 31.2656 25.7344 31.4531V32.7188ZM24.2344 23.2656L22.3438 23.25V19.6719H24.5469C25.9375 19.6719 26.7344 20.2969 26.7344 21.3906C26.7344 22.5938 25.8438 23.2656 24.2344 23.2656ZM22.3438 29.2969H24.7188C26.4375 29.2812 27.3594 28.6094 27.3594 27.2969C27.3594 25.9844 26.4062 25.3125 24.5938 25.3125H22.3438V29.2969Z" fill="white"/>
</svg>
