<svg width="48" height="48" viewBox="0 0 48 48" fill="none" xmlns="http://www.w3.org/2000/svg">
<path fill-rule="evenodd" clip-rule="evenodd" d="M25.2656 42.125L40.6406 26.7344C41.9063 25.4688 42.0625 24.6875 42.0625 22.8125V16.8906C42.0625 15.125 41.6406 14.4531 40.3125 13.125L36.7344 9.54688C35.4063 8.21875 34.7344 7.79688 32.9688 7.79688H27.0469C25.1719 7.79688 24.4219 7.98438 23.1563 9.25L7.75 24.625C5.34375 27.0469 5.3125 29.6562 7.76563 32.0938L17.7969 42.1094C20.25 44.5625 22.8438 44.5469 25.2656 42.125ZM20.0469 39.3125L10.5625 29.8438C9.56249 28.8438 9.59374 27.8438 10.5625 26.8906L25.7031 11.75C26.0156 11.4375 26.2969 11.2812 26.7812 11.2812H32.8437C33.2969 11.2812 33.6094 11.4375 33.9062 11.7344L38.125 15.9531C38.4219 16.2344 38.5781 16.5625 38.5781 17.0156V23.0781C38.5781 23.5938 38.4375 23.875 38.1406 24.1875L23 39.3281C22.0312 40.2812 21.0469 40.3125 20.0469 39.3125ZM33.2656 18.9219C33.2656 20.2344 32.25 21.2656 30.9375 21.2656C29.6094 21.2656 28.5938 20.2344 28.5938 18.9219C28.5938 17.625 29.6094 16.5938 30.9375 16.5938C32.25 16.5938 33.2656 17.625 33.2656 18.9219Z" fill="white"/>
</svg>
