<svg width="48" height="48" viewBox="0 0 48 48" fill="none" xmlns="http://www.w3.org/2000/svg">
<path fill-rule="evenodd" clip-rule="evenodd" d="M26.3906 42.3281C27.6562 42.3281 28.5312 41.3438 29.1094 39.8438L39.5 12.6719C39.75 12 39.8906 11.4062 39.8906 10.8906C39.8906 9.6875 39.1406 8.9375 37.9375 8.9375C37.4219 8.9375 36.8125 9.07812 36.1406 9.32812L8.89062 19.75C7.51562 20.2812 6.5 21.1562 6.5 22.4375C6.5 23.9688 7.625 24.6094 9.1875 25.0781L20.4531 28.375L23.7344 39.5312C24.2031 41.1562 24.8438 42.3281 26.3906 42.3281ZM21.5156 25.1094L12.6406 22.3906C12.4375 22.3281 12.3594 22.2656 12.3594 22.1562C12.3594 22.0625 12.4219 21.9688 12.6094 21.9062L29.1719 15.5312C30.3062 15.0901 31.4203 14.5778 32.6534 14.0107L32.6534 14.0107C32.949 13.8748 33.2514 13.7357 33.5625 13.5938C32.375 14.5625 30.9219 15.75 29.9062 16.75L21.5156 25.1094ZM26.4375 36.1875C26.5 36.3906 26.5625 36.4844 26.6719 36.4844C26.7812 36.4844 26.8438 36.3906 26.9062 36.2188L33.2969 19.6562C33.7256 18.5416 34.2215 17.4559 34.7695 16.2559C34.9206 15.925 35.0757 15.5855 35.2344 15.2344C34.2969 16.4219 33.0469 17.9375 32.0781 18.9219L23.7188 27.3125L26.4375 36.1875Z" fill="white"/>
</svg>
