<svg width="48" height="48" viewBox="0 0 48 48" fill="none" xmlns="http://www.w3.org/2000/svg">
<path fill-rule="evenodd" clip-rule="evenodd" d="M38.257 40.3312C41.8828 40.3312 43.7695 38.4445 43.7695 34.868V18.7078C43.7695 15.1148 41.8828 13.2281 38.257 13.2281H34.1391V11.7844C34.1391 8.68359 32.4164 7.17422 29.2336 7.17422H18.7828C15.6984 7.17422 13.8773 8.68359 13.8773 11.7844V13.2281H9.75938C6.13359 13.2281 4.23047 15.1148 4.23047 18.7078V34.868C4.23047 38.4445 6.13359 40.3312 9.75938 40.3312H38.257ZM30.7594 13.228H17.2406V11.7022C17.2406 10.7179 17.8313 10.1601 18.8813 10.1601H29.1188C30.1688 10.1601 30.7594 10.7179 30.7594 11.7022V13.228ZM9.95625 36.7874H38.0437C39.3398 36.7874 40.0289 36.1147 40.0289 34.7858V18.7733C40.0289 17.4444 39.3398 16.7718 38.0437 16.7718H9.95625C8.67656 16.7718 7.9875 17.4444 7.9875 18.7733V34.7858C7.9875 36.1147 8.67656 36.7874 9.95625 36.7874Z" fill="white"/>
</svg>
