<svg width="48" height="48" viewBox="0 0 48 48" fill="none" xmlns="http://www.w3.org/2000/svg">
<path fill-rule="evenodd" clip-rule="evenodd" d="M28.5938 36.6875C35.1094 36.6875 40.5625 31.2344 40.5625 24.7188C40.5625 18.1875 35.1094 12.75 28.5781 12.75C26.9844 12.75 25.4531 13.0938 24.0625 13.7188C22.625 13.0938 21.0312 12.75 19.3906 12.75C12.8594 12.75 7.4375 18.1875 7.4375 24.7188C7.4375 31.2344 12.875 36.6875 19.4062 36.6875C21.0625 36.6875 22.6406 36.3281 24.0781 35.7031C25.4688 36.3281 26.9844 36.6875 28.5938 36.6875ZM28.5938 33.1094C28.3594 33.1094 28.125 33.0938 27.9062 33.0781C30.0312 30.9062 31.375 27.9375 31.375 24.7188C31.375 21.4844 30.0312 18.5312 27.8906 16.3594C28.125 16.3281 28.3438 16.3281 28.5781 16.3281C33.1562 16.3281 36.9844 20.1719 36.9844 24.7188C36.9844 29.2656 33.1562 33.1094 28.5938 33.1094ZM11.0156 24.7188C11.0156 29.2656 14.8594 33.1094 19.4062 33.1094C23.9531 33.1094 27.7969 29.2656 27.7969 24.7188C27.7969 20.1719 23.9531 16.3281 19.3906 16.3281C14.8438 16.3281 11.0156 20.1719 11.0156 24.7188Z" fill="white"/>
</svg>
