<svg width="48" height="48" viewBox="0 0 48 48" fill="none" xmlns="http://www.w3.org/2000/svg">
<path fill-rule="evenodd" clip-rule="evenodd" d="M47.475 35.9375C47.475 37.1406 46.4906 38.125 45.3031 38.125H2.77185C1.58435 38.125 0.599976 37.1406 0.599976 35.9375C0.599976 34.7344 1.58435 33.75 2.77185 33.75H5.97498V15.4375C5.97498 12.7812 7.53748 11.3281 10.1156 11.3281H37.975C40.6156 11.3281 42.1 12.7812 42.1 15.4375V33.75H45.3031C46.4906 33.75 47.475 34.7344 47.475 35.9375ZM9.5531 33.75H38.5219V16.3438C38.5219 15.3594 38.0531 14.9062 37.1 14.9062H10.9906C10.0375 14.9062 9.5531 15.3594 9.5531 16.3438V33.75Z" fill="white"/>
</svg>
