<svg width="20" height="20" viewBox="0 0 20 20" fill="none" xmlns="http://www.w3.org/2000/svg">
<path fill-rule="evenodd" clip-rule="evenodd" d="M10.0002 17.1094C13.7307 17.1094 16.8036 14.03 16.8036 10.2995C16.8036 6.56903 13.7242 3.49609 10.0002 3.49609C6.26977 3.49609 3.19685 6.56903 3.19685 10.2995C3.19685 14.03 6.26977 17.1094 10.0002 17.1094ZM7.20699 6.86194C6.75777 6.71875 6.37365 6.53644 6.06115 6.32159C6.69917 5.69006 7.49344 5.20178 8.37235 4.93488C7.9036 5.39709 7.50646 6.05469 7.20699 6.86194ZM11.6344 4.93488C12.1031 5.39709 12.5002 6.06116 12.7997 6.86194C13.2424 6.71875 13.6331 6.53644 13.939 6.32812C13.301 5.69006 12.5133 5.20831 11.6344 4.93488ZM9.52506 7.23309C9.04329 7.21356 8.58756 7.16797 8.16438 7.08984C8.51595 6.16534 8.99772 5.47528 9.52506 5.21484V7.23309ZM10.482 5.21484V7.23309C10.9638 7.21356 11.4195 7.16797 11.8362 7.08984C11.4911 6.16534 11.0094 5.47528 10.482 5.21484ZM6.64737 9.81769H4.40779C4.49894 8.789 4.87003 7.8385 5.44946 7.03772C5.83357 7.33069 6.34138 7.57159 6.93383 7.76038C6.77758 8.39191 6.67993 9.08197 6.64737 9.81769ZM13.3528 9.81769H15.5924C15.5013 8.79553 15.1302 7.8385 14.5572 7.04425C14.1731 7.33069 13.6653 7.57159 13.0729 7.76038C13.2226 8.39191 13.3268 9.08203 13.3528 9.81769ZM12.3765 9.81769H10.482V8.19006C11.0549 8.16406 11.6083 8.10547 12.1161 8.00128C12.2528 8.56769 12.344 9.17969 12.3765 9.81769ZM7.62365 9.81769H9.52469V8.19006C8.95178 8.16406 8.39839 8.10547 7.88407 8.00128C7.74735 8.56769 7.6562 9.17969 7.62365 9.81769ZM5.46248 13.5807C4.87654 12.7734 4.49894 11.8164 4.40779 10.7747H6.64737C6.67993 11.5234 6.77758 12.2266 6.93383 12.8646C6.3479 13.0533 5.84659 13.2943 5.46248 13.5807ZM7.62365 10.7747C7.6562 11.4258 7.74735 12.0508 7.89058 12.6237C8.39839 12.526 8.95178 12.4609 9.52469 12.4414V10.7747H7.62365ZM12.1096 12.6237C11.6018 12.526 11.0549 12.4609 10.482 12.4414V10.7747H12.3765C12.3505 11.4258 12.2528 12.0508 12.1096 12.6237ZM13.0667 12.8646C13.6592 13.0533 14.1605 13.2943 14.5446 13.5807C15.124 12.7734 15.5081 11.8164 15.5928 10.7747H13.3532C13.3271 11.5234 13.2295 12.2266 13.0667 12.8646ZM9.52498 15.3972C8.99763 15.1302 8.52237 14.4466 8.17732 13.5352C8.59399 13.4636 9.04321 13.418 9.52498 13.3984V15.3972ZM10.482 13.3984V15.3972C11.0028 15.1302 11.4846 14.4466 11.8297 13.5352C11.4065 13.4636 10.9573 13.418 10.482 13.3984ZM8.36621 15.6641C7.49381 15.3972 6.71256 14.9219 6.07454 14.2969C6.38704 14.082 6.77115 13.9062 7.21386 13.7695C7.50683 14.5573 7.90397 15.2083 8.36621 15.6641ZM12.7933 13.7695C12.4938 14.5573 12.1032 15.2083 11.6409 15.6641C12.5068 15.3972 13.2881 14.9219 13.9261 14.2969C13.6201 14.082 13.236 13.9062 12.7933 13.7695Z" fill="black" fill-opacity="0.4"/>
</svg>
