<?xml version="1.0" standalone="no"?>
<!DOCTYPE svg PUBLIC "-//W3C//DTD SVG 20010904//EN"
 "http://www.w3.org/TR/2001/REC-SVG-20010904/DTD/svg10.dtd">
<svg version="1.0" xmlns="http://www.w3.org/2000/svg"
 width="700.000000pt" height="700.000000pt" viewBox="0 0 700.000000 700.000000"
 preserveAspectRatio="xMidYMid meet">
<metadata>
Created by potrace 1.14, written by Peter Selinger 2001-2017
</metadata>
<g transform="translate(0.000000,700.000000) scale(0.100000,-0.100000)"
fill="#000000" stroke="none">
<path d="M3285 6993 c-260 -21 -449 -50 -651 -102 -774 -196 -1453 -648 -1933
-1288 -140 -187 -217 -310 -326 -528 -264 -523 -391 -1093 -372 -1675 18 -526
131 -985 357 -1445 239 -486 579 -903 1005 -1230 963 -741 2247 -928 3393
-493 163 62 456 207 600 298 802 503 1374 1323 1566 2245 120 580 97 1152 -71
1730 -53 182 -116 341 -213 540 -247 503 -596 924 -1045 1260 -183 137 -308
214 -520 320 -420 212 -840 328 -1319 365 -119 9 -376 11 -471 3z m-136 -1434
c162 -37 287 -161 336 -334 15 -54 790 -1987 820 -2044 11 -22 31 22 235 535
122 307 231 577 242 599 51 100 144 179 254 215 54 18 83 22 162 18 83 -3 107
-8 165 -35 178 -84 287 -282 257 -471 -7 -42 -142 -393 -421 -1095 -226 -568
-424 -1070 -441 -1117 -35 -101 -74 -164 -132 -218 -116 -107 -269 -146 -419
-107 -79 21 -131 49 -190 103 -66 62 -103 121 -132 215 -14 42 -144 371 -289
730 -145 358 -326 805 -401 992 -75 187 -140 343 -143 347 -4 4 -200 -478
-435 -1070 -289 -728 -439 -1092 -461 -1122 -49 -67 -111 -119 -185 -154 -62
-29 -73 -31 -181 -31 -109 0 -119 2 -183 32 -184 87 -292 284 -259 472 8 47
198 538 625 1612 338 849 620 1562 627 1584 20 62 66 151 101 195 98 121 291
186 448 149z"/>
</g>
</svg>
